<svg id="visual" viewBox="0 0 900 100" width="900" height="100" xmlns="http://www.w3.org/2000/svg" xmlns:xlink="http://www.w3.org/1999/xlink" version="1.1"><rect x="0" y="0" width="900" height="100" fill="#7A1CAC"></rect><path d="M0 64L18.8 63C37.7 62 75.3 60 112.8 63C150.3 66 187.7 74 225.2 76C262.7 78 300.3 74 337.8 75.3C375.3 76.7 412.7 83.3 450.2 84.3C487.7 85.3 525.3 80.7 562.8 79.5C600.3 78.3 637.7 80.7 675.2 82.5C712.7 84.3 750.3 85.7 787.8 81.7C825.3 77.7 862.7 68.3 881.3 63.7L900 59L900 101L881.3 101C862.7 101 825.3 101 787.8 101C750.3 101 712.7 101 675.2 101C637.7 101 600.3 101 562.8 101C525.3 101 487.7 101 450.2 101C412.7 101 375.3 101 337.8 101C300.3 101 262.7 101 225.2 101C187.7 101 150.3 101 112.8 101C75.3 101 37.7 101 18.8 101L0 101Z" fill="#F6F5F2" stroke-linecap="round" stroke-linejoin="miter"></path></svg>