<svg id="visual" viewBox="0 0 900 30" width="900" height="30" xmlns="http://www.w3.org/2000/svg" xmlns:xlink="http://www.w3.org/1999/xlink" version="1.1"><rect x="0" y="0" width="900" height="30" fill="#F6F5F2"></rect><path d="M0 18L10 18.7C20 19.3 40 20.7 60 20.8C80 21 100 20 120 19.3C140 18.7 160 18.3 180 18.3C200 18.3 220 18.7 240 19.5C260 20.3 280 21.7 300 22.5C320 23.3 340 23.7 360 22.8C380 22 400 20 420 19.7C440 19.3 460 20.7 480 21.5C500 22.3 520 22.7 540 22.7C560 22.7 580 22.3 600 21.5C620 20.7 640 19.3 660 19.8C680 20.3 700 22.7 720 23.5C740 24.3 760 23.7 780 23.5C800 23.3 820 23.7 840 23.8C860 24 880 24 890 24L900 24L900 31L890 31C880 31 860 31 840 31C820 31 800 31 780 31C760 31 740 31 720 31C700 31 680 31 660 31C640 31 620 31 600 31C580 31 560 31 540 31C520 31 500 31 480 31C460 31 440 31 420 31C400 31 380 31 360 31C340 31 320 31 300 31C280 31 260 31 240 31C220 31 200 31 180 31C160 31 140 31 120 31C100 31 80 31 60 31C40 31 20 31 10 31L0 31Z" fill="#DFCCFB" stroke-linecap="round" stroke-linejoin="miter"></path></svg>