<svg id="visual" viewBox="0 0 990 150" width="990" height="150" xmlns="http://www.w3.org/2000/svg" xmlns:xlink="http://www.w3.org/1999/xlink" version="1.1"><rect x="0" y="0" width="990" height="150" fill="#DFCCFB"></rect><path d="M0 35L20.7 39.3C41.3 43.7 82.7 52.3 124 55.8C165.3 59.3 206.7 57.7 247.8 56.2C289 54.7 330 53.3 371.2 49.5C412.3 45.7 453.7 39.3 495 40.8C536.3 42.3 577.7 51.7 619 55.8C660.3 60 701.7 59 742.8 63.7C784 68.3 825 78.7 866.2 77.8C907.3 77 948.7 65 969.3 59L990 53L990 151L969.3 151C948.7 151 907.3 151 866.2 151C825 151 784 151 742.8 151C701.7 151 660.3 151 619 151C577.7 151 536.3 151 495 151C453.7 151 412.3 151 371.2 151C330 151 289 151 247.8 151C206.7 151 165.3 151 124 151C82.7 151 41.3 151 20.7 151L0 151Z" fill="#ad49e1"></path><path d="M0 72L20.7 70.3C41.3 68.7 82.7 65.3 124 60.8C165.3 56.3 206.7 50.7 247.8 52.7C289 54.7 330 64.3 371.2 71.7C412.3 79 453.7 84 495 81.2C536.3 78.3 577.7 67.7 619 69.3C660.3 71 701.7 85 742.8 82.5C784 80 825 61 866.2 57.2C907.3 53.3 948.7 64.7 969.3 70.3L990 76L990 151L969.3 151C948.7 151 907.3 151 866.2 151C825 151 784 151 742.8 151C701.7 151 660.3 151 619 151C577.7 151 536.3 151 495 151C453.7 151 412.3 151 371.2 151C330 151 289 151 247.8 151C206.7 151 165.3 151 124 151C82.7 151 41.3 151 20.7 151L0 151Z" fill="#a03ed3"></path><path d="M0 107L20.7 105.5C41.3 104 82.7 101 124 93.5C165.3 86 206.7 74 247.8 75C289 76 330 90 371.2 93C412.3 96 453.7 88 495 84.7C536.3 81.3 577.7 82.7 619 80.8C660.3 79 701.7 74 742.8 74.7C784 75.3 825 81.7 866.2 84.2C907.3 86.7 948.7 85.3 969.3 84.7L990 84L990 151L969.3 151C948.7 151 907.3 151 866.2 151C825 151 784 151 742.8 151C701.7 151 660.3 151 619 151C577.7 151 536.3 151 495 151C453.7 151 412.3 151 371.2 151C330 151 289 151 247.8 151C206.7 151 165.3 151 124 151C82.7 151 41.3 151 20.7 151L0 151Z" fill="#9333c6"></path><path d="M0 95L20.7 98.7C41.3 102.3 82.7 109.7 124 111.8C165.3 114 206.7 111 247.8 107C289 103 330 98 371.2 94.2C412.3 90.3 453.7 87.7 495 92.7C536.3 97.7 577.7 110.3 619 115.3C660.3 120.3 701.7 117.7 742.8 112.8C784 108 825 101 866.2 103C907.3 105 948.7 116 969.3 121.5L990 127L990 151L969.3 151C948.7 151 907.3 151 866.2 151C825 151 784 151 742.8 151C701.7 151 660.3 151 619 151C577.7 151 536.3 151 495 151C453.7 151 412.3 151 371.2 151C330 151 289 151 247.8 151C206.7 151 165.3 151 124 151C82.7 151 41.3 151 20.7 151L0 151Z" fill="#8628b9"></path><path d="M0 132L20.7 127.8C41.3 123.7 82.7 115.3 124 112.5C165.3 109.7 206.7 112.3 247.8 112.5C289 112.7 330 110.3 371.2 110.8C412.3 111.3 453.7 114.7 495 116.8C536.3 119 577.7 120 619 120.7C660.3 121.3 701.7 121.7 742.8 122.2C784 122.7 825 123.3 866.2 126.2C907.3 129 948.7 134 969.3 136.5L990 139L990 151L969.3 151C948.7 151 907.3 151 866.2 151C825 151 784 151 742.8 151C701.7 151 660.3 151 619 151C577.7 151 536.3 151 495 151C453.7 151 412.3 151 371.2 151C330 151 289 151 247.8 151C206.7 151 165.3 151 124 151C82.7 151 41.3 151 20.7 151L0 151Z" fill="#7a1cac"></path></svg>