<svg id="visual" viewBox="0 0 900 300" width="900" height="300" xmlns="http://www.w3.org/2000/svg" xmlns:xlink="http://www.w3.org/1999/xlink" version="1.1"><rect x="0" y="0" width="900" height="300" fill="#DFCCFB"></rect><path d="M0 149L11.5 149C23 149 46 149 69 157.7C92 166.3 115 183.7 138.2 188.7C161.3 193.7 184.7 186.3 207.8 183.8C231 181.3 254 183.7 277 182C300 180.3 323 174.7 346 176.8C369 179 392 189 415.2 187C438.3 185 461.7 171 484.8 162.8C508 154.7 531 152.3 554 159.5C577 166.7 600 183.3 623 188.7C646 194 669 188 692.2 181.2C715.3 174.3 738.7 166.7 761.8 167.7C785 168.7 808 178.3 831 180.3C854 182.3 877 176.7 888.5 173.8L900 171L900 301L888.5 301C877 301 854 301 831 301C808 301 785 301 761.8 301C738.7 301 715.3 301 692.2 301C669 301 646 301 623 301C600 301 577 301 554 301C531 301 508 301 484.8 301C461.7 301 438.3 301 415.2 301C392 301 369 301 346 301C323 301 300 301 277 301C254 301 231 301 207.8 301C184.7 301 161.3 301 138.2 301C115 301 92 301 69 301C46 301 23 301 11.5 301L0 301Z" fill="#ad49e1"></path><path d="M0 226L11.5 226.7C23 227.3 46 228.7 69 226.2C92 223.7 115 217.3 138.2 210.3C161.3 203.3 184.7 195.7 207.8 191.7C231 187.7 254 187.3 277 190.3C300 193.3 323 199.7 346 204.7C369 209.7 392 213.3 415.2 211.5C438.3 209.7 461.7 202.3 484.8 199C508 195.7 531 196.3 554 199C577 201.7 600 206.3 623 205.8C646 205.3 669 199.7 692.2 199.7C715.3 199.7 738.7 205.3 761.8 208C785 210.7 808 210.3 831 213.2C854 216 877 222 888.5 225L900 228L900 301L888.5 301C877 301 854 301 831 301C808 301 785 301 761.8 301C738.7 301 715.3 301 692.2 301C669 301 646 301 623 301C600 301 577 301 554 301C531 301 508 301 484.8 301C461.7 301 438.3 301 415.2 301C392 301 369 301 346 301C323 301 300 301 277 301C254 301 231 301 207.8 301C184.7 301 161.3 301 138.2 301C115 301 92 301 69 301C46 301 23 301 11.5 301L0 301Z" fill="#9c3acf"></path><path d="M0 247L11.5 242C23 237 46 227 69 224C92 221 115 225 138.2 227.3C161.3 229.7 184.7 230.3 207.8 232.8C231 235.3 254 239.7 277 242.3C300 245 323 246 346 245.5C369 245 392 243 415.2 238.3C438.3 233.7 461.7 226.3 484.8 225.3C508 224.3 531 229.7 554 230.3C577 231 600 227 623 226.5C646 226 669 229 692.2 229.8C715.3 230.7 738.7 229.3 761.8 231.2C785 233 808 238 831 242C854 246 877 249 888.5 250.5L900 252L900 301L888.5 301C877 301 854 301 831 301C808 301 785 301 761.8 301C738.7 301 715.3 301 692.2 301C669 301 646 301 623 301C600 301 577 301 554 301C531 301 508 301 484.8 301C461.7 301 438.3 301 415.2 301C392 301 369 301 346 301C323 301 300 301 277 301C254 301 231 301 207.8 301C184.7 301 161.3 301 138.2 301C115 301 92 301 69 301C46 301 23 301 11.5 301L0 301Z" fill="#8b2cbd"></path><path d="M0 278L11.5 275.7C23 273.3 46 268.7 69 265.3C92 262 115 260 138.2 259.3C161.3 258.7 184.7 259.3 207.8 259C231 258.7 254 257.3 277 255.8C300 254.3 323 252.7 346 254.3C369 256 392 261 415.2 260.5C438.3 260 461.7 254 484.8 256.3C508 258.7 531 269.3 554 271.3C577 273.3 600 266.7 623 263.7C646 260.7 669 261.3 692.2 264.2C715.3 267 738.7 272 761.8 269.5C785 267 808 257 831 253.3C854 249.7 877 252.3 888.5 253.7L900 255L900 301L888.5 301C877 301 854 301 831 301C808 301 785 301 761.8 301C738.7 301 715.3 301 692.2 301C669 301 646 301 623 301C600 301 577 301 554 301C531 301 508 301 484.8 301C461.7 301 438.3 301 415.2 301C392 301 369 301 346 301C323 301 300 301 277 301C254 301 231 301 207.8 301C184.7 301 161.3 301 138.2 301C115 301 92 301 69 301C46 301 23 301 11.5 301L0 301Z" fill="#7a1cac"></path></svg>