<svg xmlns="http://www.w3.org/2000/svg" viewBox="0 0 500 500"><g id="freepik--background-complete--inject-169"><path d="M71.36,31.64c43.43-.67,91.71-.65,135.16,0-43.46.65-91.72.66-135.16,0Z" style="fill:#ebebeb"></path><path d="M56.06,50c44.74-.66,94.49-.65,139.26,0-44.78.65-94.51.67-139.26,0Z" style="fill:#ebebeb"></path><path d="M85.35,31.64a81.24,81.24,0,0,1,0,18.31,81.83,81.83,0,0,1,0-18.31Z" style="fill:#ebebeb"></path><path d="M153.53,31.64a81.83,81.83,0,0,1,0,18.31,81.24,81.24,0,0,1,0-18.31Z" style="fill:#ebebeb"></path><path d="M119.44,49.87a81.92,81.92,0,0,1,0,18.32,81.92,81.92,0,0,1,0-18.32Z" style="fill:#ebebeb"></path><path d="M368.78,31.64c21.7-.67,43.56-.67,65.27,0-21.72.67-43.56.67-65.27,0Z" style="fill:#ebebeb"></path><path d="M346.34,50c31.59-.66,66.71-.65,98.32,0-31.62.65-66.73.67-98.32,0Z" style="fill:#ebebeb"></path><path d="M402.86,31.64a81.24,81.24,0,0,1,0,18.31,81.83,81.83,0,0,1,0-18.31Z" style="fill:#ebebeb"></path><path d="M368.78,49.87a81.92,81.92,0,0,1,0,18.32,81.33,81.33,0,0,1,0-18.32Z" style="fill:#ebebeb"></path><path d="M118.62,376.23c43.42-.66,91.7-.65,135.16,0-43.47.65-91.73.67-135.16,0Z" style="fill:#ebebeb"></path><path d="M86.21,394.55c44.74-.67,94.49-.65,139.26,0-44.78.64-94.51.66-139.26,0Z" style="fill:#ebebeb"></path><path d="M248.36,358c27.91-.66,58.8-.66,86.72,0-27.92.66-58.8.66-86.72,0Z" style="fill:#ebebeb"></path><path d="M279.05,376.23c27.91-.66,58.79-.66,86.71,0-27.92.66-58.8.66-86.71,0Z" style="fill:#ebebeb"></path><path d="M153.56,376.23a81.92,81.92,0,0,1,0,18.32,81.33,81.33,0,0,1,0-18.32Z" style="fill:#ebebeb"></path><path d="M221.76,376.23a81.92,81.92,0,0,1,0,18.32,81.33,81.33,0,0,1,0-18.32Z" style="fill:#ebebeb"></path><path d="M290,376.23a81.92,81.92,0,0,1,0,18.32,81.33,81.33,0,0,1,0-18.32Z" style="fill:#ebebeb"></path><path d="M358.16,376.23a81.92,81.92,0,0,1,0,18.32,81.33,81.33,0,0,1,0-18.32Z" style="fill:#ebebeb"></path><path d="M119.44,394.47a81.83,81.83,0,0,1,0,18.31,81.83,81.83,0,0,1,0-18.31Z" style="fill:#ebebeb"></path><path d="M187.75,394.47a81.24,81.24,0,0,1,0,18.31,81.83,81.83,0,0,1,0-18.31Z" style="fill:#ebebeb"></path><path d="M324.38,357.53a81.92,81.92,0,0,1,0,18.32,80.75,80.75,0,0,1,0-18.32Z" style="fill:#ebebeb"></path><path d="M248.36,200.28c27.91-.66,58.8-.66,86.72,0-27.92.66-58.8.66-86.72,0Z" style="fill:#ebebeb"></path><path d="M279.05,218.47c27.91-.66,58.79-.66,86.71,0-27.92.65-58.8.65-86.71,0Z" style="fill:#ebebeb"></path><path d="M290,218.47a81.83,81.83,0,0,1,0,18.31,81.24,81.24,0,0,1,0-18.31Z" style="fill:#ebebeb"></path><path d="M358.16,218.47a81.83,81.83,0,0,1,0,18.31,81.24,81.24,0,0,1,0-18.31Z" style="fill:#ebebeb"></path><path d="M324.38,199.77a81.83,81.83,0,0,1,0,18.31,80.66,80.66,0,0,1,0-18.31Z" style="fill:#ebebeb"></path><path d="M124.37,128.93c44.75-.66,94.49-.64,139.26,0-44.78.65-94.5.67-139.26,0Z" style="fill:#ebebeb"></path><path d="M172.58,147.25c30.07-.67,63.51-.65,93.6,0-30.1.65-63.52.66-93.6,0Z" style="fill:#ebebeb"></path><path d="M221.84,110.62a81.83,81.83,0,0,1,0,18.31,81.24,81.24,0,0,1,0-18.31Z" style="fill:#ebebeb"></path><path d="M187.75,128.93a81.33,81.33,0,0,1,0,18.32,81.92,81.92,0,0,1,0-18.32Z" style="fill:#ebebeb"></path><path d="M345.94,128.93c31.85-.66,67.25-.64,99.12,0-31.88.65-67.27.67-99.12,0Z" style="fill:#ebebeb"></path><path d="M354,147.25c23.33-.67,46.81-.67,70.15,0-23.34.67-46.82.67-70.15,0Z" style="fill:#ebebeb"></path><path d="M403.26,147a81.92,81.92,0,0,1,0,18.32,81.33,81.33,0,0,1,0-18.32Z" style="fill:#ebebeb"></path><path d="M369.17,128.93a81.33,81.33,0,0,1,0,18.32,81.92,81.92,0,0,1,0-18.32Z" style="fill:#ebebeb"></path><path d="M255.92,128.93a81.33,81.33,0,0,1,0,18.32,81.92,81.92,0,0,1,0-18.32Z" style="fill:#ebebeb"></path><path d="M103.34,200.26c19.26-.67,38.66-.67,57.93,0-19.27.67-38.67.67-57.93,0Z" style="fill:#ebebeb"></path><path d="M89.79,218.57c30.07-.66,63.5-.65,93.59,0-30.1.65-63.52.67-93.59,0Z" style="fill:#ebebeb"></path><path d="M119.47,181.94a81.92,81.92,0,0,1,0,18.32,81.92,81.92,0,0,1,0-18.32Z" style="fill:#ebebeb"></path><path d="M153.56,200.26a81.83,81.83,0,0,1,0,18.31,81.24,81.24,0,0,1,0-18.31Z" style="fill:#ebebeb"></path><path d="M57.42,42.07V269.64H182.59V42.07ZM176.91,264H63.09V47.75H176.91Z" style="fill:#ebebeb"></path><rect x="63.09" y="47.75" width="113.82" height="216.21" style="fill:#fff"></rect><rect x="63.09" y="157.57" width="113.82" height="5.67" transform="translate(240 320.81) rotate(180)" style="fill:#ebebeb"></rect><rect x="46.96" y="269.64" width="146.07" height="16.29" transform="translate(240 555.56) rotate(180)" style="fill:#dbdbdb"></rect><path d="M63.09,47.74H176.91V193.52H63.09ZM171.65,53H68.35V188.27h103.3Z" style="fill:#dbdbdb"></path><rect x="138.15" y="47.74" width="2.84" height="140.53" style="fill:#dbdbdb"></rect><rect x="99.01" y="47.74" width="2.84" height="140.53" style="fill:#dbdbdb"></rect><path d="M317.42,42.07V269.64H442.59V42.07ZM436.91,264H323.1V47.75H436.91Z" style="fill:#ebebeb"></path><rect x="323.1" y="47.75" width="113.82" height="216.21" style="fill:#fff"></rect><rect x="323.09" y="157.57" width="113.82" height="5.67" transform="translate(760 320.81) rotate(180)" style="fill:#ebebeb"></rect><rect x="306.97" y="269.64" width="146.07" height="16.29" transform="translate(760 555.56) rotate(180)" style="fill:#dbdbdb"></rect><path d="M323.09,47.74H436.91V193.52H323.09ZM431.65,53H328.35V188.27h103.3Z" style="fill:#dbdbdb"></path><rect x="398.15" y="47.74" width="2.84" height="140.53" style="fill:#dbdbdb"></rect><rect x="359.01" y="47.74" width="2.84" height="140.53" style="fill:#dbdbdb"></rect></g><g id="freepik--Notebook--inject-169"><rect x="205.78" y="71.23" width="248.47" height="385.7" transform="translate(660.02 528.17) rotate(180)" style="fill:#B82362"></rect><polygon points="424 456.94 441.97 456.94 454.25 71.23 436.28 71.23 424 456.94" style="fill:#dbdbdb"></polygon><polygon points="175.54 456.94 424 456.94 436.28 71.23 187.81 71.23 175.54 456.94" style="fill:#fff"></polygon><path d="M175.54,456.94c-.15.06,249.75-.68,248.17,0L435.78,71.22l.5.51c.17,0-250.07.33-248.1-.48L175.54,456.94Zm0,0c-.1-.21,12-385.84,11.91-386.07.15-.24,248.6,0,248.83-.14h.51v.51c.11.09-12.57,385.88-12.49,386-.22.19-248.5-.43-248.75-.29Z" style="fill:#263238"></path><path d="M419.77,84.39a2.92,2.92,0,0,0,2.93,3,3.17,3.17,0,0,0,3.15-3,2.92,2.92,0,0,0-2.93-3A3.17,3.17,0,0,0,419.77,84.39Z" style="fill:#263238"></path><path d="M415.75,71.24c-.62,5.16,1.1,10.47,5.51,13.38,1.91,1.31,3.91-1.89,2-3.13a9.93,9.93,0,0,1-4-8.44,13.85,13.85,0,0,1,.17-1.81A14.05,14.05,0,0,1,421.65,65a5.25,5.25,0,0,1,4.23-2.61,4.12,4.12,0,0,1,3.43,2.5,15.45,15.45,0,0,1,1.28,6.36h3.68a18.7,18.7,0,0,0-.86-6.33c-1.16-3.34-3.52-6.11-7.33-6.25-3.45-.07-6.29,2.4-8,5.24A16.82,16.82,0,0,0,415.75,71.24Z" style="fill:#455a64"></path><path d="M399.47,84.39a2.91,2.91,0,0,0,2.93,3,3.17,3.17,0,0,0,3.14-3,2.91,2.91,0,0,0-2.93-3A3.16,3.16,0,0,0,399.47,84.39Z" style="fill:#263238"></path><path d="M395.45,71.24c-.63,5.16,1.09,10.47,5.5,13.38,1.92,1.31,3.92-1.89,2-3.13a9.9,9.9,0,0,1-4-8.44,15.8,15.8,0,0,1,.16-1.81A14.19,14.19,0,0,1,401.35,65a5.22,5.22,0,0,1,4.23-2.61,4.13,4.13,0,0,1,3.43,2.5,15.63,15.63,0,0,1,1.28,6.36H414a18.22,18.22,0,0,0-.86-6.33c-1.15-3.34-3.51-6.11-7.33-6.25-3.44-.07-6.29,2.4-8,5.24A16.82,16.82,0,0,0,395.45,71.24Z" style="fill:#455a64"></path><path d="M379.16,84.39a2.92,2.92,0,0,0,2.93,3,3.17,3.17,0,0,0,3.15-3,2.92,2.92,0,0,0-2.93-3A3.17,3.17,0,0,0,379.16,84.39Z" style="fill:#263238"></path><path d="M375.14,71.24c-.62,5.16,1.1,10.47,5.51,13.38,1.91,1.31,3.91-1.89,2-3.13a9.93,9.93,0,0,1-4-8.44,13.85,13.85,0,0,1,.17-1.81A14.05,14.05,0,0,1,381,65a5.25,5.25,0,0,1,4.23-2.61,4.12,4.12,0,0,1,3.43,2.5A15.28,15.28,0,0,1,390,71.23h3.68a18.7,18.7,0,0,0-.86-6.33c-1.16-3.34-3.52-6.11-7.33-6.25-3.45-.07-6.29,2.4-8,5.24A16.82,16.82,0,0,0,375.14,71.24Z" style="fill:#455a64"></path><path d="M358.86,84.39a2.91,2.91,0,0,0,2.93,3,3.17,3.17,0,0,0,3.14-3,2.91,2.91,0,0,0-2.93-3A3.16,3.16,0,0,0,358.86,84.39Z" style="fill:#263238"></path><path d="M354.84,71.24c-.63,5.16,1.09,10.47,5.5,13.38,1.92,1.31,3.92-1.89,2-3.13a9.9,9.9,0,0,1-4-8.44,15.8,15.8,0,0,1,.16-1.81A14.19,14.19,0,0,1,360.74,65,5.22,5.22,0,0,1,365,62.37a4.13,4.13,0,0,1,3.43,2.5,15.63,15.63,0,0,1,1.28,6.36h3.67a18.22,18.22,0,0,0-.86-6.33c-1.15-3.34-3.51-6.11-7.32-6.25-3.45-.07-6.3,2.4-8,5.24A16.82,16.82,0,0,0,354.84,71.24Z" style="fill:#455a64"></path><path d="M338.55,84.39a2.92,2.92,0,0,0,2.93,3,3.17,3.17,0,0,0,3.15-3,2.92,2.92,0,0,0-2.93-3A3.17,3.17,0,0,0,338.55,84.39Z" style="fill:#263238"></path><path d="M334.53,71.24c-.62,5.16,1.1,10.47,5.51,13.38,1.91,1.31,3.91-1.89,2-3.13a9.93,9.93,0,0,1-4-8.44,13.85,13.85,0,0,1,.17-1.81A14.05,14.05,0,0,1,340.43,65a5.25,5.25,0,0,1,4.23-2.61,4.12,4.12,0,0,1,3.43,2.5,15.28,15.28,0,0,1,1.28,6.36h3.68a18.7,18.7,0,0,0-.86-6.33c-1.16-3.34-3.52-6.11-7.33-6.25-3.45-.07-6.29,2.4-8,5.24A16.82,16.82,0,0,0,334.53,71.24Z" style="fill:#455a64"></path><path d="M318.25,84.39a2.91,2.91,0,0,0,2.93,3,3.17,3.17,0,0,0,3.14-3,2.91,2.91,0,0,0-2.93-3A3.16,3.16,0,0,0,318.25,84.39Z" style="fill:#263238"></path><path d="M314.23,71.24c-.63,5.16,1.09,10.47,5.5,13.38,1.92,1.31,3.92-1.89,2-3.13a9.9,9.9,0,0,1-4-8.44,15.8,15.8,0,0,1,.16-1.81A14.19,14.19,0,0,1,320.13,65a5.22,5.22,0,0,1,4.23-2.61,4.13,4.13,0,0,1,3.43,2.5,15.63,15.63,0,0,1,1.28,6.36h3.67a18.22,18.22,0,0,0-.86-6.33c-1.15-3.34-3.51-6.11-7.32-6.25-3.45-.07-6.3,2.4-8,5.24A16.82,16.82,0,0,0,314.23,71.24Z" style="fill:#455a64"></path><path d="M297.94,84.39a2.92,2.92,0,0,0,2.93,3,3.17,3.17,0,0,0,3.15-3,2.92,2.92,0,0,0-2.93-3A3.17,3.17,0,0,0,297.94,84.39Z" style="fill:#263238"></path><path d="M293.92,71.24c-.62,5.16,1.1,10.47,5.51,13.38,1.91,1.31,3.91-1.89,2-3.13a9.93,9.93,0,0,1-4-8.44,13.85,13.85,0,0,1,.17-1.81A14.05,14.05,0,0,1,299.82,65a5.25,5.25,0,0,1,4.23-2.61,4.12,4.12,0,0,1,3.43,2.5,15.28,15.28,0,0,1,1.28,6.36h3.68a18.7,18.7,0,0,0-.86-6.33c-1.16-3.34-3.52-6.11-7.33-6.25-3.45-.07-6.29,2.4-8,5.24A17,17,0,0,0,293.92,71.24Z" style="fill:#455a64"></path><path d="M277.64,84.39a2.91,2.91,0,0,0,2.93,3,3.17,3.17,0,0,0,3.14-3,2.91,2.91,0,0,0-2.93-3A3.16,3.16,0,0,0,277.64,84.39Z" style="fill:#263238"></path><path d="M273.62,71.24c-.63,5.16,1.09,10.47,5.5,13.38,1.92,1.31,3.92-1.89,2-3.13a9.9,9.9,0,0,1-4-8.44,15.8,15.8,0,0,1,.16-1.81A14.19,14.19,0,0,1,279.52,65a5.22,5.22,0,0,1,4.23-2.61,4.13,4.13,0,0,1,3.43,2.5,15.63,15.63,0,0,1,1.28,6.36h3.67a18.22,18.22,0,0,0-.86-6.33c-1.15-3.34-3.51-6.11-7.32-6.25-3.45-.07-6.3,2.4-8,5.24A16.82,16.82,0,0,0,273.62,71.24Z" style="fill:#455a64"></path><ellipse cx="260.37" cy="84.39" rx="3.09" ry="2.98" transform="translate(15.5 206.69) rotate(-44.5)" style="fill:#263238"></ellipse><path d="M253.31,71.24c-.62,5.16,1.1,10.47,5.51,13.38,1.92,1.31,3.91-1.89,2-3.13a9.93,9.93,0,0,1-4-8.44,15.82,15.82,0,0,1,.17-1.81A14.05,14.05,0,0,1,259.21,65a5.25,5.25,0,0,1,4.24-2.61,4.12,4.12,0,0,1,3.42,2.5,15.28,15.28,0,0,1,1.28,6.36h3.68A18.7,18.7,0,0,0,271,64.9c-1.16-3.34-3.52-6.11-7.33-6.25-3.45-.07-6.29,2.4-8,5.24A16.83,16.83,0,0,0,253.31,71.24Z" style="fill:#455a64"></path><path d="M237,84.39a2.91,2.91,0,0,0,2.93,3,3.17,3.17,0,0,0,3.14-3,2.91,2.91,0,0,0-2.93-3A3.16,3.16,0,0,0,237,84.39Z" style="fill:#263238"></path><path d="M233,71.24c-.63,5.16,1.09,10.47,5.5,13.38,1.92,1.31,3.92-1.89,2-3.13a9.9,9.9,0,0,1-4-8.44,15.8,15.8,0,0,1,.16-1.81A14.19,14.19,0,0,1,238.91,65a5.22,5.22,0,0,1,4.23-2.61,4.13,4.13,0,0,1,3.43,2.5,15.63,15.63,0,0,1,1.28,6.36h3.67a18.22,18.22,0,0,0-.86-6.33c-1.15-3.34-3.51-6.11-7.32-6.25-3.45-.07-6.3,2.4-8,5.24A16.82,16.82,0,0,0,233,71.24Z" style="fill:#455a64"></path><path d="M216.72,84.39a2.92,2.92,0,0,0,2.93,3,3.17,3.17,0,0,0,3.15-3,2.92,2.92,0,0,0-2.93-3A3.17,3.17,0,0,0,216.72,84.39Z" style="fill:#263238"></path><path d="M212.7,71.24c-.62,5.16,1.1,10.47,5.51,13.38,1.92,1.31,3.91-1.89,2-3.13a9.93,9.93,0,0,1-4-8.44,15.82,15.82,0,0,1,.17-1.81A14.05,14.05,0,0,1,218.6,65a5.25,5.25,0,0,1,4.24-2.61,4.12,4.12,0,0,1,3.42,2.5,15.53,15.53,0,0,1,1.29,6.36h3.67a18.7,18.7,0,0,0-.86-6.33c-1.16-3.34-3.52-6.11-7.33-6.25-3.45-.07-6.29,2.4-8,5.24A16.83,16.83,0,0,0,212.7,71.24Z" style="fill:#455a64"></path><ellipse cx="199.46" cy="84.39" rx="3.09" ry="2.98" transform="translate(-1.96 164) rotate(-44.5)" style="fill:#263238"></ellipse><path d="M192.4,71.24c-.63,5.16,1.09,10.47,5.5,13.38,1.92,1.31,3.92-1.89,2-3.13a9.9,9.9,0,0,1-4-8.44,15.8,15.8,0,0,1,.16-1.81A14.19,14.19,0,0,1,198.3,65a5.22,5.22,0,0,1,4.23-2.61,4.13,4.13,0,0,1,3.43,2.5,15.63,15.63,0,0,1,1.28,6.36h3.67a18.22,18.22,0,0,0-.86-6.33c-1.15-3.34-3.51-6.11-7.32-6.25-3.45-.07-6.29,2.4-8,5.24A16.82,16.82,0,0,0,192.4,71.24Z" style="fill:#455a64"></path><path d="M267.87,131.35a10.38,10.38,0,0,1,10.45-10,10.11,10.11,0,0,1,6.29,2.17,1.58,1.58,0,0,1,.25,2.25,1.63,1.63,0,0,1-2.25.25,7.19,7.19,0,0,0-9.39.52,6.79,6.79,0,0,0-2.18,4.83,6.44,6.44,0,0,0,2,4.78,6.72,6.72,0,0,0,5,2,7.8,7.8,0,0,0,3.83-1.06l.08-3.8h-4a1.56,1.56,0,0,1-1.55-1.58,1.6,1.6,0,0,1,1.61-1.56h5.53a1.53,1.53,0,0,1,1.57,1.56l-.13,6.13a2.06,2.06,0,0,1-.09.47c0,.06,0,.09-.06.14v0a1.4,1.4,0,0,1-.54.67,10.45,10.45,0,0,1-6.35,2.16A9.84,9.84,0,0,1,267.87,131.35Z" style="fill:#263238"></path><path d="M306.8,124.3a10,10,0,0,1,2.65,7,10.3,10.3,0,0,1-2.95,7,9.26,9.26,0,0,1-6.69,3,9.13,9.13,0,0,1-6.74-3,9.88,9.88,0,0,1-2.6-7,10.34,10.34,0,0,1,2.9-7,9.46,9.46,0,0,1,6.86-3A8.8,8.8,0,0,1,306.8,124.3Zm-.51,7a7,7,0,0,0-1.79-4.86,5.83,5.83,0,0,0-4.34-2,6.17,6.17,0,0,0-4.54,2,7.22,7.22,0,0,0-2,4.86,6.83,6.83,0,0,0,1.79,4.83,5.94,5.94,0,0,0,4.45,2,6.14,6.14,0,0,0,4.43-2A7.26,7.26,0,0,0,306.29,131.33Z" style="fill:#263238"></path><path d="M323.61,136.74h-6.74l-1.44,3.61a1.59,1.59,0,0,1-1.46,1,1.78,1.78,0,0,1-.53-.08,1.54,1.54,0,0,1-.87-2l6.48-16.35a1.61,1.61,0,0,1,1.49-1,1.51,1.51,0,0,1,1.45,1l5.79,16.35a1.61,1.61,0,0,1-1,2,1.64,1.64,0,0,1-.53.08,1.45,1.45,0,0,1-1.39-1Zm-1.07-3.05-2.13-6-2.37,6Z" style="fill:#263238"></path><path d="M331.57,139.79l.34-16.38a1.56,1.56,0,0,1,1.56-1.52,1.52,1.52,0,0,1,1.53,1.52l-.31,14.83h7.52a1.52,1.52,0,0,1,1.49,1.55,1.6,1.6,0,0,1-1.56,1.53h-9.07A1.48,1.48,0,0,1,331.57,139.79Z" style="fill:#263238"></path><path d="M346.66,136.49a1.45,1.45,0,0,1,2-.19,8.82,8.82,0,0,0,5.26,2.13,6.11,6.11,0,0,0,3.49-1,2.56,2.56,0,0,0,1.23-2,1.56,1.56,0,0,0-.23-.89,2.42,2.42,0,0,0-.81-.83,11,11,0,0,0-3.78-1.31h-.05a14.7,14.7,0,0,1-3.56-1.08,5.79,5.79,0,0,1-2.54-2.17,4.16,4.16,0,0,1-.59-2.27,5.28,5.28,0,0,1,2.31-4.06,8.34,8.34,0,0,1,4.83-1.47,10.68,10.68,0,0,1,6,2.22,1.45,1.45,0,0,1-1.63,2.39,7.9,7.9,0,0,0-4.43-1.78,5.36,5.36,0,0,0-3.13,1,2.24,2.24,0,0,0-1.09,1.75,1.24,1.24,0,0,0,.18.77,2.5,2.5,0,0,0,.73.73,9.39,9.39,0,0,0,3.45,1.22h.05a16.56,16.56,0,0,1,3.81,1.16,6.29,6.29,0,0,1,2.72,2.31,4.34,4.34,0,0,1,.62,2.36,5.52,5.52,0,0,1-2.48,4.3,8.8,8.8,0,0,1-5.16,1.58,11.65,11.65,0,0,1-7.05-2.77A1.47,1.47,0,0,1,346.66,136.49Z" style="fill:#263238"></path><polygon points="434.03 141.86 402.98 141.6 371.93 141.45 309.82 141.32 247.69 141.44 216.63 141.6 185.56 141.86 216.61 142.13 247.66 142.28 309.77 142.4 371.89 142.28 402.96 142.12 434.03 141.86" style="fill:#dbdbdb"></polygon><polygon points="433.18 169.09 402.14 168.83 371.08 168.68 308.97 168.55 246.85 168.68 215.78 168.83 184.72 169.09 215.76 169.35 246.82 169.51 308.93 169.63 371.05 169.5 402.11 169.35 433.18 169.09" style="fill:#dbdbdb"></polygon><polygon points="432.3 196.32 401.25 196.06 370.2 195.91 308.08 195.78 245.96 195.9 214.9 196.06 183.83 196.32 214.88 196.58 245.93 196.74 308.04 196.86 370.16 196.73 401.23 196.58 432.3 196.32" style="fill:#dbdbdb"></polygon><polygon points="431.45 223.55 400.4 223.29 369.35 223.14 307.24 223.01 245.12 223.13 214.05 223.28 182.98 223.55 214.03 223.81 245.08 223.97 307.19 224.09 369.32 223.96 400.38 223.81 431.45 223.55" style="fill:#dbdbdb"></polygon><polygon points="430.57 250.78 399.53 250.52 368.48 250.37 306.36 250.24 244.24 250.36 213.18 250.51 182.11 250.78 213.16 251.04 244.21 251.19 306.32 251.32 368.44 251.19 399.51 251.04 430.57 250.78" style="fill:#dbdbdb"></polygon><polygon points="429.7 278.01 398.65 277.75 367.6 277.6 305.49 277.47 243.37 277.59 212.3 277.75 181.23 278.01 212.28 278.27 243.33 278.43 305.45 278.55 367.57 278.42 398.63 278.27 429.7 278.01" style="fill:#dbdbdb"></polygon><polygon points="428.87 305.24 397.82 304.98 366.77 304.82 304.66 304.7 242.54 304.82 211.47 304.97 180.41 305.24 211.45 305.5 242.5 305.65 304.62 305.78 366.74 305.65 397.8 305.5 428.87 305.24" style="fill:#dbdbdb"></polygon><polygon points="427.96 332.47 396.91 332.21 365.86 332.06 303.75 331.93 241.62 332.05 210.56 332.2 179.49 332.47 210.54 332.73 241.59 332.88 303.7 333.01 365.82 332.88 396.89 332.73 427.96 332.47" style="fill:#dbdbdb"></polygon><polygon points="427.1 359.7 396.06 359.44 365 359.28 302.89 359.16 240.77 359.28 209.71 359.43 178.64 359.7 209.68 359.96 240.74 360.11 302.85 360.24 364.97 360.11 396.03 359.96 427.1 359.7" style="fill:#dbdbdb"></polygon><polygon points="426.24 386.93 395.19 386.67 364.14 386.51 302.03 386.39 239.91 386.51 208.84 386.66 177.78 386.93 208.82 387.19 239.88 387.34 301.99 387.47 364.11 387.34 395.17 387.19 426.24 386.93" style="fill:#dbdbdb"></polygon><polygon points="425.37 414.16 394.32 413.89 363.27 413.74 301.15 413.62 239.03 413.74 207.97 413.89 176.9 414.16 207.95 414.42 239 414.57 301.11 414.7 363.23 414.57 394.3 414.42 425.37 414.16" style="fill:#dbdbdb"></polygon><polygon points="424.52 441.39 393.47 441.12 362.42 440.97 300.31 440.85 238.19 440.97 207.12 441.12 176.05 441.39 207.1 441.65 238.15 441.8 300.26 441.93 362.39 441.8 393.45 441.65 424.52 441.39" style="fill:#dbdbdb"></polygon><rect x="27.52" y="263.58" width="385.84" height="1" transform="translate(-49.57 477.22) rotate(-88.43)" style="fill:#B82362"></rect><path d="M252.23,190H235.1l.36-17.13h17.13Zm-16.36-.75H251.5l.33-15.63H236.2Z" style="fill:#263238"></path><rect x="265.7" y="174.54" width="134.65" height="0.75" style="fill:#263238"></rect><rect x="265.51" y="182.58" width="134.65" height="0.75" style="fill:#263238"></rect><path d="M237.52,180c.6.51,1.17,1.05,1.74,1.59s1.11,1.09,1.67,1.64c1.1,1.11,2.15,2.25,3.19,3.4l-1.91.12a77.54,77.54,0,0,1,5.38-9.09q1.49-2.17,3.16-4.25a40.94,40.94,0,0,1,3.64-4,41.69,41.69,0,0,1-2,5q-1.12,2.4-2.43,4.7a77.65,77.65,0,0,1-5.82,8.82l-1.07,1.39-.84-1.27c-.85-1.3-1.69-2.61-2.49-4-.39-.68-.79-1.35-1.17-2S237.86,180.74,237.52,180Z" style="fill:#B82362"></path><path d="M251.48,217.21H234.35l.36-17.13h17.13Zm-16.36-.75h15.63l.33-15.63H235.45Z" style="fill:#263238"></path><rect x="264.96" y="201.73" width="134.65" height="0.75" style="fill:#263238"></rect><rect x="264.76" y="209.77" width="134.65" height="0.75" style="fill:#263238"></rect><path d="M236.77,207.22c.6.51,1.17,1,1.74,1.58s1.12,1.1,1.67,1.64c1.1,1.11,2.16,2.25,3.2,3.4l-1.92.13a76.73,76.73,0,0,1,5.38-9.09q1.49-2.19,3.16-4.25a41.15,41.15,0,0,1,3.64-4,41,41,0,0,1-2,5c-.75,1.61-1.56,3.17-2.43,4.7a77.65,77.65,0,0,1-5.82,8.82l-1.07,1.4-.84-1.28c-.85-1.3-1.69-2.61-2.49-3.95-.38-.68-.79-1.34-1.17-2S237.11,207.93,236.77,207.22Z" style="fill:#B82362"></path><path d="M250.73,244.4H233.61l.36-17.13h17.12Zm-16.36-.75H250l.33-15.63H234.7Z" style="fill:#263238"></path><rect x="264.21" y="228.91" width="134.65" height="0.75" style="fill:#263238"></rect><rect x="264.01" y="236.95" width="134.65" height="0.75" style="fill:#263238"></rect><path d="M250,271.58H232.86l.36-17.12h17.13Zm-16.37-.75h15.63l.33-15.62H234Z" style="fill:#263238"></path><rect x="263.46" y="256.1" width="134.65" height="0.75" style="fill:#263238"></rect><rect x="263.27" y="264.14" width="134.65" height="0.75" style="fill:#263238"></rect><path d="M235.27,261.59c.61.51,1.18,1,1.75,1.58s1.11,1.1,1.67,1.64q1.63,1.67,3.19,3.41l-1.91.12a77.47,77.47,0,0,1,5.37-9.09c1-1.45,2-2.87,3.17-4.25a39.79,39.79,0,0,1,3.63-4,39.47,39.47,0,0,1-2,5c-.74,1.61-1.56,3.17-2.43,4.7a77.57,77.57,0,0,1-5.81,8.82l-1.08,1.4-.83-1.28c-.86-1.3-1.7-2.61-2.49-4-.39-.68-.8-1.34-1.17-2S235.62,262.3,235.27,261.59Z" style="fill:#B82362"></path><path d="M249.24,298.77H232.11l.36-17.13H249.6ZM232.88,298H248.5l.33-15.63H233.2Z" style="fill:#263238"></path><rect x="262.71" y="283.29" width="134.65" height="0.75" style="fill:#263238"></rect><rect x="262.52" y="291.32" width="134.65" height="0.75" style="fill:#263238"></rect><path d="M248.49,326H231.36l.36-17.12h17.13Zm-16.36-.75h15.63l.32-15.62H232.46Z" style="fill:#263238"></path><rect x="261.96" y="310.47" width="134.65" height="0.75" style="fill:#263238"></rect><rect x="261.77" y="318.51" width="134.65" height="0.75" style="fill:#263238"></rect><path d="M247.74,353.14H230.61L231,336H248.1Zm-16.36-.75H247l.33-15.63H231.71Z" style="fill:#263238"></path><rect x="261.21" y="337.66" width="134.65" height="0.75" style="fill:#263238"></rect><rect x="261.02" y="345.69" width="134.65" height="0.75" style="fill:#263238"></rect><path d="M233,343.14c.6.51,1.17,1.05,1.74,1.59s1.11,1.09,1.67,1.64c1.1,1.11,2.16,2.25,3.2,3.4l-1.92.12a78.37,78.37,0,0,1,5.38-9.09q1.49-2.18,3.16-4.25a40.94,40.94,0,0,1,3.64-4,41,41,0,0,1-2,5c-.75,1.61-1.56,3.17-2.43,4.7a77.65,77.65,0,0,1-5.82,8.82l-1.07,1.39-.84-1.27c-.85-1.3-1.69-2.61-2.49-4-.39-.68-.79-1.35-1.17-2S233.37,343.86,233,343.14Z" style="fill:#B82362"></path><path d="M247,380.32H229.87l.36-17.12h17.12Zm-16.36-.75h15.63l.33-15.62H231Z" style="fill:#263238"></path><rect x="260.47" y="364.84" width="134.65" height="0.75" style="fill:#263238"></rect><rect x="260.27" y="372.88" width="134.65" height="0.75" style="fill:#263238"></rect><path d="M246.25,407.51H229.12l.36-17.13H246.6Zm-16.37-.75h15.63l.33-15.63H230.21Z" style="fill:#263238"></path><rect x="259.72" y="392.03" width="134.65" height="0.75" style="fill:#263238"></rect><rect x="259.53" y="400.06" width="134.65" height="0.75" style="fill:#263238"></rect></g><g id="freepik--Plant--inject-169"><path d="M93.29,244s-25.68-3.59-19.68-34.59C73.61,209.43,102.3,215.87,93.29,244Z" style="fill:#B82362"></path><path d="M93.29,244s-25.68-3.59-19.68-34.59C73.61,209.43,102.3,215.87,93.29,244Z" style="opacity:0.1"></path><path d="M92,237.55a47.64,47.64,0,0,0-1.75-4.62c0-.2,0-.39-.07-.59,0-.42-.07-.85-.1-1.28-.07-.92-.13-1.85-.19-2.77-.11-1.85-.23-3.71-.25-5.56a.08.08,0,0,0-.16,0c0,1.86,0,3.71,0,5.57,0,.92.09,1.85.15,2.78,0,.2,0,.41,0,.61a54.15,54.15,0,0,0-5.15-8.8q-1.32-1.84-2.8-3.56c-1-1.17-2.11-2.29-3.14-3.45-.07-.07-.18,0-.11.12a45.94,45.94,0,0,1,5,6.57c.78,1.19,1.51,2.4,2.21,3.63l-.23-.09c-.31-.13-.61-.26-.92-.37-.7-.27-1.39-.54-2.1-.8l-4.13-1.53c-.08,0-.13.11,0,.14,1.36.54,2.71,1.12,4.06,1.7l2,.86,1,.41a3.07,3.07,0,0,0,.68.24c.52.93,1,1.86,1.51,2.82A67.69,67.69,0,0,1,90.6,237l.18.54a15,15,0,0,0-2.1-1L86,235.28c-1.8-.83-3.59-1.67-5.32-2.64-.08,0-.16.09-.07.14,1.76,1,3.49,2,5.26,2.94.88.48,1.77.95,2.67,1.39a8.27,8.27,0,0,0,2.42,1,30.88,30.88,0,0,1,1.68,7.29c.29,3.5.25,7,.34,10.55,0,.06.08.06.09,0,.25-3.19.4-6.41.41-9.61A27.79,27.79,0,0,0,92,237.55Z" style="fill:#263238"></path><path d="M88,219.32a30.34,30.34,0,0,0-.25,5.47c0,.05.07.05.08,0,.1-1.82.12-3.62.33-5.43C88.2,219.26,88.05,219.22,88,219.32Z" style="fill:#263238"></path><path d="M80.69,220.88a20.64,20.64,0,0,1-3.3-1.63c-.08-.05-.16.09-.07.14A12.15,12.15,0,0,0,80.65,221C80.71,221,80.76,220.9,80.69,220.88Z" style="fill:#263238"></path><path d="M94.11,293.23c0-2.84-.08-5.68-.11-8.51-.06-9.43-.13-18.85-.3-28.27q-.21-11.22-.52-22.44a.13.13,0,0,0-.07-.09l0-6.13s-.06-.08-.12-.08-.13,0-.13.08c0,2.05,0,4.09,0,6.14a.11.11,0,0,0-.05.09c-.38,13.31-.72,26.63-.8,39.94,0,2.71,0,5.42,0,8.12q-.14,13-.1,26.05c0,1.38,0,2.76,0,4.14,0,8,.08,15.89.08,23.83,0,.43.48.64,1,.66s1.19-.21,1.19-.69c0-8.76.06-17.52.06-26.28C94.13,304.27,94.15,298.75,94.11,293.23Z" style="fill:#263238"></path><path d="M83.38,284.61s-12.35-9.15-24.07-3-13.56,30-13.56,30S63,314.12,73.8,303.8C84.25,293.86,83.38,284.61,83.38,284.61Z" style="fill:#B82362"></path><path d="M86.75,285.17a14.73,14.73,0,0,0-7.15-.93,11.18,11.18,0,0,0-1.52-.15L76.34,284l-3.6-.25c-2.44-.19-4.88-.33-7.31-.58-.09,0-.11.14,0,.15,2.41.31,4.8.65,7.22.9,1.24.12,2.48.25,3.73.34l.9.09c-.37.08-.74.17-1.1.27a29.42,29.42,0,0,0-5.59,2.28c-1,.17-1.94.44-2.9.67-1.53.36-3,.75-4.57,1.15-3,.78-6,1.67-8.94,2.53a.08.08,0,0,0,.05.15c3-.73,6-1.39,8.94-2.1l4.34-1,1.14-.27a36.14,36.14,0,0,0-8.78,7.64,47.56,47.56,0,0,0-6.1,9.62c0,.09.08.17.13.08a47,47,0,0,1,7.38-9.69c0,.17-.1.33-.16.5-.23.72-.45,1.45-.68,2.18-.46,1.45-.92,2.9-1.36,4.37,0,.09.12.13.15,0,.52-1.41,1-2.82,1.52-4.24.24-.7.49-1.39.73-2.09.13-.36.25-.72.37-1.08l.12-.33a44.36,44.36,0,0,1,4.38-3.74,33.46,33.46,0,0,1,6.55-3.75l-.12.63c-.12.56-.25,1.12-.36,1.69-.25,1.17-.47,2.34-.7,3.51-.47,2.39-.75,4.81-1.2,7.2,0,.1.13.14.15,0,.55-2.4,1.27-4.77,1.8-7.18.27-1.2.54-2.41.79-3.62.12-.56.23-1.12.35-1.69.06-.31.13-.63.17-.94.22-.09.44-.2.67-.28,3.24-1.2,6.82-2.07,10.28-1.41a10.11,10.11,0,0,1,7.43,6c.11.27.53.1.47-.18C91.94,288.52,89.46,286.31,86.75,285.17Z" style="fill:#263238"></path><path d="M67.84,295.35c-.35,1.56-.69,3.13-1,4.69a34.05,34.05,0,0,0-.86,4.57c0,.06.08.06.1,0a35.66,35.66,0,0,0,1-4.6c.3-1.54.61-3.09.91-4.63A.08.08,0,0,0,67.84,295.35Z" style="fill:#263238"></path><path d="M55.9,299.33c-1.57.8-3.1,1.7-4.74,2.35-.1.05,0,.2.06.15a51.33,51.33,0,0,0,4.72-2.44A0,0,0,0,0,55.9,299.33Z" style="fill:#263238"></path><path d="M86.16,267.8s-15.09,1-22.11-9-5.45-24.16-5.45-24.16,15.85,1.92,22.15,9.07S86.16,267.8,86.16,267.8Z" style="fill:#B82362"></path><path d="M93.24,282.7c-.52-1.62-1.17-3.21-1.78-4.8s-1.21-3-1.87-4.52a95.19,95.19,0,0,0-4.53-8.89c-1.06-1.84-2.2-3.62-3.38-5.37,0-.27-.08-.54-.12-.81l-.21-1.4c-.15-1-.32-1.91-.47-2.86-.35-2.08-.78-4.15-1.11-6.24,0-.1-.18-.1-.16,0,.3,2.06.51,4.13.8,6.2.14,1,.27,2,.43,3,0,.37.11.73.17,1.1a109.06,109.06,0,0,0-7.47-9.69l-1.1-1.23c0-.12-.09-.23-.14-.35L72,246c-.22-.6-.44-1.2-.65-1.8-.43-1.18-.8-2.37-1.13-3.59,0-.1-.17-.05-.15,0,.31,1.24.63,2.47,1,3.7.18.59.37,1.17.58,1.75l.11.29c-1.93-2.1-3.94-4.13-6-6.13-.07-.07-.17,0-.1.11a108.34,108.34,0,0,1,10.69,13.1,9.17,9.17,0,0,0-1.12-.28c-1.16-.23-2.33-.39-3.5-.54-2.46-.31-4.92-.62-7.36-1-.1,0-.14.13,0,.15,2.34.46,4.65,1,7,1.52,1.09.26,2.19.47,3.3.69a21.68,21.68,0,0,1,2.65.75l.73,1c1.11,1.61,2.17,3.25,3.21,4.91l-1.54-.3c-1.16-.23-2.33-.44-3.5-.63-2.31-.38-4.61-.78-6.88-1.3a.08.08,0,0,0,0,.16c2.31.54,4.59,1.17,6.88,1.78,1.11.3,2.22.56,3.34.81l1.68.36a3.48,3.48,0,0,0,.68.12q3.3,5.37,6.19,11,1.26,2.46,2.43,5c.81,1.71,1.5,3.46,2.25,5.2C92.81,283.22,93.37,283.08,93.24,282.7Z" style="fill:#263238"></path><path d="M77.8,248c-.29-1.44-.6-2.88-.92-4.31,0-.1-.17,0-.15,0,.29,1.42.56,2.84.82,4.26a41.17,41.17,0,0,0,.86,4.23s0,0,0,0A30,30,0,0,0,77.8,248Z" style="fill:#263238"></path><path d="M69,247.59c-.7-.35-1.44-.63-2.17-.91l-1.14-.45-.59-.24a2.38,2.38,0,0,1-.63-.28c-.12-.08-.19.12-.08.14a2.6,2.6,0,0,1,.65.26l.57.26,1.1.49a22.44,22.44,0,0,0,2.23.88C69,247.77,69.07,247.63,69,247.59Z" style="fill:#263238"></path><path d="M101.61,255.94s9.14-17.07,23-19.71S147,247.89,147,247.89s-10.13,12.94-22.89,15.2S101.61,255.94,101.61,255.94Z" style="fill:#B82362"></path><path d="M134,243.88a37.16,37.16,0,0,0-10.89.13c.2-.12.41-.23.62-.33l3.08-1.59c2.13-1.11,4.29-2.29,6.52-3.19a.08.08,0,1,0-.06-.14c-2.17,1-4.43,1.86-6.61,2.86-1.09.5-2.16,1-3.22,1.59-.69.36-1.45.71-2.12,1.14a38.34,38.34,0,0,0-8.83,2.94c.58-.64,1.16-1.26,1.73-1.9,1.3-1.41,2.57-2.9,4-4.2.07-.06,0-.17-.12-.1-1.45,1.32-3,2.54-4.4,3.91-.68.67-1.34,1.36-2,2.07-.32.35-.64.72-.94,1.1A36.66,36.66,0,0,0,92.1,273.33c0,.09.12.15.15.05a42,42,0,0,1,10.22-17.29,40.07,40.07,0,0,1,18.62-10.77,40.88,40.88,0,0,1,12.85-1.17A.14.14,0,0,0,134,243.88Z" style="fill:#263238"></path><path d="M147.05,247.89s-10.14,12.95-22.9,15.2c-9.73,1.73-17.73-3.35-21-5.84l-.7-1.16s6.58-5.54,19-8.74S147.05,247.89,147.05,247.89Z" style="opacity:0.1"></path><path d="M125.88,237.79c-1,.65-2.1,1.29-3.08,2a19.49,19.49,0,0,0-2.68,2.45.09.09,0,0,0,.12.12c.92-.8,1.85-1.61,2.8-2.36a27.52,27.52,0,0,1,2.93-2.11C126.05,237.88,126,237.74,125.88,237.79Z" style="fill:#263238"></path><path d="M133.51,240.68c-.51.22-1,.4-1.56.62l-1.54.64c-.11,0-.06.22.05.18l1.55-.63c.52-.21,1-.45,1.55-.66C133.65,240.8,133.6,240.64,133.51,240.68Z" style="fill:#263238"></path><path d="M99.79,277.41s2.44,16.93,15.17,22.85,28.24,0,28.24,0S137.1,263.64,99.79,277.41Z" style="fill:#B82362"></path><path d="M134.43,289.25c-1.17-.14-2.34-.34-3.5-.55l-1.71-.32c-.29-.06-.59-.13-.9-.18-.34-.32-.68-.65-1-1a51.92,51.92,0,0,0-7.78-5.64,45.7,45.7,0,0,0-4.67-2.4l.24,0c1.4,0,2.8.11,4.19.18,2.8.13,5.59.19,8.38.37.1,0,.1-.15,0-.16-2.81-.19-5.59-.5-8.39-.74-1.36-.11-2.71-.24-4.07-.36l-2.1-.18-.54-.06c-.72-.27-1.45-.53-2.19-.75a19.79,19.79,0,0,0-10.78-.6c-3.21.82-6.4,2.92-7.23,6.29,0,.12.15.2.2.08,1.2-2.82,4.33-4.24,7.15-4.82a16.94,16.94,0,0,1,5.77-.12,13.51,13.51,0,0,0,.64,2.56c.35,1.19.7,2.39,1.06,3.57.72,2.38,1.52,4.74,2.22,7.12,0,.1.17,0,.15-.05-.59-2.37-1.09-4.77-1.66-7.15-.28-1.17-.58-2.33-.87-3.5a19.15,19.15,0,0,0-.64-2.41,30.62,30.62,0,0,1,3.31.78,48.57,48.57,0,0,1,5.76,2.12c.19,1.2.46,2.4.74,3.59.34,1.49.73,3,1.21,4.43a.07.07,0,0,0,.14,0l-.06-.28h0c-.29-1.39-.59-2.77-.88-4.15-.24-1.11-.46-2.23-.7-3.35,1.58.71,3.14,1.49,4.64,2.35,0,.35.12.7.17,1,.09.58.19,1.16.3,1.73.24,1.31.5,2.61.81,3.9A61,61,0,0,0,124,298a.08.08,0,0,0,0,.1l.07.08c.06.07.15,0,.13-.08-.59-2.5-1.26-5-1.81-7.51-.27-1.26-.55-2.51-.8-3.77-.13-.63-.25-1.27-.36-1.9,0-.18-.06-.37-.09-.56a50.68,50.68,0,0,1,5,3.3,53.05,53.05,0,0,1,7.59,6.93c.09.1.27-.05.19-.16-1-1.27-1.94-2.52-3-3.7-.64-.68-1.3-1.34-2-2l.21,0,1.79.27c1.18.16,2.36.28,3.54.41C134.49,289.41,134.53,289.26,134.43,289.25Z" style="fill:#263238"></path><path d="M125.49,295h0c0-.15,0-.3-.08-.44s-.12-.37-.15-.56h0c-.26-1.13-.48-2.27-.68-3.42,0-.08-.14-.05-.14,0a13.63,13.63,0,0,0,1,4.42,0,0,0,0,0,.09,0Z" style="fill:#263238"></path><path d="M114.83,294.71a.08.08,0,0,0-.07-.07c-.36-1.5-.7-3-1-4.51-.17-.79-.33-1.58-.48-2.38l-.24-1.28a4,4,0,0,0-.27-1.1.08.08,0,0,0-.15,0,7.69,7.69,0,0,0,.32,2.27c.16.83.32,1.65.5,2.47.37,1.67.79,3.34,1.26,5,0,.09.18.07.17,0Z" style="fill:#263238"></path><path d="M133.27,284.37c-2.32-.32-4.65-.65-7-.94-.1,0-.14.14,0,.16,2.32.34,4.65.63,7,.93C133.33,284.54,133.37,284.39,133.27,284.37Z" style="fill:#263238"></path><path d="M93.27,237.71s-7.79-34.17,28.92-48C122.19,189.72,132.36,234.69,93.27,237.71Z" style="fill:#B82362"></path><path d="M101.19,218.33c.14-.08.27-.17.39-.23l2.08-1.16,4.26-2.39c2.8-1.56,5.57-3.19,8.39-4.73.09,0,0-.18-.09-.13-2.82,1.54-5.7,3-8.54,4.48l-4.21,2.22-1.72.91c1.23-2.32,2.54-4.6,4-6.79,1.92-2.93,4-5.72,6.21-8.44a.13.13,0,0,0-.18-.18,58.27,58.27,0,0,0-8.49,10.41c0-.12,0-.24,0-.36,0-.85.07-1.7.08-2.55,0-1.66-.06-3.34,0-5,0-.1-.15-.1-.15,0-.07,1.64-.27,3.28-.36,4.92,0,.82-.08,1.64-.11,2.46,0,.44,0,.95,0,1.43-.75,1.2-1.48,2.42-2.17,3.66a66.78,66.78,0,0,0-3.28,6.88c0-.85-.08-1.7-.13-2.55-.11-1.87-.34-3.73-.42-5.6a.08.08,0,0,0-.16,0c0,1.87,0,3.74,0,5.62,0,.93.06,1.87.12,2.8,0,.34,0,.69.07,1a61.88,61.88,0,0,0-2.78,9.39c-.71,3.42-1,6.85-1.37,10.32,0,0,0,0,0,0a56.83,56.83,0,0,1,2-9.2c.46-1.61.94-3.22,1.45-4.81,1.53-.72,3-1.62,4.47-2.43s3.07-1.68,4.61-2.53c3.06-1.67,6.11-3.38,9.28-4.87.09,0,0-.17-.09-.13-3.2,1.45-6.42,2.83-9.57,4.4-1.56.79-3.1,1.63-4.62,2.49-1.28.72-2.59,1.44-3.81,2.26.36-1.06.73-2.12,1.14-3.17A90.85,90.85,0,0,1,101.19,218.33Z" style="fill:#263238"></path><path d="M98.1,210.52c0-.1-.17-.09-.16,0,.13,1.95.2,3.89.4,5.84a.09.09,0,0,0,.18,0C98.45,214.41,98.24,212.47,98.1,210.52Z" style="fill:#263238"></path><path d="M115.7,217.05c-2.3.92-4.62,1.8-6.9,2.76-.07,0,0,.13,0,.1,2.32-.86,4.61-1.81,6.91-2.71C115.84,217.16,115.79,217,115.7,217.05Z" style="fill:#263238"></path><path d="M119.19,201.29a59.3,59.3,0,0,0-6.53,3.5.1.1,0,0,0,.1.17c2.13-1.25,4.3-2.44,6.51-3.54C119.36,201.38,119.28,201.25,119.19,201.29Z" style="fill:#263238"></path><rect x="65.69" y="311.6" width="52.94" height="55.81" style="fill:#37474f"></rect><rect x="62.04" y="331.35" width="2.71" height="125.59" style="fill:#263238"></rect><rect x="119.28" y="331.35" width="2.71" height="125.59" style="fill:#263238"></rect><rect x="92.1" y="331.35" width="2.71" height="125.59" style="fill:#263238"></rect><rect x="63.4" y="363.83" width="57.24" height="7.73" style="fill:#263238"></rect></g><g id="freepik--Floor--inject-169"><path d="M45.75,456.94c130.86-.61,277.64-.62,408.5,0-130.86.61-277.64.61-408.5,0Z" style="fill:#263238"></path></g><g id="freepik--Character--inject-169"><path d="M51.08,458.3c2.82,1,86.43,2.67,89.57.75.37-.19,1.73-27.85,1.73-27.85-.1-.4,1.3-3.06,3.43-6.77,6-10.4,17.61-29,17.61-29l-49.61-15L93.42,421.23l-5.19,10.41s-11.4,4.46-21.34,8.9l0,0c-6.12,2.72-11.45,5.22-12.69,6.15C51,449.18,48.26,457.3,51.08,458.3Z" style="fill:#f7a9a0"></path><path d="M51.08,458.3c2.82,1,86.43,2.67,89.57.75.37-.19,1.73-27.85,1.73-27.85-.1-.4,1.3-3.06,3.43-6.77l-52.39-3.2-5.19,10.41s-11.4,4.46-21.34,8.9l0,0c-6.12,2.72-11.45,5.22-12.69,6.15C51,449.18,48.26,457.3,51.08,458.3Z" style="fill:#fff"></path><path d="M50.73,458.61c2.9,1,86.62,2.47,89.85.5,1.22-.73,2.7-13.62,1.8-27.91l-54-.86s-31.26,13.81-34.57,16.34S47.82,457.58,50.73,458.61Z" style="fill:#B82362"></path><path d="M110.64,460.06c11.91-.05,28.92-.33,29.94-.94,1.22-.74,2.71-13.62,1.8-27.92l-1.32,0Z" style="opacity:0.1"></path><path d="M52,455.28c14-.1,70.67.81,84.55,1.77.12,0,.11.09,0,.09-13.91.41-70.54-1-84.56-1.63C51.68,455.5,51.69,455.29,52,455.28Z" style="fill:#263238"></path><path d="M59.28,443.77a11.23,11.23,0,0,1,8.33,3.57,10.85,10.85,0,0,1,3,7.54c0,.09-.16.09-.17,0a13,13,0,0,0-11.18-10.94A.09.09,0,1,1,59.28,443.77Z" style="fill:#263238"></path><path d="M84,431.67c5.62,0,12.1,2.11,15.51,6.76.13.18-.13.37-.29.28a77.8,77.8,0,0,0-15.33-6.35A.35.35,0,0,1,84,431.67Z" style="fill:#263238"></path><path d="M79.62,433.28c5.61,0,12.09,2.12,15.5,6.77.14.18-.12.37-.29.28A77.5,77.5,0,0,0,79.51,434,.35.35,0,0,1,79.62,433.28Z" style="fill:#263238"></path><path d="M75.25,434.9c5.62,0,12.1,2.11,15.51,6.77.13.18-.13.36-.29.27a77.55,77.55,0,0,0-15.33-6.35A.35.35,0,0,1,75.25,434.9Z" style="fill:#263238"></path><path d="M70.89,436.52c5.61,0,12.09,2.11,15.5,6.76.14.18-.12.37-.29.28a76.87,76.87,0,0,0-15.32-6.35A.35.35,0,0,1,70.89,436.52Z" style="fill:#263238"></path><path d="M133.2,443.66c6.3.13,6.11,9.92-.2,9.79S126.89,443.53,133.2,443.66Z" style="fill:#263238"></path><path d="M78.48,424.82c3,4,7.54,6.5,11.49,9.33a.67.67,0,0,0,1-.43c.1,0,.19,0,.18-.16a29.45,29.45,0,0,0-4.85-14.45c-1.72-2.48-5.26-4.84-8.14-2.53S76.74,422.5,78.48,424.82Zm-.18-4.66c.66-6.1,6.09-1.31,7.28.56a32.32,32.32,0,0,1,2,3.83,88.82,88.82,0,0,1,3,8.37c-1.86-1.51-3.83-2.85-5.74-4.29C82.58,426.91,77.93,423.52,78.3,420.16Z" style="fill:#263238"></path><path d="M111.17,430.32c-.38-3.67-4.55-4.54-7.51-4A29.52,29.52,0,0,0,90,433a.15.15,0,0,0,0,.24.69.69,0,0,0,.41,1c4.79.83,9.81,2.31,14.71,1.64C107.94,435.49,111.53,433.8,111.17,430.32ZM97.89,434c-2.37-.35-4.7-.81-7.08-1.07a87.13,87.13,0,0,1,8.09-3.73A32.66,32.66,0,0,1,103,428c2.17-.47,9.39,0,5.51,4.79C106.39,435.36,100.71,434.43,97.89,434Z" style="fill:#263238"></path><path d="M149.58,423.89,90.72,415s28.29-56.39,45.81-87c9.74-17,36.38-17.84,49.34,2.54,17.31,27.24,30.74,52.76,38.44,66.91l13.35,1.14-2.88,21.82-44.37,9.93c-17,2-28.93-28.22-29.21-27.71C159.05,406.57,149.58,423.89,149.58,423.89Z" style="fill:#263238"></path><path d="M160.89,402.73c1.67-3.43,3-7.07,4.46-10.58s2.89-6.79,4.32-10.2c2.89-6.87,5.88-13.72,8.68-20.63,1.57-3.88,3-7.81,4.48-11.73,0-.09.19,0,.15.05q-1.69,5.55-3.55,11.07c.33-.64.65-1.27,1-1.89.94-1.69,1.92-3.36,2.9-5,0-.06.13,0,.1.06-.91,1.68-1.81,3.35-2.75,5-.46.83-1,1.64-1.47,2.46A258.27,258.27,0,0,1,167,391.49c-1.87,3.84-4.06,7.52-5.93,11.35C161,403,160.83,402.85,160.89,402.73Z" style="fill:#37474f"></path><path d="M151.05,409.5c2.59-4.12,8.78-16.6,11-20.91,4.48-8.73,8.58-17.63,12.45-26.65,2.19-5.1,4.24-10.25,6.27-15.42,0,0,.06,0,.05,0-3.05,9.31-6.68,18.43-10.62,27.37s-16.68,33.09-19,35.7C151.13,409.7,151,409.61,151.05,409.5Z" style="fill:#37474f"></path><path d="M184.81,353.85c5.07,9,10.26,18,15.35,27.1q3.87,6.85,7.7,13.72c1.19,2.16,2.36,4.35,3.6,6.48a12.21,12.21,0,0,0,4.65,4.83,36.26,36.26,0,0,0,7.38,2.57c2.87.84,5.71,1.74,8.59,2.53a.1.1,0,0,1-.06.2c-2.57-.68-5.16-1.27-7.73-1.91a67.91,67.91,0,0,1-7-1.89,11.46,11.46,0,0,1-5.2-3.59,40.68,40.68,0,0,1-3.64-6.09q-7.63-13.95-15.13-28c-2.84-5.32-5.66-10.65-8.53-15.95C184.75,353.84,184.8,353.82,184.81,353.85Z" style="fill:#37474f"></path><path d="M150.66,410.63c-3.23-.58-6.54-.84-9.79-1.25l-9.8-1.23c-6.51-.82-28.69-4.26-30.36-4.8a.11.11,0,0,1,0-.21c1.59-.06,16.11,1.82,19.36,2.28,6.52.93,13,2.06,19.48,3.13,1.85.3,3.7.64,5.55,1s3.69.71,5.55.94A.09.09,0,0,1,150.66,410.63Z" style="fill:#37474f"></path><path d="M110.05,476.76c.94-2.85,51.4-69.52,54.85-70.81.39-.17,22.95,15.89,22.95,15.89.93,1.24,43.81-7.82,43.81-7.82l.43,51.72L154,464.08s-10.55,6.21-20.2,11.26c0,0,0,0,0,0-5.94,3.13-11.2,5.77-12.7,6.16C117.14,482.5,109.09,479.6,110.05,476.76Z" style="fill:#f7a9a0"></path><path d="M121.05,481.5c1.51-.39,6.76-3,12.69-6.16,0,0,0,0,0,0,9.64-5,20.2-11.26,20.2-11.26l17.38.37,27.21-43.91c-6,1.06-10.42,1.69-10.72,1.29,0,0-22.55-16.05-22.95-15.88-3.45,1.29-53.9,68-54.85,70.81S117.14,482.51,121.05,481.5Z" style="fill:#fff"></path><path d="M109.59,476.85c1-2.92,51.68-69.56,55.22-70.88,1.34-.51,12.37,6.31,23,15.87l-32.73,42.92s-30.2,16-34.24,17S108.6,479.77,109.59,476.85Z" style="fill:#B82362"></path><path d="M113,477.92c8.77-11,43.12-56,51-67.5.07-.1,0-.14-.07-.06-8.93,10.68-42.91,56-51.06,67.42C112.62,478,112.8,478.15,113,477.92Z" style="fill:#263238"></path><path d="M126.54,479.32a11.27,11.27,0,0,0,2.36-8.75,11,11,0,0,0-4.07-7c-.07,0-.16.08-.1.14a13,13,0,0,1,1.67,15.55A.09.09,0,0,0,126.54,479.32Z" style="fill:#263238"></path><path d="M151.33,467.41c3.47-4.42,5.83-10.81,4.29-16.37-.06-.21-.37-.12-.4.06a77.87,77.87,0,0,1-4.49,16A.35.35,0,0,0,151.33,467.41Z" style="fill:#263238"></path><path d="M147.36,469.84c3.47-4.42,5.83-10.81,4.29-16.37-.06-.21-.37-.13-.4.06a77.27,77.27,0,0,1-4.5,16A.35.35,0,0,0,147.36,469.84Z" style="fill:#263238"></path><path d="M143.39,472.27c3.46-4.43,5.83-10.81,4.29-16.37-.06-.22-.37-.13-.4.06a77.45,77.45,0,0,1-4.5,16A.35.35,0,0,0,143.39,472.27Z" style="fill:#263238"></path><path d="M139.42,474.69c3.46-4.42,5.83-10.8,4.29-16.36-.06-.22-.37-.13-.4.05a77.27,77.27,0,0,1-4.5,16A.35.35,0,0,0,139.42,474.69Z" style="fill:#263238"></path><path d="M172.38,421.33c3.8-5-4-10.94-7.81-5.9S168.57,426.37,172.38,421.33Z" style="fill:#263238"></path><path d="M159.59,481.32c3.6-.84,3.93-5.08,3-8a29.35,29.35,0,0,0-8.34-12.76.14.14,0,0,0-.23,0,.68.68,0,0,0-1,.53c-.22,4.86-1.06,10,.22,14.81C154.05,478.77,156.19,482.11,159.59,481.32Zm-5.33-12.72c.05-2.39.22-4.76.18-7.16,1.62,2.5,3.34,4.91,4.71,7.56a31.48,31.48,0,0,1,1.77,3.93c.74,2.1,1.14,9.33-4.07,6.07C154,477.21,154.2,471.45,154.26,468.6Z" style="fill:#263238"></path><path d="M161.08,448.23c-3.55,3.44-5.5,8.3-7.82,12.57a.69.69,0,0,0,.56,1c0,.09.06.18.18.15a29.42,29.42,0,0,0,13.73-6.63c2.24-2,4.14-5.82,1.49-8.39S163.16,446.22,161.08,448.23Zm4.6-.76c6.14-.11,2.07,5.88.36,7.29a31.15,31.15,0,0,1-3.55,2.46c-2.54,1.56-5.25,2.74-7.93,4,1.27-2,2.35-4.16,3.54-6.23C159.52,452.56,162.3,447.53,165.68,447.47Z" style="fill:#263238"></path><path d="M209.25,402.06S294.83,387,319.18,392c33.95,6.88,40.19,47,15,62-31.91,18.95-160.42,15.28-160.42,15.28l30.7-52s47.21-9.94,90-8.49l-85.62,13.07Z" style="fill:#263238"></path><path d="M202.42,420.6a1.34,1.34,0,0,0,.07-.27c0-.07,0-.14,0-.22s.09-.33.13-.5c.1-.35.23-.68.36-1s.28-.66.43-1a8.87,8.87,0,0,1,.58-.92s.05,0,.08-.05l0,0s.05,0,.08,0l.08,0c5.19-1,40.47-6,45.72-6.61s10.59-1.09,15.89-1.54a313.29,313.29,0,0,1,31.84-1.14c1,0,2,0,3,.09.21-.07.44-.11.66-.16.51-.13,1-.25,1.53-.35,1-.19,1.92-.33,2.89-.47,2-.31,4-.52,6-.9.12,0,.17.16.05.19-2,.45-4,1-6,1.47l-1.74.37c3.89.2,7.78.5,11.67.85.12,0,.12.2,0,.2-5.29-.32-10.62-.35-15.91-.26s-10.52.2-15.77.5c-10.62.61-21.24,1.56-31.82,2.67-5.94.62-41.91,5.87-47.87,6.12h-.07a3.56,3.56,0,0,1-.17.41c-.16.32-.33.64-.5,1s-.34.6-.54.9l-.29.43-.15.21a1.14,1.14,0,0,0-.15.23C202.56,420.81,202.35,420.72,202.42,420.6Z" style="fill:#37474f"></path><path d="M192.12,467.27c1.83-3,3.39-6.13,5.07-9.19s3.37-6.13,5.06-9.2c3.36-6.11,15.46-26.66,16.65-28.1a.12.12,0,0,1,.19.12c-.57,1.59-8.11,15.2-9.85,18.23-3.48,6.07-7.13,12-10.72,18-1,1.72-2.1,3.4-3.14,5.11s-2.15,3.37-3.11,5.12C192.22,467.47,192.05,467.37,192.12,467.27Z" style="fill:#37474f"></path><path d="M221.26,421.89c2.87-.65,5.81-1.08,8.7-1.6l8.72-1.55q8.73-1.55,17.47-2.95c11.63-1.86,23.31-3.41,35.06-4.48,6.62-.6,13.27-1,19.91-1.46.14,0,.14.2,0,.21-11.82.5-23.63,2-35.35,3.63S252.6,417,241,418.87l-9.78,1.59c-3.31.54-6.62,1.22-9.95,1.62C221.18,422.09,221.13,421.92,221.26,421.89Z" style="fill:#37474f"></path><path d="M213,307.15c-12.9,8.66-58.28,40.74-60.37,57.14-1.69,13.32,11.7,17.3,20.61,11.52,12.11-7.85,35.68-35,45.75-55.11C224.52,309.58,225.65,298.64,213,307.15Z" style="fill:#f7a9a0"></path><path d="M203.4,349.29l-33.14-17.48s33.94-23.37,45.86-27.42c13.42-4.57,12.82,3.29,7,15.43S203.4,349.29,203.4,349.29Z" style="fill:#B82362"></path><path d="M170.26,331.81l33.14,17.48s13.84-17.34,19.69-29.47,6.45-20-7-15.44c-.67.24-1.43.53-2.24.88l-1,.44h0A173,173,0,0,0,196.18,315l-.34.2c-4.83,3-9.71,6.09-13.89,8.83l-1.75,1.15C174.36,329,170.26,331.81,170.26,331.81Z" style="fill:#B82362"></path><path d="M170.26,331.81l33.14,17.48s13.84-17.34,19.69-29.47,6.45-20-7-15.44c-.67.24-1.43.53-2.24.88l-1,.44h0A173,173,0,0,0,196.18,315l-.34.2c-4.83,3-9.71,6.09-13.89,8.83l-1.75,1.15C174.36,329,170.26,331.81,170.26,331.81Z" style="fill:#455a64"></path><path d="M178,328.38c1.24.43,11.65,5.71,13.89,6.91s11.43,6,13.64,7.44a.09.09,0,0,1-.08.17c-2.42-1-11.71-5.81-14-7s-12.49-6.64-13.53-7.39C177.84,328.47,177.94,328.35,178,328.38Z" style="fill:#263238"></path><path d="M194.44,344.56l9,4.73s13.84-17.34,19.69-29.47c4.31-9,5.77-15.58.85-16.61Z" style="opacity:0.1"></path><path d="M196.55,398.17l80.14,5.4s4.12-3.92,3.71-8.77c-1.48-17.89-27.21-81.44-37.92-89.4-4.79-3.56-15.24-6.62-21.29-2.46-9.41,6.46-20.48,55-26.79,82.35C192.59,393.13,196.5,398.09,196.55,398.17Z" style="fill:#ebebeb"></path><path d="M241.83,309.41a31.13,31.13,0,0,1-11.44,10.52,14.45,14.45,0,0,1-7.08,1.89,5.73,5.73,0,0,1-3.54-1.15,7.45,7.45,0,0,1-2-3.28,16.1,16.1,0,0,1-.79-4.5,39.89,39.89,0,0,1,.1-5.24c0-.07-.09-.06-.09,0-.15,1.65-.41,3.3-.44,4.95a17.33,17.33,0,0,0,.38,4.33,9.58,9.58,0,0,0,1.63,3.66,5.23,5.23,0,0,0,3.34,2,12.78,12.78,0,0,0,7.59-1.27,26.19,26.19,0,0,0,6.64-4.45,30.48,30.48,0,0,0,5.84-7.35A.08.08,0,1,0,241.83,309.41Z" style="fill:#263238"></path><path d="M240.34,302.26s-4.56,28.9-5.49,42.36-1.63,70.19-1.63,70.19,33.25,1.54,37.38.62,13.92-11,13.92-11S266,323.72,240.34,302.26Z" style="fill:#455a64"></path><path d="M221.19,302.94c-4.12,4.71-11.12,32.93-11.64,35.82l-13.21,73s-5.87-14-6.33-16.35,5.08-20.37,9.25-36.07c4.72-17.73,12-43.5,16.36-49.5C218.72,305.64,221.19,302.94,221.19,302.94Z" style="fill:#455a64"></path><path d="M257.59,317.71c21.37,28.08,44.94,67.52,37.82,77.41-7.93,11-39.31-16.25-40.11-18.15-.9-2.12-9-27.05-13.44-51.76C237,298.11,252.31,310.77,257.59,317.71Z" style="fill:#f7a9a0"></path><path d="M247.18,356.31l37.13-5s-23.83-33.62-33.63-41.52c-11-8.9-13.17-1.32-11.85,12.09S247.18,356.31,247.18,356.31Z" style="fill:#455a64"></path><path d="M278.2,345.14c-1.31,0-12.91,1.36-15.42,1.71s-12.8,1.71-15.37,2.29a.1.1,0,0,0,0,.19c2.61-.09,13-1.43,15.56-1.74s14-1.92,15.25-2.28C278.34,345.28,278.29,345.14,278.2,345.14Z" style="fill:#263238"></path><path d="M248.88,356c-1.13.07-1.83.09-1.83.09-1.06-5.13-2.47-10.39-3.75-15.47s-2.76-10.28-4.12-15.43c0-.08-.14-.05-.13,0,.59,3,1.19,5.92,1.81,8.87-.14-.36-.29-.71-.43-1.06-.5-1.26-1-2.51-1.5-3.79,0-.1-.2-.06-.17,0a30.17,30.17,0,0,0,1.26,3.91c.36.89.79,1.75,1.23,2.6.37,1.69.72,3.38,1.13,5.07,1.27,5.15,2.27,11,3.94,16a18,18,0,0,0,2.62-.64A.13.13,0,0,0,248.88,356Z" style="fill:#263238"></path><path d="M221.14,318.12c4.94,1.91,14.78-4.69,19.11-10.53.29-.41.26-5.07.48-10.73.15-3.44.4-7.26.87-10.74.11-.71-22.5,2.3-22.5,2.3a55.94,55.94,0,0,1,.27,13.63,8.43,8.43,0,0,1-.35,1.4,1.28,1.28,0,0,0-.06.23C218.14,306.33,216.37,316.27,221.14,318.12Z" style="fill:#f7a9a0"></path><path d="M219.09,288.42a61.25,61.25,0,0,1,.55,10.72c10.47,4.09,19.1-1.23,21.11-2.64.14-3.34.39-7,.85-10.37Z" style="fill:#263238"></path><path d="M208.68,282.77s1.64,5,1.67,6.87-3.39,4.82-3.39,4.82,4.94.33,6.13-.33,2.34-4.51,2.34-4.51-.44,5.77-2.18,6.55c-1.09.49,2.84-.56,2.84-.56a5.46,5.46,0,0,0,3-2.54C220,291.19,208.68,282.77,208.68,282.77Z" style="fill:#263238"></path><path d="M204.57,263.86c.17,8.15,11.13,28.25,18,31.29,9.91,4.4,22.63,1,25.49-10.16,2.76-10.78-12-36.72-19.28-39.12C218,242.34,204.31,251.82,204.57,263.86Z" style="fill:#f7a9a0"></path><path d="M211.8,282.19c3-2.85-1.41-15.63-1.41-15.63l4.08,6.15a17.71,17.71,0,0,0,1.32-7.2,13.09,13.09,0,0,0-3.08-6.58s6,2.05,11.18.88c1.89-.43,14.08-6.89,13.68-7.65-1.18-2.27-10.24-7.82-14.41-8.31-4.8-.55-11.08-.23-16.91,6.39s-5.29,12.32-4.46,16.52S210.7,283.24,211.8,282.19Z" style="fill:#263238"></path><path d="M215.36,280.62s-7.65-4.51-9.9-1.49,5.61,11,9.73,10.75a4,4,0,0,0,3.94-4.13Z" style="fill:#f7a9a0"></path><path d="M207.77,281.37a.06.06,0,0,0,0,.11c2.93-.13,5.28,1.57,7.28,3.54a2.17,2.17,0,0,0-3.21.81c-.05.07.06.14.13.1a2.42,2.42,0,0,1,2.78-.34,11.56,11.56,0,0,1,2.06,1.44c.21.16.56-.14.36-.35l-.05-.05C215.77,283.44,211.3,280.15,207.77,281.37Z" style="fill:#263238"></path><path d="M214.8,244.24a32.09,32.09,0,0,0-9.19,1.82c-3.28,1.24-12.57,7.11-13.87,10.27s2.91,12.63,3.56,14,5.5,9.13,9.45,9.53-3-13.46-.79-20.45S214.8,244.24,214.8,244.24Z" style="fill:#B82362"></path><path d="M214.8,244.24s-8.63,8.19-10.84,15.17,4.75,20.85.79,20.45c-1.74-.17-3-1.12-4.7-3-1.51-4.34-3.17-11.41-2.1-17.48,1-5.69,5.3-10.57,10.72-14.27A37.45,37.45,0,0,1,214.8,244.24Z" style="opacity:0.1"></path><path d="M209.85,287.58c-1.67-3.79-3.12-15.54-2.18-23.21s10.67-17,12.32-17.75c4-1.83,5.95-1.35,6.38-2s-5.12-1.49-6.56-1.56-5.2-.07-6.87.86-11.55,7.48-13,13.93-.22,21.74,2.44,24.42c.64.64,1.92.59,2.82,1.51,1.18,1.2,2.35,2.69,3.31,3.46C209.29,287.84,210,287.91,209.85,287.58Z" style="fill:#B82362"></path><path d="M207.24,261.38a20.79,20.79,0,0,1-3.51-.52,14.4,14.4,0,0,1-3.38-1.17c-.08,0-.15.07-.08.12a11.69,11.69,0,0,0,3.34,1.55,9.71,9.71,0,0,0,3.64.25C207.38,261.6,207.37,261.39,207.24,261.38Z" style="fill:#263238"></path><path d="M207.89,284c-.24-.21-.54-.35-.8-.54a5.57,5.57,0,0,1-.82-.72,9.11,9.11,0,0,0-1.35-1.56,7.05,7.05,0,0,0-1.5-.76,2.76,2.76,0,0,1-1.5-1.11c0-.08-.17,0-.12.06.58,1.12,1.74,1.51,2.71,2.18a13.05,13.05,0,0,1,1.51,1.64,3.15,3.15,0,0,0,1.77,1C207.89,284.16,208,284,207.89,284Z" style="fill:#263238"></path><path d="M207.06,279.33c-.56-.23-1.13-.41-1.68-.7a12.69,12.69,0,0,1-1.51-.95c-.47-.34-.92-.72-1.39-1.07s-1.16-.77-1.69-1.21c-.07-.06-.14.06-.07.11.55.46,1,1,1.56,1.49a14.83,14.83,0,0,0,1.48,1.13,9.44,9.44,0,0,0,1.56.85,4.37,4.37,0,0,0,1.73.43S207.1,279.35,207.06,279.33Z" style="fill:#263238"></path><path d="M206.51,275.06a12,12,0,0,1-3.18-1.2c-1-.54-1.9-1.14-2.83-1.75-.06,0-.15.05-.09.1a13.93,13.93,0,0,0,2.73,2.11,7,7,0,0,0,1.54.66,7.27,7.27,0,0,0,1.8.22C206.56,275.2,206.59,275.08,206.51,275.06Z" style="fill:#263238"></path><path d="M206.15,270.87a4.11,4.11,0,0,1-1.49-.46c-.53-.25-1.06-.5-1.58-.77l-1.5-.77a4.11,4.11,0,0,1-1.36-1c-.05-.06-.15,0-.12.08a4.22,4.22,0,0,0,1.18,1.2,10,10,0,0,0,1.58,1,16.88,16.88,0,0,0,1.69.73,2.71,2.71,0,0,0,1.61.18A.1.1,0,0,0,206.15,270.87Z" style="fill:#263238"></path><path d="M204.9,266c-.52-.15-1-.31-1.53-.5s-1-.41-1.47-.64-1-.46-1.52-.72c-.08,0-.15.06-.08.11a10.16,10.16,0,0,0,1.38,1,12.88,12.88,0,0,0,1.5.71,12,12,0,0,0,1.57.52,4.06,4.06,0,0,0,1.62.2.1.1,0,0,0,0-.17A7.84,7.84,0,0,0,204.9,266Z" style="fill:#263238"></path><path d="M208.94,257.82c-.6-.26-1.18-.51-1.8-.71a18.69,18.69,0,0,0-1.92-.5,17.8,17.8,0,0,0-3.85-.41c-.07,0-.11.11,0,.13,2.52.57,5,1,7.56,1.62A.07.07,0,0,0,208.94,257.82Z" style="fill:#263238"></path><path d="M209.5,253.53a8,8,0,0,0-1.86-.52,17.7,17.7,0,0,0-4-.09c-.09,0-.1.13,0,.13,1.28.13,2.56.24,3.83.44.63.1,1.26.22,1.87.38s1.18.47,1.78.67c.05,0,.1,0,.06-.09A4.73,4.73,0,0,0,209.5,253.53Z" style="fill:#263238"></path><path d="M211.79,250.49a8.5,8.5,0,0,0-1.77-.57,10.29,10.29,0,0,0-3.5-.16c-.08,0-.07.13,0,.14a20.4,20.4,0,0,1,3.48.49c.58.13,1.14.3,1.71.45a17.55,17.55,0,0,0,1.7.53c.05,0,.06-.06,0-.08A9.39,9.39,0,0,0,211.79,250.49Z" style="fill:#263238"></path><path d="M213,247.5c-.55-.11-1.1-.19-1.65-.26a5.38,5.38,0,0,0-1.65-.05.07.07,0,0,0,0,.14c1.06.2,2.12.42,3.18.65a13.25,13.25,0,0,1,2.77,1.11s.08-.05,0-.08A5.38,5.38,0,0,0,213,247.5Z" style="fill:#263238"></path><path d="M215.45,245.47a8.42,8.42,0,0,0-3.24-.24c-.07,0-.07.14,0,.14a10.21,10.21,0,0,1,3.1.5,14.56,14.56,0,0,1,2.9,1.24s.1,0,.06-.07A7,7,0,0,0,215.45,245.47Z" style="fill:#263238"></path><path d="M219.91,245.2c-.19-.14-.4-.27-.6-.39a7.45,7.45,0,0,0-1.34-.56,15.25,15.25,0,0,0-2.92-.5c-.09,0-.1.13,0,.14a11.75,11.75,0,0,1,2.81.61,9.85,9.85,0,0,1,1.29.56,5.88,5.88,0,0,1,.6.35,3.89,3.89,0,0,0,.58.35.07.07,0,0,0,.08-.09A2,2,0,0,0,219.91,245.2Z" style="fill:#263238"></path><path d="M222.21,244.24a10.69,10.69,0,0,0-1.1-.47,11.4,11.4,0,0,0-1.14-.33c-.4-.08-.81-.15-1.2-.26-.1,0-.13.12,0,.13a8,8,0,0,1,1.18.36l1.09.41,1.09.4a8.64,8.64,0,0,0,1.1.43c.06,0,.1-.06.05-.09A5,5,0,0,0,222.21,244.24Z" style="fill:#263238"></path><path d="M224.27,267.37c.55-.4,1-.86,1.51-1.31a3.33,3.33,0,0,0,1.29-1.63,1,1,0,0,0-.62-1.1,2.55,2.55,0,0,0-2.49.7,3.75,3.75,0,0,0-1.41,2.3A1.1,1.1,0,0,0,224.27,267.37Z" style="fill:#263238"></path><path d="M238,260a18.32,18.32,0,0,0-1.91.59,3.31,3.31,0,0,0-1.83,1,1,1,0,0,0,.12,1.26,2.55,2.55,0,0,0,2.56.36,3.79,3.79,0,0,0,2.22-1.53A1.1,1.1,0,0,0,238,260Z" style="fill:#263238"></path><path d="M233.84,283.57a2.26,2.26,0,0,0,1.52.26,4,4,0,0,0,1.3-1.05s.1,0,.09,0a2,2,0,0,1-1.37,1.57,1.61,1.61,0,0,1-1.65-.69C233.68,283.63,233.77,283.55,233.84,283.57Z" style="fill:#263238"></path><path d="M233.31,278.82a5.19,5.19,0,0,0,4.08.58,6.69,6.69,0,0,0,1.7-.72,1.72,1.72,0,0,0,.3-.19l.28-.19a.39.39,0,0,0,.13-.44h0a.35.35,0,0,0-.08-.13h0l-.06-.12c-.47-1.06-1.34-2.6-1.34-2.6.48,0,2.85-.05,2.55-.58-2.44-4.4-5.15-9.29-8.51-13.15-.1-.14-.31,0-.23.15,2.18,4.32,5.1,8.23,7.36,12.53a8.62,8.62,0,0,0-2.5.39c-.13.11,1.72,2.95,1.89,3.44l0,.06c-1.65,1.06-3.23,1.17-5.51.81C233.25,278.61,233.18,278.75,233.31,278.82Z" style="fill:#263238"></path><path d="M228.92,270.17s-.07.12,0,.17c.72,1.32,1.33,2.94.35,4,0,0,0,.1.05.07C230.64,273.45,229.82,271.3,228.92,270.17Z" style="fill:#263238"></path><path d="M227,269.39c-2.23.93-.2,5.32,1.86,4.46S228.89,268.61,227,269.39Z" style="fill:#263238"></path><path d="M237,266.33c0-.06.14,0,.16.07.58,1.39,1.47,2.87,2.9,2.77.05,0,.08.07,0,.08C238.53,269.72,237.36,267.73,237,266.33Z" style="fill:#263238"></path><path d="M237.62,264.35c2.12-1.16,4.28,3.17,2.31,4.24S235.84,265.32,237.62,264.35Z" style="fill:#263238"></path><path d="M165.7,375.53c-9.37,5.3-16.56-5.4-15.74-12.87,1.92-17.54,20.33-44.65,30.76-53.62,3.89-3.35,25.62,18.56,23.22,23.49C201.32,337.92,183.13,365.67,165.7,375.53Z" style="fill:#f7a9a0"></path><path d="M196.43,344.08A137.5,137.5,0,0,1,185,359.46c-4.23,4.77-8.62,9.67-14.21,12.86l1.89-1.46c8.78-7.81,16.26-17.78,23.8-26.78Z" style="fill:#263238"></path><path d="M204.59,299.75c-.64-3.37,2.61-10.06,3-14.84s-3.65-9.3-5.31-8.36-1.11,3.07-4.14,9.62c-1.94,4.21-9.46,10.65-12.14,18.75C184.65,309,205.23,303.13,204.59,299.75Z" style="fill:#f7a9a0"></path><path d="M204.59,299.75c-.64-3.37,2.61-10.06,3-14.84s-3.65-9.3-5.31-8.36-1.11,3.07-4.14,9.62c-1.94,4.21-9.46,10.65-12.14,18.75C184.65,309,205.23,303.13,204.59,299.75Z" style="fill:#f7a9a0"></path><path d="M204.59,299.75c-.64-3.37,2.61-10.06,3-14.84s-3.65-9.3-5.31-8.36-1.11,3.07-4.14,9.62c-1.94,4.21-9.46,10.65-12.14,18.75C184.65,309,205.23,303.13,204.59,299.75Z" style="opacity:0.1"></path><path d="M231.83,289.77c1.3,4.09-9.05,6.44-9.05,6.44a7.92,7.92,0,0,1,4.36,3.16c1.71,2.77-1.9,6.66-1.9,6.66a9.74,9.74,0,0,1,4.06,4.06c1.37,2.83-1.72,7.27-1.72,7.27a8.58,8.58,0,0,1,1.33,5.83c-.94,5.41-9,8-13.63,10.63-5,2.79-16.61,2.95-19.39,5.36l-16.08-28.93s17.6-19.58,23.73-21.18C208.71,287.72,229.84,283.53,231.83,289.77Z" style="fill:#f7a9a0"></path><path d="M222.66,296.12c-5.83.12-11.63,1.63-17.2,3.15a.1.1,0,0,0,0,.19c5.53-1.58,11.61-1.71,17.19-3.06A.14.14,0,0,0,222.66,296.12Z" style="fill:#263238"></path><path d="M225,305.67a14.88,14.88,0,0,0-3.86,1q-2,.66-4,1.38c-2.66,1-5.29,2-7.89,3.09-.11.05-.06.24.06.2,2.64-1,5.3-1.88,8-2.72,1.34-.43,2.69-.84,4-1.24a18.2,18.2,0,0,0,3.76-1.31A.2.2,0,0,0,225,305.67Z" style="fill:#263238"></path><path d="M227.47,317.4a10.46,10.46,0,0,0-3.42,1.06c-1.2.47-2.4.92-3.61,1.38-2.41.9-4.82,1.8-7.25,2.62a.1.1,0,1,0,.05.19c2.48-.82,5-1.6,7.45-2.44l3.64-1.26a9.89,9.89,0,0,0,3.19-1.43A.07.07,0,0,0,227.47,317.4Z" style="fill:#263238"></path><path d="M226.07,327.61c3-2.84,3.72-6.62,1.15-10l-.11-.17.12-.18c3-4.27,2.75-8.47-2.31-10.75l-.69-.26a9.34,9.34,0,0,0,2.23-2.87c1.38-2.51.15-6.17-2.87-6.54l-2.23-.32c2.66-.69,12-3.22,9.84-7.17a6,6,0,0,0-3.38-1.61c-5.27-1-10.77-.66-16.11-.28C215.8,287,231,284.9,232.24,290c.47,3.95-5.52,5.84-8.49,6.84l-.08-.92c3.78.39,5.35,4.8,3.64,7.88a9.25,9.25,0,0,1-1.94,2.63l-.16-.78c5.63,2.56,6,7.33,2.5,12v-.35c2.54,3.58,1.72,7.71-1.65,10.38Z" style="fill:#263238"></path><rect x="200.45" y="327.68" width="20.07" height="78.1" transform="matrix(-0.82, 0.58, -0.58, -0.82, 593.86, 545.11)" style="fill:#B82362"></rect><g style="opacity:0.1"><path d="M184.47,340.21C198.08,359,212.76,379.86,225.83,399c-13.61-18.79-28.29-39.66-41.36-58.82Z"></path><path d="M187.72,337.92c13.61,18.78,28.29,39.65,41.37,58.81-13.62-18.78-28.29-39.65-41.37-58.81Z"></path><path d="M191,335.62c13.61,18.79,28.29,39.66,41.37,58.82-13.62-18.78-28.29-39.66-41.37-58.82Z"></path><path d="M194.22,333.33c13.62,18.78,28.3,39.65,41.37,58.82-13.61-18.79-28.29-39.66-41.37-58.82Z"></path></g><path d="M246.06,399.35s8.28,9.4-1,16-15.38-4.39-15.38-4.39Z" style="fill:#ff9abb"></path><rect x="224.24" y="400.01" width="23.44" height="5.69" transform="translate(660.97 596.07) rotate(144.8)" style="fill:#a6a6a6"></rect><rect x="220.61" y="394.87" width="23.44" height="5.69" transform="translate(651.42 588.82) rotate(144.8)" style="fill:#a6a6a6"></rect><path d="M179.75,340.62l-2.15-16.16-.73-5.32,4.81,2.45,14.5,7.44,0,3.56s-3.25-1.23-3.31-1.24l0,3.55s-3.24-1.22-3.3-1.23l0,3.52s-3.28-1.2-3.34-1.21l.06,3.53s-3.28-1.2-3.34-1.21l.06,3.53S179.82,340.63,179.75,340.62Z" style="fill:#B82362"></path><path d="M179.75,340.62l-2.15-16.16-.73-5.32,4.81,2.45,14.5,7.44,0,3.56s-3.25-1.23-3.31-1.24l0,3.55s-3.24-1.22-3.3-1.23l0,3.52s-3.28-1.2-3.34-1.21l.06,3.53s-3.28-1.2-3.34-1.21l.06,3.53S179.82,340.63,179.75,340.62Z" style="fill:#fff;opacity:0.8"></path><polygon points="177.6 324.46 176.88 319.14 181.68 321.59 177.6 324.46" style="fill:#263238"></polygon><path d="M293.42,396.3c-8.27,5.12-30.6,6.51-68.27-1.7-5.21-1.14,6.87-37.3,12.5-36.37,7.09,1.17,34.35,7.23,36.29,7.93C290.28,372,299,392.84,293.42,396.3Z" style="fill:#f7a9a0"></path><path d="M247.29,361.66s-2.27-.81-13.55-7.07c-7.8-4.32-29.57-9.86-48.87,6.12-7.4,6.13-6.33,14,2.48,9,6.21-3.53,10.21-6.5,12.56-7.08,0,0-4.08,10.14-.66,15.46a117.08,117.08,0,0,0,9.93,13.29,25.1,25.1,0,0,0,2.65-1.64,13.3,13.3,0,0,0,13.32,4.86Z" style="fill:#f7a9a0"></path><path d="M225.63,351.66c-4.57,1-14.22,3.22-21.48,7.8-8.06,5.09-22.21,17.07-18.39,23,2.8,4.33,8.6.23,8.6.23s-4.81,6.19-1.42,9.55c3.08,3.06,7.39-.37,7.39-.37s-2.28,4.25,1.26,6.63c4.26,2.86,8.32-6.52,15.14-7.35C218.26,390.94,225.63,351.66,225.63,351.66Z" style="fill:#f7a9a0"></path><path d="M211,367.08c-4.15,1.63-12.61,7.75-16.6,15.4-.09.17,0,.33.11.19A93.68,93.68,0,0,1,211,367.16S211,367.07,211,367.08Z" style="fill:#263238"></path><path d="M215.85,375.37c-3.43,1.77-11.88,8.46-15.65,16.36-.09.17,0,.33.12.18a100.49,100.49,0,0,1,15.58-16.47S215.9,375.35,215.85,375.37Z" style="fill:#263238"></path><path d="M200.32,391.91c-2.41,1.87-6.58,2.5-8.29-.63-1.4-3,.44-6.35,2.2-8.8l.4.43c-1.85,1.22-4.11,2.28-6.39,1.8a4.82,4.82,0,0,1-3.41-5.49c.75-4.55,4.36-7.71,7.45-10.8a77.9,77.9,0,0,1,6.55-5.84l.49.85a64.74,64.74,0,0,0-6.18,3.23c-3,1.84-5.75,4.4-9.4,5-5.68.73-4.89-4.91-2.24-8,3-3.76,7.11-6.29,11.24-8.55a40.42,40.42,0,0,1,13.35-4.39A41.75,41.75,0,0,0,193,355.56c-4,2.28-8,4.89-10.85,8.58-1.14,1.61-2.63,4.13-1.35,5.93,2.2,2.22,6.84-.77,8.91-2.24,3.9-3,8.72-5.1,13.2-7.09a89.25,89.25,0,0,0-10,8.35c-2,2-4.22,4-5.72,6.39-4.2,6.5.63,11.33,7.09,6.95l1.55-1c-1.82,2.14-3.62,4.66-3.89,7.54-.16,4.83,5.17,5.25,8.37,2.94Z" style="fill:#263238"></path><path d="M285.82,375.72a35.65,35.65,0,0,0-11-8.88c-5.2-2.54-20.76-5.69-24.61-6.12-.1,0-.14.1,0,.13,3.32,1.09,18.27,4.31,23.84,6.94a48.42,48.42,0,0,1,11.72,8C285.79,375.87,285.88,375.79,285.82,375.72Z" style="fill:#263238"></path></g><g id="freepik--Cat--inject-169"><path d="M379.06,425.67c-3.11.11-28.27,2.4-35.82,6.63s-20.82,21.85-22.42,23.56-11.78,6.41-13.61,6.87-7.09,1.37-8.58,3.43-2.74,5.61-1.49,5.95,9.61.69,11.44,0,6.75-1.49,7.66-1.83,10.53-6.41,10.53-6.41l20.52-11.78s-21.08,4.68-30.56,6.91c0,0-5.53-.19-7.67.33-2.59.64-6.17,2.75-6.06,4.86s11.07,3.3,12.44,1.82c.71-.77,12.17-5.4,21.36-7.49,8.54-1.93,14.86-1.35,15.25-1.63.8-.57,16,.46,24.7-2.63Z" style="fill:#B82362"></path><path d="M379.06,425.67c-3.11.11-28.27,2.4-35.82,6.63s-20.82,21.85-22.42,23.56-11.78,6.41-13.61,6.87-7.09,1.37-8.58,3.43-2.74,5.61-1.49,5.95,9.61.69,11.44,0,6.75-1.49,7.66-1.83,10.53-6.41,10.53-6.41l20.52-11.78s-21.08,4.68-30.56,6.91c0,0-5.53-.19-7.67.33-2.59.64-6.17,2.75-6.06,4.86s11.07,3.3,12.44,1.82c.71-.77,12.17-5.4,21.36-7.49,8.54-1.93,14.86-1.35,15.25-1.63.8-.57,16,.46,24.7-2.63Z" style="opacity:0.1"></path><path d="M300.89,467.5a4.55,4.55,0,0,0-1.12.77,3.83,3.83,0,0,0-.72,1.23,4.33,4.33,0,0,0-.27,1.55,2,2,0,0,0,.32,1.28c.06.07.19,0,.16-.1a8.11,8.11,0,0,1,.46-2.57,5.19,5.19,0,0,1,.45-1.06,2.67,2.67,0,0,1,.78-1A.05.05,0,0,0,300.89,467.5Z" style="fill:#263238"></path><path d="M304.41,468.06a4.9,4.9,0,0,0-1.28.82,3.81,3.81,0,0,0-.86,1.27,2.78,2.78,0,0,0,.26,2.91s.11,0,.09-.05a2.67,2.67,0,0,1-.09-1.43,5.2,5.2,0,0,1,.94-2.41,3.32,3.32,0,0,1,1-1C304.53,468.13,304.47,468,304.41,468.06Z" style="fill:#263238"></path><path d="M315.89,458.79c-1.2.51-2.36,1-3.53,1.64a37.9,37.9,0,0,1-3.5,1.73,17.28,17.28,0,0,1-3.2.73,8.28,8.28,0,0,0-1.46.39,7.31,7.31,0,0,0-1.34.75c-.06,0,0,.14.06.1a7.61,7.61,0,0,1,3.25-.88,15.62,15.62,0,0,0,3.1-.62,25.17,25.17,0,0,0,3.25-1.61c.59-.31,1.18-.62,1.76-1s1.13-.72,1.7-1.08C316.07,458.92,316,458.74,315.89,458.79Z" style="fill:#263238"></path><path d="M356.88,446.68c.05,0,0-.09,0-.07a140.11,140.11,0,0,0-16.47,9.05c-1.5.94-3,1.93-4.43,2.95-.07.05,0,.16.08.12,2.73-1.53,5.42-3.13,8.14-4.69,1.92-1.11,3.84-2.2,5.76-3.3.52-.15,1-.3,1.52-.49a21,21,0,0,0,2.66-1.16c.09,0,0-.18-.07-.16a23,23,0,0,0-2.45.87l.73-.42C353.84,448.49,355.37,447.59,356.88,446.68Z" style="fill:#263238"></path><path d="M367,404.8c-1.55-.24-3.11-.37-4.67-.52s-3.13-.19-4.7-.25c-3.13-.11-6.27-.07-9.41,0s-6.26.39-9.37.79c-1.56.19-3.11.43-4.66.68s-3.08.58-4.61.9c3.11-.4,6.21-.83,9.32-1.1,1.56-.15,3.11-.27,4.67-.39s3.12-.2,4.68-.25c3.12-.17,6.25-.19,9.37-.19S363.86,404.61,367,404.8Z" style="fill:#263238"></path><path d="M365.75,406.63c-2.83-.08-5.65,0-8.48.18s-5.63.45-8.44.78-5.6.79-8.37,1.34-5.52,1.22-8.24,2c1.4-.24,2.77-.57,4.16-.79l2.08-.39,2.09-.34,4.17-.65c1.4-.19,2.79-.39,4.19-.55,2.79-.38,5.59-.66,8.4-.92,1.4-.13,2.81-.25,4.21-.36S364.34,406.73,365.75,406.63Z" style="fill:#263238"></path><path d="M366.58,408.39c-2.35.17-4.69.51-7,.9s-4.63.87-6.92,1.41-4.58,1.14-6.83,1.84c-1.13.33-2.24.7-3.36,1.07s-2.23.78-3.33,1.2c2.28-.59,4.55-1.23,6.82-1.81s4.56-1.15,6.84-1.69,4.58-1,6.87-1.54c1.15-.26,2.3-.49,3.45-.71S365.42,408.61,366.58,408.39Z" style="fill:#263238"></path><path d="M378.44,381s-9.38-9.14-17.63-10.55c-.7-.12,3.28,20.69,3.7,21.7S378.44,381,378.44,381Z" style="fill:#B82362"></path><path d="M378.44,381s-9.38-9.14-17.63-10.55c-.7-.12,3.28,20.69,3.7,21.7S378.44,381,378.44,381Z" style="opacity:0.1"></path><path d="M375.93,382.73s-7.14-7-13.42-8c-.53-.09,2.5,15.75,2.82,16.52S375.93,382.73,375.93,382.73Z" style="opacity:0.1"></path><path d="M428.34,456.09c-3.32,4.12-54.68,1.6-55.94,2s-23.21,11.32-24.25,12-6.4,1.26-8.91,1.26-8.59-.56-9.73-1.26,1.95-4.45,3.55-5.83,7.43-1.14,8.92-1.94,10.41-5.83,11.56-7.78,15.71-28.14,15.71-28.82c0,0-13.15-11.71-12.48-16.15s10.62-25.8,14.92-27.24c7.39-2.47,21.09-2,21.09-2s.52-15.61,2.33-14.77c9.49,4.35,20.18,21.22,23.12,28.5a12.36,12.36,0,0,1,.72,2.24c.72,3.93-2.22,27.61-2.22,27.61C416.61,424.4,431.66,452,428.34,456.09Z" style="fill:#B82362"></path><path d="M428.34,456.09c-3.32,4.12-54.68,1.6-55.94,2s-23.21,11.32-24.25,12-6.4,1.26-8.91,1.26-8.59-.56-9.73-1.26,1.95-4.45,3.55-5.83,7.43-1.14,8.92-1.94,10.41-5.83,11.56-7.78,15.71-28.14,15.71-28.82c0,0-13.15-11.71-12.48-16.15s10.62-25.8,14.92-27.24c7.39-2.47,21.09-2,21.09-2s.52-15.61,2.33-14.77c9.49,4.35,20.18,21.22,23.12,28.5a12.36,12.36,0,0,1,.72,2.24c.72,3.93-2.22,27.61-2.22,27.61C416.61,424.4,431.66,452,428.34,456.09Z" style="opacity:0.1"></path><path d="M380.23,425c0-.06-.05-.11-.08-.05a21.82,21.82,0,0,0-2.14,6.41,14.74,14.74,0,0,0-.19,3.57,6.15,6.15,0,0,0,.42,1.74,1.08,1.08,0,0,0,.88.76c.57,0,.72-.63.88-1.05.08-.2.15-.41.22-.61a8.36,8.36,0,0,0,.57,3.24,7.38,7.38,0,0,0,3.08,3.81c.1.05.21-.08.12-.16a10.89,10.89,0,0,1-2.67-3.86,9.24,9.24,0,0,1-.48-4.66.2.2,0,0,0-.38-.1,18.75,18.75,0,0,1-.87,2l-.18.41c-.06.12-.11.37-.28.3s-.31-.61-.36-.79a11.88,11.88,0,0,1-.24-3.81A20.07,20.07,0,0,1,380.23,425Z" style="opacity:0.1"></path><path d="M392,394.67c4.66-.32,7.25,3.09,7.54,7.26a7,7,0,0,1-6.76,7.33,7.45,7.45,0,0,1-7.73-6.73A7.36,7.36,0,0,1,392,394.67Z" style="fill:#263238"></path><path d="M391.6,395.57c4.37-.3,6.81,2.91,7.08,6.83a6.59,6.59,0,0,1-6.36,6.89,7,7,0,0,1-7.26-6.33A6.92,6.92,0,0,1,391.6,395.57Z" style="fill:#fff"></path><path d="M391,396.25c3.42-.24,5.33,2.27,5.54,5.34a5.16,5.16,0,0,1-5,5.4,5.49,5.49,0,0,1-5.68-5A5.4,5.4,0,0,1,391,396.25Z" style="fill:#263238"></path><path d="M369,393.43c-3.64-.69-6.11,2.35-6.86,6.3-.61,3.2.92,6.88,4.41,7.55s6.38-2.77,6.95-5.78S373,394.18,369,393.43Z" style="fill:#263238"></path><path d="M369.21,394.33c-3.42-.65-5.74,2.2-6.45,5.92-.57,3,.87,6.47,4.15,7.09s6-2.6,6.54-5.43S372.92,395,369.21,394.33Z" style="fill:#fff"></path><path d="M368.67,394.75c-2.68-.51-4.5,1.73-5.05,4.64-.45,2.36.68,5.06,3.25,5.55s4.69-2,5.11-4.25S371.57,395.31,368.67,394.75Z" style="fill:#263238"></path><path d="M374.61,403.49c.06.38,2.57,1.76,2.86,1.76s2.77-1.44,2.82-1.82-2.25-.5-2.84-.49S374.55,403.11,374.61,403.49Z" style="fill:#263238"></path><path d="M384.16,406.58a15,15,0,0,1-1.6,1.59,3,3,0,0,1-1.83.83,2.47,2.47,0,0,1-1.64-1,6.43,6.43,0,0,1-1-1.82l-.67-1.82-.25,1.92a8.4,8.4,0,0,1-.42,1.73c-.2.53-.5,1.05-.89,1.07a1.22,1.22,0,0,1-.69-.25,5.36,5.36,0,0,1-.66-.61,13.3,13.3,0,0,1-1.11-1.53,7.55,7.55,0,0,0,.79,1.77,3.91,3.91,0,0,0,.63.79,1.71,1.71,0,0,0,1,.5,1.45,1.45,0,0,0,1.12-.49,3.53,3.53,0,0,0,.59-.91,7.47,7.47,0,0,0,.55-1.95l-.91.1a6.37,6.37,0,0,0,1.27,2.08,3.85,3.85,0,0,0,1,.78,2.59,2.59,0,0,0,1.28.29,2.35,2.35,0,0,0,1.22-.43,4.45,4.45,0,0,0,.89-.78A9,9,0,0,0,384.16,406.58Z" style="fill:#263238"></path><path d="M400.31,407.43c3.12-.28,6.24-.44,9.37-.54s6.24-.15,9.37-.07c1.56,0,3.12.07,4.68.12s3.12.16,4.68.27c3.12.18,6.23.52,9.35.84-1.54-.28-3.09-.56-4.64-.78s-3.11-.41-4.67-.55c-3.12-.32-6.26-.45-9.39-.53s-6.28,0-9.41.22c-1.56.1-3.12.23-4.68.38S401.85,407.15,400.31,407.43Z" style="fill:#263238"></path><path d="M401.6,409.23c1.41,0,2.82.1,4.23.19s2.82.14,4.22.24c2.81.18,5.62.39,8.42.69,1.41.12,2.81.28,4.21.43l4.19.54,2.09.28,2.09.33c1.4.18,2.78.48,4.18.68-2.73-.71-5.5-1.32-8.29-1.77s-5.59-.83-8.4-1.12-5.64-.46-8.47-.55S404.42,409.07,401.6,409.23Z" style="fill:#263238"></path><path d="M400.82,411c1.16.18,2.32.36,3.48.57s2.31.39,3.47.61c2.31.44,4.61.87,6.91,1.36s4.59,1,6.88,1.51,4.57,1.09,6.87,1.62q-1.67-.58-3.36-1.11c-1.13-.34-2.25-.68-3.39-1-2.27-.64-4.57-1.16-6.87-1.66s-4.63-.89-7-1.21S403.17,411.11,400.82,411Z" style="fill:#263238"></path><path d="M406.33,385.29s-3.87-12-10-15.46c-.46-.26-1.28,11.34-1,11.39A44.61,44.61,0,0,1,406.33,385.29Z" style="opacity:0.1"></path><path d="M333.2,466a4.37,4.37,0,0,0-1.12.77,3.75,3.75,0,0,0-.73,1.23,4.51,4.51,0,0,0-.26,1.55,1.94,1.94,0,0,0,.32,1.27c.06.07.19,0,.16-.09a8.15,8.15,0,0,1,.45-2.58,5.23,5.23,0,0,1,.46-1.06,2.62,2.62,0,0,1,.78-1A.05.05,0,0,0,333.2,466Z" style="fill:#263238"></path><path d="M336.71,466.58a5.27,5.27,0,0,0-1.27.81,3.53,3.53,0,0,0-.86,1.27,2.79,2.79,0,0,0,.26,2.92.06.06,0,0,0,.09-.06,2.54,2.54,0,0,1-.09-1.42,5.09,5.09,0,0,1,.94-2.41,3.29,3.29,0,0,1,1-1C336.84,466.64,336.78,466.55,336.71,466.58Z" style="fill:#263238"></path><path d="M379.26,444.66c-.95,2.57-1.85,5.16-2.91,7.69a12.19,12.19,0,0,1-1.63,3,10.72,10.72,0,0,1-1.29,1.23c-.56.48-1.12,1-1.72,1.44-.06,0,0,.14.06.1a39.16,39.16,0,0,0,3.37-2.14,6.24,6.24,0,0,0,1.81-3c.84-2.72,1.59-5.48,2.42-8.21C379.39,444.62,379.28,444.6,379.26,444.66Z" style="fill:#263238"></path><path d="M350.66,457c1-1.05,2.19-1.87,2.81-3.24l.67-1.33a145.05,145.05,0,0,1,9.06-15.32,147,147,0,0,1-8.43,15.71l-.79,1.26c-.71,1.33-2.14,2.12-3.32,2.92Z" style="fill:#263238"></path><path d="M368.81,426.65a11.06,11.06,0,0,1-2.53,4.78,11,11,0,0,1,2.53-4.78Z" style="fill:#263238"></path><path d="M407.11,437.56a93.89,93.89,0,0,0-14.76,8.58c-2.86,2.28-12.87,14.29-14.27,15.21s-6.89,1.26-8.49,2.52-4.46,4.46-3.77,5.14,14.3.57,16.47,0,3.1-1.71,4.12-1.83,14.06-4.92,16.7-5.26,21.33-4,23.44-5.85-1.6-10.95-4.29-17.26C420.81,435.42,411.83,435.52,407.11,437.56Z" style="fill:#B82362"></path><path d="M407.11,437.56a93.89,93.89,0,0,0-14.76,8.58c-2.86,2.28-12.87,14.29-14.27,15.21s-6.89,1.26-8.49,2.52-4.46,4.46-3.77,5.14,14.3.57,16.47,0,3.1-1.71,4.12-1.83,14.06-4.92,16.7-5.26,21.33-4,23.44-5.85-1.6-10.95-4.29-17.26C420.81,435.42,411.83,435.52,407.11,437.56Z" style="opacity:0.1"></path><path d="M370.27,464.63a4.41,4.41,0,0,0-1.12.78,3.71,3.71,0,0,0-.73,1.22,4.59,4.59,0,0,0-.26,1.55,2,2,0,0,0,.32,1.28c.06.07.19,0,.16-.1a8.09,8.09,0,0,1,.45-2.57,5.23,5.23,0,0,1,.46-1.06,2.65,2.65,0,0,1,.78-1A.05.05,0,1,0,370.27,464.63Z" style="fill:#263238"></path><path d="M374,464.63a4.87,4.87,0,0,0-1.28.81,3.81,3.81,0,0,0-.86,1.27,2.79,2.79,0,0,0,.26,2.92s.11,0,.09-.06a2.63,2.63,0,0,1-.09-1.42,5.18,5.18,0,0,1,.94-2.42,3.4,3.4,0,0,1,1-1C374.07,464.69,374,464.59,374,464.63Z" style="fill:#263238"></path><path d="M418.29,435.74a28.86,28.86,0,0,0-8.34.68,17.9,17.9,0,0,0-3.79,1.56q-2,1.06-4,2.16c-2.64,1.43-5.3,2.87-7.82,4.49a35.59,35.59,0,0,0-6.34,5.8c-2.39,2.5-4.71,5.11-6.92,7.77a.06.06,0,0,0,.08.08c2.23-2.07,4.36-4.26,6.48-6.43s3.79-4.37,6.15-6c1.19-.82,2.48-1.51,3.73-2.23s2.52-1.42,3.79-2.12l4-2.18c1.22-.67,2.44-1.36,3.71-1.92,3-1.3,6.18-1.45,9.37-1.55A.06.06,0,0,0,418.29,435.74Z" style="fill:#263238"></path><path d="M339.53,435c-.69.61-16.54,0-31.75,7.83-11.51,5.93-22,16.7-18.87,24.48s19.79,7.62,26.08,8.5,20.93,6,25.27-3.12-15.44-16-30.76-13.39c-4,.69.06-3.93,3.31-6.86,4.58-4.12,13.5-6.86,20.59-7.89Z" style="fill:#B82362"></path><path d="M339.53,435c-.69.61-16.54,0-31.75,7.83-11.51,5.93-22,16.7-18.87,24.48s19.79,7.62,26.08,8.5,20.93,6,25.27-3.12-15.44-16-30.76-13.39c-4,.69.06-3.93,3.31-6.86,4.58-4.12,13.5-6.86,20.59-7.89Z" style="opacity:0.1"></path><path d="M340.32,466.38a10.47,10.47,0,0,0-4.34-3.89,29,29,0,0,0-6-2.23,46.48,46.48,0,0,0-6.81-1.3c-1.23-.13-2.46-.24-3.7-.26s-2.65,0-4,.08c-.07,0-.07.12,0,.11a43.14,43.14,0,0,1,6.52.46,49.8,49.8,0,0,1,6.28,1.24,43.49,43.49,0,0,1,5.91,2,12.76,12.76,0,0,1,4.68,3.14,8.88,8.88,0,0,1,1.58,2.71,6.6,6.6,0,0,1,.31,3.12c0,.07.08.12.11.05A6,6,0,0,0,340.32,466.38Z" style="fill:#263238"></path><path d="M339.53,435a102.08,102.08,0,0,0-9.89,10.22c-1.22.27-2.45.57-3.68.91.39-2.7,1-6.7,1.44-9.64C334.25,435.29,339.16,435.32,339.53,435Z" style="opacity:0.1"></path></g><g id="freepik--speech-bubble--inject-169"><path d="M137.36,221a27.38,27.38,0,0,0,43.71,22l13.42,3.42-5.59-12.49A27.39,27.39,0,1,0,137.36,221Z" style="fill:#fff"></path><path d="M137.36,221c.43,22.83,25.5,34.88,43.8,21.64L194.6,246l-.51.6-5.63-12.48-.1-.21c8.46-15.22-.12-35-17-39.18-16.93-4.62-34.08,8.76-34,26.28Zm0,0c.07-23.32,27.26-36.08,45.26-21.23,9.95,8,13,23.17,6.7,34.37l0-.42,5.55,12.51.37.84-.88-.23L181,243.32c-17.15,13-43.48.78-43.62-22.33Z" style="fill:#263238"></path><polygon points="160.15 237.28 147.87 224.86 152 220.78 159.17 228.04 174.06 204.69 178.95 207.8 160.15 237.28" style="fill:#B82362"></polygon></g></svg>
