<svg xmlns="http://www.w3.org/2000/svg" viewBox="0 0 500 500"><g id="freepik--background-complete--inject-203"><path d="M300.51,475.45s1.11-4.57,3.87-12.62,7.16-19.55,13.08-33.56,13.26-30.55,21.52-48.88,17.44-38.43,26.54-59.76c4.53-10.68,8.81-21.16,12.5-31.45,1.82-5.16,3.48-10.26,4.8-15.35s1.86-10.2,2.65-15.17c2.93-19.89,6.58-37.69,11.26-52.19a158.2,158.2,0,0,1,14.44-32.93l3-4.8c.88-1.38,1.73-2.48,2.36-3.4s1.14-1.6,1.48-2.08.51-.69.51-.69-.15.25-.47.73l-1.43,2.1c-.62.93-1.45,2-2.32,3.43s-1.84,3-3,4.81a160.92,160.92,0,0,0-14.26,33c-4.63,14.48-8.23,32.26-11.14,52.14-.78,4.95-1.25,10.12-2.64,15.23s-3,10.22-4.8,15.39c-3.68,10.31-8,20.8-12.5,31.49-9.11,21.34-18.32,41.43-26.58,59.75s-15.69,34.83-21.62,48.83-10.43,25.45-13.23,33.47c-.72,2-1.31,3.8-1.81,5.35s-.94,2.87-1.25,3.95l-.74,2.44Z" style="fill:#e0e0e0"></path><path d="M426.69,147.39c4.81,1.09,9.9-.13,14.35-2.26s8.43-5.12,12.55-7.83c2.91-1.92,6.13-3.76,9.75-3.07a5.68,5.68,0,0,1,3.86,2.63c2,3.51-1.26,6.34-1.35,9.65-.06,1.91,1,3.72.95,5.63,0,2.31-1.57,4.29-3,6.08-1.76,2.15-3.77,4.46-6.52,4.86-2.47.36-6.72,1.47-9.07.64-4.2-1.49-7.68-1.55-11.34-4.1-5.08-3.54-10.72-10.59-10.59-10.46Z" style="fill:#ebebeb"></path><path d="M402.67,161.12c.84-1.79,2.53-2.76,4.16-3.69l16.84-9.59,5.11.53c1.24,5.75,1.74,9.65,10.37,14.55a11.21,11.21,0,0,0,5.3,1.56c2.61,0,5.77,2.08,4.49,5.22a4.89,4.89,0,0,1-2.38,2.47,22.14,22.14,0,0,1-17.53.94c-2.17-.81-4.27-2-6.58-2.14-2.87-.19-6.15,1.13-8.43-.63-.87-.67-1.41-1.68-2.26-2.37-1.34-1.09-3.19-1.2-4.89-1.47-2.05-.32-4.35-1.18-4.55-3.54A3.55,3.55,0,0,1,402.67,161.12Z" style="fill:#ebebeb"></path><path d="M393.34,143.12a31.67,31.67,0,0,1-5.47-21.3c.33-3.15,1.27-6.5,5.44-7.39a7.48,7.48,0,0,1,4.54.53c2.69,1.17,6.53,1.83,7.88,4.43s2.32,7.14,3.38,9.86c3,7.7,11.06,15.06,18.4,18.86l-1.93,1.62c-1.73,1.25-9.83,1.78-13.48,3.66-1.93,1-5.24,2.34-7.14,3.39s-4.68-.23-6.8-.65a5.64,5.64,0,0,1-2.92-1.46c-3.11-3.09,0-5.51-.26-8.25A7.45,7.45,0,0,0,393.34,143.12Z" style="fill:#ebebeb"></path><path d="M454.15,123.1c-1-3-2-6.06-4-8.5a13,13,0,0,0-7.12-4.38c-1.71-.39-3.54-.43-5.09-1.26-1.77-.95-2.9-2.77-4.56-3.9a8.35,8.35,0,0,0-6.71-.94,14.19,14.19,0,0,0-6,3.49c-1.55,1.44-3,3.18-5.1,3.66-1.12.27-2.32.12-3.42.47-2.64.85-3.61,4.1-3.68,6.87-.15,6.15,2.16,12.19,5.61,17.28s8,9.34,12.74,13.27l3.63-1.17c8.29-1.74,14.85-7.87,21-13.75,1.47-1.41,3-2.93,3.51-4.9S454.81,125.12,454.15,123.1Z" style="fill:#ebebeb"></path><path d="M402.48,131.27c.07-.05.94,1.25,2.52,3.19a50.61,50.61,0,0,0,6.9,6.94,50,50,0,0,0,8.15,5.42c2.22,1.18,3.66,1.78,3.62,1.86a5,5,0,0,1-1-.33c-.67-.24-1.61-.65-2.75-1.2a42.67,42.67,0,0,1-15.16-12.46,27.09,27.09,0,0,1-1.71-2.46A4.44,4.44,0,0,1,402.48,131.27Z" style="fill:#e0e0e0"></path><path d="M422.17,117.44a6.37,6.37,0,0,1,.1,1.25c0,.91.08,2,.14,3.39.12,2.87.36,6.82.83,11.17s1.09,8.26,1.58,11.09c.23,1.33.43,2.45.59,3.35a6.48,6.48,0,0,1,.17,1.24,5.32,5.32,0,0,1-.37-1.2c-.2-.78-.46-1.91-.75-3.32-.59-2.82-1.26-6.74-1.73-11.1s-.66-8.34-.69-11.22c0-1.43,0-2.6,0-3.4A5.42,5.42,0,0,1,422.17,117.44Z" style="fill:#e0e0e0"></path><path d="M437.16,128.07a26.24,26.24,0,0,1-1.81,2.7c-1.14,1.64-2.66,3.95-4.18,6.6s-2.74,5.13-3.58,6.95a25.91,25.91,0,0,1-1.41,2.92,3,3,0,0,1,.23-.84c.17-.54.46-1.3.84-2.23a64.72,64.72,0,0,1,3.47-7.06,62.75,62.75,0,0,1,4.33-6.56c.61-.8,1.12-1.43,1.49-1.86S437.13,128,437.16,128.07Z" style="fill:#e0e0e0"></path><path d="M453.18,152.24a3.58,3.58,0,0,1-1,.29,25.6,25.6,0,0,1-2.78.49,37.9,37.9,0,0,1-18.3-2.2,26.29,26.29,0,0,1-2.58-1.13,3.3,3.3,0,0,1-.89-.52c0-.08,1.37.54,3.6,1.31a43.16,43.16,0,0,0,18.13,2.18C451.72,152.44,453.16,152.16,453.18,152.24Z" style="fill:#e0e0e0"></path><path d="M426,168.58a11,11,0,0,1-.76-2.53,36.78,36.78,0,0,1-.83-6.33,36.06,36.06,0,0,1,.25-6.38,10.58,10.58,0,0,1,.52-2.59,17.83,17.83,0,0,1-.16,2.63,51.78,51.78,0,0,0,.59,12.6A17.86,17.86,0,0,1,426,168.58Z" style="fill:#e0e0e0"></path><path d="M429.13,148.61a11.21,11.21,0,0,0-.87-7.36,14.27,14.27,0,0,0-2.54,5.69,19.64,19.64,0,0,1-4.13-3.53,8.29,8.29,0,0,0,1.9,5l-4.82-1.93a6.25,6.25,0,0,0,5.33,4,10.78,10.78,0,0,0-1.14,5.29,15,15,0,0,0,3.83-4.73,35,35,0,0,0,4.63,6.06l-.95-6.12,3.48.17a21.33,21.33,0,0,0-5.12-3.27" style="fill:#e0e0e0"></path><path d="M223.77,475.45s-.06-.34-.14-1-.19-1.67-.33-3c-.29-2.61-.71-6.44-1.26-11.38q-.4-3.71-.91-8.21c-.37-3-.77-6.26-1.21-9.77-.86-7-1.82-15-3-23.78-4.73-35.22-12.08-83.76-21.5-137.16-4.64-26.72-9.47-52.1-13.91-75.17-2.33-11.51-4.42-22.48-6.6-32.7q-1.61-7.66-3.09-14.8c-1-4.73-2-9.28-3-13.62-1.85-8.69-3.76-16.49-5.35-23.37-.77-3.44-1.61-6.62-2.35-9.55s-1.42-5.6-2-8c-1.24-4.81-2.38-8.5-3.06-11-.35-1.25-.61-2.21-.79-2.87s-.26-1-.26-1,.11.33.31,1,.47,1.61.84,2.85c.72,2.52,1.88,6.2,3.15,11,.62,2.41,1.32,5.08,2.07,8s1.61,6.1,2.39,9.54c1.62,6.88,3.55,14.68,5.43,23.36q1.44,6.51,3,13.62l3.12,14.79c2.2,10.22,4.31,21.18,6.65,32.7,4.47,23.07,9.32,48.45,13.95,75.17,9.42,53.4,16.71,102,21.35,137.2S223.77,475.45,223.77,475.45Z" style="fill:#e0e0e0"></path><path d="M175.15,49.65a9,9,0,0,1,2.35-3.46c2.65-2.09,6.89-.74,8.76,2.06.85,1.28,1.51,2.94,3,3.38a7.7,7.7,0,0,0,2.35,0c3.93-.1,7.24,3.55,7.81,7.44s-1,7.81-3.17,11.09-4.93,6.13-7.14,9.38c-3.48,5.11-5.52,11.07-8.86,16.27s-11.35,11.62-17.53,11.57C171,91.4,167.76,66.12,175.15,49.65Z" style="fill:#ebebeb"></path><path d="M122.14,66.14a20.84,20.84,0,0,1,0-7.22c.57-2.35,2.16-4.61,4.48-5.28,1.7-.49,3.59-.09,5.21-.77,3.05-1.27,4-5.71,7.18-6.58,2.16-.58,4.39.79,6.63.66,3.65-.21,6.23-4.26,9.88-4.41A6.58,6.58,0,0,1,161,45.77,17.8,17.8,0,0,1,163.19,52c3.31,16.13,4.64,37.46,2.11,53.73L160.18,109c-7.79-8.46-23.67-13.87-31.7-22.45C123.54,81.27,123,73.31,122.14,66.14Z" style="fill:#ebebeb"></path><path d="M100.53,102.26c-.65-1.85-.88-4.19.57-5.51.68-.61,1.62-.89,2.26-1.54,1-1.07,1-2.8.59-4.25s-1-2.88-.84-4.37c.31-2.5,2.89-4.22,5.41-4.42s5,.76,7.3,1.69c14.84,5.92,35.76,15,46.4,24h0a66.92,66.92,0,0,1-31.85,9.6c-6,.24-12.09-.35-17.57-2.75S102.53,107.9,100.53,102.26Z" style="fill:#ebebeb"></path><path d="M162.7,107.42c1.9-5.46,1.37-11.43.82-17.19a4.25,4.25,0,0,0-.32-1.46A1.35,1.35,0,0,0,162,88c-.8,0-1.24.9-1.51,1.65-.72,2-1.43,4-2.15,6l-5.17-4.51c-.59-.51-1.49-1-2.06-.51s-.21,1.38.16,2l2.52,4.31a15.38,15.38,0,0,0-9-.4c5.36,4.82,10.37,5.37,17.85,10.93" style="fill:#e0e0e0"></path><path d="M121.83,86.3s.16,0,.45.14l1.25.51c1.07.45,2.62,1.11,4.53,2,3.82,1.69,9.06,4.09,14.77,6.91s10.8,5.56,14.4,7.68c1.81,1,3.24,1.94,4.22,2.58l1.12.75a2.1,2.1,0,0,1,.37.29s-.16-.05-.43-.2l-1.17-.67c-1-.58-2.46-1.42-4.29-2.43-3.64-2-8.74-4.71-14.45-7.53s-10.91-5.27-14.69-7l-4.47-2.12-1.2-.59C122,86.4,121.82,86.32,121.83,86.3Z" style="fill:#e0e0e0"></path><path d="M133.47,68.91a7.55,7.55,0,0,1,.78,1.15l2,3.2c1.73,2.68,4.22,6.32,7.23,10.16s5.95,7.11,8.15,9.43l2.62,2.73a6.73,6.73,0,0,1,.93,1,7.2,7.2,0,0,1-1.07-.89c-.67-.59-1.61-1.48-2.75-2.61a106.52,106.52,0,0,1-8.29-9.37A103.6,103.6,0,0,1,136,73.45c-.83-1.37-1.47-2.49-1.89-3.29A6.05,6.05,0,0,1,133.47,68.91Z" style="fill:#e0e0e0"></path><path d="M152.9,69.07a3.74,3.74,0,0,1,.37,1c.21.65.49,1.6.8,2.79.63,2.37,1.38,5.67,2,9.36s1,7,1.24,9.49c.1,1.22.17,2.21.19,2.9a4.51,4.51,0,0,1,0,1.07,4.24,4.24,0,0,1-.19-1c-.1-.8-.22-1.76-.35-2.88-.3-2.43-.76-5.77-1.39-9.45s-1.33-7-1.87-9.36q-.37-1.65-.63-2.82A4.48,4.48,0,0,1,152.9,69.07Z" style="fill:#e0e0e0"></path><path d="M164.25,106a48.85,48.85,0,0,1,1.42-6.93,49.21,49.21,0,0,1,1.93-6.82,48.82,48.82,0,0,1-1.42,6.94A46.73,46.73,0,0,1,164.25,106Z" style="fill:#e0e0e0"></path><path d="M125.24,129.84a45.5,45.5,0,0,1,7.5-1.7c-3.11-1.63-7.83-4.91-10-7.66a81.73,81.73,0,0,1,13,6.72c0-2.2-1.73-5.84-.83-7.85.89,4.19,4.62,8.49,8.09,11,.11-1.94-1-4.35-.89-6.29a32,32,0,0,0,6.45,9,12.56,12.56,0,0,1,.16-6.27,42.28,42.28,0,0,0,7,11.92,17.06,17.06,0,0,1-1.53-7.71c3.74,7.86,10.35,13.28,17.31,20.51-7-3.26-21.18-9.79-28.92-9.33,3-.7,7.19-.87,9.85-2.5-4.65-.85-10.58-2.37-15.3-2.52,2-.64,5.81-.81,9.86-.65-4-.73-12.61-3.59-16.71-3.42,1.68-.94,7.63.29,9.31-.65C136.07,130.93,128.53,129.46,125.24,129.84Z" style="fill:#ebebeb"></path><path d="M135.55,129.14a11.65,11.65,0,0,1,1.58.55c1,.38,2.44,1,4.2,1.77A113.06,113.06,0,0,1,166.8,147.3c1.49,1.23,2.66,2.25,3.45,3a11.57,11.57,0,0,1,1.19,1.17,9.47,9.47,0,0,1-1.33-1c-.82-.68-2-1.66-3.54-2.85a133.49,133.49,0,0,0-25.4-15.8c-1.73-.82-3.14-1.47-4.12-1.91A9.1,9.1,0,0,1,135.55,129.14Z" style="fill:#e0e0e0"></path><path d="M215.86,227.18a46.73,46.73,0,0,0-6.81,3.55c1.31-3.25,2.78-8.8,2.66-12.31a81.64,81.64,0,0,0-5.53,13.52c-1.45-1.65-2.46-5.57-4.45-6.52,2,3.77,2,9.46,1,13.61-1.34-1.4-2.05-4-3.4-5.37a31.88,31.88,0,0,1,.89,11A12.6,12.6,0,0,0,196,240a42,42,0,0,1,2.39,13.6,16.93,16.93,0,0,0-3.82-6.86c2.24,8.41.71,16.82.09,26.84,3.25-7,9.8-21.18,16-25.84-2.77,1.44-6.05,4-9.13,4.47,3-3.65,6.53-8.65,10-11.82-2,.81-5,3.15-7.94,5.89,2.61-3.18,7.28-10.91,10.52-13.43-1.89.37-5.63,5.17-7.52,5.53C208.31,235,213.1,229,215.86,227.18Z" style="fill:#ebebeb"></path><path d="M207.55,233.32a10.59,10.59,0,0,1-.67,1.53c-.46,1-1.11,2.38-1.9,4.13a132.92,132.92,0,0,0-9.13,28.49c-.38,1.88-.67,3.4-.85,4.46a9.73,9.73,0,0,1-.35,1.64,11.21,11.21,0,0,1,.15-1.67c.12-1.07.36-2.61.69-4.5a113.27,113.27,0,0,1,9.16-28.57c.83-1.74,1.53-3.13,2-4.07A10.85,10.85,0,0,1,207.55,233.32Z" style="fill:#e0e0e0"></path><path d="M146.53,475.76s0-.18-.07-.53-.08-.88-.14-1.55c-.11-1.38-.28-3.38-.49-5.95-.1-1.29-.22-2.73-.34-4.3s-.38-3.27-.58-5.1-.45-3.78-.7-5.85c-.13-1-.23-2.11-.39-3.2s-.36-2.2-.54-3.35q-.56-3.44-1.15-7.18c-.1-.63-.21-1.26-.31-1.89l-.39-1.92-.8-3.93-.82-4.07c-.28-1.39-.56-2.79-.93-4.19-.69-2.82-1.41-5.72-2.14-8.69a322.84,322.84,0,0,0-12.6-37.79,328,328,0,0,0-17.51-35.78q-2.34-4-4.54-7.72c-.72-1.26-1.5-2.46-2.26-3.64l-2.25-3.5-2.17-3.38-1.06-1.64L93.26,319l-4.17-6-1.94-2.78c-.64-.9-1.3-1.74-1.92-2.58L81.67,303c-1.11-1.46-2.11-2.86-3.11-4.08l-2.72-3.35-3.74-4.65-1-1.22c-.21-.27-.31-.42-.31-.42s.12.12.35.39l1,1.18L76,295.44l2.76,3.33c1,1.21,2,2.6,3.14,4.05l3.59,4.69c.63.84,1.3,1.68,2,2.57l2,2.78,4.2,5.95,1.1,1.57L95.76,322l2.18,3.38,2.26,3.49c.77,1.18,1.56,2.38,2.28,3.64l4.56,7.72a321.6,321.6,0,0,1,17.58,35.82,316.25,316.25,0,0,1,12.58,37.87l2.13,8.71c.37,1.4.64,2.81.91,4.19s.55,2.75.82,4.08.52,2.66.78,3.95c.13.64.26,1.28.38,1.92l.3,1.89c.39,2.5.77,4.9,1.12,7.2.18,1.14.35,2.26.52,3.35s.26,2.17.38,3.2q.35,3.12.66,5.87c.19,1.83.42,3.53.53,5.11s.21,3,.3,4.31c.17,2.57.3,4.57.39,6,0,.66.07,1.18.09,1.55S146.53,475.76,146.53,475.76Z" style="fill:#e0e0e0"></path><path d="M103,400.85a44.72,44.72,0,0,1,7.36-.09c-2.58-2.14-6.34-6.16-7.82-9.17a78.22,78.22,0,0,1,10.78,8.89c.48-2.05-.45-5.81.8-7.5,0,4.09,2.61,8.86,5.35,11.9.5-1.79-.06-4.27.44-6.06a30.74,30.74,0,0,0,4.23,9.68,12,12,0,0,1,1.42-5.83,40.1,40.1,0,0,0,4.13,12.55,16.29,16.29,0,0,1,.11-7.51c1.92,8.1,7,14.49,12.07,22.67-5.93-4.47-17.84-13.43-25.18-14.55,3-.05,6.9.63,9.72-.37-4.18-1.72-9.42-4.34-13.81-5.43,2-.19,5.61.42,9.36,1.38-3.64-1.5-11.07-5.9-14.95-6.56,1.76-.55,7.09,1.8,8.85,1.26C112.92,404.05,106.16,401.15,103,400.85Z" style="fill:#ebebeb"></path><path d="M112.79,402.27a10.23,10.23,0,0,1,1.37.83c.86.56,2.09,1.41,3.57,2.49a108.07,108.07,0,0,1,20.65,20c1.13,1.45,2,2.64,2.61,3.49a9.7,9.7,0,0,1,.88,1.34,9.79,9.79,0,0,1-1-1.22c-.63-.81-1.57-2-2.74-3.38a132,132,0,0,0-9.73-10.52,131.32,131.32,0,0,0-10.85-9.37c-1.45-1.12-2.64-2-3.47-2.63A8.92,8.92,0,0,1,112.79,402.27Z" style="fill:#e0e0e0"></path><path d="M21.38,283.28l30.05-.42,8.07-19.75L63,238.26c.21-1.49.37-3.15-.52-4.36s-2.93-1.58-4.55-1.18c-3.68.89-6.28,4.36-7.26,8s-.62,7.52-.25,11.29q-1.77-5.75-3.52-11.48a3.57,3.57,0,0,0-1.64-2.46,3.49,3.49,0,0,0-2.71.38q-3,1.34-5.79,2.91A9.16,9.16,0,0,0,33,244.52a6.66,6.66,0,0,0-.15,5.66A15.56,15.56,0,0,0,35,253.67c-1.86-1.55-5.07-1.49-7.22-.07-2.67,1.76-4.09,4.86-5.41,7.78-.52,1.15-1.05,2.48-.56,3.64a4.73,4.73,0,0,0,2.8,2.13l9.6,4c-2.33,0-4.62-.54-6.94-.71s-4.84.13-6.59,1.66-2.36,3.89-2.91,6.12c-.37,1.47-.65,3.25.44,4.3A4.36,4.36,0,0,0,21.38,283.28Z" style="fill:#ebebeb"></path><path d="M67.92,272.48c-7.31-6.14-7.43-6.71-7.85-11-.07-.79.43-1.54-.24-2-.94-.58-4.75,1.34-5.67,2a7.32,7.32,0,0,0-2.64,8.69,9.7,9.7,0,0,0-3.34-.33,3.38,3.38,0,0,0-2.69,1.78,2.06,2.06,0,0,0,1.1,2.76,18.21,18.21,0,0,0-7.9,9.16c3.92-.57,7.78,1.29,11.08,3.48s6.4,4.82,10.14,6.13a16.29,16.29,0,0,0,14.53-2A19.81,19.81,0,0,0,67.92,272.48Z" style="fill:#e0e0e0"></path><path d="M340.21,475.76a5.28,5.28,0,0,1,0-.53c0-.37,0-.89.09-1.55.09-1.39.22-3.39.39-6,.09-1.3.19-2.74.3-4.31s.35-3.28.54-5.11.42-3.79.65-5.87c.13-1,.22-2.11.38-3.2s.35-2.21.52-3.35q.54-3.45,1.12-7.2l.3-1.89c.13-.64.26-1.28.38-1.92l.79-3.95c.27-1.33.54-2.7.81-4.08s.55-2.79.92-4.19q1-4.25,2.12-8.71a318,318,0,0,1,12.58-37.87,325.13,325.13,0,0,1,17.58-35.82l4.57-7.72c.72-1.26,1.5-2.46,2.27-3.64l2.26-3.49L391,322l1.06-1.64,1.1-1.57,4.2-5.95,2-2.78c.64-.89,1.31-1.73,1.94-2.57l3.59-4.69C406,301.37,407,300,408,298.77l2.75-3.33,3.83-4.59,1-1.18a5,5,0,0,1,.36-.39s-.1.15-.32.42l-1,1.22-3.75,4.65-2.72,3.35c-1,1.22-2,2.62-3.11,4.08l-3.55,4.71c-.62.84-1.29,1.68-1.93,2.58l-1.94,2.78-4.16,6-1.1,1.58-1.05,1.64-2.17,3.38-2.25,3.5c-.76,1.18-1.55,2.38-2.26,3.64l-4.54,7.72a329.86,329.86,0,0,0-17.52,35.78A320.85,320.85,0,0,0,350,414.06c-.74,3-1.45,5.87-2.15,8.69-.37,1.4-.65,2.8-.92,4.19s-.56,2.73-.83,4.07-.53,2.65-.8,3.93c-.13.65-.26,1.29-.38,1.92s-.21,1.26-.31,1.89c-.4,2.5-.79,4.89-1.15,7.18-.19,1.15-.37,2.26-.54,3.35s-.27,2.16-.4,3.2c-.24,2.07-.48,4-.69,5.85s-.46,3.53-.58,5.1-.24,3-.34,4.3c-.22,2.57-.38,4.57-.49,5.95-.07.67-.11,1.18-.15,1.55S340.21,475.76,340.21,475.76Z" style="fill:#e0e0e0"></path><path d="M385.08,401.86a43.63,43.63,0,0,0-7.36-.09c2.58-2.15,6.34-6.17,7.82-9.18a77.83,77.83,0,0,0-10.78,8.9c-.48-2.05.44-5.81-.8-7.51,0,4.1-2.61,8.87-5.36,11.91-.5-1.79.06-4.27-.43-6.07a30.69,30.69,0,0,1-4.23,9.69,12.12,12.12,0,0,0-1.42-5.84,40.07,40.07,0,0,1-4.13,12.56,16.2,16.2,0,0,0-.12-7.52c-1.91,8.1-7,14.5-12.06,22.67,5.93-4.46,17.84-13.42,25.18-14.55-3,0-6.91.63-9.72-.36,4.18-1.72,9.42-4.34,13.81-5.43-2-.2-5.61.41-9.36,1.38,3.63-1.5,11.07-5.9,14.94-6.57-1.76-.54-7.08,1.81-8.84,1.27C375.16,405.06,381.92,402.16,385.08,401.86Z" style="fill:#ebebeb"></path><path d="M375.29,403.28a9.79,9.79,0,0,1-1.25,1c-.83.61-2,1.5-3.47,2.63A126.84,126.84,0,0,0,350,426.79c-1.17,1.41-2.11,2.57-2.74,3.38a9.11,9.11,0,0,1-1,1.21,9.23,9.23,0,0,1,.88-1.34c.58-.84,1.47-2,2.61-3.49a108.42,108.42,0,0,1,20.65-19.95c1.48-1.09,2.71-1.94,3.57-2.49A8.45,8.45,0,0,1,375.29,403.28Z" style="fill:#e0e0e0"></path><path d="M282.6,387.94c2.41,1.16,5.62,2.25,8.87,4.46-1.76-4.18-3.76-11.32-3.67-15.85,2.62,4.43,5.8,12.45,7.39,17.35,1.84-2.16,3.08-7.24,5.62-8.5-2.55,4.9-2.37,12.25-1,17.59,1.71-1.84,2.58-5.16,4.29-7a41.26,41.26,0,0,0-.94,14.22,16.25,16.25,0,0,1,5.32-6.11,54.3,54.3,0,0,0-2.85,17.6,21.77,21.77,0,0,1,4.81-8.93c-2.74,10.89-.61,21.72.37,34.64-4.32-9-13-27.15-21.12-33.05,3.6,1.8,7.88,5,11.86,5.6-3.93-4.66-8.59-11.05-13.17-15.08,2.54,1,6.46,4,10.36,7.46-3.42-4.05-9.6-13.94-13.83-17.14,2.45.44,7.37,6.56,9.81,7C292.5,397.92,286.2,390.25,282.6,387.94Z" style="fill:#ebebeb"></path><path d="M293.45,395.71a2.29,2.29,0,0,1,.3.47l.79,1.39c.68,1.21,1.61,3,2.71,5.22a148.41,148.41,0,0,1,12.34,36.7c.47,2.43.8,4.42,1,5.79q.14,1,.21,1.59a1.76,1.76,0,0,1,0,.55,3.09,3.09,0,0,1-.14-.54c-.08-.41-.18-.93-.31-1.57-.25-1.36-.64-3.33-1.15-5.75a174.43,174.43,0,0,0-5.11-18.66,173,173,0,0,0-7.2-17.95c-1.06-2.25-1.93-4.05-2.56-5.29l-.7-1.43A1.71,1.71,0,0,1,293.45,395.71Z" style="fill:#e0e0e0"></path><path d="M465.35,283.28l-30-.42-8.07-19.75-3.51-24.85c-.21-1.49-.38-3.15.51-4.36s2.94-1.58,4.55-1.18c3.68.89,6.29,4.36,7.27,8s.61,7.52.25,11.29q1.76-5.75,3.52-11.48a3.57,3.57,0,0,1,1.64-2.46,3.47,3.47,0,0,1,2.7.38q3,1.34,5.8,2.91a9.19,9.19,0,0,1,3.72,3.14,6.63,6.63,0,0,1,.15,5.66,14.84,14.84,0,0,1-2.06,3.49c1.87-1.55,5.08-1.49,7.23-.07,2.67,1.76,4.09,4.86,5.4,7.78.52,1.15,1,2.48.56,3.64a4.7,4.7,0,0,1-2.8,2.13l-9.59,4c2.33,0,4.62-.54,6.94-.71s4.84.13,6.59,1.66,2.36,3.89,2.91,6.12c.36,1.47.65,3.25-.44,4.3A4.39,4.39,0,0,1,465.35,283.28Z" style="fill:#ebebeb"></path><path d="M418.81,272.48c7.31-6.14,7.43-6.71,7.85-11,.08-.79-.42-1.54.25-2,.93-.58,4.75,1.34,5.67,2a7.35,7.35,0,0,1,2.64,8.69,9.64,9.64,0,0,1,3.33-.33,3.35,3.35,0,0,1,2.69,1.78,2.06,2.06,0,0,1-1.1,2.76,18.18,18.18,0,0,1,7.91,9.16c-3.93-.57-7.79,1.29-11.09,3.48s-6.4,4.82-10.14,6.13a16.29,16.29,0,0,1-14.53-2A19.85,19.85,0,0,1,418.81,272.48Z" style="fill:#e0e0e0"></path></g><g id="freepik--flower-4--inject-203"><path d="M321.32,475.45s0-.24,0-.71,0-1.19,0-2.1c.05-1.84,0-4.56.19-8.05.23-7,.91-17.11,2.33-29.54.7-6.22,1.65-13,2.75-20.28s2.45-15,4-23.15c3-16.26,6.87-34,10.78-52.72s7.41-36.53,9.92-52.88A429.48,429.48,0,0,0,356,242.37c.63-12.49.52-22.62.17-29.6,0-1.75-.14-3.3-.23-4.64s-.16-2.48-.22-3.4l-.13-2.09c0-.47,0-.72,0-.72s0,.24.07.71.1,1.19.18,2.09.16,2.06.27,3.4.23,2.89.29,4.64a290.55,290.55,0,0,1,0,29.63,424.86,424.86,0,0,1-4.56,43.71c-2.49,16.36-6,34.22-9.89,52.91s-7.76,36.45-10.82,52.7c-1.57,8.12-2.87,15.87-4,23.12s-2.09,14.05-2.81,20.26c-1.47,12.42-2.2,22.52-2.5,29.51-.2,3.49-.2,6.2-.29,8,0,.91-.05,1.61-.07,2.1S321.32,475.45,321.32,475.45Z" style="fill:#263238"></path><path d="M331.63,165a8,8,0,0,0-2.89-2.37c-2.79-1.12-6.08,1.1-7,4-.41,1.31-.56,2.89-1.71,3.64a6.77,6.77,0,0,1-2,.63c-3.38.9-5.29,4.86-4.81,8.33s2.83,6.43,5.51,8.69,5.76,4,8.47,6.24c4.26,3.49,7.51,8.08,11.67,11.69s12.64,7.09,17.92,5.5C345.68,199.69,342.1,177.24,331.63,165Z" style="fill:#DA6187"></path><path d="M381.14,165.78a18.26,18.26,0,0,0-1.83-6.18,6.28,6.28,0,0,0-5.16-3.39c-1.57,0-3.09.82-4.65.65-2.93-.32-4.86-3.88-7.8-3.82-2,0-3.56,1.78-5.51,2.23-3.18.74-6.4-2.08-9.57-1.28a5.86,5.86,0,0,0-3.87,4.13,15.69,15.69,0,0,0-.29,5.88c1.22,14.64,5.45,33.24,11.71,46.52l5.2,1.51c4.54-9.21,16.77-17.84,21.49-27.2C383.76,179.08,382.24,172.12,381.14,165.78Z" style="fill:#DA6187"></path><path d="M408.73,191.26c.09-1.75-.3-3.81-1.87-4.58-.74-.35-1.61-.35-2.32-.75-1.17-.65-1.54-2.15-1.57-3.48a10.61,10.61,0,0,0-.39-3.95c-.89-2.07-3.54-2.89-5.74-2.43a14.88,14.88,0,0,0-5.82,3.28c-11.22,8.81-26.84,21.84-33.69,32.18h0a59.74,59.74,0,0,0,29.67.21A35.56,35.56,0,0,0,401.35,205C405.44,201.53,408.44,196.58,408.73,191.26Z" style="fill:#DA6187"></path><path d="M356.82,211.32c-3-4.2-4.05-9.45-5-14.51a3.74,3.74,0,0,1-.09-1.33,1.24,1.24,0,0,1,.81-1c.68-.18,1.29.47,1.71,1l3.34,4.56q1.63-2.58,3.29-5.16c.37-.58,1-1.25,1.63-1s.53,1.13.37,1.76c-.35,1.44-.71,2.88-1.07,4.33a13.59,13.59,0,0,1,7.56-2.6c-3.37,5.47-7.52,7.21-12.52,13.85" style="fill:#263238"></path><path d="M382.28,186.4a7.58,7.58,0,0,1-1,1l-2.89,2.51c-2.42,2.13-5.71,5.14-9.21,8.61s-6.59,6.69-8.86,9c-1.13,1.15-2.05,2.08-2.7,2.71a8,8,0,0,1-1,.94,6.87,6.87,0,0,1,.9-1.08l2.59-2.82c2.2-2.37,5.25-5.63,8.76-9.11s6.84-6.45,9.33-8.52c1.25-1,2.27-1.85,3-2.39A6.64,6.64,0,0,1,382.28,186.4Z" style="fill:#263238"></path><path d="M372.15,171a5.06,5.06,0,0,1-.19,1.23c-.16.78-.42,1.91-.78,3.29a91.1,91.1,0,0,1-3.51,10.6,93.24,93.24,0,0,1-4.75,10.11c-.69,1.25-1.27,2.25-1.7,2.92a6.15,6.15,0,0,1-.7,1,6.08,6.08,0,0,1,.52-1.13l1.56-3c1.29-2.53,3-6.09,4.59-10.12s2.83-7.78,3.63-10.51c.38-1.29.69-2.37.94-3.24A6.15,6.15,0,0,1,372.15,171Z" style="fill:#263238"></path><path d="M355.56,176a31.38,31.38,0,0,1,.3,3.52c.15,2.18.39,5.18.76,8.48s.84,6.28,1.19,8.44a26.43,26.43,0,0,1,.5,3.5,3.67,3.67,0,0,1-.29-.91c-.16-.59-.35-1.46-.58-2.53-.44-2.14-.95-5.12-1.33-8.44s-.56-6.33-.62-8.52c0-1.09,0-2,0-2.59A2.91,2.91,0,0,1,355.56,176Z" style="fill:#263238"></path><path d="M355.14,210.53a39,39,0,0,1-3.38-5.34,38.59,38.59,0,0,1-2.94-5.59,39.84,39.84,0,0,1,3.39,5.33A37.69,37.69,0,0,1,355.14,210.53Z" style="fill:#263238"></path><path d="M420.36,258c-3-.82-6.71-2.32-11.29-2.85,4.76-2.36,12-7.16,15.42-11.24-5.73,1.92-14.71,6.59-19.87,9.72,0-3.33,2.82-8.79,1.53-11.85-1.49,6.3-7.29,12.68-12.63,16.35-.11-2.94,1.67-6.56,1.56-9.5-2.94,5.3-5.82,9.52-10.07,13.35a19.14,19.14,0,0,0,0-9.51,63.36,63.36,0,0,1-11,17.8,25.59,25.59,0,0,0,2.59-11.6c-5.94,11.76-16.14,19.73-26.93,30.45,10.77-4.69,32.41-14.09,44.12-13.12-4.58-1.17-10.86-1.58-14.83-4.14,7.07-1.12,16.11-3.21,23.26-3.27-3-1.05-8.78-1.43-14.91-1.33,6.15-1,19.22-5,25.42-4.59-2.51-1.49-11.57.17-14.08-1.32C403.92,259.22,415.39,257.24,420.36,258Z" style="fill:#455a64"></path><path d="M404.78,256.52a3,3,0,0,1-.59.29l-1.73.73c-1.51.61-3.67,1.53-6.33,2.71A203.48,203.48,0,0,0,376,270.64,200.76,200.76,0,0,0,357.1,283.3c-2.32,1.75-4.17,3.2-5.44,4.23l-1.47,1.16a3.09,3.09,0,0,1-.54.38,2.49,2.49,0,0,1,.47-.46l1.41-1.24c1.23-1.07,3.05-2.57,5.34-4.37a179.84,179.84,0,0,1,18.81-12.81A176.33,176.33,0,0,1,396,259.92c2.68-1.14,4.87-2,6.41-2.57l1.76-.64A3.61,3.61,0,0,1,404.78,256.52Z" style="fill:#263238"></path></g><g id="freepik--flower-3--inject-203"><path d="M94.23,266c3-.81,6.72-2.31,11.29-2.85-4.76-2.35-12-7.15-15.41-11.24,5.72,1.92,14.7,6.59,19.87,9.72,0-3.33-2.83-8.78-1.54-11.85,1.5,6.3,7.29,12.68,12.63,16.35.11-2.94-1.66-6.56-1.56-9.5,2.94,5.31,5.83,9.52,10.08,13.35a19.1,19.1,0,0,1,0-9.5,63.9,63.9,0,0,0,11,17.8A25.53,25.53,0,0,1,138,266.65c5.93,11.76,16.13,19.73,26.92,30.45C154.18,292.41,132.53,283,120.83,284c4.58-1.17,10.85-1.57,14.82-4.14-7.06-1.11-16.1-3.21-23.26-3.27,3-1,8.78-1.43,14.91-1.33-6.14-1-19.21-5-25.42-4.59,2.51-1.49,11.57.17,14.08-1.32C110.67,267.25,99.2,265.28,94.23,266Z" style="fill:#455a64"></path><path d="M109.82,264.56a2.49,2.49,0,0,1,.63.18l1.76.64c1.53.56,3.72,1.43,6.4,2.57A175.35,175.35,0,0,1,157.72,291c2.3,1.79,4.12,3.29,5.34,4.36l1.41,1.24a2.93,2.93,0,0,1,.47.46,3.62,3.62,0,0,1-.54-.38l-1.47-1.16c-1.26-1-3.11-2.47-5.43-4.23a202.73,202.73,0,0,0-18.85-12.66,201,201,0,0,0-20.18-10.38c-2.66-1.19-4.83-2.11-6.33-2.72l-1.73-.73A4,4,0,0,1,109.82,264.56Z" style="fill:#263238"></path><path d="M205.62,475.58s-.13-.19-.34-.58l-.95-1.74c-.41-.78-.92-1.73-1.52-2.84l-1-1.82c-.31-.66-.63-1.37-1-2.12l-2.32-5-2.47-6.07c-.92-2.16-1.68-4.56-2.6-7.06s-1.75-5.2-2.64-8A356.13,356.13,0,0,1,181.08,400c-2.92-15.37-5.38-32.39-7.85-50.26s-5-34.88-8.46-50.14a247.24,247.24,0,0,0-12-39.67A159.18,159.18,0,0,0,140.05,235l-1.22-2-1.16-1.7-1.82-2.65L134.74,227c-.25-.37-.36-.57-.36-.57l.4.54,1.16,1.61,1.86,2.63,1.18,1.68,1.24,2a154,154,0,0,1,12.85,24.87,244.73,244.73,0,0,1,12.17,39.71c3.44,15.27,6.06,32.28,8.5,50.16s4.92,34.89,7.81,50.25a364.22,364.22,0,0,0,9.63,40.36c.88,2.82,1.68,5.52,2.6,8s1.65,4.9,2.57,7.07,1.68,4.2,2.42,6.07l2.27,5,1,2.13c.34.65.66,1.26.95,1.83.58,1.12,1.07,2.08,1.48,2.86l.89,1.76Z" style="fill:#263238"></path><path d="M125.16,209.3c-5.43,1.23-11.16-.14-16.18-2.54s-9.5-5.77-14.15-8.83c-3.29-2.16-6.92-4.24-11-3.46a6.35,6.35,0,0,0-4.34,3c-2.29,3.95,1.42,7.15,1.52,10.87.06,2.16-1.1,4.2-1.07,6.36,0,2.6,1.76,4.83,3.41,6.84,2,2.43,4.25,5,7.35,5.48,2.78.41,7.56,1.66,10.21.72,4.75-1.67,8.67-1.74,12.8-4.61,5.72-4,12.08-11.95,11.93-11.8Z" style="fill:#DA6187"></path><path d="M152.24,224.79c-1-2-2.85-3.12-4.69-4.16l-19-10.81-5.77.6c-1.4,6.48-2,10.88-11.69,16.39a12.6,12.6,0,0,1-6,1.77c-2.94,0-6.5,2.34-5.06,5.88a5.52,5.52,0,0,0,2.69,2.78,24.9,24.9,0,0,0,19.76,1.06c2.44-.91,4.81-2.23,7.41-2.41,3.25-.21,6.94,1.27,9.52-.71,1-.75,1.58-1.89,2.54-2.67,1.51-1.23,3.6-1.35,5.52-1.66,2.3-.36,4.9-1.33,5.13-4A4,4,0,0,0,152.24,224.79Z" style="fill:#DA6187"></path><path d="M152.24,224.79a3.28,3.28,0,0,1,.43,1.27,3.75,3.75,0,0,1-.12,1.62,3.61,3.61,0,0,1-1.25,1.84,6.87,6.87,0,0,1-2.52,1.2c-1,.27-2.09.37-3.24.58a7.28,7.28,0,0,0-3.42,1.32c-1,.79-1.64,2.17-3,3a7.62,7.62,0,0,1-4.64.75,26.61,26.61,0,0,0-5-.22,19.36,19.36,0,0,0-5.08,1.63,27.29,27.29,0,0,1-5.48,1.8,25.3,25.3,0,0,1-12.3-.53,24,24,0,0,1-3.06-1.13,7.78,7.78,0,0,1-2.8-1.85,4.8,4.8,0,0,1-1.29-3.2,4,4,0,0,1,1.58-3.1,6.91,6.91,0,0,1,4.11-1.46,11.1,11.1,0,0,0,4-.85,23.72,23.72,0,0,0,3.58-1.92,31.65,31.65,0,0,0,3.24-2.32,15.6,15.6,0,0,0,4.66-5.92,35.66,35.66,0,0,0,1.92-6.93l0-.16.16,0,5.77-.59h.07l.06,0,17.79,10.23c1.06.62,2,1.16,2.82,1.69a9.84,9.84,0,0,1,1.87,1.55,4.91,4.91,0,0,1,1.09,1.69,8.67,8.67,0,0,0-1.18-1.6,9.84,9.84,0,0,0-1.88-1.48c-.8-.51-1.77-1-2.84-1.63L128.46,210l.13,0-5.77.61.2-.18a36.85,36.85,0,0,1-1.93,7,16.11,16.11,0,0,1-4.78,6.11A32.22,32.22,0,0,1,113,226a23.73,23.73,0,0,1-3.66,2,11.79,11.79,0,0,1-4.17.89,6.36,6.36,0,0,0-3.79,1.34,3.47,3.47,0,0,0-1.39,2.71,4.31,4.31,0,0,0,1.15,2.84,7.3,7.3,0,0,0,2.64,1.73,23.44,23.44,0,0,0,3,1.12,25.05,25.05,0,0,0,12.06.54,27.5,27.5,0,0,0,5.4-1.75,19.4,19.4,0,0,1,5.2-1.64,27,27,0,0,1,5.07.25,7.31,7.31,0,0,0,4.42-.67c1.24-.72,1.88-2.09,3-2.94a7.5,7.5,0,0,1,3.57-1.35c1.17-.19,2.26-.28,3.23-.53a6.76,6.76,0,0,0,2.45-1.12,3.59,3.59,0,0,0,1.4-3.29A5.82,5.82,0,0,0,152.24,224.79Z" style="fill:#263238"></path><path d="M162.76,204.49a35.75,35.75,0,0,0,6.17-24c-.38-3.54-1.44-7.32-6.14-8.32a8.44,8.44,0,0,0-5.12.6c-3,1.32-7.36,2.06-8.88,5s-2.61,8-3.82,11.11c-3.41,8.68-12.46,17-20.74,21.26l2.18,1.84c2,1.4,11.08,2,15.19,4.12,2.18,1.12,5.91,2.64,8.06,3.83s5.27-.27,7.67-.73a6.31,6.31,0,0,0,3.29-1.66c3.5-3.47,0-6.21.29-9.29A8.26,8.26,0,0,1,162.76,204.49Z" style="fill:#DA6187"></path><path d="M120.9,210c-9.35-2-16.75-8.88-23.63-15.5-1.66-1.6-3.38-3.31-4-5.53s.14-4.76.89-7c1.11-3.37,2.27-6.83,4.52-9.58a14.62,14.62,0,0,1,8-4.94c1.94-.44,4-.49,5.75-1.42,2-1.07,3.27-3.13,5.14-4.39a9.43,9.43,0,0,1,7.57-1.07,16.11,16.11,0,0,1,6.72,3.94c1.76,1.63,3.42,3.59,5.75,4.13,1.26.3,2.62.13,3.85.53,3,1,4.08,4.62,4.16,7.75.17,6.93-2.43,13.73-6.33,19.47s-9,10.53-14.36,15" style="fill:#DA6187"></path><path d="M152.45,191.13a4.79,4.79,0,0,1-.6,1.08c-.42.68-1.07,1.63-1.94,2.77a48.4,48.4,0,0,1-7.73,8,49,49,0,0,1-9.36,6c-1.28.62-2.34,1.08-3.09,1.35a5.37,5.37,0,0,1-1.17.39c0-.08,1.59-.75,4.1-2.07a56.15,56.15,0,0,0,9.19-6.11,55.37,55.37,0,0,0,7.77-7.83C151.41,192.55,152.38,191.08,152.45,191.13Z" style="fill:#263238"></path><path d="M130.26,175.54a8,8,0,0,1,.1,1.41c0,.91,0,2.22,0,3.84,0,3.24-.26,7.72-.79,12.64s-1.28,9.34-1.94,12.51c-.32,1.59-.61,2.87-.84,3.75a6.35,6.35,0,0,1-.4,1.35,8.25,8.25,0,0,1,.2-1.4c.18-1,.41-2.25.68-3.77.56-3.18,1.25-7.59,1.79-12.5s.8-9.36.93-12.59c.06-1.54.11-2.83.14-3.83A7.26,7.26,0,0,1,130.26,175.54Z" style="fill:#263238"></path><path d="M113.35,187.52a4,4,0,0,1,.69.72c.41.48,1,1.19,1.67,2.1a69.51,69.51,0,0,1,4.87,7.4,70.34,70.34,0,0,1,3.92,7.95c.43,1.05.76,1.9,1,2.5a3.17,3.17,0,0,1,.27.95,36.57,36.57,0,0,1-1.57-3.31c-.94-2.05-2.32-4.84-4-7.83s-3.43-5.59-4.72-7.45S113.29,187.57,113.35,187.52Z" style="fill:#263238"></path><path d="M95.29,214.78c0-.09,1.64.24,4.29.49a49.84,49.84,0,0,0,10.36-.13,49.26,49.26,0,0,0,10.1-2.33c2.51-.87,4-1.57,4-1.49a5.76,5.76,0,0,1-1,.57,30.61,30.61,0,0,1-2.91,1.27,43,43,0,0,1-20.62,2.47,29.5,29.5,0,0,1-3.13-.54A4.26,4.26,0,0,1,95.29,214.78Z" style="fill:#263238"></path><path d="M126,233.2a22.47,22.47,0,0,1,.47-2.93,57,57,0,0,0,.65-14.21,23.75,23.75,0,0,1-.2-3,13.4,13.4,0,0,1,.57,2.92,42.1,42.1,0,0,1,.27,7.19,42.75,42.75,0,0,1-.93,7.13A12.89,12.89,0,0,1,126,233.2Z" style="fill:#263238"></path><g style="opacity:0.30000000000000004"><path d="M137,204.27c-3.33.41-6.15,2.58-8.78,4.67a20.69,20.69,0,0,0,.67-12.52c-1.3.56-1.66,2.21-1.85,3.62l-1.11,8.54a19.35,19.35,0,0,0-4.87-9.7c-.49-.52-1.31-1-1.86-.57-.39.34-.31,1-.19,1.47.73,3.17,1.59,6.31,2.56,9.41l-10.34,4.53a1.6,1.6,0,0,0-.8.56,1.11,1.11,0,0,0,.23,1.28,2.77,2.77,0,0,0,1.48.63,7.88,7.88,0,0,0,2.22.12c3.07-.31,5.58-1.9,8-3.51l-3,8.68c2.92-1.55,4.47-4.82,5.51-8a69.45,69.45,0,0,0,3.85,9.17,15.39,15.39,0,0,0-1-8.61,8.68,8.68,0,0,0,8-3.87l-5.89,2A17,17,0,0,0,137,204.27Z"></path></g><path d="M122.4,210.69a12.72,12.72,0,0,1,1-8.3,15.89,15.89,0,0,1,2.87,6.41,22.17,22.17,0,0,0,4.66-4,9.4,9.4,0,0,1-2.15,5.63l5.44-2.18a7,7,0,0,1-6,4.52,12.22,12.22,0,0,1,1.29,6,17,17,0,0,1-4.33-5.34,38.49,38.49,0,0,1-5.22,6.83l1.08-6.89-3.92.19a23.61,23.61,0,0,1,5.77-3.69" style="fill:#263238"></path></g><g id="freepik--flower-2--inject-203"><path d="M321,199.34c-2.89,1.2-6.73,2.26-10.68,4.63,2.34-4.77,5.16-13,5.36-18.31-3.37,5-7.63,14.19-9.82,19.82-2-2.66-3.12-8.69-6-10.33,2.66,5.91,1.95,14.5,0,20.66-1.88-2.26-2.68-6.21-4.56-8.48.91,6,1.19,11.1.16,16.72a19.15,19.15,0,0,0-5.82-7.51,63.79,63.79,0,0,1,2.14,20.81,25.62,25.62,0,0,0-5-10.78c2.46,12.94-1.11,24.18-3.13,39.26,5.68-10.29,17.45-29.64,27.32-36-4.34,1.87-9.56,5.37-14.27,5.76,4.92-5.19,10.8-12.36,16.44-16.77-3.05,1-7.83,4.22-12.63,8,4.28-4.5,12.18-15.68,17.35-19.14-2.9.36-9.07,7.19-12,7.55C308.74,210.37,316.63,201.81,321,199.34Z" style="fill:#455a64"></path><path d="M307.78,207.71a2.88,2.88,0,0,1-.29.59l-.94,1.65c-.82,1.41-2,3.48-3.38,6.05a206.06,206.06,0,0,0-9.72,20.69,203.83,203.83,0,0,0-7.28,21.67c-.78,2.82-1.37,5.12-1.75,6.71L284,266.9a3.81,3.81,0,0,1-.19.63,2.64,2.64,0,0,1,.09-.65c.09-.48.22-1.09.37-1.85.32-1.61.85-3.92,1.58-6.76a179.25,179.25,0,0,1,17-42.45c1.44-2.55,2.65-4.59,3.53-6,.42-.65.75-1.18,1-1.59A3.37,3.37,0,0,1,307.78,207.71Z" style="fill:#263238"></path><path d="M264.17,475.76s0-.3,0-.89,0-1.47-.05-2.6c0-2.29,0-5.66.19-10,.14-8.73,2.63-21.1,4.94-36.45,1.15-7.68,2.5-16.08,3.73-25.13.61-4.52,1.33-9.19,1.93-14s1.24-9.79,1.89-14.88c2.41-20.39,4.59-42.88,5.72-66.54.12-3,.24-5.91.36-8.83s.27-5.83.26-8.71c.06-5.77.12-11.46.18-17q-.18-8.39-.35-16.45c0-2.69-.21-5.34-.35-8s-.3-5.22-.45-7.78-.25-5.1-.46-7.59-.48-4.95-.71-7.37-.46-4.8-.69-7.15c-.11-1.17-.22-2.34-.33-3.49s-.31-2.3-.46-3.43c-.62-4.52-1.23-8.89-1.81-13.08-.15-1.05-.29-2.09-.43-3.12s-.37-2-.55-3q-.56-3-1.08-5.86-1.07-5.73-2-10.89c-.8-3.41-1.56-6.62-2.26-9.62s-1.36-5.8-2-8.37-1.37-4.86-1.95-7l-2.75-9.61c-.31-1.09-.54-1.93-.7-2.51s-.22-.86-.22-.86.1.29.27.85l.75,2.49,2.84,9.59c.6,2.09,1.35,4.39,2,6.95s1.28,5.36,2,8.36,1.49,6.22,2.3,9.62q1,5.16,2.06,10.89c.36,1.91.73,3.87,1.1,5.86.18,1,.39,2,.56,3s.29,2.07.44,3.12q.89,6.3,1.84,13.09c.15,1.13.34,2.27.46,3.42s.23,2.33.34,3.5c.23,2.35.47,4.74.7,7.16s.48,4.88.72,7.37.32,5,.48,7.6.3,5.16.46,7.78.34,5.29.36,8q.18,8.06.36,16.45-.09,8.39-.17,17.06c0,2.89-.15,5.79-.26,8.72s-.24,5.87-.36,8.83c-1.13,23.69-3.33,46.18-5.77,66.57q-1,7.65-1.91,14.89c-.6,4.83-1.33,9.5-2,14-1.25,9.05-2.61,17.45-3.78,25.13-2.37,15.35-4.91,27.7-5.1,36.4-.23,4.34-.28,7.71-.29,10,0,1.13,0,2,0,2.6S264.17,475.76,264.17,475.76Z" style="fill:#263238"></path><path d="M202.68,103.8s-1.9-5.51,5.33-11.35a5.52,5.52,0,0,1,6.87,0,35.73,35.73,0,0,1,5.51,5.06s-3.1-10.05,1-13,10.66,1.55,10.66,1.55-1.38-5.68,2.58-8.26,7.73-5.5,10.83-3.78A40.47,40.47,0,0,1,250.13,77s-1.89-6.7,0-8.59,13.76-9.12,19.6-5.68,12.55,13.59,12.55,13.59S277.47,67,280.91,65.8s5.16-1.72,7.22,1.72S295.69,72.16,296,87s-15.82,43.67-15.82,43.67l-31,8.94Z" style="fill:#DA6187"></path><g style="opacity:0.30000000000000004"><path d="M294.78,79.1a26.72,26.72,0,0,0-8.89,23.16l-.51,8.86c3.37-4.74,6.76-9.56,8.85-15S297,84.49,294.78,79.1Z"></path></g><g style="opacity:0.30000000000000004"><path d="M245.67,125.47c-.91-2.2-2.72-3.89-4.47-5.5-3-2.72-6-5.45-9.08-8a61.73,61.73,0,0,0-13.47-8.77A32.22,32.22,0,0,0,203,100.09l9.93,4.52c11.08,9,21.67,17.08,31.49,27.38C246.32,130.55,246.59,127.67,245.67,125.47Z"></path></g><path d="M240.75,127.78s-27.33-26.9-37.88-27.65c-9.52-.68-10.78,10.23-5.07,17.44,4.31,5.44,18.9,22.72,36,28.9a30.05,30.05,0,0,0,23.23-1.31c3.88-1.86,8.63-4,11-4.46,4.51-.9,12.92,3.9,28.24-13.52s13.51-20.43,14.12-26.44,1.5-14.12,3.6-18.32,3.91-8.71,0-11.12-9.31-.6-15.32,7.81-12.32,24.64-12.32,24.64,0-24.34-7.81-24.94-8.71,2.11-8.71,2.11-6.91-6-11.11-3.31-6.91,9-6.91,9-9.92-5.4-15,1.21-6.91,6.6-5.41,14.41S240.75,127.78,240.75,127.78Z" style="fill:#DA6187"></path><path d="M240.75,127.78s-2.43-5.13-6.09-14.79c-.9-2.42-1.87-5.13-2.72-8.17a33.24,33.24,0,0,1-1-4.83,9.39,9.39,0,0,1,.52-5.31,26.38,26.38,0,0,1,3.4-4.62c.62-.76,1.24-1.54,1.87-2.34.35-.38.69-.77,1.06-1.15a13.61,13.61,0,0,1,1.28-.94,10.13,10.13,0,0,1,6.34-1.17,19.63,19.63,0,0,1,6.54,2l-.25.09a28.83,28.83,0,0,1,2.78-4.85,16.55,16.55,0,0,1,4.11-4.2,5.21,5.21,0,0,1,3-.77,9.17,9.17,0,0,1,3,.71A20.8,20.8,0,0,1,270,80.76l-.34.09a3.31,3.31,0,0,1,1.7-1.47,8.2,8.2,0,0,1,2.1-.63,19.75,19.75,0,0,1,4.42-.19,5.11,5.11,0,0,1,2.24.48,6.2,6.2,0,0,1,1.78,1.52,14.69,14.69,0,0,1,2.12,4.13A45.72,45.72,0,0,1,286,94a92.32,92.32,0,0,1,.64,9.79l-.46-.09a173.76,173.76,0,0,1,8.5-18.43,52.45,52.45,0,0,1,5.83-8.83,25.77,25.77,0,0,1,3.87-3.8,11.76,11.76,0,0,1,4.94-2.4,6.74,6.74,0,0,1,5.39,1.27,4.69,4.69,0,0,1,1.66,2.34,6.34,6.34,0,0,1,.11,2.87A20.74,20.74,0,0,1,314.55,82a22.84,22.84,0,0,0-1.86,5.26,90.72,90.72,0,0,0-1.75,11.26c-.1.95-.21,1.91-.28,2.86s-.13,1.93-.2,2.9a16.86,16.86,0,0,1-1.4,5.7,46.24,46.24,0,0,1-5.69,9.1c-2.15,2.82-4.44,5.5-6.73,8.14a64.88,64.88,0,0,1-7.45,7.29,31.13,31.13,0,0,1-8.83,5.23,19.82,19.82,0,0,1-5,1.1,38.24,38.24,0,0,1-5,0A9.62,9.62,0,0,0,268,141a17.83,17.83,0,0,0-2.33.71c-1.53.56-3,1.2-4.52,1.86-3,1.29-5.8,2.9-8.93,3.71a30.39,30.39,0,0,1-9.39,1.15,31.08,31.08,0,0,1-4.64-.52,31.88,31.88,0,0,1-4.43-1.22,54,54,0,0,1-8.12-3.84,80.69,80.69,0,0,1-13.82-10.13,120,120,0,0,1-11.18-11.45,38.38,38.38,0,0,1-4.55-6,14.7,14.7,0,0,1-1.83-7,8.46,8.46,0,0,1,2.45-6.36,7.09,7.09,0,0,1,2.93-1.63c.54-.11,1.09-.2,1.63-.27h1.62a17.12,17.12,0,0,1,5.87,2,52.11,52.11,0,0,1,5,3,153.83,153.83,0,0,1,15.09,11.78c4,3.45,7,6.24,9,8.14L240,127c.51.5.75.77.75.77l-.78-.73-2.3-2.15c-2-1.88-5-4.64-9-8.07a157.84,157.84,0,0,0-15.12-11.69,56.49,56.49,0,0,0-5-2.92,16.71,16.71,0,0,0-5.75-1.93h-1.58q-.78.12-1.56.27a6.74,6.74,0,0,0-2.78,1.56,8,8,0,0,0-2.32,6.1,14.3,14.3,0,0,0,1.8,6.81,38.52,38.52,0,0,0,4.52,6,118,118,0,0,0,11.16,11.38,80.44,80.44,0,0,0,13.75,10.06,54.08,54.08,0,0,0,8.06,3.8,31.88,31.88,0,0,0,4.36,1.2,31.49,31.49,0,0,0,4.56.5A30.07,30.07,0,0,0,252,146.8c3.06-.8,5.87-2.39,8.86-3.7,1.49-.66,3-1.31,4.55-1.87a21.35,21.35,0,0,1,2.39-.74,10.8,10.8,0,0,1,2.53-.16,37.46,37.46,0,0,0,5,0,19.42,19.42,0,0,0,4.85-1.07,30.56,30.56,0,0,0,8.68-5.15,64.53,64.53,0,0,0,7.38-7.23c2.29-2.63,4.57-5.31,6.71-8.11a46.72,46.72,0,0,0,5.62-9,16.38,16.38,0,0,0,1.36-5.55c.07-1,.13-1.93.2-2.89s.18-1.92.28-2.88a92.6,92.6,0,0,1,1.77-11.32,23.19,23.19,0,0,1,1.9-5.37A19.87,19.87,0,0,0,316,76.59a5.82,5.82,0,0,0-.09-2.63,4.16,4.16,0,0,0-1.48-2.09,6.28,6.28,0,0,0-5-1.17,11.29,11.29,0,0,0-4.73,2.3,25.57,25.57,0,0,0-3.78,3.72,52,52,0,0,0-5.79,8.75,174.69,174.69,0,0,0-8.49,18.36l-.44,1.11v-1.19a91.2,91.2,0,0,0-.63-9.73,45.84,45.84,0,0,0-1.92-9.19,14.14,14.14,0,0,0-2.05-4,5.59,5.59,0,0,0-1.63-1.4,4.78,4.78,0,0,0-2.07-.44,19.28,19.28,0,0,0-4.31.18,8.48,8.48,0,0,0-2,.59A3.05,3.05,0,0,0,270.09,81l-.13.27-.21-.18a20.28,20.28,0,0,0-5.28-3.25,8.59,8.59,0,0,0-2.91-.69,4.78,4.78,0,0,0-2.75.7,16.1,16.1,0,0,0-4,4.09A29.54,29.54,0,0,0,252,86.7l-.08.17-.17-.09a19,19,0,0,0-6.41-2,9.84,9.84,0,0,0-6.13,1.1c-1.82,1-2.83,2.89-4.15,4.34a25.92,25.92,0,0,0-3.36,4.56,9,9,0,0,0-.52,5.14,33.28,33.28,0,0,0,1,4.81c.83,3,1.8,5.74,2.68,8.16,1.78,4.85,3.3,8.54,4.33,11,.51,1.24.91,2.19,1.18,2.84l.3.72Z" style="fill:#263238"></path><path d="M273.62,140.67a9.62,9.62,0,0,1,.68-1.4c.48-.89,1.13-2.18,1.91-3.79a99.65,99.65,0,0,0,5.18-13A132.08,132.08,0,0,0,284.88,109c.34-1.68.62-3.08.83-4.16a8.54,8.54,0,0,1,.35-1.52,9.8,9.8,0,0,1-.15,1.56c-.13,1-.35,2.43-.67,4.19a107.59,107.59,0,0,1-3.35,13.62,86.1,86.1,0,0,1-5.35,13c-.82,1.59-1.53,2.86-2.06,3.71A8.61,8.61,0,0,1,273.62,140.67Z" style="fill:#263238"></path><path d="M260.52,99.18a12,12,0,0,1,.43,1.56c.25,1,.58,2.47.95,4.28.76,3.63,1.68,8.67,2.46,14.27s1.26,10.7,1.52,14.4c.13,1.85.22,3.34.25,4.38a10.42,10.42,0,0,1,0,1.61,9,9,0,0,1-.21-1.6c-.11-1.12-.24-2.59-.41-4.36-.36-3.68-.9-8.77-1.68-14.36s-1.63-10.63-2.3-14.27c-.32-1.75-.59-3.2-.79-4.31A9.09,9.09,0,0,1,260.52,99.18Z" style="fill:#263238"></path><path d="M253.22,83.57A23.54,23.54,0,0,1,251.16,80a23.83,23.83,0,0,1-1.91-3.61,12,12,0,0,1,2.37,3.36A12.46,12.46,0,0,1,253.22,83.57Z" style="fill:#263238"></path><path d="M246.81,144.77a3.59,3.59,0,0,1-.88-.43c-.55-.3-1.33-.77-2.28-1.37a55.55,55.55,0,0,1-7-5.3,42.57,42.57,0,0,1-5.92-6.53c-.65-.92-1.15-1.68-1.47-2.23a3.89,3.89,0,0,1-.45-.87c.08,0,.84,1.11,2.22,2.88a50.59,50.59,0,0,0,6,6.36,73.51,73.51,0,0,0,6.89,5.38A33.4,33.4,0,0,1,246.81,144.77Z" style="fill:#263238"></path><path d="M346.38,122.44s-.06.16-.21.46l-.66,1.3-2.59,5c-2.28,4.34-5.56,10.6-9.6,18.32L319,174.68c-5.37,10.21-11.35,21.44-16.14,33.87s-7.29,24.95-9,36.35-2.82,21.77-4.25,30.4a165.19,165.19,0,0,1-4.39,20.22c-.63,2.37-1.29,4.15-1.69,5.37q-.32.89-.48,1.38c-.11.31-.18.47-.18.47a4,4,0,0,1,.13-.48c.1-.34.24-.8.43-1.4.37-1.23,1-3,1.6-5.39a176.22,176.22,0,0,0,4.22-20.23c1.38-8.62,2.5-19,4.13-30.41s4.08-24,9-36.47,10.82-23.7,16.21-33.91l14.4-27.1,9.75-18.25c1.16-2.13,2.06-3.8,2.68-4.95l.71-1.28C346.29,122.58,346.38,122.44,346.38,122.44Z" style="fill:#263238"></path><path d="M393.52,102.83l-29,7.9L351.31,94q-5.12-11.46-10.24-22.91c-.62-1.37-1.24-2.92-.71-4.33s2.38-2.33,4-2.4c3.78-.16,7.25,2.46,9.2,5.7s2.67,7.06,3.36,10.79l.21-12a3.56,3.56,0,0,1,.9-2.82,3.49,3.49,0,0,1,2.7-.38c2.14.31,4.27.7,6.37,1.2a9.17,9.17,0,0,1,4.45,2,6.62,6.62,0,0,1,1.71,5.4,14.89,14.89,0,0,1-1,3.92c1.36-2,4.46-2.84,6.92-2.06,3.06,1,5.27,3.54,7.35,6,.81,1,1.69,2.09,1.54,3.35A4.64,4.64,0,0,1,386,88.2l-8.13,6.45c2.25-.6,4.29-1.79,6.48-2.6s4.68-1.21,6.79-.22,3.34,3.08,4.49,5.07c.75,1.31,1.52,2.94.76,4.26A4.39,4.39,0,0,1,393.52,102.83Z" style="fill:#DA6187"></path><path d="M366.83,101.25a2.06,2.06,0,0,0,.29-3,3.35,3.35,0,0,0-3.07-1,10,10,0,0,0-3.12,1.24A7.33,7.33,0,0,0,356,90.94c-1.05-.33-5.25-1.13-6-.31-.53.59.16,1.18.3,2,.78,4.23.82,4.82-4.5,12.74a19.81,19.81,0,0,0-1.12,19.7,16.32,16.32,0,0,0,14.53-2c3.23-2.29,5.49-5.67,8-8.7s5.76-5.87,9.69-6.41A18.19,18.19,0,0,0,366.83,101.25Z" style="fill:#263238"></path></g><g id="freepik--flowers-1--inject-203"><path d="M331.91,357.41c-2.74-1.52-6-3.87-10.27-5.49,5.19-1.14,13.39-4.05,17.67-7.2-6,.49-15.86,2.86-21.63,4.65.82-3.22,4.86-7.84,4.34-11.13-3,5.76-10.12,10.55-16.19,12.83.6-2.88,3.2-6,3.8-8.84-4.13,4.44-7.94,7.83-13,10.53a19.19,19.19,0,0,0,2.25-9.24A63.46,63.46,0,0,1,284,358.15a25.68,25.68,0,0,0,5.31-10.64c-8.6,10-19.63,14.19-32.68,22,11.58-2,34.06-4.79,45.18-1-4.16-2.23-10.15-4.14-13.39-7.58,7.13.62,16.41.76,23.37,2.43-2.7-1.75-8.18-3.51-14.15-4.89,6.19.55,19.85-.22,25.77,1.66-2.07-2-11.27-2.62-13.34-4.66C315.65,354.68,327.26,355.53,331.91,357.41Z" style="fill:#455a64"></path><path d="M317.13,352.27a3.53,3.53,0,0,1-.65.14l-1.86.29c-1.62.23-4,.61-6.85,1.12A198.71,198.71,0,0,0,264,366.88c-2.7,1.15-4.86,2.12-6.34,2.81l-1.72.78a3.1,3.1,0,0,1-.62.24,2.8,2.8,0,0,1,.57-.33l1.68-.87c1.46-.75,3.6-1.77,6.28-3a178.42,178.42,0,0,1,43.82-13.08c2.9-.47,5.25-.79,6.88-1l1.88-.2A2.75,2.75,0,0,1,317.13,352.27Z" style="fill:#263238"></path><path d="M315.85,312.59l-.22.21-.67.58-2.61,2.19c-1.14.95-2.53,2.1-4.12,3.48s-3.43,2.9-5.41,4.66c-4,3.47-8.67,7.69-13.77,12.47s-10.59,10.17-16.22,16S262,363.61,257.37,368.85s-8.69,10-12,14.15c-1.69,2-3.17,3.92-4.49,5.55s-2.44,3.06-3.35,4.23-1.6,2-2.11,2.67l-.56.69c-.13.15-.19.23-.2.22a1.48,1.48,0,0,1,.16-.25l.52-.72,2-2.74c.89-1.18,2-2.63,3.28-4.28s2.76-3.55,4.44-5.6c3.31-4.13,7.36-9,12-14.24s9.83-10.94,15.45-16.75,11.15-11.16,16.26-15.95,9.83-9,13.86-12.4c2-1.74,3.85-3.26,5.46-4.6s3-2.5,4.18-3.42l2.67-2.11c.29-.23.52-.41.71-.54S315.84,312.58,315.85,312.59Z" style="fill:#263238"></path><path d="M359.51,281.58c-1.41-5.24-6.65-2.62-6.65-2.62a12.79,12.79,0,0,0,1.81-4c.2-1.61-5-6.85-5-6.85l-4.43,3.43s.4-4.63,1-7.86-6.48-4.63-12.73-7.45-7.39,7.58-7.39,8.38l-2.36,6.3L321,278.56l8.43,29.21s21.38-8.47,22.58-9,11.69-6.74,11.69-7.54S360.92,286.82,359.51,281.58Z" style="fill:#DA6187"></path><g style="opacity:0.30000000000000004"><path d="M362.76,290.15a2.64,2.64,0,0,0-1.73-1.39,26.09,26.09,0,0,0-21.45,1.18,111.27,111.27,0,0,0-11.21-31.17l-.28,3.61q2.71,22.11,5.42,44.24a64.5,64.5,0,0,0,27.89-13.78C362.21,292.15,363.1,291.17,362.76,290.15Z"></path></g><path d="M381.18,300.6l-8.81,3,3-7A25.63,25.63,0,0,0,354.47,289c-7.63.83-19.13,8.17-31.5,13.59l-14.09,13.13a37.54,37.54,0,0,0,39.85,8.37c6.95-2.8,13-7.72,20.25-9.69,2.61-.7,5.32-1,7.88-1.88s5-2.44,6.2-4.88S383.58,301.84,381.18,300.6Z" style="fill:#DA6187"></path><path d="M315.64,317.79c-6.65.76-13.28-3.22-16.87-8.88s-4.45-12.7-3.73-19.37,2.93-13.06,5.12-19.39q3.68-10.66,7.36-21.31c.79-2.31,2.11-5,4.55-5.14,2.88-.14,4.32,3.38,4.91,6.21.59-2.6,4.41-3.15,6.54-1.56s3,4.35,3.66,6.91l5.4,19.79c1.6,5.86,3.21,11.77,3.5,17.84s-.88,12.37-4.37,17.33-9.63,8.3-15.63,7.43" style="fill:#DA6187"></path><path d="M316.08,317.65s.63.09,1.82.07a14.92,14.92,0,0,0,5.12-.94,18,18,0,0,0,6.83-4.54,21.62,21.62,0,0,0,5.1-9.59,35,35,0,0,0,.61-13.25,108.79,108.79,0,0,0-3.41-15l-4.52-16.51c-.4-1.42-.77-2.89-1.22-4.31a11.66,11.66,0,0,0-2-4,5.38,5.38,0,0,0-1.69-1.39,4.74,4.74,0,0,0-2.14-.46,4.4,4.4,0,0,0-2.11.56,2.71,2.71,0,0,0-1.25,1.68l-.27,1.11-.24-1.11a13.7,13.7,0,0,0-1.25-3.59,5.37,5.37,0,0,0-1.46-1.8,2.94,2.94,0,0,0-2.1-.6,3.26,3.26,0,0,0-2,1,7.32,7.32,0,0,0-1.32,1.88,39.45,39.45,0,0,0-1.67,4.4q-.76,2.24-1.53,4.41c-2,5.84-4,11.46-5.81,16.82A85.37,85.37,0,0,0,295.47,288,35.3,35.3,0,0,0,296,301.8a22.77,22.77,0,0,0,5.29,10.06,19.72,19.72,0,0,0,7.12,4.85,16.14,16.14,0,0,0,5.35,1.1c1.26.05,1.92-.07,1.92,0l-.48.06a10.31,10.31,0,0,1-1.44.07,15.94,15.94,0,0,1-5.43-1,19.7,19.7,0,0,1-7.25-4.84,23,23,0,0,1-5.44-10.17,35.63,35.63,0,0,1-.56-14,86.31,86.31,0,0,1,4.12-15.59c1.85-5.36,3.78-11,5.79-16.82.51-1.46,1-2.93,1.52-4.42a39.91,39.91,0,0,1,1.7-4.46,7.61,7.61,0,0,1,1.42-2,3.76,3.76,0,0,1,2.28-1.12,3.37,3.37,0,0,1,2.46.7,5.84,5.84,0,0,1,1.61,2,14.42,14.42,0,0,1,1.3,3.73h-.51a3.21,3.21,0,0,1,1.49-2,4.9,4.9,0,0,1,2.37-.64,5.17,5.17,0,0,1,2.38.52,6,6,0,0,1,1.86,1.52,12.39,12.39,0,0,1,2.07,4.16c.46,1.46.82,2.91,1.22,4.34l4.49,16.51a106.74,106.74,0,0,1,3.37,15.1,35.16,35.16,0,0,1-.68,13.4,22,22,0,0,1-5.24,9.69,18.23,18.23,0,0,1-7,4.53,14.66,14.66,0,0,1-5.19.86,11.18,11.18,0,0,1-1.36-.11Z" style="fill:#263238"></path><path d="M335.78,296.81a1.92,1.92,0,0,1,.34-.29c.23-.18.58-.43,1-.74.92-.62,2.26-1.5,4-2.46a60.8,60.8,0,0,1,6.26-3,26.3,26.3,0,0,1,8.26-2.15,20.67,20.67,0,0,1,4.42.61c1.39.31,2.72.68,4,1.09a36.3,36.3,0,0,1,6.41,2.72,18.09,18.09,0,0,1,3.82,2.73,7.76,7.76,0,0,1,.86.95,1.65,1.65,0,0,1,.26.36s-.44-.43-1.26-1.16a20,20,0,0,0-3.86-2.55,38.45,38.45,0,0,0-6.37-2.6c-1.24-.39-2.56-.75-3.93-1.05a21.1,21.1,0,0,0-4.28-.58,26.26,26.26,0,0,0-8.11,2.08,67,67,0,0,0-6.26,2.89c-1.74.92-3.11,1.74-4.06,2.31A13.3,13.3,0,0,1,335.78,296.81Z" style="fill:#263238"></path><path d="M237.07,425.32a71.64,71.64,0,0,1-5.53-34.43c-1.19,4.58-1.63,10.85-4.21,14.81-1.08-7.07-3.13-16.12-3.16-23.28-1.06,3-1.47,8.78-1.4,14.9-.93-6.14-4.91-19.24-4.47-25.44-1.5,2.51.11,11.57-1.39,14.08-2-5.3-4-16.78-3.24-21.75-.83,3-2.35,6.7-2.9,11.28-2.34-4.78-7.1-12.06-11.17-15.47,1.89,5.73,6.52,14.73,9.62,19.91-3.33,0-8.77-2.86-11.84-1.59,6.3,1.53,12.65,7.35,16.29,12.71-2.94.1-6.55-1.7-9.49-1.6,5.29,3,9.49,5.87,13.3,10.14a19.14,19.14,0,0,0-9.51,0,63.7,63.7,0,0,1,17.75,11.07,25.61,25.61,0,0,0-11.6-2.64c11.74,6,20,13.94,25.8,25.79Z" style="fill:#455a64"></path><path d="M239.92,433.79a2.4,2.4,0,0,1-.3-.55l-.74-1.62c-.63-1.4-1.57-3.43-2.77-5.92-2.41-5-6-11.71-10.23-19s-8.26-13.78-11.1-18.52l-3.35-5.62c-.37-.63-.66-1.14-.89-1.54a2.47,2.47,0,0,1-.28-.56,3.88,3.88,0,0,1,.37.5l1,1.49,3.49,5.54c2.92,4.69,7,11.16,11.24,18.45s7.79,14.07,10.11,19.08c1.16,2.51,2.05,4.57,2.63,6l.65,1.66A3.32,3.32,0,0,1,239.92,433.79Z" style="fill:#263238"></path><path d="M247.12,476.27s-.05-.19-.13-.58-.2-1-.35-1.71c-.29-1.53-.72-3.75-1.27-6.61s-1.21-6.37-1.9-10.46-1.54-8.73-2.31-13.9q-.61-3.87-1.26-8.09c-.44-2.82-.82-5.76-1.25-8.8-.89-6.07-1.66-12.58-2.51-19.43-1.58-13.72-3-28.82-4.16-44.71s-1.66-31.07-2-44.87c-.09-6.91-.22-13.47-.16-19.6,0-3.07,0-6,0-8.89s.1-5.58.15-8.19c.06-5.22.27-9.94.4-14.08s.3-7.71.46-10.63.28-5.15.36-6.71c0-.75.08-1.33.11-1.74s.05-.6.05-.6,0,.21,0,.6,0,1-.06,1.75c-.06,1.55-.15,3.81-.26,6.71s-.27,6.49-.37,10.63-.29,8.86-.33,14.08q0,3.92-.11,8.19c0,2.85,0,5.81,0,8.88,0,6.13.1,12.69.21,19.59.33,13.79.94,28.95,2,44.84s2.57,31,4.12,44.69c.83,6.85,1.59,13.36,2.46,19.43.42,3,.79,6,1.21,8.8s.84,5.52,1.23,8.1c.75,5.16,1.57,9.81,2.24,13.9s1.28,7.61,1.81,10.48.9,5.08,1.18,6.62c.12.74.22,1.31.29,1.72S247.12,476.27,247.12,476.27Z" style="fill:#263238"></path><path d="M269.57,291.48c-2.9,1.2-6.74,2.26-10.69,4.63,2.34-4.77,5.17-13,5.36-18.31-3.36,5-7.63,14.19-9.82,19.82-2-2.66-3.11-8.69-6-10.33,2.66,5.91,2,14.5,0,20.66-1.88-2.26-2.67-6.21-4.55-8.48.9,6,1.18,11.1.15,16.72a19.15,19.15,0,0,0-5.82-7.51,63.79,63.79,0,0,1,2.14,20.81,25.5,25.5,0,0,0-5-10.78c2.47,12.94-1.11,24.18-3.13,39.26,5.68-10.29,17.45-29.64,27.32-36-4.34,1.87-9.56,5.38-14.27,5.76,4.92-5.19,10.81-12.36,16.44-16.77-3,1-7.83,4.22-12.63,8,4.28-4.5,12.18-15.68,17.35-19.14-2.9.36-9.07,7.19-12,7.55C257.31,302.51,265.2,294,269.57,291.48Z" style="fill:#455a64"></path><path d="M256.34,299.85a2.33,2.33,0,0,1-.29.59l-.93,1.65c-.83,1.41-2,3.48-3.38,6.05a199.47,199.47,0,0,0-17,42.36c-.77,2.82-1.36,5.12-1.74,6.71-.19.75-.35,1.36-.47,1.83a2.87,2.87,0,0,1-.19.63,2.64,2.64,0,0,1,.09-.65c.1-.48.22-1.09.37-1.85.32-1.61.86-3.92,1.59-6.76a179,179,0,0,1,7.15-21.77A181.58,181.58,0,0,1,251.41,308c1.44-2.55,2.65-4.59,3.53-6l1-1.59A4.43,4.43,0,0,1,256.34,299.85Z" style="fill:#263238"></path><path d="M255.15,180.91c-.5-2.61-2.67-3.39-5.1-4.45s-5.08-2-6.18.45c-.9,2-.91,5.07-3.06,5.19-1.56.08-2.46-1.83-2.46-3.4s.4-3.25-.36-4.63c-1-1.74-3.32-2.09-5.3-1.86s-4,.84-5.91.26-3.48-2.36-5.51-2.52-3.67,1.28-5.46,2.15c-5.77,2.82-13.59.09-18.53,4.21-2.44,2-3.51,5.35-3.53,8.53s4,30.26,14.18,40.83l20,4.22c8.53-7.49,23.52-19.53,26.84-41.09C255.16,186.18,255.65,183.51,255.15,180.91Z" style="fill:#DA6187"></path><path d="M289.05,211.66c-1.07-2.62-2.18-5.31-4.13-7.36s-5-3.34-7.67-2.45c3.16-3.66.77-10-3.69-11.87s-9.77,0-13.4,3.14-6,7.56-8.35,11.77S237.92,216.42,234,219.2l1.52,17.71c5.18,2.6,22.44,5.61,28.16,4.62a59.79,59.79,0,0,0,16.3-5.86c4.77-2.36,9.82-5.48,11.31-10.59C292.56,220.64,290.79,216,289.05,211.66Z" style="fill:#DA6187"></path><g style="opacity:0.30000000000000004"><path d="M274,228.31c-1.32-1.53-3.78-1.41-5.64-.59s-3.44,2.19-5.35,2.87-4.45.37-5.38-1.43c-.7-1.34-.37-3.24-1.56-4.17s-3.22,0-4.83-.36c-1.92-.43-2.79-2.58-3.79-4.28A12.6,12.6,0,0,0,230,216a22.43,22.43,0,0,0-.71-5.78,7.55,7.55,0,0,0-3.43-4.54c-2.13-1.13-4.79-.78-7-1.74-3.43-1.48-5-5.63-8.18-7.52-2.45-1.43-5.45-1.34-8.28-1.51s-6-.8-7.61-3.1L199,209c5.65,7.86,11.8,15.46,19.27,21.62s16.35,10.86,25.93,12.26,19.88-.75,27.36-6.9a9.65,9.65,0,0,0,2.86-3.4A4.11,4.11,0,0,0,274,228.31Z"></path></g><path d="M273.65,206a6,6,0,0,1-.74,1c-.49.63-1.25,1.5-2.22,2.54a62.53,62.53,0,0,1-8.32,7.39,63.32,63.32,0,0,1-9.51,5.79c-1.28.62-2.33,1.09-3.07,1.38a6.52,6.52,0,0,1-1.17.41,5.54,5.54,0,0,1,1.09-.59c.71-.35,1.74-.87,3-1.53a73,73,0,0,0,17.73-13.11c1-1,1.79-1.83,2.33-2.41A6.1,6.1,0,0,1,273.65,206Z" style="fill:#263238"></path><path d="M248.25,207.79a27.59,27.59,0,0,1-7.58,9.61c-.11-.12,1.84-2.05,3.92-4.7S248.11,207.71,248.25,207.79Z" style="fill:#263238"></path><path d="M227.25,182.47a8,8,0,0,1,0,1.41c-.06.9-.14,2.2-.21,3.81a125.21,125.21,0,0,0,0,12.56,123.71,123.71,0,0,0,1.33,12.5c.24,1.6.46,2.88.62,3.77a8.56,8.56,0,0,1,.19,1.39,6.83,6.83,0,0,1-.39-1.35c-.22-.88-.49-2.16-.79-3.74a100.7,100.7,0,0,1-1.48-12.54,98.13,98.13,0,0,1,.12-12.62c.12-1.61.25-2.91.38-3.8A6.9,6.9,0,0,1,227.25,182.47Z" style="fill:#263238"></path><path d="M220.21,207.43c-2.49-2-6.08-2.18-8.38-4.35-1.27-1.19-2-2.88-3.42-3.93-3-2.22-7.46-.66-10.71-2.43-2.45-1.34-3.57-4.18-5.24-6.42s-5-4-7.13-2.2c-1.85,1.52-1.41,4.42-.76,6.72,2.67,9.43,6.3,18.78,12.45,26.42s15.12,13.42,24.91,13.95c-1.94-4.25.28-10.16,1.13-14.75S223.88,210.33,220.21,207.43Z" style="fill:#DA6187"></path><path d="M220.27,207.32a17.72,17.72,0,0,0-4.46-2.17,10.7,10.7,0,0,1-5.09-3.55,8.91,8.91,0,0,0-3.31-3.17,12.32,12.32,0,0,0-4.43-.8c-1.88-.11-3.89-.17-5.53-1.2s-2.71-2.86-3.75-4.51c-1.45-2.29-3.82-5.17-6.91-4.62s-3.15,4-2.64,6.36a74.6,74.6,0,0,0,3.71,11.48c2.88,7.35,6.82,14.43,12.51,20s13.35,9.7,21.56,10.2c.1,0,.14-.1.1-.18-2.17-5.12.68-10.93,1.38-16.08.56-4.09.31-8.88-3.11-11.71-.12-.1-.3.08-.18.18,3.56,2.94,3.61,8,2.94,12.19s-2.37,8.32-2,12.6a11,11,0,0,0,.16,1.15,8.15,8.15,0,0,1,.42,1.42c-.27.48-2.69-.13-3.19-.22a30.91,30.91,0,0,1-6.64-2,37.58,37.58,0,0,1-11-7.41c-7.13-6.83-11.51-16-14.56-25.24-1-2.91-4.85-12.4,1.17-12.48,4.84-.05,6.07,6,9.14,8.61,3.63,3,9.24.34,12.56,3.89,1.6,1.7,2.54,3.52,4.72,4.6s4.4,1.53,6.29,2.95C220.28,207.64,220.4,207.42,220.27,207.32Z" style="fill:#263238"></path><path d="M282,224.67c-1.13-3.68-6-5-9.63-3.74s-6.25,4.43-8.65,7.44-5,6.16-8.54,7.59-8.48.33-9.86-3.26c-.59-1.55-.73-3.63-2.29-4.17-.88-.31-1.84.07-2.77,0-3.09-.13-4-4.14-5.59-6.79a9,9,0,0,0-16.66,3.7c-.47-2.78-4.16-4.15-6.68-2.89s-3.73,4.34-3.52,7.15a17,17,0,0,0,3.15,7.75c5.29,8.07,13.59,15.39,22.65,16.79l-.2,0c8.29,2.54,17.49-.78,25.2-4.74s13.33-8.81,19.29-15.11C280.44,231.7,283.09,228.2,282,224.67Z" style="fill:#DA6187"></path><path d="M282,224.67a1.32,1.32,0,0,1,.09.29,4.13,4.13,0,0,1,.17.86,6.77,6.77,0,0,1-.55,3.34,16.62,16.62,0,0,1-3,4.53c-1.44,1.59-3.15,3.35-5.12,5.25a71.85,71.85,0,0,1-6.92,5.82,61.93,61.93,0,0,1-9.06,5.47,53.87,53.87,0,0,1-11.17,4.25,25,25,0,0,1-13.08,0l.12-.46.2,0-.09.47c-6-1-11.62-4.38-16.26-8.92A46.85,46.85,0,0,1,211,238a25.36,25.36,0,0,1-2.48-4.45,11.24,11.24,0,0,1-.94-5.11,8.34,8.34,0,0,1,1.24-3.84,5.89,5.89,0,0,1,3.12-2.5,5.39,5.39,0,0,1,3.93.35,4.23,4.23,0,0,1,2.41,3l-.51,0a9.58,9.58,0,0,1,5-7.3,9.07,9.07,0,0,1,8.53.11,9.46,9.46,0,0,1,3.22,2.8,29.9,29.9,0,0,1,1.92,3.66,7.65,7.65,0,0,0,2.28,3.09,3.14,3.14,0,0,0,1.73.52c.61,0,1.25-.17,1.94-.15a2.29,2.29,0,0,1,1.81.93,5.37,5.37,0,0,1,.81,1.78c.19.61.33,1.21.55,1.76a5.14,5.14,0,0,0,.91,1.49,7.49,7.49,0,0,0,6.24,2.18,10.58,10.58,0,0,0,5.78-2.56,29.9,29.9,0,0,0,4.15-4.3c2.38-3,4.58-5.72,7.18-7.38a10.65,10.65,0,0,1,3.9-1.61,9.13,9.13,0,0,1,3.53.12,6.66,6.66,0,0,1,4,2.56,4.22,4.22,0,0,1,.59,1.12,3,3,0,0,1,.13.4,7.4,7.4,0,0,0-.79-1.46,6.65,6.65,0,0,0-4-2.44,9,9,0,0,0-3.45-.08,10.49,10.49,0,0,0-3.8,1.62c-2.53,1.64-4.69,4.37-7.06,7.36a29.94,29.94,0,0,1-4.17,4.38,11,11,0,0,1-6,2.67,7.9,7.9,0,0,1-6.59-2.29,5.71,5.71,0,0,1-1-1.62c-.23-.59-.38-1.2-.56-1.79a5.43,5.43,0,0,0-.74-1.64,1.84,1.84,0,0,0-1.48-.74c-.6,0-1.23.14-1.92.15a3.59,3.59,0,0,1-2-.59,8,8,0,0,1-2.46-3.26,28.62,28.62,0,0,0-1.89-3.6,8.84,8.84,0,0,0-3-2.64,8.55,8.55,0,0,0-8.06-.1,9,9,0,0,0-4.72,6.9l-.2,1.89-.31-1.88a3.77,3.77,0,0,0-2.14-2.63,4.87,4.87,0,0,0-3.54-.31,5.34,5.34,0,0,0-2.84,2.28,7.74,7.74,0,0,0-1.16,3.6,10.77,10.77,0,0,0,.9,4.87,25.14,25.14,0,0,0,2.43,4.36,46.86,46.86,0,0,0,6.26,7.55c4.58,4.48,10.13,7.86,16,8.81l-.09.47-.2,0,.12-.47a24.53,24.53,0,0,0,12.84,0,53.34,53.34,0,0,0,11.09-4.17,62.28,62.28,0,0,0,9-5.39,73.2,73.2,0,0,0,6.93-5.75c3.92-3.78,7.07-6.87,8.2-9.63a6.81,6.81,0,0,0,.61-3.28C282.13,225.06,282,224.68,282,224.67Z" style="fill:#263238"></path><path d="M191.38,405.21a71.68,71.68,0,0,1-28.62-19.93c2.47,4,6.68,8.71,7.73,13.31-5.84-4.13-13.78-8.93-18.94-13.88,1.44,2.87,5.29,7.15,9.75,11.35-5.07-3.59-17.25-9.82-21.41-14.44.76,2.82,8.4,7.95,9.16,10.76-5.24-2.19-14.83-8.78-17.9-12.75,1.6,2.69,3.2,6.34,6.1,9.91-5.05-1.63-13.6-3.26-18.89-2.69,5.45,2.61,15.14,5.53,21,6.89-2.34,2.37-8.15,4.32-9.37,7.42,5.47-3.47,14.08-4,20.46-2.9-2,2.18-5.77,3.53-7.74,5.71,5.8-1.74,10.81-2.75,16.53-2.53a19.14,19.14,0,0,0-6.61,6.83,63.59,63.59,0,0,1,20.29-5.08,25.54,25.54,0,0,0-10,6.5c12.46-4.28,24.29-5.11,36.81-1Z" style="fill:#455a64"></path><path d="M199.45,408.66a2.44,2.44,0,0,1-.59-.17l-1.68-.58c-1.45-.52-3.56-1.24-6.19-2.09-5.25-1.68-12.59-3.71-20.79-5.6l-21-4.74L142.81,394l-1.72-.43a3.47,3.47,0,0,1-.6-.18,2.57,2.57,0,0,1,.62.08l1.74.33,6.4,1.33c5.4,1.16,12.86,2.69,21.07,4.59s15.56,4,20.79,5.76c2.61.89,4.71,1.67,6.14,2.25l1.64.68A3.36,3.36,0,0,1,199.45,408.66Z" style="fill:#263238"></path><path d="M153.58,345.47a1.73,1.73,0,0,1,.19.29c.13.22.3.5.51.87.46.79,1.1,1.92,1.93,3.36l1.37,2.43c.53.88,1.1,1.84,1.72,2.86,1.24,2,2.59,4.4,4.25,6.91l2.54,4c.89,1.38,1.88,2.77,2.86,4.23,2,2.95,4.2,6,6.53,9.2,4.76,6.37,10.21,13.19,16.29,20.06s12.27,13,18,18.5c2.93,2.69,5.68,5.27,8.38,7.55,1.35,1.15,2.61,2.29,3.88,3.33l3.65,3c2.31,1.93,4.49,3.55,6.37,5l2.64,2,2.26,1.65c1.33,1,2.38,1.75,3.11,2.3l.81.61c.18.14.27.21.26.22a1.52,1.52,0,0,1-.29-.18l-.84-.57-3.17-2.21-2.29-1.62-2.66-2c-1.9-1.45-4.11-3-6.43-5l-3.68-3c-1.27-1-2.55-2.17-3.9-3.31-2.71-2.27-5.48-4.85-8.43-7.53-5.8-5.45-12-11.66-18.1-18.51s-11.54-13.72-16.29-20.11c-2.32-3.23-4.56-6.28-6.49-9.24-1-1.48-2-2.88-2.85-4.26l-2.52-4c-1.63-2.52-3-4.9-4.19-6.95l-1.67-2.88L156,350.09l-1.84-3.41c-.19-.38-.35-.67-.46-.9A1.2,1.2,0,0,1,153.58,345.47Z" style="fill:#263238"></path><path d="M131.2,328.31s-28.56-17.56-39.56-15.45-8.9,6.08-9.13,12.4-.23,12.41,5.85,14.05a29.38,29.38,0,0,0,10.07,1.17s-11.24,1.18-10.07,7.38,3.28,9,7.49,7.6,7.49-2.58,7.49-2.58-6.55,3.05-3,6.79,13.11,5.38,26.92,3.75,23.64-5.15,29-9.83-.6-12.56-3-15.22S131.2,328.31,131.2,328.31Z" style="fill:#DA6187"></path><path d="M129.92,327.24s-14.65-14-20.18-21-10.5-10.88-9.21-14.19,8.85-7,10.32-6.27a14,14,0,0,1,3,2.21s-.55-6.63,2.76-7.74,16.59-5.16,19.17-1.29,12.46,19.72,13.79,32.44-2.88,27.81-2.88,27.81Z" style="fill:#DA6187"></path><path d="M201.59,301.66c.72-2.07,1-5-1.36-7.06s-7.67-9.53-10.32-10.43c-.52-.18-6.45,3.24-6.45,3.24s3-4.06,1.48-6.09c-.88-1.21-3.21-2.41-4.94-3.18a2.26,2.26,0,0,0-3,1.13l-.76,1.69s1.66-3.13-1.11-4.79c-1.82-1.09-5.63-1.71-8-2a2.68,2.68,0,0,0-2.83,1.73l-1.48,4s.73-5-2.21-5.89-18.25,0-20.64,2.21-1.11,4.71-1.66,6.87,5,49,9,53.57,26.72-10,33.54-13.55S199.81,306.7,201.59,301.66Z" style="fill:#DA6187"></path><g style="opacity:0.30000000000000004"><path d="M148.52,340.42l-9.43-11,2.59,5a19.08,19.08,0,0,0-5.68,3c-.57.44-1.18,1.08-1,1.79.22.89,1.41,1,2.33,1L141,340a2.23,2.23,0,0,1,1.67.36,2.3,2.3,0,0,1,.56,1.22,17.93,17.93,0,0,0,2.52,5.52c.49.72,1.34,1.49,2.12,1.09a1.89,1.89,0,0,0,.75-1.6A26.62,26.62,0,0,0,148.52,340.42Z"></path></g><path d="M143,335.29a12.78,12.78,0,0,0-7.46,4.52c1.26.59,2.72.16,4.05-.22s2.86-.7,4,.05a4.94,4.94,0,0,1,1.31,1.49,31,31,0,0,1,1.77,3.4,1.52,1.52,0,0,0,2.85-.24c1.18-4.48,1.72-10,2.8-13.79a1.76,1.76,0,0,0-.08-1.6c-.5-.58-1.47-.24-2,.29-.83.79-1.52,2-2.66,2a3.34,3.34,0,0,1-2-1.09,13.81,13.81,0,0,0-6.15-3c-.58-.12-1.33-.12-1.6.4s.17,1.12.57,1.54l4.45,4.73" style="fill:#263238"></path><g style="opacity:0.30000000000000004"><path d="M199.85,299.68a3.78,3.78,0,0,0-2.83-.25,20.94,20.94,0,0,0-9.79,4.84c-2.08,1.83-4,4.19-6.7,4.76-3.5.74-6.86-1.8-10.43-2.06-3.72-.28-7.26,2-9.49,5s-3.4,6.63-4.52,10.19l-5.86,18.58,29.58-13.23a44.17,44.17,0,0,0,20.5-23C201,302.9,201.32,300.66,199.85,299.68Z"></path></g><path d="M149.52,339.45c.2-.8,3.2-23,12.21-26.44s14.62.6,20.83-.8,4.4-3.8,7.61-4.8a8,8,0,0,1,5.41,0l6-5.75s-2.81,8.75-11.42,19.76-17.62,21-29.24,25S149.52,339.45,149.52,339.45Z" style="fill:#DA6187"></path><path d="M149.52,339.45l0,.39c0,.26.07.64.15,1.14a8.94,8.94,0,0,0,1.69,4,6.46,6.46,0,0,0,6.24,2.08,27.72,27.72,0,0,0,8.64-3.19c6.09-3.23,12.25-8.83,18.13-15.77,1.49-1.73,3-3.54,4.44-5.41s2.95-3.81,4.36-5.85a74.66,74.66,0,0,0,7.41-13.37c.27-.63.51-1.28.73-1.91l.43.27-6,5.74-.11.12-.17-.07a7.45,7.45,0,0,0-3.29-.38,8.23,8.23,0,0,0-1.63.31,4,4,0,0,0-1.46.65c-.84.59-1.31,1.74-2.25,2.45a8.48,8.48,0,0,1-3,1.47,15.6,15.6,0,0,1-6.42.49c-2.09-.21-4.09-.58-6-.72a20.18,20.18,0,0,0-10.77,1.92,12.06,12.06,0,0,0-3.51,3.46,25.42,25.42,0,0,0-2.29,4,52.13,52.13,0,0,0-2.75,7.43c-.66,2.23-1.12,4.18-1.47,5.78s-.59,2.83-.75,3.67c-.08.4-.14.72-.19,1a2.29,2.29,0,0,1-.08.32,1.38,1.38,0,0,1,0-.33c0-.24.08-.56.14-1,.13-.85.34-2.1.66-3.7s.76-3.56,1.4-5.82a51.62,51.62,0,0,1,2.7-7.49,25.74,25.74,0,0,1,2.29-4.08,12.47,12.47,0,0,1,3.61-3.59,20.49,20.49,0,0,1,11-2c2,.13,4,.49,6.07.7a15.34,15.34,0,0,0,6.23-.49,7.93,7.93,0,0,0,2.86-1.39,6.12,6.12,0,0,0,1.08-1.18,5.36,5.36,0,0,1,1.19-1.29,4.57,4.57,0,0,1,1.62-.74,9.1,9.1,0,0,1,1.73-.32,7.86,7.86,0,0,1,3.54.42l-.28.05,6-5.74.76-.74-.34,1c-.22.66-.47,1.3-.73,1.94a75.06,75.06,0,0,1-7.48,13.47c-1.42,2-2.89,4-4.39,5.87s-3,3.68-4.46,5.41c-5.92,6.95-12.16,12.57-18.33,15.79a27.9,27.9,0,0,1-8.78,3.15,6.66,6.66,0,0,1-6.43-2.25A8.76,8.76,0,0,1,149.6,341a11.49,11.49,0,0,1-.1-1.16A1.65,1.65,0,0,1,149.52,339.45Z" style="fill:#263238"></path><path d="M145,328a1.68,1.68,0,0,1-.17-.46c-.1-.36-.23-.8-.38-1.33-.32-1.17-.75-2.86-1.24-5-1-4.21-2.14-10.07-3.05-16.61s-1.37-12.49-1.56-16.81c-.1-2.16-.15-3.91-.16-5.12,0-.55,0-1,0-1.39a2,2,0,0,1,0-.48,1.31,1.31,0,0,1,.07.48c0,.38.06.83.1,1.39.08,1.28.18,3,.31,5.1.29,4.3.82,10.24,1.72,16.76s2,12.38,2.89,16.6c.44,2.05.81,3.74,1.08,5,.11.54.21,1,.28,1.36A1.74,1.74,0,0,1,145,328Z" style="fill:#263238"></path><path d="M143.56,336.78a11.85,11.85,0,0,1-2.48-1.18,54.11,54.11,0,0,1-5.59-3.58,55.17,55.17,0,0,1-5.11-4.23,12.73,12.73,0,0,1-1.89-2,17.22,17.22,0,0,1,2.13,1.73c1.29,1.09,3.1,2.57,5.18,4.09s4,2.79,5.47,3.68A17.72,17.72,0,0,1,143.56,336.78Z" style="fill:#263238"></path><path d="M133.34,347.29a7.3,7.3,0,0,1-1.27.12l-3.43.19c-2.9.19-6.9.58-11.27,1.31s-8.27,1.7-11.07,2.48l-3.31.94a6.48,6.48,0,0,1-1.23.31,6.58,6.58,0,0,1,1.17-.5c.76-.29,1.88-.67,3.27-1.11a87.74,87.74,0,0,1,22.42-3.8c1.46,0,2.64-.05,3.45,0A5.35,5.35,0,0,1,133.34,347.29Z" style="fill:#263238"></path><path d="M141.4,339.92a6.15,6.15,0,0,1-1.17.12c-.75,0-1.85.08-3.2.11-2.7.06-6.43.05-10.56-.1s-7.84-.43-10.53-.7c-1.35-.13-2.44-.25-3.18-.35a4.68,4.68,0,0,1-1.16-.21,5.53,5.53,0,0,1,1.17,0L116,339c2.7.17,6.42.38,10.53.54s7.84.22,10.54.25l3.2.05A4.6,4.6,0,0,1,141.4,339.92Z" style="fill:#263238"></path></g></svg>
