<svg xmlns="http://www.w3.org/2000/svg" viewBox="0 0 500 500"><g id="freepik--background-complete--inject-97"><path d="M341.59,360.09H445.11s-5.15-6.7-10.82-7.54c0,0-11-32.86-29.52-33.09-17.17-.22-24.06,20.2-24.06,20.2s-8-9.16-15.56-5-11.91,16.18-11.91,16.18S344.69,355.48,341.59,360.09Z" style="fill:#ebebeb"></path><path d="M185.8,232.38H54.89s0-8.36,18-10c0,0,16.46-36.56,41.6-31.64,15.66,3,23.66,24.55,23.66,24.55s11.83-16.92,21.29-13.64,15.08,21.28,15.08,21.28S184.32,227.66,185.8,232.38Z" style="fill:#ebebeb"></path><path d="M439.44,204.14h-89s8.4-7.82,12.13-7.82,14.63-26.25,28.55-25.13,21.31,20.66,21.31,20.66S429.35,186.55,439.44,204.14Z" style="fill:#ebebeb"></path><path d="M230.53,340.67H154.41s3.79-4.93,8-5.54c0,0,8.11-24.16,21.7-24.34,12.63-.16,17.7,14.86,17.7,14.86s5.85-6.73,11.44-3.65S222,333.89,222,333.89,228.25,337.28,230.53,340.67Z" style="fill:#ebebeb"></path><path d="M128.83,113.13H232.35s-5.15-6.7-10.82-7.54c0,0-11-32.86-29.51-33.09C174.84,72.28,168,92.71,168,92.71s-8-9.16-15.56-5-11.91,16.18-11.91,16.18S131.93,108.52,128.83,113.13Z" style="fill:#ebebeb"></path></g><g id="freepik--Floor--inject-97"><polygon points="48.63 422.85 98.98 422.61 149.32 422.52 250 422.35 350.68 422.52 401.02 422.61 451.37 422.85 401.02 423.1 350.68 423.18 250 423.35 149.32 423.18 98.98 423.09 48.63 422.85" style="fill:#263238"></polygon></g><g id="freepik--Plants--inject-97"><path d="M200.7,422.85H120.29s.18-12,8.09-15.14a10.76,10.76,0,0,1,12.6,3s3.22-22,18-22,21.78,19,21.78,19S184,402,192.19,403,200.7,422.85,200.7,422.85Z" style="fill:#37474f"></path><path d="M439.45,422.85s-2.47-11.5-7.39-13.27-7.92,3.39-7.92,3.39S423,402,416,398.69s-12.22,3.44-12.22,3.44-5.35-13.94-14.92-13.94-14.4,20.4-14.4,20.4S368.81,402.51,363,406s-5.79,16.9-5.79,16.9Z" style="fill:#37474f"></path><path d="M134.7,422.85H60.55S63,412.4,67.91,411.66s7.2,4.1,7.2,4.1-.22-14.58,9-17.06S101,409.1,101,409.1s5.76-7.35,13.6-6.88,9.84,12.61,9.84,12.61S131.54,410.62,134.7,422.85Z" style="fill:#455a64"></path><path d="M362.55,422.85H317s.11-6.78,4.59-8.58a6.1,6.1,0,0,1,7.14,1.71s1.82-12.46,10.17-12.46,12.34,10.75,12.34,10.75a6.4,6.4,0,0,1,6.5-2.65C362.36,412.23,362.55,422.85,362.55,422.85Z" style="fill:#455a64"></path></g><g id="freepik--Character--inject-97"><path d="M281.76,63.43c11.64,20,7.7,47.77-16.48,66.52-22,17.06-55,14.56-67.26.44-13-15-8-35.77,5.44-42.45,12.95-6.44,26.45-3,34.94-10.74,4.06-3.71,6.87-12.58,12.63-18.33C257.46,52.47,274.27,50.6,281.76,63.43Z" style="fill:#263238"></path><path d="M213.62,141.18a56,56,0,0,0,28,1.52,62.14,62.14,0,0,0,25.66-11.81,53.35,53.35,0,0,0,17.32-22.24,52.81,52.81,0,0,0,3-27.9,55.38,55.38,0,0,1-3.82,27.57,52,52,0,0,1-7.17,12,56.28,56.28,0,0,1-10.05,9.7,67.1,67.1,0,0,1-11.91,7.33,60.68,60.68,0,0,1-27.18,5.83A54.2,54.2,0,0,1,213.62,141.18Z" style="fill:#263238"></path><path d="M199.57,89a27.6,27.6,0,0,1,7.62-4.17,37.05,37.05,0,0,1,8.42-2c2.9-.34,5.8-.75,8.69-1.27A38.1,38.1,0,0,0,232.82,79a24,24,0,0,0,3.94-2.14,17.19,17.19,0,0,0,3.27-3.1A73.71,73.71,0,0,0,245,66.48a34,34,0,0,1,5.4-6.76A23.79,23.79,0,0,1,257.65,55,22.85,22.85,0,0,0,250,59.31,34.65,34.65,0,0,0,244.24,66c-1.69,2.4-3.16,4.93-5,7.12A16,16,0,0,1,236.14,76a22.92,22.92,0,0,1-3.78,2c-5.26,2.34-11.13,3-16.87,3.92A36.84,36.84,0,0,0,207,84.27,26,26,0,0,0,199.57,89Z" style="fill:#263238"></path><path d="M117.86,273.38c-2.66-5.24,41.42-62.34,80-109.95a.05.05,0,0,0,0-.05c17.42-21.48,32.46-43.52,43.84-55.83,7.23-7.83,13.85-9.73,15.79-9.73,6.42,0,23.4,4.33,20.65,38.9-2.08,26.14-7.42,53.7-1.29,82.56s21.95,55.37,38.05,67.07,39.91,12.75,37.41,12.54c-.77-.07-4,4.25-12.08,7.24-10,3.66-25.48,4.65-32.64,8.09-14.66,7-26.55,23.11-48.68,25-23.31,2-48.44-13.71-71.32-22.54C159.84,305.93,140.76,318.57,117.86,273.38Z" style="fill:#B01E57"></path><g style="opacity:0.1"><path d="M117.86,273.38c-2.66-5.24,41.42-62.34,80-109.95a.05.05,0,0,0,0-.05c17.42-21.48,32.46-43.52,43.84-55.83,7.23-7.83,13.85-9.73,15.79-9.73,6.42,0,23.4,4.33,20.65,38.9-2.08,26.14-7.42,53.7-1.29,82.56s21.95,55.37,38.05,67.07,39.91,12.75,37.41,12.54c-.77-.07-4,4.25-12.08,7.24-10,3.66-25.48,4.65-32.64,8.09-14.66,7-26.55,23.11-48.68,25-23.31,2-48.44-13.71-71.32-22.54C159.84,305.93,140.76,318.57,117.86,273.38Z"></path></g><path d="M197.8,320.89c-3.43-1.5-6.82-2.94-10.17-4.23a99.75,99.75,0,0,0-20.16-5.06s29-60,47.05-69.43C224.4,237,207.13,262,197.8,320.89Z" style="opacity:0.1"></path><path d="M321.16,310.59c-5.36,1-10.3,2.08-13.53,3.63a72.7,72.7,0,0,0-10.53,6.5c-18-20.36-29.23-35.82-31.27-52.59C264.52,257.37,287.35,300.7,321.16,310.59Z" style="opacity:0.1"></path><path d="M216.82,329.37c-3.11-1.33-6.21-2.72-9.3-4.11,6.86-21.4,8.8-42.74,11.11-41.08C221.15,286,218.63,313.11,216.82,329.37Z" style="opacity:0.1"></path><path d="M150.81,325.73s-24.16-12.35-37.06-46.7c-1.26-3.35,8.31-35.38,20.13-52.28s26.5-25,44.86-41.52,53.82-71.43,66.44-81.36c8.67-6.82,12.35-6,12.35-6S246.41,105,241.65,110.9c-18.8,23.36-40.64,74.45-49.73,85-11.11,13-24.42,26.55-30.72,39.31C154.14,249.55,149.15,312.57,150.81,325.73Z" style="fill:#B01E57"></path><path d="M353.38,448.13c-2.52.82-76.51.15-79.23-1.62-1-.65,4.41-70.79,4.41-70.79l47.08.3L320.74,423S348.19,435.54,351,437.8,355.91,447.31,353.38,448.13Z" style="fill:#eb9481"></path><path d="M353.38,448.13c-2.52.82-76.51.15-79.23-1.62-.33-.2-.51-7.32.55-16.59,13.44,2.08,61.4,8.83,65.1,6.59,2.58-1.56.25-3.92-1.9-5.5,6.15,3,11.89,5.83,13.08,6.8C353.75,440.06,355.9,447.32,353.38,448.13Z" style="fill:#263238"></path><path d="M324.41,411.67H272.54s9.77-110.43,9.36-112.55c-.52-2.71-3.58-15-7.66-31-1.28-5-2.65-10.39-4.09-16-3.86-15.07-8.13-31.54-11.84-45.88-5.57-21.47-9.92-38.15-9.92-38.15h43.95s5.13,16.24,11.58,37.37c10.52,34.34,24.58,81.6,26,93.09C332.14,317.16,324.41,411.67,324.41,411.67Z" style="fill:#37474f"></path><path d="M322.11,402.82c-7.92-.16-5.64-.23-13.57-.3-3.87,0-29.35-.26-33,.34a.08.08,0,0,0,0,.16c3.62.6,29.1.38,33,.34,7.93-.08,5.65-.14,13.57-.31A.12.12,0,0,0,322.11,402.82Z" style="fill:#263238"></path><path d="M291.66,291.72c-1.7-7.5-4.24-14.85-6.46-22.21q-6.74-22.42-13.56-44.83-3.4-11.2-6.85-22.41c-1.16-3.76-2.31-7.53-3.49-11.29s-2.47-7.33-3.51-11c-.43-1.51-.66-.68-.12,1.24,1.1,3.87,2.18,7.74,3.31,11.6q3.34,11.46,6.74,22.91,6.75,22.8,13.61,45.56,3.42,11.42,6.86,22.82a94,94,0,0,1,2.81,11,51.38,51.38,0,0,1,.46,11.82c-.5,7.93-1.42,15.85-2.15,23.77s-1.47,15.87-2.21,23.8c-1.46,15.79-2.24,20.87-3.66,36.67-.18,2-.36,4-.51,6-.05.67,1,.62,1,0,1.71-15.61,2.34-20.57,3.81-36.21s2.91-31.12,4.37-46.68c.36-3.9.78-7.82.78-11.74A48.94,48.94,0,0,0,291.66,291.72Z" style="fill:#263238"></path><path d="M287.35,168.14c-3.05,23.61-8.87,67.88-13.11,100-9.91-38.91-25.85-100-25.85-100Z" style="fill:#263238"></path><path d="M298.15,449c-2.52.82-76.51.15-79.23-1.62-1-.65,1.16-70.79,1.16-70.79l47.08.31-1.66,46.93s27.46,12.59,30.25,14.85S300.67,448.18,298.15,449Z" style="fill:#eb9481"></path><path d="M298.15,449c-2.52.82-76.51.15-79.23-1.62-.33-.2-.34-7.13-.2-16.59,13.44,2.08,62.15,8.83,65.85,6.59,2.58-1.56.25-3.92-1.9-5.5,6.15,3,11.89,5.83,13.08,6.8C298.52,440.92,300.67,448.18,298.15,449Z" style="fill:#263238"></path><path d="M290.92,168.14s-1,21-5.83,37.69c-.38,1.38-.8,2.73-1.25,4a78.6,78.6,0,0,0-12.67,6.51s-.51,16.93-1,35.8c-.56,21.09-1.14,44.63-1,49.62.44,18.67-1.83,109.67-1.83,109.67l-51.86.21s8.87-103,8.81-109.83c-.1-11,2.51-59.59,4.53-95C230,185,231,168.14,231,168.14Z" style="fill:#37474f"></path><path d="M265.52,402.24c-7.92-.13-5.64-.21-13.57-.25-3.87,0-29.35-.13-33,.48-.08,0-.08.15,0,.16,3.62.59,29.1.26,33,.2,7.92-.11,5.64-.16,13.56-.36A.12.12,0,0,0,265.52,402.24Z" style="fill:#263238"></path><path d="M235.38,175.66c-.95,28.93-2,57.86-3.26,86.78s-3.05,58-5.48,87c-1.35,16.17-2.13,27.25-3.87,43.38,0,.11.15.15.17,0,3.77-28.7,5.37-52.51,7.23-81.39s3.11-57.8,4.1-86.72c.56-16.36,1-32.72,1.47-49.08C235.75,175.4,235.39,175.43,235.38,175.66Z" style="fill:#263238"></path><path d="M286,208.61a96.75,96.75,0,0,0-14.82,7.76c-.19.12-.05.41.15.31,5-2.43,10.11-4.77,15-7.47A.34.34,0,0,0,286,208.61Z" style="fill:#263238"></path><path d="M286.28,190.77c-.34,1.84-.79,3.66-1.18,5.5s-.65,3.47-1.11,5.17a8.78,8.78,0,0,1-2.4,4.33c-.68.63-1.42,1.18-2.14,1.76-.39.31-.81.61-1.21.92.05-.24.09-.49.14-.74l.36-2.1c.26-1.55.51-3.11.74-4.66.47-3.06.9-6.15,1.54-9.18a.1.1,0,0,0-.19-.05c-.76,3-1.6,6-2.27,9-.32,1.48-1.48,8.81-1.54,9.33s-.09,1.07-.11,1.61a6,6,0,0,0,0,1.64c0,.13.19.11.25,0h0a6.32,6.32,0,0,0,.47-1.59c.13-.53.25-1.06.35-1.59,0-.19.06-.39.08-.58.72-.44,1.4-1,2.07-1.51s1.47-1,2.16-1.62a8.31,8.31,0,0,0,2.63-4.11,30.33,30.33,0,0,0,.86-5.27c.23-2.08.4-4.17.7-6.25C286.49,190.69,286.31,190.64,286.28,190.77Z" style="fill:#263238"></path><path d="M266.35,115.17c14.53,23.27,50.88,57.39,60.65,51,12-7.8,8.44-45.15,8.31-51.55-.08-4.48-33,1.1-31.3,5.59,1,2.72,1.84,6.27,1.17,5.94-2.1-1-6.54-6.73-26.49-20.3C267.58,98.32,256.73,99.76,266.35,115.17Z" style="fill:#eb9481"></path><path d="M325.28,75.92a4.75,4.75,0,0,0-4.78,2.6A7.08,7.08,0,0,0,316,76.85c-2.92.11-4,4.73-4,4.73a8.66,8.66,0,0,0-5-1c-2.78.38-4.55,4.88-4.55,4.88a7.69,7.69,0,0,0-5,1.91c-3.56,3.39-2.05,10.74-1.14,15.42s7.88,17.11,9,19.62l30.11-5.59s1.89-22.16,0-27.52C333.8,84.78,329,76.46,325.28,75.92Z" style="fill:#eb9481"></path><path d="M321,78.64c2.81,4.4,4.17,9.39,5.8,14.29a.09.09,0,0,1-.17.06c-1.57-4.9-4.09-9.42-5.85-14.24A.12.12,0,0,1,321,78.64Z" style="fill:#263238"></path><path d="M312.38,81.6A13.11,13.11,0,0,1,313.57,85q.51,1.83,1,3.66.9,3.67,1.61,7.4c0,.11-.14.17-.17,0-.6-2.44-1.24-4.87-1.94-7.29-.35-1.21-.72-2.41-1.09-3.62a16.42,16.42,0,0,1-.89-3.44A.18.18,0,0,1,312.38,81.6Z" style="fill:#263238"></path><path d="M302.41,85.56a9.48,9.48,0,0,1,.91,3.07c.25,1.12.5,2.25.76,3.37.53,2.24,1.05,4.48,1.66,6.7a.09.09,0,0,1-.18,0c-.62-2.25-1.27-4.5-1.87-6.75-.3-1.11-.59-2.22-.87-3.34a8.84,8.84,0,0,1-.53-3.08A.07.07,0,0,1,302.41,85.56Z" style="fill:#263238"></path><path d="M303.8,122.34l33.32-6.07s3.16,51.9-12.8,51.9c-12.81,0-46.12-32.39-57.27-50.45s-1.17-20.52,11.6-12.82c10.41,6.28,22.11,17.12,25.63,20Z" style="fill:#ebebeb"></path><polygon points="304.16 124.89 339.62 121.73 338.58 114.67 303.05 121.36 304.16 124.89" style="fill:#ebebeb"></polygon><path d="M327.58,167.34a6.69,6.69,0,0,1-3.26.83c-12.81,0-46.12-32.39-57.27-50.45-7.76-12.56-5.29-17.57,1.23-16.87Z" style="fill:#dbdbdb"></path><path d="M304.28,124.89l.81,3.19.78,3.18,1.56,6.36c.53,2.11,1.07,4.22,1.64,6.32.29,1.05.58,2.1.92,3.14s.66,2.07,1,3.13a40,40,0,0,1-2.63-6c-.75-2.07-1.33-4.19-1.88-6.31s-1-4.28-1.34-6.44A64.75,64.75,0,0,1,304.28,124.89Z" style="fill:#263238"></path><path d="M336.47,121.72c-5.16.33-10.31,1-15.45,1.59-2.55.3-5.11.61-7.66.94s-5.18.76-7.79,1c-.09,0-.09.17,0,.16,2.63-.28,5.28-.41,7.92-.65s5.11-.49,7.67-.78c5.11-.58,10.26-1.16,15.32-2.13C336.58,121.86,336.55,121.71,336.47,121.72Z" style="fill:#263238"></path><path d="M301.34,192.91l-4.44-14.32-3.12-21.14s6.59-11.85,2.57-20.24c-2-4.25-19.67-30.63-27-35.83-6.9-4.88-16.76.56-20.41,4.49-14,15.16-17.08,52.45-21.69,93l49.35-4,4.84-10.61,4.52,9.86Z" style="fill:#ebebeb"></path><path d="M297.57,139.64a19.55,19.55,0,0,0-2.43-5c-.35-.57-1.13-1.76-2.06-3.16-.27-.67-.57-1.34-.9-2a30.7,30.7,0,0,1-1.49-2.91.08.08,0,1,0-.15.06,31.59,31.59,0,0,1,1.27,2.93c-1.57-2.32-3.23-4.71-3.94-5.69-.06-.08-.19,0-.13.08,1.51,1.92,6.46,10.36,7.66,12.5a14.45,14.45,0,0,1,1.79,6.91,31.27,31.27,0,0,1-.88,7.42c-.06.21.15.31.23.11a20,20,0,0,0,1.3-5.53A16.17,16.17,0,0,0,297.57,139.64Z" style="fill:#263238"></path><path d="M254.3,112.73c-4.46,6.89-26.39,34.44-27.16,37s5.91,8.33,5.87,9.39c-.15,4.29-7.83,33.27-11.68,30.58-5.08-3.54-29.16-29-26.89-41s48.89-43,56.39-45.84S258.7,105.94,254.3,112.73Z" style="fill:#eb9481"></path><path d="M210.51,180.23l20.85-23.36s-3.87-5.61-3.85-6.44,19.21-23.57,26.6-36,4.37-16.27-9.75-9.19-48.35,33.62-50.07,42.3C191.67,160.78,210.51,180.23,210.51,180.23Z" style="fill:#ebebeb"></path><polygon points="207.13 179.61 212.72 185.21 232.6 157.84 230.31 154.68 207.13 179.61" style="fill:#ebebeb"></polygon><path d="M229.16,155.45a67.83,67.83,0,0,0-5.22,5.37c-1.72,1.81-3.39,3.67-5.07,5.51-3.37,3.71-6.65,7.45-9.82,11.33a.08.08,0,0,0,.12.11c3.57-3.56,7-7.23,10.36-11,1.68-1.85,3.35-3.7,5-5.59a67.54,67.54,0,0,0,4.76-5.66C229.33,155.46,229.22,155.4,229.16,155.45Z" style="fill:#263238"></path><path d="M245.59,128.68c-.83.74-1.66,1.47-2.5,2.17l-.3.26q2.19-3,4.3-6s-.05-.1-.08-.06a174.56,174.56,0,0,0-12.08,15.7.08.08,0,0,0,.12.09c2.35-2.66,4.56-5.45,6.69-8.3.53-.46,1-.94,1.54-1.43.79-.79,1.6-1.56,2.42-2.32C245.78,128.72,245.66,128.62,245.59,128.68Z" style="fill:#263238"></path><path d="M240,198.89c2.82-2.83-2.14-4.53-2.14-4.53s7.72.72,9.49-3.32-4.36-5.74-4.79-5.88c.41,0,7.52.51,8.88-3.74,1.41-4.42-5-5.22-5.4-5.27.4-.09,5.61-1.35,5.91-4.81.51-6-14.72-3.62-18.67-6.43,0,0,0-7.72.08-7.95,0,0-1.09,3.23-3.58,4.49-3.09,1.57-5.93,2.69-6.94,4.52a4.38,4.38,0,0,0,.51,5.2s-4.22.33-5.4,3.64c-.6,1.71,1.59,4.18,1.59,4.18s-3.37.41-4.23,3.42c-.7,2.4,1.6,4.51,1.6,4.51s-3.05,1.89-3,4.58C214.07,196.91,233.93,205,240,198.89Z" style="fill:#eb9481"></path><path d="M217.19,187.31c-.07,0-.12.05-.06.09a37.14,37.14,0,0,0,21,7.08c.24,0,.35-.39.08-.44A76.25,76.25,0,0,1,217.19,187.31Z" style="fill:#263238"></path><path d="M219.39,179c-.08,0-.14.09-.07.14,6.09,4.34,14.93,7.31,23.34,6.3.29,0,.52-.35.18-.34C237.2,185.34,225.56,182.13,219.39,179Z" style="fill:#263238"></path><path d="M246.56,175.88c-8.1.66-15.6-1.35-23-4.52-.09,0-.14.1-.07.16,3.2,2.54,8.13,4.06,12.07,4.93a21.52,21.52,0,0,0,11-.29C246.73,176.12,246.74,175.87,246.56,175.88Z" style="fill:#263238"></path><path d="M216.66,186.94C215.2,185.7,214,184,214.47,182a3.85,3.85,0,0,1,1.48-2.26,6.61,6.61,0,0,1,3-.9c-1.36-1.51-2.16-3.66-1.19-5.59a3.8,3.8,0,0,1,2.15-1.75,12.27,12.27,0,0,1,3.25-.51,4.48,4.48,0,0,1-1.69-3.64,4.82,4.82,0,0,1,2.29-3.77,22.8,22.8,0,0,1,4.88-2.2,11.43,11.43,0,0,0,2.47-1.24,5.11,5.11,0,0,0,1.79-2.37c.07-.17.09,0,0,.14a6.34,6.34,0,0,1-1,1.78,8.74,8.74,0,0,1-1.54,1.5,35.61,35.61,0,0,1-4.59,2.38,7,7,0,0,0-3.18,3.14,4.15,4.15,0,0,0,.71,4.3s0,.16-.09.17a11.75,11.75,0,0,0-2.81.9,4.1,4.1,0,0,0-1.77,1.65,5.3,5.3,0,0,0,.77,5.25,9,9,0,0,0-2.87,1.38,3.88,3.88,0,0,0-1.12,1.86,4.59,4.59,0,0,0,1.4,4.61.09.09,0,0,1,0,.06h0s0,0,0,0a.09.09,0,0,1,0,.06h0s-1,.64-1,.66,0,0,0-.06A8.22,8.22,0,0,1,216.66,186.94Z" style="fill:#263238"></path><path d="M254.51,101.28c.29,1.17,8.92,8.49,14.27,8.18,1.74-.11-1.37-9.42-1.37-9.42l.15-.7,2.09-9.88L258,82.16l-1.69-1s-.39,2.74-.85,6.16c0,.16-.05.32-.07.49s-.06.37-.08.55c-.07.51-.15,1-.21,1.55s-.1.78-.14,1.2-.09.83-.13,1.24A63.25,63.25,0,0,0,254.51,101.28Z" style="fill:#eb9481"></path><path d="M255.46,87.35a20.29,20.29,0,0,0,12.1,12l2.09-9.88L258,82.16l-1.69-1S255.92,83.93,255.46,87.35Z" style="fill:#263238"></path><path d="M283.55,74.91c2.43,17.56-7.81,21-11.6,21.51-3.43.48-15.2,1.64-19.43-15.57s3.17-23.89,11-25.38S281.12,57.35,283.55,74.91Z" style="fill:#eb9481"></path><path d="M277.62,72.16a9.79,9.79,0,0,1-1.21-.17,2,2,0,0,1-1.2-.41.62.62,0,0,1,0-.77,1.55,1.55,0,0,1,1.51-.46,2.24,2.24,0,0,1,1.49.71A.67.67,0,0,1,277.62,72.16Z" style="fill:#263238"></path><path d="M265.88,74.58c.41.07.81.06,1.22.09a2,2,0,0,0,1.26-.14.63.63,0,0,0,.22-.74A1.58,1.58,0,0,0,267.2,73a2.28,2.28,0,0,0-1.61.37A.68.68,0,0,0,265.88,74.58Z" style="fill:#263238"></path><path d="M268.45,77.67s-.09.06-.09.11c.15,1.2.12,2.6-.93,3.1,0,0,0,.07,0,.06C268.75,80.64,268.78,78.78,268.45,77.67Z" style="fill:#263238"></path><path d="M267.26,76.51c-1.95,0-1.75,3.92.06,3.89S268.89,76.49,267.26,76.51Z" style="fill:#263238"></path><path d="M266.51,76.76c-.33.23-.65.64-1.05.7s-.85-.31-1.18-.69c0,0-.07,0-.07,0,0,.74.36,1.49,1.16,1.56s1.22-.62,1.37-1.38C266.77,76.86,266.64,76.66,266.51,76.76Z" style="fill:#263238"></path><path d="M275.59,76.73s.09,0,.1.1c0,1.21.23,2.59,1.34,2.94,0,0,0,.07,0,.07C275.68,79.71,275.41,77.88,275.59,76.73Z" style="fill:#263238"></path><path d="M276.61,75.42c1.93-.23,2.26,3.65.46,3.87S275,75.62,276.61,75.42Z" style="fill:#263238"></path><path d="M277.44,75.61c.32.18.66.53,1,.52s.7-.45.94-.88c0,0,.06,0,.06,0,.09.74-.09,1.53-.8,1.74s-1.17-.42-1.4-1.14C277.22,75.76,277.31,75.54,277.44,75.61Z" style="fill:#263238"></path><path d="M269.52,86.88c.29.28.58.67,1,.71a3.15,3.15,0,0,0,1.3-.32,0,0,0,0,1,.05.07,1.65,1.65,0,0,1-1.53.66,1.29,1.29,0,0,1-1-1.06A.07.07,0,0,1,269.52,86.88Z" style="fill:#263238"></path><path d="M274.28,82.21s.36,1.78.42,2.63c0,.08-.2.13-.49.17h0a4,4,0,0,1-4-1.26.09.09,0,0,1,.12-.12,6.1,6.1,0,0,0,3.75.82c.05-.24-.72-3-.59-3a7.23,7.23,0,0,1,2,.31c-.65-3.74-1.89-7.34-2.48-11.07,0-.13.17-.18.21-.07a61.6,61.6,0,0,1,3.18,11.81C276.41,82.86,274.63,82.33,274.28,82.21Z" style="fill:#263238"></path><path d="M274.1,84.36a4.89,4.89,0,0,1-1.68,1.86,2.23,2.23,0,0,1-1.31.32c-1-.08-1.19-1-1.15-1.74a5.38,5.38,0,0,1,.22-1.24A6.36,6.36,0,0,0,274.1,84.36Z" style="fill:#263238"></path><path d="M272.42,86.22a2.23,2.23,0,0,1-1.31.32c-1-.08-1.19-1-1.15-1.74A2.28,2.28,0,0,1,272.42,86.22Z" style="fill:#e587b4"></path><path d="M252.73,79.6c4.22-.18,3.84-6.83,3.84-6.83s4.77-.68,4.72-8.42a11.72,11.72,0,0,0,9.07,5.16c1.39.13-3.4-3.19-3.4-3.19s5.77,4.71,15.91,2.29c.72-.18-1.38-10.89-9.6-14.16s-15.34-.81-20,4.51c0,0-5.74,3-6.12,8.62S251.09,79.66,252.73,79.6Z" style="fill:#263238"></path><path d="M255.52,80.6s-4.15-5.33-6.58-3.83.87,9.37,3.87,10.31a3,3,0,0,0,3.93-1.81Z" style="fill:#eb9481"></path><path d="M249.94,79s-.05.07,0,.08c2.11.73,3.29,2.59,4.15,4.54a1.65,1.65,0,0,0-2.49-.33c-.05,0,0,.12.06.11a1.83,1.83,0,0,1,2.06.54,8.93,8.93,0,0,1,1,1.59c.11.18.44.06.36-.15l0,0C255,82.7,252.78,79.12,249.94,79Z" style="fill:#263238"></path><path d="M266.78,110c1.42,6.15,2.74,12.33,4,18.5s2.51,12.38,3.77,18.56,2.41,12.4,3.55,18.61l1.69,9.31c.53,3.12,1.09,6.22,1.59,9.34-.72-3.07-1.38-6.16-2.07-9.24l-2-9.26c-1.29-6.18-2.51-12.38-3.77-18.56s-2.41-12.4-3.55-18.61S267.8,116.21,266.78,110Z" style="fill:#263238"></path><path d="M275.11,128.08a1.19,1.19,0,1,1-1.41-.9A1.19,1.19,0,0,1,275.11,128.08Z" style="fill:#263238"></path><path d="M277.22,140.09a1.18,1.18,0,1,1-1.4-.9A1.18,1.18,0,0,1,277.22,140.09Z" style="fill:#263238"></path><path d="M279.34,152.11a1.18,1.18,0,1,1-1.41-.91A1.18,1.18,0,0,1,279.34,152.11Z" style="fill:#263238"></path><path d="M281.46,164.12a1.19,1.19,0,1,1-1.41-.91A1.19,1.19,0,0,1,281.46,164.12Z" style="fill:#263238"></path><path d="M283.58,176.13a1.19,1.19,0,1,1-1.41-.91A1.19,1.19,0,0,1,283.58,176.13Z" style="fill:#263238"></path><path d="M267.51,100.31l-1.64,8.28-11.4-7.94-2.13,3.64s12.28,13.71,12.21,13l1.92-7.23,5.45,3.75-2.55-11.52Z" style="fill:#ebebeb"></path><path d="M271,108c-.48-1.88-.92-3.8-1.49-5.66,0-.07-.13-.08-.14,0,0,1.92,1.87,9.13,2.19,10.89l0,0c-.23-.16-5-3.26-5-3.19-.49,1.18-1.91,6.45-2,6.92-1.95-2.18-9.3-10-11.49-12a.07.07,0,0,0-.11.09c1.8,2.35,11.58,13,11.69,12.91a74.92,74.92,0,0,0,2-7.64c.85.71,5.76,4.3,5.72,4A58.84,58.84,0,0,0,271,108Z" style="fill:#263238"></path><path d="M254.45,98.2c-1.25-1.45-2.63,2.27-.33,3.91,3.41,2.43,9.95,5,11.06,4.86s3.15-4.37,3.37-5.21-.74-2.41-1-2.19-2.25,4.56-2.64,4.81S257.15,101.3,254.45,98.2Z" style="fill:#B01E57"></path></g><g id="freepik--Stars--inject-97"><path d="M265.61,380.43l5.58,1.36-5.6,1-1.26,5.91-1.25-5.91-5.6-1,5.58-1.36,1.27-5.58Zm-126.8-39.64-1.28,5.58L132,347.73l5.6,1,1.26,5.9,1.25-5.9,5.6-1-5.58-1.36ZM376.4,282.64l-1.27-5.57-1.28,5.57L368.27,284l5.6,1,1.26,5.9,1.25-5.9,5.6-1ZM162.81,167.94l-1.28,5.57L156,174.88l5.6,1,1.25,5.9,1.25-5.9,5.6-1-5.58-1.37ZM383.5,317.57l-.71,3.12-3.12.76,3.13.58.7,3.31.7-3.31,3.13-.57-3.12-.77ZM211,334.89l-.71,3.11-3.12.76,3.13.59.7,3.3.7-3.3,3.13-.58-3.11-.77Zm101.4,22.27-.72,3.12-3.11.76,3.13.58.7,3.3.7-3.3,3.13-.58-3.12-.76Zm-79.07,41.56-.71,3.12-3.12.76,3.13.58.7,3.3.7-3.3,3.13-.58-3.11-.76Zm-112.09-71.6-.71,3.12-3.12.76,3.13.58.7,3.31.7-3.31,3.13-.57-3.12-.77Zm-10.55-83-.71,3.12-3.12.76,3.14.58.69,3.31.7-3.31,3.14-.57-3.12-.77ZM335.26,362.42a.91.91,0,0,0,0,1.81A.91.91,0,0,0,335.26,362.42Zm61.22-105.15a.91.91,0,0,0,0,1.82A.91.91,0,0,0,396.48,257.27ZM148,195.72a.91.91,0,0,0,0,1.82A.91.91,0,0,0,148,195.72ZM366.76,330.55a.91.91,0,0,0,0,1.81A.91.91,0,0,0,366.76,330.55ZM103.52,312.73a.91.91,0,0,0,0,1.81A.91.91,0,0,0,103.52,312.73ZM121.89,231a.64.64,0,0,0,0-1.28A.64.64,0,0,0,121.89,231ZM226.77,363.32a.65.65,0,0,0,0,1.29A.65.65,0,0,0,226.77,363.32Zm157-129.88a.64.64,0,0,0,0-1.28A.64.64,0,0,0,383.82,233.44ZM163.43,361a.65.65,0,0,0,0,1.29A.65.65,0,0,0,163.43,361Zm111.08-5.28a1.74,1.74,0,0,0,0,3.48A1.74,1.74,0,0,0,274.51,355.76Zm-102.86-.62a1.74,1.74,0,0,0,0,3.48A1.74,1.74,0,0,0,171.65,355.14Zm-32.84-161.3a1.74,1.74,0,0,0,0-3.48A1.74,1.74,0,0,0,138.81,193.84Zm248.52,92.85a1.74,1.74,0,0,0,0,3.48A1.74,1.74,0,0,0,387.33,286.69Z" style="fill:#B01E57"></path></g></svg>