<svg id="visual" viewBox="0 0 900 300" width="900" height="300" xmlns="http://www.w3.org/2000/svg" xmlns:xlink="http://www.w3.org/1999/xlink" version="1.1"><path d="M0 46L11.5 45C23 44 46 42 69 46.5C92 51 115 62 138.2 67.5C161.3 73 184.7 73 207.8 70.5C231 68 254 63 277 59.5C300 56 323 54 346 48C369 42 392 32 415.2 38C438.3 44 461.7 66 484.8 75C508 84 531 80 554 73C577 66 600 56 623 47.5C646 39 669 32 692.2 41C715.3 50 738.7 75 761.8 88.5C785 102 808 104 831 95.5C854 87 877 68 888.5 58.5L900 49L900 0L888.5 0C877 0 854 0 831 0C808 0 785 0 761.8 0C738.7 0 715.3 0 692.2 0C669 0 646 0 623 0C600 0 577 0 554 0C531 0 508 0 484.8 0C461.7 0 438.3 0 415.2 0C392 0 369 0 346 0C323 0 300 0 277 0C254 0 231 0 207.8 0C184.7 0 161.3 0 138.2 0C115 0 92 0 69 0C46 0 23 0 11.5 0L0 0Z" fill="#d4f6ff"></path><path d="M0 142L11.5 144.5C23 147 46 152 69 153.5C92 155 115 153 138.2 159C161.3 165 184.7 179 207.8 186.5C231 194 254 195 277 192.5C300 190 323 184 346 177.5C369 171 392 164 415.2 158C438.3 152 461.7 147 484.8 143C508 139 531 136 554 128C577 120 600 107 623 109.5C646 112 669 130 692.2 146.5C715.3 163 738.7 178 761.8 177.5C785 177 808 161 831 151C854 141 877 137 888.5 135L900 133L900 47L888.5 56.5C877 66 854 85 831 93.5C808 102 785 100 761.8 86.5C738.7 73 715.3 48 692.2 39C669 30 646 37 623 45.5C600 54 577 64 554 71C531 78 508 82 484.8 73C461.7 64 438.3 42 415.2 36C392 30 369 40 346 46C323 52 300 54 277 57.5C254 61 231 66 207.8 68.5C184.7 71 161.3 71 138.2 65.5C115 60 92 49 69 44.5C46 40 23 42 11.5 43L0 44Z" fill="#79c3eb"></path><path d="M0 226L11.5 231.5C23 237 46 248 69 251C92 254 115 249 138.2 246.5C161.3 244 184.7 244 207.8 248.5C231 253 254 262 277 267C300 272 323 273 346 266.5C369 260 392 246 415.2 241C438.3 236 461.7 240 484.8 243.5C508 247 531 250 554 247C577 244 600 235 623 231.5C646 228 669 230 692.2 235C715.3 240 738.7 248 761.8 256.5C785 265 808 274 831 278.5C854 283 877 283 888.5 283L900 283L900 131L888.5 133C877 135 854 139 831 149C808 159 785 175 761.8 175.5C738.7 176 715.3 161 692.2 144.5C669 128 646 110 623 107.5C600 105 577 118 554 126C531 134 508 137 484.8 141C461.7 145 438.3 150 415.2 156C392 162 369 169 346 175.5C323 182 300 188 277 190.5C254 193 231 192 207.8 184.5C184.7 177 161.3 163 138.2 157C115 151 92 153 69 151.5C46 150 23 145 11.5 142.5L0 140Z" fill="#2f8ad9"></path><path d="M0 301L11.5 301C23 301 46 301 69 301C92 301 115 301 138.2 301C161.3 301 184.7 301 207.8 301C231 301 254 301 277 301C300 301 323 301 346 301C369 301 392 301 415.2 301C438.3 301 461.7 301 484.8 301C508 301 531 301 554 301C577 301 600 301 623 301C646 301 669 301 692.2 301C715.3 301 738.7 301 761.8 301C785 301 808 301 831 301C854 301 877 301 888.5 301L900 301L900 281L888.5 281C877 281 854 281 831 276.5C808 272 785 263 761.8 254.5C738.7 246 715.3 238 692.2 233C669 228 646 226 623 229.5C600 233 577 242 554 245C531 248 508 245 484.8 241.5C461.7 238 438.3 234 415.2 239C392 244 369 258 346 264.5C323 271 300 270 277 265C254 260 231 251 207.8 246.5C184.7 242 161.3 242 138.2 244.5C115 247 92 252 69 249C46 246 23 235 11.5 229.5L0 224Z" fill="#344cb7"></path></svg>