<svg id="visual" viewBox="0 0 900 100" width="900" height="100" xmlns="http://www.w3.org/2000/svg" xmlns:xlink="http://www.w3.org/1999/xlink" version="1.1"><rect x="0" y="0" width="900" height="100" fill="#344CB7"></rect><path d="M0 66L11.5 69.2C23 72.3 46 78.7 69 81.5C92 84.3 115 83.7 138.2 84.8C161.3 86 184.7 89 207.8 87C231 85 254 78 277 75C300 72 323 73 346 72.2C369 71.3 392 68.7 415.2 70.5C438.3 72.3 461.7 78.7 484.8 81.8C508 85 531 85 554 81.7C577 78.3 600 71.7 623 68.7C646 65.7 669 66.3 692.2 70.2C715.3 74 738.7 81 761.8 82.5C785 84 808 80 831 77.2C854 74.3 877 72.7 888.5 71.8L900 71L900 101L888.5 101C877 101 854 101 831 101C808 101 785 101 761.8 101C738.7 101 715.3 101 692.2 101C669 101 646 101 623 101C600 101 577 101 554 101C531 101 508 101 484.8 101C461.7 101 438.3 101 415.2 101C392 101 369 101 346 101C323 101 300 101 277 101C254 101 231 101 207.8 101C184.7 101 161.3 101 138.2 101C115 101 92 101 69 101C46 101 23 101 11.5 101L0 101Z" fill="#F6F5F2" stroke-linecap="round" stroke-linejoin="miter"></path></svg>