<svg id="visual" viewBox="0 0 900 300" width="900" height="300" xmlns="http://www.w3.org/2000/svg" xmlns:xlink="http://www.w3.org/1999/xlink" version="1.1"><path d="M0 43L13.7 41.5C27.3 40 54.7 37 82 36.5C109.3 36 136.7 38 163.8 43C191 48 218 56 245.2 56.5C272.3 57 299.7 50 327 54C354.3 58 381.7 73 409 76.5C436.3 80 463.7 72 491 61.5C518.3 51 545.7 38 573 32.5C600.3 27 627.7 29 654.8 33.5C682 38 709 45 736.2 46.5C763.3 48 790.7 44 818 40.5C845.3 37 872.7 34 886.3 32.5L900 31L900 0L886.3 0C872.7 0 845.3 0 818 0C790.7 0 763.3 0 736.2 0C709 0 682 0 654.8 0C627.7 0 600.3 0 573 0C545.7 0 518.3 0 491 0C463.7 0 436.3 0 409 0C381.7 0 354.3 0 327 0C299.7 0 272.3 0 245.2 0C218 0 191 0 163.8 0C136.7 0 109.3 0 82 0C54.7 0 27.3 0 13.7 0L0 0Z" fill="#d4f6ff"></path><path d="M0 73L13.7 76C27.3 79 54.7 85 82 87C109.3 89 136.7 87 163.8 90.5C191 94 218 103 245.2 104C272.3 105 299.7 98 327 99.5C354.3 101 381.7 111 409 114C436.3 117 463.7 113 491 105.5C518.3 98 545.7 87 573 82.5C600.3 78 627.7 80 654.8 81.5C682 83 709 84 736.2 85.5C763.3 87 790.7 89 818 84.5C845.3 80 872.7 69 886.3 63.5L900 58L900 29L886.3 30.5C872.7 32 845.3 35 818 38.5C790.7 42 763.3 46 736.2 44.5C709 43 682 36 654.8 31.5C627.7 27 600.3 25 573 30.5C545.7 36 518.3 49 491 59.5C463.7 70 436.3 78 409 74.5C381.7 71 354.3 56 327 52C299.7 48 272.3 55 245.2 54.5C218 54 191 46 163.8 41C136.7 36 109.3 34 82 34.5C54.7 35 27.3 38 13.7 39.5L0 41Z" fill="#d1f8fa"></path><path d="M0 112L13.7 111.5C27.3 111 54.7 110 82 111C109.3 112 136.7 115 163.8 120C191 125 218 132 245.2 131.5C272.3 131 299.7 123 327 123.5C354.3 124 381.7 133 409 140.5C436.3 148 463.7 154 491 151C518.3 148 545.7 136 573 129.5C600.3 123 627.7 122 654.8 120C682 118 709 115 736.2 113.5C763.3 112 790.7 112 818 111.5C845.3 111 872.7 110 886.3 109.5L900 109L900 56L886.3 61.5C872.7 67 845.3 78 818 82.5C790.7 87 763.3 85 736.2 83.5C709 82 682 81 654.8 79.5C627.7 78 600.3 76 573 80.5C545.7 85 518.3 96 491 103.5C463.7 111 436.3 115 409 112C381.7 109 354.3 99 327 97.5C299.7 96 272.3 103 245.2 102C218 101 191 92 163.8 88.5C136.7 85 109.3 87 82 85C54.7 83 27.3 77 13.7 74L0 71Z" fill="#d2faf3"></path><path d="M0 181L13.7 192C27.3 203 54.7 225 82 234.5C109.3 244 136.7 241 163.8 238C191 235 218 232 245.2 225.5C272.3 219 299.7 209 327 209.5C354.3 210 381.7 221 409 220.5C436.3 220 463.7 208 491 211C518.3 214 545.7 232 573 234.5C600.3 237 627.7 224 654.8 212C682 200 709 189 736.2 193C763.3 197 790.7 216 818 220C845.3 224 872.7 213 886.3 207.5L900 202L900 107L886.3 107.5C872.7 108 845.3 109 818 109.5C790.7 110 763.3 110 736.2 111.5C709 113 682 116 654.8 118C627.7 120 600.3 121 573 127.5C545.7 134 518.3 146 491 149C463.7 152 436.3 146 409 138.5C381.7 131 354.3 122 327 121.5C299.7 121 272.3 129 245.2 129.5C218 130 191 123 163.8 118C136.7 113 109.3 110 82 109C54.7 108 27.3 109 13.7 109.5L0 110Z" fill="#d7fbeb"></path><path d="M0 301L13.7 301C27.3 301 54.7 301 82 301C109.3 301 136.7 301 163.8 301C191 301 218 301 245.2 301C272.3 301 299.7 301 327 301C354.3 301 381.7 301 409 301C436.3 301 463.7 301 491 301C518.3 301 545.7 301 573 301C600.3 301 627.7 301 654.8 301C682 301 709 301 736.2 301C763.3 301 790.7 301 818 301C845.3 301 872.7 301 886.3 301L900 301L900 200L886.3 205.5C872.7 211 845.3 222 818 218C790.7 214 763.3 195 736.2 191C709 187 682 198 654.8 210C627.7 222 600.3 235 573 232.5C545.7 230 518.3 212 491 209C463.7 206 436.3 218 409 218.5C381.7 219 354.3 208 327 207.5C299.7 207 272.3 217 245.2 223.5C218 230 191 233 163.8 236C136.7 239 109.3 242 82 232.5C54.7 223 27.3 201 13.7 190L0 179Z" fill="#e0fbe2"></path></svg>