<svg id="visual" viewBox="0 0 960 300" width="960" height="300" xmlns="http://www.w3.org/2000/svg" xmlns:xlink="http://www.w3.org/1999/xlink" version="1.1"><rect x="0" y="0" width="960" height="300" fill="#D4F6FF"></rect><path d="M0 65L12.3 64.7C24.7 64.3 49.3 63.7 74 70.2C98.7 76.7 123.3 90.3 148 86.5C172.7 82.7 197.3 61.3 221.8 60.8C246.3 60.3 270.7 80.7 295.2 83.7C319.7 86.7 344.3 72.3 369 62.3C393.7 52.3 418.3 46.7 443 47.8C467.7 49 492.3 57 517 64C541.7 71 566.3 77 591 79.3C615.7 81.7 640.3 80.3 664.8 79C689.3 77.7 713.7 76.3 738.2 71.8C762.7 67.3 787.3 59.7 812 60.2C836.7 60.7 861.3 69.3 886 74.2C910.7 79 935.3 80 947.7 80.5L960 81L960 0L947.7 0C935.3 0 910.7 0 886 0C861.3 0 836.7 0 812 0C787.3 0 762.7 0 738.2 0C713.7 0 689.3 0 664.8 0C640.3 0 615.7 0 591 0C566.3 0 541.7 0 517 0C492.3 0 467.7 0 443 0C418.3 0 393.7 0 369 0C344.3 0 319.7 0 295.2 0C270.7 0 246.3 0 221.8 0C197.3 0 172.7 0 148 0C123.3 0 98.7 0 74 0C49.3 0 24.7 0 12.3 0L0 0Z" fill="#F8E8EE" stroke-linecap="round" stroke-linejoin="miter"></path></svg>