<svg id="visual" viewBox="0 0 900 300" width="900" height="300" xmlns="http://www.w3.org/2000/svg" xmlns:xlink="http://www.w3.org/1999/xlink" version="1.1"><path d="M0 31L13.7 36.5C27.3 42 54.7 53 82 60C109.3 67 136.7 70 163.8 67.5C191 65 218 57 245.2 57.5C272.3 58 299.7 67 327 67.5C354.3 68 381.7 60 409 52C436.3 44 463.7 36 491 33.5C518.3 31 545.7 34 573 40.5C600.3 47 627.7 57 654.8 60.5C682 64 709 61 736.2 56C763.3 51 790.7 44 818 39.5C845.3 35 872.7 33 886.3 32L900 31L900 0L886.3 0C872.7 0 845.3 0 818 0C790.7 0 763.3 0 736.2 0C709 0 682 0 654.8 0C627.7 0 600.3 0 573 0C545.7 0 518.3 0 491 0C463.7 0 436.3 0 409 0C381.7 0 354.3 0 327 0C299.7 0 272.3 0 245.2 0C218 0 191 0 163.8 0C136.7 0 109.3 0 82 0C54.7 0 27.3 0 13.7 0L0 0Z" fill="#dfccfb"></path><path d="M0 163L13.7 163C27.3 163 54.7 163 82 155C109.3 147 136.7 131 163.8 128C191 125 218 135 245.2 135.5C272.3 136 299.7 127 327 128C354.3 129 381.7 140 409 134C436.3 128 463.7 105 491 107C518.3 109 545.7 136 573 143.5C600.3 151 627.7 139 654.8 140.5C682 142 709 157 736.2 153.5C763.3 150 790.7 128 818 124C845.3 120 872.7 134 886.3 141L900 148L900 29L886.3 30C872.7 31 845.3 33 818 37.5C790.7 42 763.3 49 736.2 54C709 59 682 62 654.8 58.5C627.7 55 600.3 45 573 38.5C545.7 32 518.3 29 491 31.5C463.7 34 436.3 42 409 50C381.7 58 354.3 66 327 65.5C299.7 65 272.3 56 245.2 55.5C218 55 191 63 163.8 65.5C136.7 68 109.3 65 82 58C54.7 51 27.3 40 13.7 34.5L0 29Z" fill="#fad0e7"></path><path d="M0 184L13.7 185C27.3 186 54.7 188 82 180.5C109.3 173 136.7 156 163.8 155.5C191 155 218 171 245.2 171.5C272.3 172 299.7 157 327 155C354.3 153 381.7 164 409 160.5C436.3 157 463.7 139 491 144.5C518.3 150 545.7 179 573 189C600.3 199 627.7 190 654.8 191C682 192 709 203 736.2 199.5C763.3 196 790.7 178 818 172C845.3 166 872.7 172 886.3 175L900 178L900 146L886.3 139C872.7 132 845.3 118 818 122C790.7 126 763.3 148 736.2 151.5C709 155 682 140 654.8 138.5C627.7 137 600.3 149 573 141.5C545.7 134 518.3 107 491 105C463.7 103 436.3 126 409 132C381.7 138 354.3 127 327 126C299.7 125 272.3 134 245.2 133.5C218 133 191 123 163.8 126C136.7 129 109.3 145 82 153C54.7 161 27.3 161 13.7 161L0 161Z" fill="#ffdadb"></path><path d="M0 223L13.7 221.5C27.3 220 54.7 217 82 208.5C109.3 200 136.7 186 163.8 190C191 194 218 216 245.2 215.5C272.3 215 299.7 192 327 184.5C354.3 177 381.7 185 409 183.5C436.3 182 463.7 171 491 178.5C518.3 186 545.7 212 573 221.5C600.3 231 627.7 224 654.8 226C682 228 709 239 736.2 234C763.3 229 790.7 208 818 202.5C845.3 197 872.7 207 886.3 212L900 217L900 176L886.3 173C872.7 170 845.3 164 818 170C790.7 176 763.3 194 736.2 197.5C709 201 682 190 654.8 189C627.7 188 600.3 197 573 187C545.7 177 518.3 148 491 142.5C463.7 137 436.3 155 409 158.5C381.7 162 354.3 151 327 153C299.7 155 272.3 170 245.2 169.5C218 169 191 153 163.8 153.5C136.7 154 109.3 171 82 178.5C54.7 186 27.3 184 13.7 183L0 182Z" fill="#ffe8da"></path><path d="M0 301L13.7 301C27.3 301 54.7 301 82 301C109.3 301 136.7 301 163.8 301C191 301 218 301 245.2 301C272.3 301 299.7 301 327 301C354.3 301 381.7 301 409 301C436.3 301 463.7 301 491 301C518.3 301 545.7 301 573 301C600.3 301 627.7 301 654.8 301C682 301 709 301 736.2 301C763.3 301 790.7 301 818 301C845.3 301 872.7 301 886.3 301L900 301L900 215L886.3 210C872.7 205 845.3 195 818 200.5C790.7 206 763.3 227 736.2 232C709 237 682 226 654.8 224C627.7 222 600.3 229 573 219.5C545.7 210 518.3 184 491 176.5C463.7 169 436.3 180 409 181.5C381.7 183 354.3 175 327 182.5C299.7 190 272.3 213 245.2 213.5C218 214 191 192 163.8 188C136.7 184 109.3 198 82 206.5C54.7 215 27.3 218 13.7 219.5L0 221Z" fill="#fff6e3"></path></svg>