<svg id="visual" viewBox="0 0 900 300" width="900" height="300" xmlns="http://www.w3.org/2000/svg" xmlns:xlink="http://www.w3.org/1999/xlink" version="1.1"><rect x="0" y="0" width="900" height="300" fill="#E0FBE2"></rect><path d="M0 230L10 226.8C20 223.7 40 217.3 60 198.5C80 179.7 100 148.3 120 151.2C140 154 160 191 180 209C200 227 220 226 240 207.2C260 188.3 280 151.7 300 134.2C320 116.7 340 118.3 360 125.7C380 133 400 146 420 152.3C440 158.7 460 158.3 480 169.8C500 181.3 520 204.7 540 211.3C560 218 580 208 600 188.5C620 169 640 140 660 137.7C680 135.3 700 159.7 720 164.3C740 169 760 154 780 161.8C800 169.7 820 200.3 840 194.3C860 188.3 880 145.7 890 124.3L900 103L900 301L890 301C880 301 860 301 840 301C820 301 800 301 780 301C760 301 740 301 720 301C700 301 680 301 660 301C640 301 620 301 600 301C580 301 560 301 540 301C520 301 500 301 480 301C460 301 440 301 420 301C400 301 380 301 360 301C340 301 320 301 300 301C280 301 260 301 240 301C220 301 200 301 180 301C160 301 140 301 120 301C100 301 80 301 60 301C40 301 20 301 10 301L0 301Z" fill="#DFCCFB" stroke-linecap="round" stroke-linejoin="miter"></path></svg>