<svg id="visual" viewBox="0 0 900 50" width="900" height="50" xmlns="http://www.w3.org/2000/svg" xmlns:xlink="http://www.w3.org/1999/xlink" version="1.1"><rect x="0" y="0" width="900" height="50" fill="#FFF6E3"></rect><path d="M0 42L18.8 40.5C37.7 39 75.3 36 112.8 34.8C150.3 33.7 187.7 34.3 225.2 35C262.7 35.7 300.3 36.3 337.8 35.8C375.3 35.3 412.7 33.7 450.2 33.3C487.7 33 525.3 34 562.8 35C600.3 36 637.7 37 675.2 37C712.7 37 750.3 36 787.8 35C825.3 34 862.7 33 881.3 32.5L900 32L900 51L881.3 51C862.7 51 825.3 51 787.8 51C750.3 51 712.7 51 675.2 51C637.7 51 600.3 51 562.8 51C525.3 51 487.7 51 450.2 51C412.7 51 375.3 51 337.8 51C300.3 51 262.7 51 225.2 51C187.7 51 150.3 51 112.8 51C75.3 51 37.7 51 18.8 51L0 51Z" fill="#F6F5F2" stroke-linecap="round" stroke-linejoin="miter"></path></svg>