<svg id="visual" viewBox="0 0 900 80" width="900" height="80" xmlns="http://www.w3.org/2000/svg" xmlns:xlink="http://www.w3.org/1999/xlink" version="1.1"><rect x="0" y="0" width="900" height="80" fill="#ffc188"></rect><path d="M0 20L6.5 18.8C13 17.7 26 15.3 39 15.5C52 15.7 65 18.3 78 22.2C91 26 104 31 117.2 33.8C130.3 36.7 143.7 37.3 156.8 33.8C170 30.3 183 22.7 196 23C209 23.3 222 31.7 235 31.7C248 31.7 261 23.3 274 22.3C287 21.3 300 27.7 313 31.3C326 35 339 36 352 35.2C365 34.3 378 31.7 391 31.3C404 31 417 33 430.2 34.2C443.3 35.3 456.7 35.7 469.8 35.8C483 36 496 36 509 36.7C522 37.3 535 38.7 548 36.2C561 33.7 574 27.3 587 26C600 24.7 613 28.3 626 28.2C639 28 652 24 665 20.7C678 17.3 691 14.7 704 13.5C717 12.3 730 12.7 743.2 15.8C756.3 19 769.7 25 782.8 27.5C796 30 809 29 822 26.3C835 23.7 848 19.3 861 16.8C874 14.3 887 13.7 893.5 13.3L900 13L900 81L893.5 81C887 81 874 81 861 81C848 81 835 81 822 81C809 81 796 81 782.8 81C769.7 81 756.3 81 743.2 81C730 81 717 81 704 81C691 81 678 81 665 81C652 81 639 81 626 81C613 81 600 81 587 81C574 81 561 81 548 81C535 81 522 81 509 81C496 81 483 81 469.8 81C456.7 81 443.3 81 430.2 81C417 81 404 81 391 81C378 81 365 81 352 81C339 81 326 81 313 81C300 81 287 81 274 81C261 81 248 81 235 81C222 81 209 81 196 81C183 81 170 81 156.8 81C143.7 81 130.3 81 117.2 81C104 81 91 81 78 81C65 81 52 81 39 81C26 81 13 81 6.5 81L0 81Z" fill="#ed9455"></path><path d="M0 46L6.5 46.7C13 47.3 26 48.7 39 49C52 49.3 65 48.7 78 48.2C91 47.7 104 47.3 117.2 46.8C130.3 46.3 143.7 45.7 156.8 46.3C170 47 183 49 196 48.5C209 48 222 45 235 42.2C248 39.3 261 36.7 274 37.7C287 38.7 300 43.3 313 46.7C326 50 339 52 352 52.5C365 53 378 52 391 50.3C404 48.7 417 46.3 430.2 44C443.3 41.7 456.7 39.3 469.8 37.2C483 35 496 33 509 33C522 33 535 35 548 35.5C561 36 574 35 587 34C600 33 613 32 626 32.8C639 33.7 652 36.3 665 39.2C678 42 691 45 704 46.5C717 48 730 48 743.2 47.7C756.3 47.3 769.7 46.7 782.8 45.3C796 44 809 42 822 43.5C835 45 848 50 861 49.5C874 49 887 43 893.5 40L900 37L900 81L893.5 81C887 81 874 81 861 81C848 81 835 81 822 81C809 81 796 81 782.8 81C769.7 81 756.3 81 743.2 81C730 81 717 81 704 81C691 81 678 81 665 81C652 81 639 81 626 81C613 81 600 81 587 81C574 81 561 81 548 81C535 81 522 81 509 81C496 81 483 81 469.8 81C456.7 81 443.3 81 430.2 81C417 81 404 81 391 81C378 81 365 81 352 81C339 81 326 81 313 81C300 81 287 81 274 81C261 81 248 81 235 81C222 81 209 81 196 81C183 81 170 81 156.8 81C143.7 81 130.3 81 117.2 81C104 81 91 81 78 81C65 81 52 81 39 81C26 81 13 81 6.5 81L0 81Z" fill="#ecc99c"></path><path d="M0 64L6.5 64.5C13 65 26 66 39 64.3C52 62.7 65 58.3 78 55.5C91 52.7 104 51.3 117.2 52C130.3 52.7 143.7 55.3 156.8 55.2C170 55 183 52 196 53C209 54 222 59 235 59.5C248 60 261 56 274 54.3C287 52.7 300 53.3 313 55.2C326 57 339 60 352 60.3C365 60.7 378 58.3 391 57.8C404 57.3 417 58.7 430.2 60.8C443.3 63 456.7 66 469.8 65.5C483 65 496 61 509 57.5C522 54 535 51 548 49.7C561 48.3 574 48.7 587 51.7C600 54.7 613 60.3 626 62.2C639 64 652 62 665 59.8C678 57.7 691 55.3 704 54.7C717 54 730 55 743.2 56.7C756.3 58.3 769.7 60.7 782.8 59.8C796 59 809 55 822 53C835 51 848 51 861 53.5C874 56 887 61 893.5 63.5L900 66L900 81L893.5 81C887 81 874 81 861 81C848 81 835 81 822 81C809 81 796 81 782.8 81C769.7 81 756.3 81 743.2 81C730 81 717 81 704 81C691 81 678 81 665 81C652 81 639 81 626 81C613 81 600 81 587 81C574 81 561 81 548 81C535 81 522 81 509 81C496 81 483 81 469.8 81C456.7 81 443.3 81 430.2 81C417 81 404 81 391 81C378 81 365 81 352 81C339 81 326 81 313 81C300 81 287 81 274 81C261 81 248 81 235 81C222 81 209 81 196 81C183 81 170 81 156.8 81C143.7 81 130.3 81 117.2 81C104 81 91 81 78 81C65 81 52 81 39 81C26 81 13 81 6.5 81L0 81Z" fill="#f6f5f2"></path></svg>