<svg id="visual" viewBox="0 0 900 80" width="900" height="80" xmlns="http://www.w3.org/2000/svg" xmlns:xlink="http://www.w3.org/1999/xlink" version="1.1"><rect x="0" y="0" width="900" height="80" fill="#ffc188"></rect><path d="M0 17L11.5 16.7C23 16.3 46 15.7 69 18C92 20.3 115 25.7 138.2 26.7C161.3 27.7 184.7 24.3 207.8 27C231 29.7 254 38.3 277 38.7C300 39 323 31 346 26.8C369 22.7 392 22.3 415.2 20.5C438.3 18.7 461.7 15.3 484.8 17.2C508 19 531 26 554 30.5C577 35 600 37 623 37C646 37 669 35 692.2 35.2C715.3 35.3 738.7 37.7 761.8 39.2C785 40.7 808 41.3 831 41.2C854 41 877 40 888.5 39.5L900 39L900 81L888.5 81C877 81 854 81 831 81C808 81 785 81 761.8 81C738.7 81 715.3 81 692.2 81C669 81 646 81 623 81C600 81 577 81 554 81C531 81 508 81 484.8 81C461.7 81 438.3 81 415.2 81C392 81 369 81 346 81C323 81 300 81 277 81C254 81 231 81 207.8 81C184.7 81 161.3 81 138.2 81C115 81 92 81 69 81C46 81 23 81 11.5 81L0 81Z" fill="#e16a54"></path><path d="M0 57L11.5 53.8C23 50.7 46 44.3 69 44.2C92 44 115 50 138.2 51.5C161.3 53 184.7 50 207.8 46C231 42 254 37 277 38.5C300 40 323 48 346 51C369 54 392 52 415.2 51.5C438.3 51 461.7 52 484.8 53.7C508 55.3 531 57.7 554 57.8C577 58 600 56 623 53.3C646 50.7 669 47.3 692.2 47.7C715.3 48 738.7 52 761.8 49.2C785 46.3 808 36.7 831 37.8C854 39 877 51 888.5 57L900 63L900 81L888.5 81C877 81 854 81 831 81C808 81 785 81 761.8 81C738.7 81 715.3 81 692.2 81C669 81 646 81 623 81C600 81 577 81 554 81C531 81 508 81 484.8 81C461.7 81 438.3 81 415.2 81C392 81 369 81 346 81C323 81 300 81 277 81C254 81 231 81 207.8 81C184.7 81 161.3 81 138.2 81C115 81 92 81 69 81C46 81 23 81 11.5 81L0 81Z" fill="#e5b78f"></path><path d="M0 54L11.5 53.2C23 52.3 46 50.7 69 52.5C92 54.3 115 59.7 138.2 63.5C161.3 67.3 184.7 69.7 207.8 70.8C231 72 254 72 277 70.2C300 68.3 323 64.7 346 61.2C369 57.7 392 54.3 415.2 52.5C438.3 50.7 461.7 50.3 484.8 49.8C508 49.3 531 48.7 554 49.2C577 49.7 600 51.3 623 54C646 56.7 669 60.3 692.2 61C715.3 61.7 738.7 59.3 761.8 56.3C785 53.3 808 49.7 831 48.5C854 47.3 877 48.7 888.5 49.3L900 50L900 81L888.5 81C877 81 854 81 831 81C808 81 785 81 761.8 81C738.7 81 715.3 81 692.2 81C669 81 646 81 623 81C600 81 577 81 554 81C531 81 508 81 484.8 81C461.7 81 438.3 81 415.2 81C392 81 369 81 346 81C323 81 300 81 277 81C254 81 231 81 207.8 81C184.7 81 161.3 81 138.2 81C115 81 92 81 69 81C46 81 23 81 11.5 81L0 81Z" fill="#f6f5f2"></path></svg>