<svg id="visual" viewBox="0 0 900 80" width="900" height="80" xmlns="http://www.w3.org/2000/svg" xmlns:xlink="http://www.w3.org/1999/xlink" version="1.1"><rect x="0" y="0" width="900" height="80" fill="#FFF6E3"></rect><path d="M0 41L12.5 42C25 43 50 45 75 39.7C100 34.3 125 21.7 150 15.2C175 8.7 200 8.3 225 11.8C250 15.3 275 22.7 300 26.7C325 30.7 350 31.3 375 29.3C400 27.3 425 22.7 450 25C475 27.3 500 36.7 525 38.5C550 40.3 575 34.7 600 31.3C625 28 650 27 675 26.5C700 26 725 26 750 30C775 34 800 42 825 39.7C850 37.3 875 24.7 887.5 18.3L900 12L900 81L887.5 81C875 81 850 81 825 81C800 81 775 81 750 81C725 81 700 81 675 81C650 81 625 81 600 81C575 81 550 81 525 81C500 81 475 81 450 81C425 81 400 81 375 81C350 81 325 81 300 81C275 81 250 81 225 81C200 81 175 81 150 81C125 81 100 81 75 81C50 81 25 81 12.5 81L0 81Z" fill="#e16a54"></path><path d="M0 30L12.5 32.2C25 34.3 50 38.7 75 41.8C100 45 125 47 150 49.5C175 52 200 55 225 56.5C250 58 275 58 300 55.2C325 52.3 350 46.7 375 45.2C400 43.7 425 46.3 450 47.5C475 48.7 500 48.3 525 45.3C550 42.3 575 36.7 600 37.5C625 38.3 650 45.7 675 46.2C700 46.7 725 40.3 750 42C775 43.7 800 53.3 825 54.3C850 55.3 875 47.7 887.5 43.8L900 40L900 81L887.5 81C875 81 850 81 825 81C800 81 775 81 750 81C725 81 700 81 675 81C650 81 625 81 600 81C575 81 550 81 525 81C500 81 475 81 450 81C425 81 400 81 375 81C350 81 325 81 300 81C275 81 250 81 225 81C200 81 175 81 150 81C125 81 100 81 75 81C50 81 25 81 12.5 81L0 81Z" fill="#f18e5e"></path><path d="M0 74L12.5 73.3C25 72.7 50 71.3 75 67.5C100 63.7 125 57.3 150 57C175 56.7 200 62.3 225 63.5C250 64.7 275 61.3 300 58.2C325 55 350 52 375 51.3C400 50.7 425 52.3 450 54.2C475 56 500 58 525 59.3C550 60.7 575 61.3 600 59.8C625 58.3 650 54.7 675 54.2C700 53.7 725 56.3 750 56.7C775 57 800 55 825 56.5C850 58 875 63 887.5 65.5L900 68L900 81L887.5 81C875 81 850 81 825 81C800 81 775 81 750 81C725 81 700 81 675 81C650 81 625 81 600 81C575 81 550 81 525 81C500 81 475 81 450 81C425 81 400 81 375 81C350 81 325 81 300 81C275 81 250 81 225 81C200 81 175 81 150 81C125 81 100 81 75 81C50 81 25 81 12.5 81L0 81Z" fill="#ffb26f"></path></svg>