<svg id="visual" viewBox="0 0 900 80" width="900" height="80" xmlns="http://www.w3.org/2000/svg" xmlns:xlink="http://www.w3.org/1999/xlink" version="1.1"><rect x="0" y="0" width="900" height="80" fill="#FFF6E3"></rect><path d="M0 22L13.7 22.7C27.3 23.3 54.7 24.7 82 27.5C109.3 30.3 136.7 34.7 163.8 33.3C191 32 218 25 245.2 20C272.3 15 299.7 12 327 10.8C354.3 9.7 381.7 10.3 409 12.2C436.3 14 463.7 17 491 20.8C518.3 24.7 545.7 29.3 573 31.3C600.3 33.3 627.7 32.7 654.8 29.3C682 26 709 20 736.2 17.2C763.3 14.3 790.7 14.7 818 17C845.3 19.3 872.7 23.7 886.3 25.8L900 28L900 81L886.3 81C872.7 81 845.3 81 818 81C790.7 81 763.3 81 736.2 81C709 81 682 81 654.8 81C627.7 81 600.3 81 573 81C545.7 81 518.3 81 491 81C463.7 81 436.3 81 409 81C381.7 81 354.3 81 327 81C299.7 81 272.3 81 245.2 81C218 81 191 81 163.8 81C136.7 81 109.3 81 82 81C54.7 81 27.3 81 13.7 81L0 81Z" fill="#e16a54"></path><path d="M0 30L13.7 34.5C27.3 39 54.7 48 82 51.5C109.3 55 136.7 53 163.8 49.3C191 45.7 218 40.3 245.2 36.7C272.3 33 299.7 31 327 34.7C354.3 38.3 381.7 47.7 409 49.5C436.3 51.3 463.7 45.7 491 45.7C518.3 45.7 545.7 51.3 573 52C600.3 52.7 627.7 48.3 654.8 44.7C682 41 709 38 736.2 37.8C763.3 37.7 790.7 40.3 818 40.2C845.3 40 872.7 37 886.3 35.5L900 34L900 81L886.3 81C872.7 81 845.3 81 818 81C790.7 81 763.3 81 736.2 81C709 81 682 81 654.8 81C627.7 81 600.3 81 573 81C545.7 81 518.3 81 491 81C463.7 81 436.3 81 409 81C381.7 81 354.3 81 327 81C299.7 81 272.3 81 245.2 81C218 81 191 81 163.8 81C136.7 81 109.3 81 82 81C54.7 81 27.3 81 13.7 81L0 81Z" fill="#f19769"></path><path d="M0 57L13.7 55.5C27.3 54 54.7 51 82 52.8C109.3 54.7 136.7 61.3 163.8 65.3C191 69.3 218 70.7 245.2 68.7C272.3 66.7 299.7 61.3 327 57.7C354.3 54 381.7 52 409 50.7C436.3 49.3 463.7 48.7 491 51.3C518.3 54 545.7 60 573 62.7C600.3 65.3 627.7 64.7 654.8 65.8C682 67 709 70 736.2 67.7C763.3 65.3 790.7 57.7 818 55C845.3 52.3 872.7 54.7 886.3 55.8L900 57L900 81L886.3 81C872.7 81 845.3 81 818 81C790.7 81 763.3 81 736.2 81C709 81 682 81 654.8 81C627.7 81 600.3 81 573 81C545.7 81 518.3 81 491 81C463.7 81 436.3 81 409 81C381.7 81 354.3 81 327 81C299.7 81 272.3 81 245.2 81C218 81 191 81 163.8 81C136.7 81 109.3 81 82 81C54.7 81 27.3 81 13.7 81L0 81Z" fill="#ffc188"></path></svg>