<svg id="visual" viewBox="0 0 900 30" width="900" height="30" xmlns="http://www.w3.org/2000/svg" xmlns:xlink="http://www.w3.org/1999/xlink" version="1.1"><rect x="0" y="0" width="900" height="30" fill="#F6F5F2"></rect><path d="M0 23L10 22.7C20 22.3 40 21.7 60 21.3C80 21 100 21 120 21C140 21 160 21 180 21C200 21 220 21 240 21.2C260 21.3 280 21.7 300 21.8C320 22 340 22 360 22C380 22 400 22 420 21.7C440 21.3 460 20.7 480 20.7C500 20.7 520 21.3 540 21.7C560 22 580 22 600 21.8C620 21.7 640 21.3 660 21C680 20.7 700 20.3 720 20.2C740 20 760 20 780 20.3C800 20.7 820 21.3 840 21.5C860 21.7 880 21.3 890 21.2L900 21L900 31L890 31C880 31 860 31 840 31C820 31 800 31 780 31C760 31 740 31 720 31C700 31 680 31 660 31C640 31 620 31 600 31C580 31 560 31 540 31C520 31 500 31 480 31C460 31 440 31 420 31C400 31 380 31 360 31C340 31 320 31 300 31C280 31 260 31 240 31C220 31 200 31 180 31C160 31 140 31 120 31C100 31 80 31 60 31C40 31 20 31 10 31L0 31Z" fill="#FFF6E3" stroke-linecap="round" stroke-linejoin="miter"></path></svg>