<svg xmlns="http://www.w3.org/2000/svg" viewBox="0 0 500 500"><g id="freepik--background-complete--inject-2"><rect y="382.4" width="500" height="0.25" style="fill:#ebebeb"></rect><rect x="416.78" y="398.49" width="33.12" height="0.25" style="fill:#ebebeb"></rect><rect x="322.53" y="401.21" width="8.69" height="0.25" style="fill:#ebebeb"></rect><rect x="396.59" y="389.21" width="19.19" height="0.25" style="fill:#ebebeb"></rect><rect x="52.46" y="390.89" width="43.19" height="0.25" style="fill:#ebebeb"></rect><rect x="104.56" y="390.89" width="6.33" height="0.25" style="fill:#ebebeb"></rect><rect x="131.47" y="395.11" width="93.68" height="0.25" style="fill:#ebebeb"></rect><path d="M237,337.8H43.91a5.71,5.71,0,0,1-5.7-5.71V60.66A5.71,5.71,0,0,1,43.91,55H237a5.71,5.71,0,0,1,5.71,5.71V332.09A5.71,5.71,0,0,1,237,337.8ZM43.91,55.2a5.46,5.46,0,0,0-5.45,5.46V332.09a5.46,5.46,0,0,0,5.45,5.46H237a5.47,5.47,0,0,0,5.46-5.46V60.66A5.47,5.47,0,0,0,237,55.2Z" style="fill:#ebebeb"></path><path d="M453.31,337.8H260.21a5.72,5.72,0,0,1-5.71-5.71V60.66A5.72,5.72,0,0,1,260.21,55h193.1A5.71,5.71,0,0,1,459,60.66V332.09A5.71,5.71,0,0,1,453.31,337.8ZM260.21,55.2a5.47,5.47,0,0,0-5.46,5.46V332.09a5.47,5.47,0,0,0,5.46,5.46h193.1a5.47,5.47,0,0,0,5.46-5.46V60.66a5.47,5.47,0,0,0-5.46-5.46Z" style="fill:#ebebeb"></path><path d="M93.05,382.41H24C31.47,375.53,49.1,376,49.1,376s-12.23-13.13-7.72-21.56S58,364.44,58,364.44,42.78,337,48.43,330.09,69.27,360.2,69.27,360.2,60,321.09,65.59,320s11.35,37.09,11.35,37.09-2-34.92,2.67-33.92S82,369.71,82,369.71s4.7-23.25,6.71-15.83-2,23.31-2,23.31A6,6,0,0,1,93.05,382.41Z" style="fill:#e0e0e0"></path><path d="M88.92,374.81c-.36-5-12-174.33-10.67-237.31l-4.9-.33s-6.09,190.2-1,237Z" style="fill:#e0e0e0"></path><polygon points="76.95 158.52 89.55 148.27 90.81 141.91 98.39 130.36 100.01 129.77 92.54 142.83 92.25 147.21 103.59 145.13 108.34 136.37 113.36 132.43 114.1 133.73 109.83 137.54 106.34 146.91 90.8 150.81 74.58 170.46 76.95 158.52" style="fill:#e0e0e0"></polygon><polygon points="74.47 149 73.86 153.29 60.23 140.24 51.83 138.58 45.35 134.11 45.8 133.68 51.95 137.6 58.77 137.93 52.31 129.89 45.95 125.26 46.38 124.99 52.76 129.12 63.26 139.75 62.22 130.03 59.79 125.9 59.55 124.76 62.62 129.26 70.6 126.63 71.26 127.13 63.08 130.04 64.55 140.76 74.47 149" style="fill:#e0e0e0"></polygon><path d="M119.84,132.25c.31-1.74-2.45-3-5.42-3.19a38.47,38.47,0,0,1-6.52-1c.28-.63.08-1.38.48-2.46.87-2.36.41-4-2.21-6s-5.24-1.65-11-1-4.92-1.92-10.08-4.39-23.13-1.44-26.43.86c-2,1.38-9.75.57-11.91,4s-14.9,2.52-13.21,5.46,3.7,3.07,3.37,8,4.12,3.28,8.58,5.13,3.86-1.62,6.78-1.84,2.12-.52,5.12-1.91,2.57.36,7.33,2.75c2.62,1.32,3.6-.28,4.41-2,.48,1.11-.06,2.73.92,4.61.78,1.51,3.93,1.84,6.93,1.56,3.29,6.24,4.7,1,8.82,1.48,4.35.47,10.89-3,14-3.33s3.27-1.14,6.44,1.31,16.8-2.34,18.09-4.81S119.54,134,119.84,132.25Z" style="fill:#e0e0e0"></path><path d="M177.91,384.38c-.31-4.25-10.22-149.1-9.12-203l-4.2-.28s-5.21,162.67-.85,202.68Z" style="fill:#e0e0e0"></path><polygon points="167.67 199.4 178.45 190.63 179.53 185.19 186.01 175.32 187.4 174.81 181.01 185.97 180.76 189.73 190.46 187.94 194.52 180.45 198.81 177.08 199.45 178.19 195.8 181.45 192.81 189.46 179.51 192.81 165.65 209.6 167.67 199.4" style="fill:#e0e0e0"></polygon><polygon points="165.55 191.25 165.03 194.92 153.37 183.76 146.19 182.34 140.65 178.52 141.03 178.15 146.29 181.5 152.13 181.78 146.6 174.91 141.16 170.95 141.53 170.72 146.99 174.25 155.97 183.34 155.08 175.03 153 171.5 152.79 170.52 155.41 174.37 162.24 172.12 162.81 172.55 155.81 175.04 157.07 184.21 165.55 191.25" style="fill:#e0e0e0"></polygon><path d="M204.36,176.93c.26-1.49-2.1-2.55-4.64-2.73a31.49,31.49,0,0,1-5.57-.88c.23-.53.06-1.17.41-2.1.74-2,.34-3.37-1.89-5.13s-4.49-1.41-9.38-.84-4.2-1.64-8.62-3.75-19.78-1.23-22.61.74c-1.7,1.18-8.34.49-10.18,3.38s-12.74,2.15-11.3,4.66,3.16,2.63,2.88,6.83,3.53,2.8,7.34,4.38,3.31-1.38,5.8-1.57,1.81-.44,4.38-1.63,2.2.3,6.27,2.35c2.24,1.13,3.07-.23,3.77-1.67.41.95-.05,2.34.78,3.95.67,1.28,3.37,1.57,5.94,1.33,2.81,5.34,4,.89,7.54,1.27,3.72.4,9.31-2.54,11.93-2.85s2.79-1,5.5,1.12,14.38-2,15.48-4.12S204.1,178.42,204.36,176.93Z" style="fill:#e0e0e0"></path><path d="M142.87,314.58c-.93-6.59-18.44-141.87-22.41-225.81H113.9s3.69,169.59,14.69,231.4Z" style="fill:#e6e6e6"></path><path d="M122.57,381.74s34.16-63.83,55.85-73.7c3.07-1.39,9.92,2.49,14,0s13.05-19.54,19.92-19.19S250.87,238.43,263,234.8l9.19-1s14-13.53,17.18-14.15,12.27,13.87,12.27,13.87l-4.28,11s7.31,16,8.37,17.67-4.47,41.18-4.09,43.59,9.36,35.4,14.11,40.53,0,36.22,0,36.22Z" style="fill:#e6e6e6"></path><path d="M49,381.51H223.1c-18.88-10.31-63.33-9.67-63.33-9.67s30.83-19.67,19.46-32.27-41.81,15-41.81,15,38.28-41.14,24-51.4-52.53,45.06-52.53,45.06,23.26-58.53,9.27-60.2-28.61,55.51-28.61,55.51,5-52.25-6.75-50.76-6.06,69.68-6.06,69.68S64.93,327.7,59.87,338.8,65,373.69,65,373.69C53.28,373.78,49.93,378.52,49,381.51Z" style="fill:#f0f0f0"></path><polygon points="120.62 116.86 136.48 102.09 137.58 93.51 146.62 77.45 148.73 76.52 139.97 94.57 139.97 100.43 154.88 96.64 160.42 84.55 166.73 78.85 167.84 80.51 162.5 85.97 158.69 98.75 138.36 105.36 118.54 132.96 120.62 116.86" style="fill:#e6e6e6"></polygon><polygon points="116.47 104.41 116.04 110.17 96.72 94.04 85.39 92.58 76.36 87.22 76.92 86.6 85.46 91.26 94.57 91.09 85.25 80.97 76.36 75.38 76.92 74.98 85.78 79.91 100.72 93.11 98.45 80.26 94.84 74.98 94.43 73.49 98.91 79.21 109.29 74.98 110.22 75.59 99.59 80.21 102.52 94.34 116.47 104.41" style="fill:#e6e6e6"></polygon><path d="M175.35,78c.26-2.34-3.53-3.75-7.51-3.75a51.65,51.65,0,0,1-8.76-.78c.31-.86,0-1.85.41-3.32.95-3.21.19-5.29-3.47-7.78s-7.14-1.73-14.69-.32-6.71-2.11-13.81-4.93-30.91.17-35.11,3.52c-2.52,2-12.92,1.64-15.49,6.34s-19.6,4.69-17.1,8.44S65,79.21,65,85.78s5.78,4,11.89,6,5-2.5,8.86-3.06,2.77-.88,6.63-3,3.46.24,10,3c3.61,1.52,4.77-.69,5.69-3,.74,1.44.17,3.65,1.64,6.06,1.18,1.93,5.41,2.09,9.37,1.45,4.94,8,6.36,1,11.88,1.18,5.83.23,14.22-4.93,18.27-5.69S153.51,87,158,89.93s22.16-4.62,23.65-8S175.1,80.38,175.35,78Z" style="fill:#f0f0f0"></path><circle cx="349.64" cy="116.53" r="41.55" style="fill:#fafafa"></circle><path d="M423.8,108.34a6.77,6.77,0,0,0-6.77-6.77,6.62,6.62,0,0,0-1.95.29A14.3,14.3,0,0,0,398.27,85.7,12.53,12.53,0,0,0,375,92h-.21a11.55,11.55,0,0,0,0,23.09h42.39A6.77,6.77,0,0,0,423.8,108.34Z" style="fill:#f5f5f5"></path><path d="M351.29,169.42a6.77,6.77,0,0,0-6.77-6.77,6.89,6.89,0,0,0-1.94.28,14.11,14.11,0,0,0,.15-2.07,14.36,14.36,0,0,0-17-14.09,12.53,12.53,0,0,0-23.23,6.34l-.2,0a11.55,11.55,0,1,0,0,23.09h42.38A6.76,6.76,0,0,0,351.29,169.42Z" style="fill:#f5f5f5"></path><path d="M468.83,255a6.77,6.77,0,0,0-6.77-6.77,6.5,6.5,0,0,0-1.94.29,14.34,14.34,0,0,0-14.18-16.41,15.25,15.25,0,0,0-2.64.24,12.53,12.53,0,0,0-23.23,6.34h-.2a11.54,11.54,0,1,0,0,23.08h42.38A6.76,6.76,0,0,0,468.83,255Z" style="fill:#f5f5f5"></path><path d="M373.13,266.4a4.09,4.09,0,0,0-4.09-4.09,4.21,4.21,0,0,0-1.18.17,8.61,8.61,0,0,0-8.56-9.92,8.43,8.43,0,0,0-1.6.15,7.57,7.57,0,0,0-14,3.83h-.12a7,7,0,1,0,0,14h25.61A4.08,4.08,0,0,0,373.13,266.4Z" style="fill:#f5f5f5"></path><path d="M266.51,90.91A4.06,4.06,0,0,0,261.25,87a8.67,8.67,0,0,0-8.57-9.92,8.43,8.43,0,0,0-1.6.15,7.56,7.56,0,0,0-14,3.83h-.13a7,7,0,1,0,0,14h25.62A4.09,4.09,0,0,0,266.51,90.91Z" style="fill:#f5f5f5"></path></g><g id="freepik--Shadow--inject-2"><ellipse id="freepik--path--inject-2" cx="250" cy="416.24" rx="193.89" ry="11.32" style="fill:#f5f5f5"></ellipse></g><g id="freepik--plant-1--inject-2"><path d="M107.92,416.73H71.28s7.3-11.16,10.41-9.74c4,1.84,7-8.27,11.52-5.87,1.58.84.81,3.54,1.8,4.63,1.65,1.8,3.73,1.45,5.72,2.44C104.62,410.13,106,412.69,107.92,416.73Z" style="fill:#88D68D"></path><path d="M107.92,416.73H71.28s7.3-11.16,10.41-9.74c4,1.84,7-8.27,11.52-5.87,1.58.84.81,3.54,1.8,4.63,1.65,1.8,3.73,1.45,5.72,2.44C104.62,410.13,106,412.69,107.92,416.73Z" style="opacity:0.2;isolation:isolate"></path><path d="M75.29,413.62s2.4-13.95.74-16-2,7.62-2,7.62S68.5,385.07,64.93,385s4.24,17.49,4.24,17.49-15.26-24.94-19.7-22.62,16,24.43,16,24.43-11.17-9.6-13.63-6.89,12.4,11,12.4,11-6.55-1.47-6.55.71S68.73,414.86,75.29,413.62Z" style="fill:#88D68D"></path><path d="M75.29,413.62s2.4-13.95.74-16-2,7.62-2,7.62S68.5,385.07,64.93,385s4.24,17.49,4.24,17.49-15.26-24.94-19.7-22.62,16,24.43,16,24.43-11.17-9.6-13.63-6.89,12.4,11,12.4,11-6.55-1.47-6.55.71S68.73,414.86,75.29,413.62Z" style="fill:#fff;opacity:0.2;isolation:isolate"></path><path d="M77.49,411.63s11.47-2.08,12.58-3.94-6.44.64-6.44.64,14-10,13.09-12.8-12.33,8.21-12.33,8.21,15-18.84,11.93-21.62-14.38,19.26-14.38,19.26S86.21,390,83.42,388.9s-5,12.69-5,12.69-.71-5.48-2.4-4.86S74.68,406.91,77.49,411.63Z" style="fill:#88D68D"></path><path d="M77.49,411.63s11.47-2.08,12.58-3.94-6.44.64-6.44.64,14-10,13.09-12.8-12.33,8.21-12.33,8.21,15-18.84,11.93-21.62-14.38,19.26-14.38,19.26S86.21,390,83.42,388.9s-5,12.69-5,12.69-.71-5.48-2.4-4.86S74.68,406.91,77.49,411.63Z" style="fill:#fff;opacity:0.2;isolation:isolate"></path><path d="M78.35,410.1s11.07-11.09,10.88-14-6.63,5.64-6.63,5.64,7.81-21.81,4.65-24.18-7.32,18.54-7.32,18.54,2.09-32.32-3.4-33-1.13,32.3-1.13,32.3-4-15.81-7.93-14.93,4.2,17.87,4.2,17.87-5-5.51-6.38-3.53S71.62,407,78.35,410.1Z" style="fill:#88D68D"></path><path d="M78.35,410.1s11.07-11.09,10.88-14-6.63,5.64-6.63,5.64,7.81-21.81,4.65-24.18-7.32,18.54-7.32,18.54,2.09-32.32-3.4-33-1.13,32.3-1.13,32.3-4-15.81-7.93-14.93,4.2,17.87,4.2,17.87-5-5.51-6.38-3.53S71.62,407,78.35,410.1Z" style="fill:#fff;opacity:0.4;isolation:isolate"></path><path d="M91.78,416.73H62.58s5.82-8.89,8.29-7.76c3.23,1.47,5.62-6.59,9.19-4.68,1.26.67.64,2.83,1.43,3.69,1.31,1.44,3,1.16,4.56,1.95C89.14,411.47,90.25,413.51,91.78,416.73Z" style="fill:#88D68D"></path></g><g id="freepik--plant-2--inject-2"><path d="M367.61,193.83s-4,4.66-5.4,4-2.06-1.11-4-.05-4.69,1.64-4.55-.2,3-4.08,3-5.34.32-4,1.73-4.55,6.12-2.9,7.19-2a3.2,3.2,0,0,0,3,1c1.45-.17,3,.2,2.63,1.62s.1,1.93-.09,3.35S368.9,194.07,367.61,193.83Z" style="fill:#88D68D"></path><path d="M367.61,193.83s-4,4.66-5.4,4-2.06-1.11-4-.05-4.69,1.64-4.55-.2,3-4.08,3-5.34.32-4,1.73-4.55,6.12-2.9,7.19-2a3.2,3.2,0,0,0,3,1c1.45-.17,3,.2,2.63,1.62s.1,1.93-.09,3.35S368.9,194.07,367.61,193.83Z" style="fill:#fff;opacity:0.6000000000000001;isolation:isolate"></path><path d="M379.4,184.63a3.76,3.76,0,0,0,.44-.45c.93-1.12,1.17-2.9,2.5-3.5a4,4,0,0,1,2.16-.1c4,.58,11.38,1.23,11.65,6.53.21,4.11-4.32,6.94-5.34,10.68-.93,3.4-1.47,7.49-4.57,9.16-2,1.07-4.43.72-6.58,0s-4.19-1.74-6.42-2c-3.31-.41-8.92,2.25-11.86.34-4.46-2.89.79-11,2.79-13.88a13.33,13.33,0,0,1,7.55-5.5C374.12,185.33,377.38,186.38,379.4,184.63Z" style="fill:#88D68D"></path><path d="M379.4,184.63a3.76,3.76,0,0,0,.44-.45c.93-1.12,1.17-2.9,2.5-3.5a4,4,0,0,1,2.16-.1c4,.58,11.38,1.23,11.65,6.53.21,4.11-4.32,6.94-5.34,10.68-.93,3.4-1.47,7.49-4.57,9.16-2,1.07-4.43.72-6.58,0s-4.19-1.74-6.42-2c-3.31-.41-8.92,2.25-11.86.34-4.46-2.89.79-11,2.79-13.88a13.33,13.33,0,0,1,7.55-5.5C374.12,185.33,377.38,186.38,379.4,184.63Z" style="fill:#fff;opacity:0.5;isolation:isolate"></path><path d="M425.34,224.05s6.43-.94,6.71,1,.25,3.07,2.31,3.81,4.22,2.76,2.52,4.49-5.32,1.32-6.47,2.52-3.66,3.71-5,3-6.16-2.84-6-4.76,0-2.62-1-3.81-1.6-3-.14-4.12,1.63-2,3-3.29S424.79,222.6,425.34,224.05Z" style="fill:#88D68D"></path><path d="M425.34,224.05s6.43-.94,6.71,1,.25,3.07,2.31,3.81,4.22,2.76,2.52,4.49-5.32,1.32-6.47,2.52-3.66,3.71-5,3-6.16-2.84-6-4.76,0-2.62-1-3.81-1.6-3-.14-4.12,1.63-2,3-3.29S424.79,222.6,425.34,224.05Z" style="fill:#fff;opacity:0.6000000000000001;isolation:isolate"></path><path d="M406.77,206.08a3.73,3.73,0,0,0-.47,0c-1.07.11-2.12.92-3.13.55a2.91,2.91,0,0,1-1.19-1.07c-1.83-2.4-5.36-6.55-2.75-9.48,2-2.28,5.88-1.41,8.36-2.85,2.25-1.31,4.66-3.18,7.15-2.45a6.25,6.25,0,0,1,3.47,3.4,26.82,26.82,0,0,0,2.34,4.4c1.52,1.93,5.86,3.45,6.41,6,.85,3.84-6.13,5.39-8.67,5.86a9.79,9.79,0,0,1-6.82-1C409.9,208.45,408.73,206.21,406.77,206.08Z" style="fill:#88D68D"></path><path d="M406.77,206.08a3.73,3.73,0,0,0-.47,0c-1.07.11-2.12.92-3.13.55a2.91,2.91,0,0,1-1.19-1.07c-1.83-2.4-5.36-6.55-2.75-9.48,2-2.28,5.88-1.41,8.36-2.85,2.25-1.31,4.66-3.18,7.15-2.45a6.25,6.25,0,0,1,3.47,3.4,26.82,26.82,0,0,0,2.34,4.4c1.52,1.93,5.86,3.45,6.41,6,.85,3.84-6.13,5.39-8.67,5.86a9.79,9.79,0,0,1-6.82-1C409.9,208.45,408.73,206.21,406.77,206.08Z" style="fill:#fff;opacity:0.6000000000000001;isolation:isolate"></path><path d="M391,207.56a3.28,3.28,0,0,0,.34-.31c.75-.78,1-2.08,2-2.44a2.91,2.91,0,0,1,1.6,0c2.95.65,8.32,1.54,8.23,5.46-.08,3-3.57,4.88-4.54,7.58-.87,2.45-1.5,5.43-3.87,6.49A6.24,6.24,0,0,1,390,224a25.76,25.76,0,0,0-4.62-1.85c-2.42-.49-6.7,1.16-8.76-.41-3.13-2.38,1.19-8.07,2.83-10.07a9.81,9.81,0,0,1,5.87-3.64C387.09,207.77,389.43,208.73,391,207.56Z" style="fill:#88D68D"></path><path d="M391,207.56a3.28,3.28,0,0,0,.34-.31c.75-.78,1-2.08,2-2.44a2.91,2.91,0,0,1,1.6,0c2.95.65,8.32,1.54,8.23,5.46-.08,3-3.57,4.88-4.54,7.58-.87,2.45-1.5,5.43-3.87,6.49A6.24,6.24,0,0,1,390,224a25.76,25.76,0,0,0-4.62-1.85c-2.42-.49-6.7,1.16-8.76-.41-3.13-2.38,1.19-8.07,2.83-10.07a9.81,9.81,0,0,1,5.87-3.64C387.09,207.77,389.43,208.73,391,207.56Z" style="fill:#fff;opacity:0.5;isolation:isolate"></path><path d="M374.51,227.32a1.51,1.51,0,0,0,.23-.21c.51-.52.69-1.4,1.37-1.65a2,2,0,0,1,1.08,0c2,.43,5.61,1,5.55,3.67-.05,2.06-2.41,3.29-3.06,5.11-.59,1.66-1,3.67-2.61,4.38a4.2,4.2,0,0,1-3.27-.23,17.37,17.37,0,0,0-3.12-1.25c-1.63-.33-4.51.78-5.9-.28-2.11-1.6.8-5.44,1.91-6.79a6.58,6.58,0,0,1,3.95-2.45C371.86,227.47,373.44,228.11,374.51,227.32Z" style="fill:#88D68D"></path><path d="M374.51,227.32a1.51,1.51,0,0,0,.23-.21c.51-.52.69-1.4,1.37-1.65a2,2,0,0,1,1.08,0c2,.43,5.61,1,5.55,3.67-.05,2.06-2.41,3.29-3.06,5.11-.59,1.66-1,3.67-2.61,4.38a4.2,4.2,0,0,1-3.27-.23,17.37,17.37,0,0,0-3.12-1.25c-1.63-.33-4.51.78-5.9-.28-2.11-1.6.8-5.44,1.91-6.79a6.58,6.58,0,0,1,3.95-2.45C371.86,227.47,373.44,228.11,374.51,227.32Z" style="fill:#fff;opacity:0.5;isolation:isolate"></path><path d="M403.2,373.77s7.51.17,11.87-22.43,5.53-30,9.49-28.11-6.78,33.08-6.78,33.08,4.41,1.6,10.74-12.78,10.68-24.9,15.43-19.45-10.29,28.8-20.38,38.29c0,0,1.78,3.56,9.69-2.77s13.06-12.17,17-8.26,4,7.87-2.37,7.87-17.85,7.41-19.8,14.56c0,0,8.72-2,15.85,0s11.47,9.08,3.95,11.7-14.68-5.79-19.8,0c0,0,14.66,1.8,15.85,12.1s-17.81,13.76-17.81,13.76L364,394.83,374.32,367Z" style="fill:#88D68D"></path><path d="M383.39,374.43s10.05-48.12,14.07-55.48c0,0,10.3-14.06,11.69-21.43S401,243.87,401,243.87l-27-12.45s-7.37-15-12.74-18.51l2.69-2.76s10.72,9.79,13.07,19.58l24,7.86-1.88-10.4-9.94-10.93-3.93-21.66,3.93-.4,3.69,17.35L401,218.3l6.16-14.64-.33-10.83,2.3-1.56L410,202l11.6-18.46,2.43,2.08-14,21.66-.85,14.76,3.06,9.67,13.41-7L432,212.6l3.35-1-6,15.55-12.74,14.46s6.37,42.73,11.06,54c0,0-13.74,23.2-12.07,34.18a209.36,209.36,0,0,0,4.7,21.74l-6.37,53.66L377,402.24Z" style="fill:#88D68D"></path><path d="M383.39,374.43s10.05-48.12,14.07-55.48c0,0,10.3-14.06,11.69-21.43S401,243.87,401,243.87l-27-12.45s-7.37-15-12.74-18.51l2.69-2.76s10.72,9.79,13.07,19.58l24,7.86-1.88-10.4-9.94-10.93-3.93-21.66,3.93-.4,3.69,17.35L401,218.3l6.16-14.64-.33-10.83,2.3-1.56L410,202l11.6-18.46,2.43,2.08-14,21.66-.85,14.76,3.06,9.67,13.41-7L432,212.6l3.35-1-6,15.55-12.74,14.46s6.37,42.73,11.06,54c0,0-13.74,23.2-12.07,34.18a209.36,209.36,0,0,0,4.7,21.74l-6.37,53.66L377,402.24Z" style="fill:#fff;opacity:0.2;isolation:isolate"></path><path d="M284.91,401.52a18,18,0,0,0-10.66,15.21H320l4.52-23.14-20.89-6.65s-1.3-30.4-5.86-34.26-5.35,6-1.79,21.22c0,0-9.1-10.15-15.43-7.53S292.1,389.2,292.1,389.2s-11.14-3.43-16.68,1.43S284.91,401.52,284.91,401.52Z" style="fill:#88D68D"></path><path d="M288.27,411.58s-20.85-1.67-27.84,5.15h53.62v-8.4s-10.15-18.69-15.29-19.13-1,15.71-1,15.71-11.08-13.17-16.63-6.67S288.27,411.58,288.27,411.58Z" style="fill:#88D68D"></path><path d="M288.27,411.58s-20.85-1.67-27.84,5.15h53.62v-8.4s-10.15-18.69-15.29-19.13-1,15.71-1,15.71-11.08-13.17-16.63-6.67S288.27,411.58,288.27,411.58Z" style="fill:#fff;opacity:0.2;isolation:isolate"></path><path d="M394.23,395.83s8.44-36.11,6.86-42.49-36.13-44.12-42.33-49-22.55-1.78-48.4,13.82-4.22,94.92-2.11,96.14S394.23,395.83,394.23,395.83Z" style="fill:#88D68D"></path><path d="M394.23,395.83s-83.87,19.7-86,18.49c-1.68-1-15.72-51.43-8.34-79.84,1.88-7.29,5.18-13.12,10.45-16.3,25.85-15.6,42.2-18.69,48.4-13.82s40.75,42.6,42.33,49S394.23,395.83,394.23,395.83Z" style="fill:#fff;opacity:0.6000000000000001;isolation:isolate"></path><path d="M394.23,395.83s-83.87,19.7-86,18.49c-1.68-1-15.72-51.43-8.34-79.84,2.12,17.73,5.26,42.34,6.76,45.48,2.37,5,26.55,0,26.55,0l18.94-16.78,2.77,12.59,21.76-3Z" style="opacity:0.1;isolation:isolate"></path><path d="M437.16,416.73l-6.53-10.88-12.85-8.35s-11.94-15.91-16.69-19.36-12.66,1.27-12.66,1.27-11.61,5.16-15.83,9.17-20,2.14-28,4.69-23.74,19-30.6,18.58c-3.14-.18-6.61,2.22-9.45,4.88Z" style="fill:#263238"></path><path d="M369.18,218.37s-9,4.78-10.42,2-2-4.37-5.41-4.37-7.65-1.85-6.06-5.28,7.12-4.74,8.17-7.12,3.43-7.38,5.8-7,10.55.92,11.34,3.83,1.32,3.87,3.43,5.1,4,3.6,2.38,6-1.32,3.86-2.64,6.42S370.76,220.22,369.18,218.37Z" style="fill:#88D68D"></path><path d="M369.18,218.37s-9,4.78-10.42,2-2-4.37-5.41-4.37-7.65-1.85-6.06-5.28,7.12-4.74,8.17-7.12,3.43-7.38,5.8-7,10.55.92,11.34,3.83,1.32,3.87,3.43,5.1,4,3.6,2.38,6-1.32,3.86-2.64,6.42S370.76,220.22,369.18,218.37Z" style="fill:#fff;opacity:0.6000000000000001;isolation:isolate"></path><path d="M426.66,178s6.62.28,7,1.95.38,2.55,2.55,3.5,4.48,3,2.79,4.09-5.45.21-6.59,1-3.65,2.44-5.07,1.61-6.5-3.33-6.42-4.88a3.54,3.54,0,0,0-1.16-3.29c-1.09-1.14-1.78-2.74-.31-3.39s1.61-1.41,2.95-2.21S426,176.69,426.66,178Z" style="fill:#88D68D"></path><path d="M426.66,178s6.62.28,7,1.95.38,2.55,2.55,3.5,4.48,3,2.79,4.09-5.45.21-6.59,1-3.65,2.44-5.07,1.61-6.5-3.33-6.42-4.88a3.54,3.54,0,0,0-1.16-3.29c-1.09-1.14-1.78-2.74-.31-3.39s1.61-1.41,2.95-2.21S426,176.69,426.66,178Z" style="fill:#fff;opacity:0.6000000000000001;isolation:isolate"></path><path d="M429.66,217.4a3.68,3.68,0,0,0-.47,0c-1.07.11-2.12.93-3.13.55a3,3,0,0,1-1.19-1.07c-1.83-2.4-5.35-6.55-2.75-9.48,2-2.27,5.88-1.41,8.36-2.85,2.25-1.3,4.66-3.18,7.16-2.45a6.25,6.25,0,0,1,3.47,3.4,25.65,25.65,0,0,0,2.33,4.4c1.53,1.94,5.86,3.45,6.42,6,.84,3.84-6.13,5.39-8.67,5.86a9.77,9.77,0,0,1-6.83-1C432.8,219.77,431.63,217.53,429.66,217.4Z" style="fill:#88D68D"></path><path d="M429.66,217.4a3.68,3.68,0,0,0-.47,0c-1.07.11-2.12.93-3.13.55a3,3,0,0,1-1.19-1.07c-1.83-2.4-5.35-6.55-2.75-9.48,2-2.27,5.88-1.41,8.36-2.85,2.25-1.3,4.66-3.18,7.16-2.45a6.25,6.25,0,0,1,3.47,3.4,25.65,25.65,0,0,0,2.33,4.4c1.53,1.94,5.86,3.45,6.42,6,.84,3.84-6.13,5.39-8.67,5.86a9.77,9.77,0,0,1-6.83-1C432.8,219.77,431.63,217.53,429.66,217.4Z" style="fill:#fff;opacity:0.5;isolation:isolate"></path><path d="M415.33,177.79c6.74,3.29,7.91-.43,9.49,2.27s9.5,1.39,8.18,5.08-5.54,7.67-2.9,9.51-.12,1.57-5.86,2-3.1,5.57-8.91,2.44-10,.88-12.66,1-8.44,2.5-11.08-3.44.53-8.05,1.06-13.06-7.12-5.8,1.58-10,15.74-3.16,17.36,0S412.69,176.5,415.33,177.79Z" style="fill:#88D68D"></path><path d="M415.33,177.79c6.74,3.29,7.91-.43,9.49,2.27s9.5,1.39,8.18,5.08-5.54,7.67-2.9,9.51-.12,1.57-5.86,2-3.1,5.57-8.91,2.44-10,.88-12.66,1-8.44,2.5-11.08-3.44.53-8.05,1.06-13.06-7.12-5.8,1.58-10,15.74-3.16,17.36,0S412.69,176.5,415.33,177.79Z" style="fill:#fff;opacity:0.5;isolation:isolate"></path><path d="M378.94,192c3.06-1.77,3.9-6.25,6.19-5.52s6.85,2.92,9.05,1.72,5.32-1.14,5.53,1.12-2.92,6-1.67,8.41.39,4.89-3.86,5.52-6.55,2.29-9.88,3.54-2.71-3-6.25-4.34S369.2,197.59,378.94,192Z" style="fill:#88D68D"></path><path d="M378.94,192c3.06-1.77,3.9-6.25,6.19-5.52s6.85,2.92,9.05,1.72,5.32-1.14,5.53,1.12-2.92,6-1.67,8.41.39,4.89-3.86,5.52-6.55,2.29-9.88,3.54-2.71-3-6.25-4.34S369.2,197.59,378.94,192Z" style="fill:#fff;opacity:0.6000000000000001;isolation:isolate"></path><path d="M433,208.34c-3.38-1-7.23,1.4-8.26-.77s-2.53-7-4.91-7.79-4.46-3.11-2.95-4.81,6.39-2,7.29-4.52,3.3-3.61,6.66-.93,6.15,3.23,9.33,4.81-.38,4.06,1.09,7.53S443.73,211.62,433,208.34Z" style="fill:#88D68D"></path><path d="M433,208.34c-3.38-1-7.23,1.4-8.26-.77s-2.53-7-4.91-7.79-4.46-3.11-2.95-4.81,6.39-2,7.29-4.52,3.3-3.61,6.66-.93,6.15,3.23,9.33,4.81-.38,4.06,1.09,7.53S443.73,211.62,433,208.34Z" style="fill:#fff;opacity:0.6000000000000001;isolation:isolate"></path><path d="M394.06,181s-5,3.55-6.22,2.58-1.73-1.58-3.85-1-4.95.45-4.37-1.3,3.86-3.24,4.24-4.45,1.27-3.78,2.78-4,6.64-1.33,7.46-.2a3.18,3.18,0,0,0,2.72,1.66c1.44.19,2.86.92,2.16,2.21s-.37,1.9-.89,3.23S395.25,181.49,394.06,181Z" style="fill:#88D68D"></path><path d="M394.06,181s-5,3.55-6.22,2.58-1.73-1.58-3.85-1-4.95.45-4.37-1.3,3.86-3.24,4.24-4.45,1.27-3.78,2.78-4,6.64-1.33,7.46-.2a3.18,3.18,0,0,0,2.72,1.66c1.44.19,2.86.92,2.16,2.21s-.37,1.9-.89,3.23S395.25,181.49,394.06,181Z" style="fill:#fff;opacity:0.6000000000000001;isolation:isolate"></path></g><g id="freepik--character-1--inject-2"><path d="M121.31,173.16s1.13-10.35,2.22-10.81,6.62,1.12,8.6,2.41a5.43,5.43,0,0,1,2.38,3V171l3.06,3.95-3.81,4.52-6.08-3.62S121.19,174.17,121.31,173.16Z" style="fill:#e4897b"></path><path d="M122.76,178.89l17.64,7.3L131,179.46l7.4-7.48s20.82,9,20.4,19-15.06,10.38-35.23,8Z" style="fill:#88D68D"></path><path d="M158.76,191c-.35,8.39-10.75,10-26,8.91-2.9-.21-6-.52-9.21-.9l-.31-8-.46-12.05,17.64,7.3L131,179.46l7.4-7.48S159.18,181,158.76,191Z" style="opacity:0.1;isolation:isolate"></path><path d="M132.74,199.88c-2.9-.21-6-.52-9.21-.9l-.31-8A19,19,0,0,1,132.74,199.88Z" style="opacity:0.2;isolation:isolate"></path><path d="M88.22,151.84c-.18.07-9-.17-11,7.48s4.45,11.75,3.51,19.3-4.1,14.2-2.52,17.14,11,4.56,13.19-5.14-7.06-25.62-3.2-30.35S88.22,151.84,88.22,151.84Z" style="fill:#263238"></path><path d="M118.41,198.71s-1.12-23.64-23.78-23.39S67.48,189.58,73,200.38a219.45,219.45,0,0,1,2.84,26c.38,12-4.7,22.24,14.82,23.56s30.12-3.49,30.63-6S119.38,208.45,118.41,198.71Z" style="fill:#263238"></path><path d="M118.41,198.71s-1.12-23.64-23.78-23.39S67.48,189.58,73,200.38a219.45,219.45,0,0,1,2.84,26c.38,12-4.7,22.24,14.82,23.56s30.12-3.49,30.63-6S119.38,208.45,118.41,198.71Z" style="fill:#fff;opacity:0.2;isolation:isolate"></path><path d="M157.75,405.54l-5.47,1.93s-16.52-38-23.23-70.84a284.71,284.71,0,0,1-14-31.5c-.54-1.44-1.06-2.9-1.57-4.37-1.42-4.08-2.74-8.28-3.84-12.44-2.12-8-3.47-15.81-3.33-22.64l21.43,4.64,3.21,14.11,1.7,7.51,1.74,7.65L139.9,324Z" style="fill:#e4897b"></path><path d="M132.63,291.94l-19.17,8.82c-1.42-4.08-2.74-8.28-3.84-12.44l21.31-3.89Z" style="opacity:0.2;isolation:isolate"></path><path d="M124.9,256.28,133.76,287l-25.51,7.84-5.2-29.16S113,251.37,124.9,256.28Z" style="fill:#88D68D"></path><path d="M133.76,287l-18.84,5.79-6.44,2-.23.07-4-22.51-1.19-6.65s9.94-14.35,21.85-9.43l8.3,28.77Z" style="fill:#fff;opacity:0.6000000000000001;isolation:isolate"></path><polygon points="135.68 288.67 115.41 295.95 110.74 297.63 108.48 294.81 108.27 294.54 114.8 292.06 133.2 285.06 134.68 284.5 135.68 288.67" style="fill:#88D68D"></polygon><path d="M113.57,292.42l.23,3.15L109,296.86l-2-3-.23.05-2.17-22.76c.68-2,1.1-3.15,1.1-3.15l12.69-8.83S118,265,112,272l1.47,19.67Z" style="opacity:0.2;isolation:isolate"></path><path d="M150,405.56c0-.72,9-.15,9-.15s5.51,5.6,10.86,6.86,2.36,4.46-3.62,4.46H151.38C147.14,416.73,149.79,413.12,150,405.56Z" style="fill:#263238"></path><path d="M159.93,406.56l-.07-.05h0a.16.16,0,0,1,0-.07h0a.19.19,0,0,1,0-.07h0a.31.31,0,0,1,0-.1c0-.11.79-2.18,2-2.68a1.38,1.38,0,0,1,1.16,0c.41.19.6.45.59.75,0,.47-.67.95-1.39,1.33a3.7,3.7,0,0,1,2,.22,1,1,0,0,1,.48.61.85.85,0,0,1-.22,1,1.18,1.18,0,0,1-.79.22A11.08,11.08,0,0,1,159.93,406.56Zm.82-.15c1.32.56,3,1.06,3.38.71,0,0,.15-.12.06-.47a.47.47,0,0,0-.25-.32,2.29,2.29,0,0,0-1.06-.19A11.18,11.18,0,0,0,160.75,406.41ZM162,404a3.93,3.93,0,0,0-1.53,1.93c1.32-.51,2.6-1.2,2.63-1.6,0-.13-.2-.25-.32-.3a.91.91,0,0,0-.41-.1A.94.94,0,0,0,162,404Z" style="fill:#88D68D"></path><path d="M108.76,409.48l-5.75.75s-8.25-40.61-8-74.12a285.79,285.79,0,0,1-7.16-33.73c-2-13.72-3-29-.34-40.4l20,9,.41,30,.34,25Z" style="fill:#e4897b"></path><path d="M107.92,301l-20.07,1.4c-2-13.72-3-29-.34-40.4l20,9Z" style="opacity:0.2;isolation:isolate"></path><path d="M101,405.56c0-.72,9-.15,9-.15s5.51,5.6,10.86,6.86,2.36,4.46-3.62,4.46H102.38C98.14,416.73,100.79,413.12,101,405.56Z" style="fill:#263238"></path><path d="M110.93,406.56l-.07-.05h0a.16.16,0,0,1,0-.07h0a.19.19,0,0,1,0-.07h0a.31.31,0,0,1,0-.1c0-.11.79-2.18,2-2.68a1.38,1.38,0,0,1,1.16,0c.41.19.6.45.59.75,0,.47-.67.95-1.39,1.33a3.7,3.7,0,0,1,2,.22,1,1,0,0,1,.48.61.85.85,0,0,1-.22,1,1.18,1.18,0,0,1-.79.22A11.08,11.08,0,0,1,110.93,406.56Zm.82-.15c1.32.56,3,1.06,3.38.71,0,0,.15-.12.06-.47a.47.47,0,0,0-.25-.32,2.29,2.29,0,0,0-1.06-.19A11.18,11.18,0,0,0,111.75,406.41ZM113,404a3.93,3.93,0,0,0-1.53,1.93c1.32-.51,2.6-1.2,2.63-1.6,0-.13-.2-.25-.32-.3a.91.91,0,0,0-.41-.1A.94.94,0,0,0,113,404Z" style="fill:#88D68D"></path><path d="M110.1,296.4l-.75-34.59,17.15-5s-1.35-15.87-3.35-23.7c0,0-27.85-6.93-32.09,2.51,0,0,0,.15-.06.2l-.07.09s-17.12,12.72-5.61,60.49Z" style="fill:#88D68D"></path><path d="M110.1,296.4l-.75-34.59,17.15-5s-1.35-15.87-3.35-23.7c0,0-27.85-6.93-32.09,2.51,0,0,0,.15-.06.2l-.07.09s-17.12,12.72-5.61,60.49Z" style="fill:#fff;opacity:0.6000000000000001;isolation:isolate"></path><polygon points="90.76 230.83 90.76 235.55 122.76 233.08 122.76 227.5 90.76 230.83" style="fill:#263238"></polygon><rect x="100.2" y="228.88" width="1.6" height="8.16" transform="translate(-11.76 5.46) rotate(-2.93)" style="fill:#88D68D"></rect><rect x="108.74" y="228.95" width="7.08" height="5.37" transform="translate(-20.21 10.94) rotate(-5.12)" style="fill:#fff"></rect><rect x="119.9" y="226.72" width="1.6" height="8.16" transform="translate(-11.61 6.45) rotate(-2.92)" style="fill:#88D68D"></rect><rect x="100.2" y="228.88" width="1.6" height="8.16" transform="translate(-11.76 5.46) rotate(-2.93)" style="fill:#fff;opacity:0.6000000000000001;isolation:isolate"></rect><rect x="119.9" y="226.72" width="1.6" height="8.16" transform="translate(-11.61 6.45) rotate(-2.92)" style="fill:#fff;opacity:0.6000000000000001;isolation:isolate"></rect><path d="M123.15,228.06,90.9,230.85c-.76-12-1.52-19.72-8.62-41.08q-.93-2.81-2-6a96,96,0,0,1,13.37-3.22,103.67,103.67,0,0,1,14.48-1.53c6.28,0,13.48.66,13.48.66s1,.24,1.67,6.89C123.87,192.87,124.44,205.35,123.15,228.06Z" style="fill:#263238"></path><path d="M123.15,228.06l-32.24,2.79a115.88,115.88,0,0,0-3.6-24.37c-.83-3.22-1.87-6.84-3.19-11-.56-1.78-1.17-3.66-1.84-5.67s-1.28-3.86-2-6a95.86,95.86,0,0,1,13.38-3.23,103.35,103.35,0,0,1,14.48-1.53c6.27-.05,13.48.66,13.48.66s1,.25,1.67,6.89C123.87,192.86,124.45,205.35,123.15,228.06Z" style="fill:#fff;opacity:0.2;isolation:isolate"></path><polygon points="83.26 294.98 111.51 294.73 111.01 298.98 84.51 298.73 83.26 294.98" style="fill:#88D68D"></polygon><path d="M91.42,267.83l-16.55-3.4,11-32.08-3.71-19.48L80,201.19l-3.1-16.26s8.23-4.33,13.91-4.56C90.76,180.37,99.67,212.66,91.42,267.83Z" style="fill:#88D68D"></path><path d="M111.66,177.89s6.1,24.43,9,40.9S125.31,262,125.31,262l5.65-2.8-5.65-29.94s1.62-42.55-2.55-50.35Z" style="fill:#88D68D"></path><path d="M111.66,177.89s12,18.38,13.88,42.05l1-5.34s-.88-20.17-11.74-37.12Z" style="fill:#263238"></path><path d="M111.66,177.89s12,18.38,13.88,42.05l1-5.34s-.88-20.17-11.74-37.12Z" style="fill:#fff;opacity:0.1;isolation:isolate"></path><path d="M90.76,178.89s1.74,30.5-6.28,46.1l-1.21-2.28s6.37-17.89,2.81-42.34Z" style="fill:#263238"></path><path d="M90.76,178.89s1.74,30.5-6.28,46.1l-1.21-2.28s6.37-17.89,2.81-42.34Z" style="fill:#fff;opacity:0.1;isolation:isolate"></path><path d="M114.54,189.88s1.17-11.87.68-13.5-23.66-1.57-27.36,1.51S93,192.68,93,192.68s.63-10.71.93-11.41,12.59-2.07,14.5-1.53S114.54,189.88,114.54,189.88Z" style="fill:#88D68D"></path><path d="M114.54,189.88s1.17-11.87.68-13.5-23.66-1.57-27.36,1.51S93,192.68,93,192.68s.63-10.71.93-11.41,12.59-2.07,14.5-1.53S114.54,189.88,114.54,189.88Z" style="opacity:0.2;isolation:isolate"></path><path d="M105.47,186.19c-8-1-10.34-4.42-10.34-4.42,3.25-3.06,2.66-7.58,1.83-10.4a16.16,16.16,0,0,0-1-2.6l9.57,1.79a27.54,27.54,0,0,0-.37,4,12.07,12.07,0,0,0,.27,3c.65,2.86,2.28,2.9,2.28,2.9C109.41,183.59,105.47,186.19,105.47,186.19Z" style="fill:#e4897b"></path><path d="M105.18,174.59a12.07,12.07,0,0,0,.27,3c-3.8-.5-6.68-3.54-8.49-6.18a16.16,16.16,0,0,0-1-2.6l9.57,1.79A27.54,27.54,0,0,0,105.18,174.59Z" style="opacity:0.2;isolation:isolate"></path><path d="M112.51,155.47s1.7-4.89-2.49-11-13-7.44-19.34,0c0,0-3.45.21-5.53,6.15s.42,17.1,10.3,19.38S112.51,155.47,112.51,155.47Z" style="fill:#263238"></path><path d="M99,145.35c8.19-1.55,11.65,2.33,13.84,10.65,2.74,10.4,1.82,18.33-8.84,18C89.51,173.58,85.39,147.91,99,145.35Z" style="fill:#e4897b"></path><path d="M107.44,156.55a17.57,17.57,0,0,0,3,2.94,2.3,2.3,0,0,1-2,1.33Z" style="fill:#de5753"></path><path d="M102.31,156.82c.14.67-.1,1.29-.55,1.39s-.92-.37-1.07-1,.11-1.29.55-1.39S102.17,156.15,102.31,156.82Z" style="fill:#263238"></path><path d="M101.06,155.86l1.34-.89S101.93,156.35,101.06,155.86Z" style="fill:#263238"></path><path d="M110.6,154.91c.14.67-.11,1.29-.55,1.38s-.92-.37-1.07-1,.11-1.28.55-1.38S110.46,154.24,110.6,154.91Z" style="fill:#263238"></path><path d="M109.35,153.94l1.34-.88S110.22,154.44,109.35,153.94Z" style="fill:#263238"></path><path d="M101.16,151.19a4.33,4.33,0,0,0-3.32,1.9" style="fill:none;stroke:#263238;stroke-linecap:round;stroke-linejoin:round;stroke-width:0.707962px"></path><path d="M107,149.72a3.9,3.9,0,0,1,3.39.05" style="fill:none;stroke:#263238;stroke-linecap:round;stroke-linejoin:round;stroke-width:0.707962px"></path><path d="M92.65,160.83s2.55-7.45,1-12.53c0,0,15-9.69,18.87,6.62,0,0-1.17-14.91-15.3-12.58S87,165.24,95.45,170C95.45,170,91.07,165.48,92.65,160.83Z" style="fill:#263238"></path><path d="M94.31,162.3a3.67,3.67,0,0,0-4.49-2.55c-2.48.76-2.7,6.19,3.84,6.25C94.6,166,94.94,165,94.31,162.3Z" style="fill:#e4897b"></path><path d="M112.82,161.46s-1.19.43-1.16,1.34C111.68,163.45,113.85,163.64,112.82,161.46Z" style="fill:#263238"></path><path d="M93.64,148.3s8-3.52,14.5,2.89c0,0-3.74-6.81-13.51-4.33C94.63,146.86,92.83,147.27,93.64,148.3Z" style="fill:#263238"></path><path d="M93.64,148.3a11.91,11.91,0,0,1,1.28,9.43" style="fill:none;stroke:#263238;stroke-linecap:round;stroke-linejoin:round;stroke-width:0.5px"></path><path d="M115.29,162.28l-2.5-1.12-2,4.38,2.5,1.12a2.59,2.59,0,0,1,1.42,1.57h0a2.59,2.59,0,0,0,1.42,1.57l20,9a1.38,1.38,0,0,0,1.83-.7l2.23-5a1.38,1.38,0,0,0-.7-1.83l-20.06-9a2.59,2.59,0,0,0-2.11,0h0A2.65,2.65,0,0,1,115.29,162.28Z" style="fill:#88D68D"></path><path d="M125.82,165.11l-6.3-2.82a2.59,2.59,0,0,0-2.11,0,2.65,2.65,0,0,1-2.12,0l-2.5-1.12-2,4.38,2.5,1.12a2.59,2.59,0,0,1,1.42,1.57,2.59,2.59,0,0,0,1.42,1.57l6.29,2.82Z" style="fill:#fff;opacity:0.7000000000000001;isolation:isolate"></path><path d="M130.33,176.14l5.89,2.63a1.38,1.38,0,0,0,1.83-.7l2.23-5a1.39,1.39,0,0,0-.7-1.83l-5.89-2.63Z" style="fill:#fff;opacity:0.7000000000000001;isolation:isolate"></path><path d="M82.17,212.87,80,201.19l1.78-1.75S85,206,82.17,212.87Z" style="opacity:0.2;isolation:isolate"></path><path d="M78.16,212.74l5.11-3.48s5.57-9.82,7.49-9.82,3,8.86,2.7,9.51S88,214.14,87,214.08l-6.09,5.34Z" style="fill:#e4897b"></path><path d="M76.85,184.93c-4.37.29-21.17,36.66-17.61,45.73s25.08-11.54,25.08-11.54l-2.72-9.25-6.73,3.85A82.73,82.73,0,0,1,81.34,205s.94-7.56,0-13.1S76.85,184.93,76.85,184.93Z" style="fill:#88D68D"></path><path d="M76.85,184.93c-4.37.29-21.17,36.66-17.61,45.73s25.08-11.54,25.08-11.54l-2.72-9.25-6.73,3.85A82.73,82.73,0,0,1,81.34,205s.94-7.56,0-13.1S76.85,184.93,76.85,184.93Z" style="opacity:0.1;isolation:isolate"></path></g><g id="freepik--character-2--inject-2"><g id="freepik--group--inject-2"><path d="M170.85,335.61l7.31,5.7,1-.25-7.31-6.69-5.64-14.16c-.19-2-.41-4.07-.71-6.15-.12-.84-.31-1.79-.5-2.64s-.42-1.66-.64-2.47c-.45-1.63-.92-3.23-1.4-4.83-1.88-6.29-3.88-12.5-5.93-18.72l-2.43-48.57-6.11.39L152.25,286l0,.34.09.27h0c2.16,6.26,4.28,12.55,6.26,18.84.49,1.57,1,3.15,1.42,4.72.24.78.45,1.56.65,2.34s.32,1.44.45,2.24c.5,3.16.83,6.48,1.17,9.75,1.16,12.2,2,24.47,2.82,36.74l-2.29,10.33,1.62,12.07-1.62,9.08.88.25,2.37-9.53-1.39-10.73,1.71-4.75,5.82,19.57,2,29.21,3-.18-1.6-29.44v-.17l-.06-.2-6.51-23c-.59-11.64-1.24-23.26-2.13-34.91Zm-13.94-50.55Z" style="fill:#263238"></path><path d="M164,223.11l-8.44,7.42-5.54-1.15s-7.91,6.31-7.12,7.24,3.43,5.84,5.28,5.9,9.54-4.64,9.54-4.64l10-6.81Z" style="fill:#e4897b"></path><path d="M204.1,150.87a51.08,51.08,0,0,0-11.45,12.3c-5.11,7.75-11.47,35.27-15,41.68S158.77,226,158.77,226l4.6,10.51s21.4-12.14,30.28-24.23,18-50.63,18-50.63Z" style="fill:#88D68D"></path><path d="M204.1,150.87a51.08,51.08,0,0,0-11.45,12.3c-5.11,7.75-11.47,35.27-15,41.68S158.77,226,158.77,226l4.6,10.51s21.4-12.14,30.28-24.23,18-50.63,18-50.63Z" style="fill:#fff;opacity:0.6000000000000001;isolation:isolate"></path><path d="M252.72,111.57l-11.16-2.19a17.9,17.9,0,0,0-6-2.46c-4-1-7-1.88-8.16-.59s-3.16,5.93-2.07,6.62a69.92,69.92,0,0,0,11,3.57,9.76,9.76,0,0,0,2.9-.4l12.13,3.46Z" style="fill:#e4897b"></path><polygon points="243.44 408.95 251.91 409.84 252.34 404.93 253.5 391.57 245.03 390.67 243.74 405.43 243.44 408.95" style="fill:#e4897b"></polygon><polygon points="201.15 407.88 209.36 407.88 209.43 406.02 209.44 405.79 209.86 393.88 209.87 393.64 210.04 389.07 201.82 389.07 201.15 407.88" style="fill:#e4897b"></polygon><polygon points="245.03 390.67 243.74 405.43 252.34 404.93 253.5 391.57 245.03 390.67" style="opacity:0.2;isolation:isolate"></polygon><polygon points="201.2 406.83 201.21 406.83 209.43 405.79 209.44 405.79 209.87 394.3 209.86 394.3 201.63 394.95 201.21 406.47 201.2 406.83" style="opacity:0.2;isolation:isolate"></polygon><path d="M210.5,407.38h-10a.73.73,0,0,0-.7.57l-1.62,7.31a1.21,1.21,0,0,0,.94,1.44,1.1,1.1,0,0,0,.26,0c3.23-.05,5.58-.25,9.63-.25,2.5,0,10,.26,13.48.26s3.9-3.4,2.49-3.72c-6.33-1.37-11.1-3.29-13.12-5.1A2,2,0,0,0,210.5,407.38Z" style="fill:#263238"></path><path d="M252.81,407.12h-10a.73.73,0,0,0-.7.57L240.51,415a1.22,1.22,0,0,0,.94,1.44l.26,0c3.23,0,5.58-.25,9.64-.25,2.49,0,10,.26,13.47.26s3.9-3.4,2.49-3.72c-6.33-1.38-11.09-3.29-13.12-5.11A2,2,0,0,0,252.81,407.12Z" style="fill:#263238"></path><path d="M254.28,403.7H242.23s1-103.7-12-138.72c-.92,11.58-2,23.59-3,33.6-.64,6.19-1.27,11.52-1.86,15.57C221.57,340.27,212,404.74,212,404.74H200.1s1.41-61.78,2.82-87.45c1.55-27.86,2.22-89.11,2.29-94.33h43.58C252.94,244.9,263.58,332.66,254.28,403.7Z" style="fill:#263238"></path><path d="M233,130.88c-.11.4-.22.79-.36,1.17a11.38,11.38,0,0,1-4.06,5.41,11.93,11.93,0,0,1-1.49.92,10.35,10.35,0,0,1-8.9.39,10.13,10.13,0,0,1-3.39-2.35c-4.12-4.15-4-8.95-4.47-17.07a11.14,11.14,0,0,1,15.37-11.11C233.63,111.49,234.73,123.57,233,130.88Z" style="fill:#e4897b"></path><path d="M228.55,137.46a11.93,11.93,0,0,1-1.49.92,10.35,10.35,0,0,1-8.9.39,11.93,11.93,0,0,1,1.45-2.75A16.06,16.06,0,0,1,228.55,137.46Z" style="opacity:0.2;isolation:isolate"></path><path d="M212.2,148c4,3.63,13.81,2.29,13.81,2.29s6.11-1.68,4.83-3.59c-3.61-.6-5.35-2.28-6.07-4.43a10.53,10.53,0,0,1-.37-4.12,22.47,22.47,0,0,1,.31-2.29l-12.12-9C214.18,132.81,216.12,143.7,212.2,148Z" style="fill:#e4897b"></path><path d="M223.36,104.73s5.27-2.21,8.94,1.24c3.09,2.92,1.08,7.41,2.95,11.14s-4.88,6.17-4.88,6.17-1.79,3.84-4.89,3.6c0,0-2.53,3.07-2.12,6.23s-4.15,5.68-10.35,5.6-3.72-4-3.72-4a25.66,25.66,0,0,1-4.3-6.95,23.91,23.91,0,0,1-1.76-9.71,13,13,0,0,1,3.58-9.4C211,104,220.81,101.7,223.36,104.73Z" style="fill:#263238"></path><path d="M223.93,124.07a5.3,5.3,0,0,0,2.7,3.61c1.66.7,2.75-1.63,2.51-4.07-.23-2.17-1.35-5.21-3.12-4.81S223.35,121.89,223.93,124.07Z" style="fill:#e4897b"></path><path d="M233.69,105.83c2.44,3-5.09,23.94-16.36,25.92s-15,2.77-13.33-5.74c0,0-3.45-7.32-.79-15,0,0-1.3-.2-1-2.77s9.8-9.5,15.93-10.09S231,105,231,105,232.25,104.05,233.69,105.83Z" style="fill:#88D68D"></path><path d="M230.19,264.93c-.92,11.58-2,23.62-3,33.63-1.48-14.45-3.3-24.76-3.3-24.76s-1.71-1.4-6.39-8.87,0-21.41,0-21.41C217.39,256.47,230.19,264.93,230.19,264.93Z" style="opacity:0.2;isolation:isolate"></path><polygon points="255.63 400.3 255.04 403.7 240.81 403.7 240.81 400.56 255.63 400.3" style="fill:#88D68D"></polygon><polygon points="213.36 401.61 212 404.74 200.06 404.74 199.28 401.61 213.36 401.61" style="fill:#88D68D"></polygon><polygon points="204.81 230.1 204.81 236.51 250.48 233.31 250.48 227.63 204.81 230.1" style="fill:#88D68D"></polygon><polygon points="204.81 230.1 204.81 236.51 250.48 233.31 250.48 227.63 204.81 230.1" style="fill:#fff;opacity:0.2;isolation:isolate"></polygon><path d="M252.71,224.81a4.31,4.31,0,0,1-4.1,4.63l-42.86,2.09a2.42,2.42,0,0,1-2.55-2.4c-.27-26.09-9.2-73.54-3.1-78.26,6.31-4.88,37.26-7.44,37.26-7.44a103.73,103.73,0,0,1,3.8,10.45c.13.45.28.9.4,1.36,1.78,5.87,3.27,12.21,4.56,18.62.09.43.18.87.26,1.3A441.89,441.89,0,0,1,252.71,224.81Z" style="fill:#88D68D"></path><path d="M252.71,224.81a4.31,4.31,0,0,1-4.1,4.63l-42.86,2.09a2.42,2.42,0,0,1-2.55-2.4c-.27-26.09-9.2-73.54-3.1-78.26,6.31-4.88,37.26-7.44,37.26-7.44,1.26,2.92,2.42,6.1,3.49,9.46.1.33.21.66.31,1s.28.9.4,1.36c1.66,5.46,3.06,11.33,4.29,17.29l.27,1.33c.09.43.18.87.26,1.3A441.89,441.89,0,0,1,252.71,224.81Z" style="fill:#fff;opacity:0.6000000000000001;isolation:isolate"></path><path d="M187.73,169.64s-4.52-14.88,2.11-22.31,29.88-6.11,32.41-5.58c7.79,1.62,10.55,14.38,13.33,28s5.95,60.23,1.2,63.19-36.92,6.5-42.46,3.54S187.73,169.64,187.73,169.64Z" style="fill:#263238"></path><path d="M183.51,169.17S179,154,185.62,146.34s29.89-6.25,32.41-5.71c7.79,1.66,8.37,11.57,10.52,35.32,3.81,42.16,7.21,55.7,2.47,58.72s-35.38,6-40.92,2.94S183.51,169.17,183.51,169.17Z" style="fill:#88D68D"></path><path d="M226.46,148.36s1.66-6.51,10.9-4.93c0,0-5.7-.07-5.45,18.75S239,206,239,206s8.3-.38,10.41-12.28l1,3.61s-1.3,17.37-13.77,20.81C236.71,218.11,231.05,158.05,226.46,148.36Z" style="fill:#263238"></path><path d="M245.85,172.53c-10.84-9.57-7.13-20.39-7.13-20.39l2.13.75c.1.33.21.66.31,1s.28.9.4,1.36C243.22,160.7,244.62,166.57,245.85,172.53Z" style="opacity:0.2;isolation:isolate"></path><path d="M286.36,129c-2.09-13.94-33-18.67-40.36-19.6A27.23,27.23,0,0,0,244.82,121s22.36,6.16,22.55,7.74-26.3,12.07-30,14.65c0,0-1.78,3.94,1.11,11.66,2.41,6.42,5.29,8.19,5.29,8.19S288.74,144.8,286.36,129Z" style="fill:#88D68D"></path><path d="M286.36,129c-2.09-13.94-33-18.67-40.36-19.6A27.23,27.23,0,0,0,244.82,121s22.36,6.16,22.55,7.74-26.3,12.07-30,14.65c0,0-1.78,3.94,1.11,11.66,2.41,6.42,5.29,8.19,5.29,8.19S288.74,144.8,286.36,129Z" style="fill:#fff;opacity:0.6000000000000001;isolation:isolate"></path></g></g></svg>