<svg xmlns="http://www.w3.org/2000/svg" viewBox="0 0 500 500"><g id="freepik--background-complete--inject-186"><rect x="30.54" y="41.72" width="167.6" height="216.47" style="fill:#e0e0e0"></rect><path d="M198.14,41.72a4,4,0,0,1-.46.58l-1.44,1.62c-1.34,1.47-3.23,3.55-5.66,6.2l-.07.08h-.1c-14.57.15-43.2.25-76.07.25s-61.5-.1-76.07-.25h-.11l-.07-.08-5.66-6.2L31,42.3a3.39,3.39,0,0,1-.45-.58,3.19,3.19,0,0,1,.55.49l1.52,1.54,5.83,6-.17-.07c14.57-.15,43.2-.25,76.07-.25s61.5.1,76.07.25l-.17.07,5.82-6,1.53-1.54C197.94,41.87,198.12,41.7,198.14,41.72Z" style="fill:#ebebeb"></path><path d="M30.54,258.19a3,3,0,0,1,.45-.58c.37-.42.85-.95,1.44-1.63l5.66-6.2.07-.07h.11c14.57-.14,43.2-.25,76.06-.25s61.51.11,76.08.25h.1l.07.07,5.66,6.2,1.44,1.63a3.41,3.41,0,0,1,.46.58,3.82,3.82,0,0,1-.55-.5l-1.53-1.54-5.82-6,.17.08c-14.57.15-43.2.25-76.08.25s-61.49-.1-76.06-.25l.17-.08c-2.5,2.59-4.44,4.62-5.83,6l-1.52,1.54A4.62,4.62,0,0,1,30.54,258.19Z" style="fill:#ebebeb"></path><rect x="38.27" y="49.96" width="152.14" height="199.98" style="fill:#fff"></rect><path d="M62.07,191.46c4.53-4.31,11.21-5.53,17.46-5.38s12.44,1.48,18.69,1.4c10-.12,20-3.82,29.8-2.11,3.15.54,6.34,1.64,9.46,1,2.73-.58,5-2.45,7.71-3.25,6.94-2.07,14.75,3.36,21.41.53v44.63H62.07Z" style="fill:#f5f5f5"></path><path d="M64.18,193.25c-.27,0-.49-26.44-.49-59.05s.22-59.06.49-59.06.48,26.44.48,59.06S64.45,193.25,64.18,193.25Z" style="fill:#e0e0e0"></path><path d="M68.94,193.25c-.27,0-.49-26.44-.49-59.05s.22-59.06.49-59.06.48,26.44.48,59.06S69.2,193.25,68.94,193.25Z" style="fill:#e0e0e0"></path><path d="M73.7,193.25c-.27,0-.49-26.44-.49-59.05s.22-59.06.49-59.06.48,26.44.48,59.06S74,193.25,73.7,193.25Z" style="fill:#e0e0e0"></path><path d="M78.46,193.25c-.27,0-.49-26.44-.49-59.05s.22-59.06.49-59.06.48,26.44.48,59.06S78.72,193.25,78.46,193.25Z" style="fill:#e0e0e0"></path><path d="M83.21,193.25c-.26,0-.48-26.44-.48-59.05s.22-59.06.48-59.06.49,26.44.49,59.06S83.48,193.25,83.21,193.25Z" style="fill:#e0e0e0"></path><path d="M88,193.25c-.26,0-.48-26.44-.48-59.05s.22-59.06.48-59.06.49,26.44.49,59.06S88.24,193.25,88,193.25Z" style="fill:#e0e0e0"></path><path d="M92.73,193.25c-.27,0-.48-26.44-.48-59.05s.21-59.06.48-59.06.49,26.44.49,59.06S93,193.25,92.73,193.25Z" style="fill:#e0e0e0"></path><path d="M97.49,193.25c-.27,0-.48-26.44-.48-59.05s.21-59.06.48-59.06S98,101.58,98,134.2,97.76,193.25,97.49,193.25Z" style="fill:#e0e0e0"></path><path d="M102.25,193.25c-.27,0-.48-26.44-.48-59.05s.21-59.06.48-59.06.49,26.44.49,59.06S102.52,193.25,102.25,193.25Z" style="fill:#e0e0e0"></path><path d="M107,193.25c-.27,0-.49-26.44-.49-59.05s.22-59.06.49-59.06.49,26.44.49,59.06S107.28,193.25,107,193.25Z" style="fill:#e0e0e0"></path><path d="M111.77,193.25c-.27,0-.49-26.44-.49-59.05s.22-59.06.49-59.06.48,26.44.48,59.06S112,193.25,111.77,193.25Z" style="fill:#e0e0e0"></path><path d="M116.53,193.25c-.27,0-.49-26.44-.49-59.05s.22-59.06.49-59.06.48,26.44.48,59.06S116.8,193.25,116.53,193.25Z" style="fill:#e0e0e0"></path><path d="M121.29,193.25c-.27,0-.49-26.44-.49-59.05s.22-59.06.49-59.06.48,26.44.48,59.06S121.56,193.25,121.29,193.25Z" style="fill:#e0e0e0"></path><path d="M126.05,193.25c-.27,0-.49-26.44-.49-59.05s.22-59.06.49-59.06.48,26.44.48,59.06S126.31,193.25,126.05,193.25Z" style="fill:#e0e0e0"></path><path d="M130.81,193.25c-.27,0-.49-26.44-.49-59.05s.22-59.06.49-59.06.48,26.44.48,59.06S131.07,193.25,130.81,193.25Z" style="fill:#e0e0e0"></path><path d="M135.56,193.25c-.26,0-.48-26.44-.48-59.05s.22-59.06.48-59.06.49,26.44.49,59.06S135.83,193.25,135.56,193.25Z" style="fill:#e0e0e0"></path><path d="M140.32,193.25c-.26,0-.48-26.44-.48-59.05s.22-59.06.48-59.06.49,26.44.49,59.06S140.59,193.25,140.32,193.25Z" style="fill:#e0e0e0"></path><path d="M145.08,193.25c-.27,0-.48-26.44-.48-59.05s.21-59.06.48-59.06.49,26.44.49,59.06S145.35,193.25,145.08,193.25Z" style="fill:#e0e0e0"></path><path d="M149.84,193.25c-.27,0-.48-26.44-.48-59.05s.21-59.06.48-59.06.49,26.44.49,59.06S150.11,193.25,149.84,193.25Z" style="fill:#e0e0e0"></path><path d="M154.6,193.25c-.27,0-.48-26.44-.48-59.05s.21-59.06.48-59.06.49,26.44.49,59.06S154.87,193.25,154.6,193.25Z" style="fill:#e0e0e0"></path><path d="M159.36,193.25c-.27,0-.49-26.44-.49-59.05s.22-59.06.49-59.06.49,26.44.49,59.06S159.63,193.25,159.36,193.25Z" style="fill:#e0e0e0"></path><path d="M164.12,193.25c-.27,0-.49-26.44-.49-59.05s.22-59.06.49-59.06.48,26.44.48,59.06S164.39,193.25,164.12,193.25Z" style="fill:#e0e0e0"></path><path d="M359.24,61.55a2.07,2.07,0,0,1,0-.23l0-.66c0-.61,0-1.45,0-2.53,0-2.23,0-5.42-.08-9.45l.15.15-48.65.1.25-.25h0V52c0,1.1,0,2.18,0,3.25v6.33l-.24-.24,34.67.11,10.23.07,2.77,0,.72,0h.26s-.07,0-.22,0h-.7l-2.71,0-10.18.07-34.84.11h-.24v-.25q0-3.11,0-6.33V48.69h0l.25-.25,48.65.1h.15v.15c0,4.07-.06,7.29-.08,9.54,0,1.06,0,1.9,0,2.49v.64C359.25,61.49,359.25,61.56,359.24,61.55Z" style="fill:#e0e0e0"></path><path d="M365.84,48.68a.68.68,0,0,1,0-.24l0-.68c0-.64,0-1.5-.05-2.59,0-2.25-.05-5.44-.09-9.36l.18.18-29.23.07c-.23.22.3-.3.24-.25h0v6.62c0,2.15,0,4.24,0,6.24l-.23-.23,20.91.11,6.09.06,1.64,0,.59,0a3.28,3.28,0,0,1-.53,0l-1.6,0-6,.07-21.07.11h-.24v-.24c0-2,0-4.09,0-6.24V35.82h0c-.06,0,.47-.47.25-.25l29.23.07H366v.18c0,4-.08,7.19-.1,9.47,0,1.07,0,1.92-.05,2.54S365.85,48.69,365.84,48.68Z" style="fill:#e0e0e0"></path><path d="M98.42,311.41s0-.09,0-.24l0-.66c0-.6,0-1.45,0-2.53,0-2.22,0-5.42-.09-9.44l.15.15-48.65.09c.11-.11-.25.25.25-.24h0v6.52c0,2.15,0,4.26,0,6.33l-.24-.24,34.67.11,10.24.06,2.76,0h.73a1.27,1.27,0,0,1,.25,0H98.2l-.7,0-2.71,0-10.18.07-34.84.11h-.24v-.24c0-2.07,0-4.18,0-6.33v-6.52h0l.25-.25,48.65.1h.15v.15c0,4.06-.06,7.29-.08,9.53,0,1.07,0,1.9,0,2.5v.63A.85.85,0,0,1,98.42,311.41Z" style="fill:#e0e0e0"></path><path d="M468.42,198.39a1,1,0,0,1,0-.23c0-.17,0-.39,0-.66,0-.61,0-1.45,0-2.54,0-2.22-.05-5.41-.08-9.44l.15.15-48.65.1c.11-.11-.25.25.24-.25h0v12.85l-.25-.24,34.68.11,10.23.07,2.77,0,.72,0h.26a.94.94,0,0,1-.23,0h-.69l-2.72,0-10.18.07-34.84.11h-.24V185.54h0l.25-.25,48.65.1h.15v.15c0,4.07-.07,7.29-.09,9.53,0,1.07,0,1.91,0,2.5,0,.26,0,.47,0,.64A1.23,1.23,0,0,1,468.42,198.39Z" style="fill:#e0e0e0"></path></g><g id="freepik--Desk--inject-186"><path d="M477,471c0,.15-102.82.26-229.62.26S17.75,471.1,17.75,471s102.79-.26,229.64-.26S477,470.81,477,471Z" style="fill:#263238"></path></g><g id="freepik--Coffee--inject-186"><g id="freepik--coffee--inject-186"><path d="M88.41,418.75c2.34-2.24,6-2,8.56-.21,3,2.16,4.27,6,4.28,9.56,0,7.47-4.16,14.57-9.74,19.3A26.79,26.79,0,0,1,81,452.81c-3.26.86-1.88,5.92,1.39,5.05A33,33,0,0,0,103,441.48c4.56-8.66,5.68-21.21-3.34-27.47a12,12,0,0,0-14.92,1c-2.44,2.34,1.27,6,3.71,3.71Z" style="fill:#455a64"></path><path d="M36.57,401.5c-1.23.42.81,41.07,8.7,69.29H82.89s6.5-22.91,7.35-41.29,0-28,0-28S63.78,392.17,36.57,401.5Z" style="fill:#455a64"></path><path d="M90.58,402a2.13,2.13,0,0,1-.52.2l-1.53.48c-.66.21-1.48.45-2.44.68s-2,.54-3.26.78a83,83,0,0,1-8.61,1.4,91.72,91.72,0,0,1-10.68.52,95.81,95.81,0,0,1-10.66-.77c-3.26-.44-6.17-1-8.59-1.56s-4.36-1.09-5.68-1.51l-1.52-.49a1.74,1.74,0,0,1-.52-.2,2.31,2.31,0,0,1,.55.1l1.55.39c1.33.37,3.28.84,5.7,1.35s5.33,1,8.57,1.44a100.51,100.51,0,0,0,10.61.73A101.15,101.15,0,0,0,74.17,405c3.25-.35,6.16-.8,8.59-1.29,1.22-.21,2.3-.49,3.26-.7s1.79-.42,2.46-.59l1.55-.39A2.16,2.16,0,0,1,90.58,402Z" style="fill:#263238"></path><g style="opacity:0.30000000000000004"><path d="M86.22,403c-13.92-4.85-31.44-4.5-45.54-.21,0,0,13.45,3.21,21,3.21C76.49,406,86.22,403,86.22,403Z"></path></g><path d="M85.58,460a3.19,3.19,0,0,1,.06-.51c.07-.4.16-.88.26-1.46.26-1.35.6-3.16,1-5.36.85-4.53,2-10.79,2.81-17.76.41-3.49.7-6.82.88-9.85s.25-5.78.2-8.08c0-1.15,0-2.19-.07-3.1s0-1.7-.1-2.34,0-1.08-.07-1.48a1.89,1.89,0,0,1,0-.52,1.74,1.74,0,0,1,.09.51c0,.39.1.88.17,1.47S91,413,91,413.88s.13,1.95.15,3.11c.09,2.3,0,5.05-.09,8.1s-.43,6.39-.84,9.89c-.84,7-2,13.26-3,17.77-.48,2.26-.88,4.08-1.19,5.33-.14.58-.26,1.05-.36,1.44S85.6,460,85.58,460Z" style="fill:#263238"></path><path d="M79.73,429.18a4.77,4.77,0,0,1-.59,1c-.41.6-1,1.47-1.8,2.52-1.55,2.11-3.76,5-6.3,8.05s-4.93,5.79-6.71,7.71c-.88,1-1.61,1.72-2.13,2.24a5,5,0,0,1-.84.77,4.65,4.65,0,0,1,.69-.91l2-2.35c1.7-2,4-4.72,6.58-7.79s4.78-5.9,6.4-7.94L79,430A4.62,4.62,0,0,1,79.73,429.18Z" style="fill:#263238"></path><path d="M75.45,428.77c.11.09-2.88,3.78-6.68,8.23s-7,8-7.07,7.9,2.88-3.78,6.68-8.24A104.92,104.92,0,0,1,75.45,428.77Z" style="fill:#263238"></path><path d="M59.3,339.3l.13.1a3.09,3.09,0,0,1,.35.33,5.32,5.32,0,0,1,1,1.56,8.88,8.88,0,0,1-.26,6.69,27.92,27.92,0,0,1-2.21,4.13,29.43,29.43,0,0,0-2.53,4.66,8.93,8.93,0,0,0-.54,5.63A22.76,22.76,0,0,0,58.1,368a17.69,17.69,0,0,1,1.48,2.91A6.8,6.8,0,0,1,60,374a6.21,6.21,0,0,1-1.13,2.89A16.75,16.75,0,0,1,57,379.16c-.66.67-1.31,1.31-1.89,2a10.84,10.84,0,0,0-1.43,2.1,11.38,11.38,0,0,0-1.17,4.39A11.72,11.72,0,0,0,53.91,394a21.52,21.52,0,0,0,1.39,2,7.84,7.84,0,0,1-1.57-1.92,11.6,11.6,0,0,1-1.62-6.54,10.81,10.81,0,0,1,2.62-6.77c.59-.69,1.25-1.34,1.9-2,1.28-1.33,2.69-2.85,2.88-4.84s-.74-3.94-1.86-5.76a23,23,0,0,1-2.91-5.69,9.34,9.34,0,0,1,.58-5.94,29.94,29.94,0,0,1,2.61-4.71,27.2,27.2,0,0,0,2.24-4,8.81,8.81,0,0,0,.41-6.47A7.19,7.19,0,0,0,59.3,339.3Z" style="fill:#263238"></path><path d="M70.14,339.3s0,0,.14.1a3.2,3.2,0,0,1,.34.33,5.3,5.3,0,0,1,1,1.56,8.88,8.88,0,0,1-.26,6.69,28,28,0,0,1-2.22,4.13,29.4,29.4,0,0,0-2.52,4.66,8.79,8.79,0,0,0-.54,5.63A23.07,23.07,0,0,0,68.94,368a17,17,0,0,1,1.49,2.91,6.8,6.8,0,0,1,.44,3.18,6.22,6.22,0,0,1-1.14,2.89,16.69,16.69,0,0,1-1.91,2.23c-.67.67-1.32,1.31-1.9,2a11.82,11.82,0,0,0-1.43,2.1,11.35,11.35,0,0,0-1.16,4.39A11.64,11.64,0,0,0,64.75,394a22.53,22.53,0,0,0,1.4,2,7.57,7.57,0,0,1-1.57-1.92A11.6,11.6,0,0,1,63,387.6a10.81,10.81,0,0,1,2.62-6.77c.58-.69,1.24-1.34,1.9-2,1.27-1.33,2.69-2.85,2.88-4.84s-.75-3.94-1.86-5.76a23.06,23.06,0,0,1-2.92-5.69,9.41,9.41,0,0,1,.59-5.94,30.75,30.75,0,0,1,2.6-4.71,28.25,28.25,0,0,0,2.25-4,8.86,8.86,0,0,0,.41-6.47A7.05,7.05,0,0,0,70.14,339.3Z" style="fill:#263238"></path></g></g><g id="freepik--Character--inject-186"><path d="M347.53,226.19c.41-1.93,2.36-3.06,4-4.23a19.64,19.64,0,0,0,7.77-18.63A19.91,19.91,0,0,0,346,188c-1.68-.55-3.49-.91-4.87-2-3.43-2.72-2.32-8.05-3.63-12.2-2.76-8.78-15.47-10.51-20-18.53-2.78-4.9-1.85-10.9-1.6-16.5s-.82-12.12-5.76-14.92c-2.65-1.51-6-1.6-8.55-3.21-5.35-3.32-5.12-10.87-7.1-16.78C291.39,94.51,280.79,88.27,271,90c0,0,3.9-8.44-6.42-12.75-12.45-5.21-13.24,3.6-19-1.89a19,19,0,0,0-23.38-1.64c-2.14,1.53-3.95,3.53-6.29,4.75-2.85,1.48-6.2,1.64-9.35,2.32-12,2.62-21.38,14.15-21.34,26.29l78.65,135.27c2.73,12.87,18.52,24.09,29.67,31.31a20.61,20.61,0,0,0,7.62,3.33,18.08,18.08,0,0,0,10.19-1.63,29.22,29.22,0,0,0,15.33-15.77,19.63,19.63,0,0,0,22.22-5A18.94,18.94,0,0,0,350,232.1C348.75,230.29,347.07,228.34,347.53,226.19Z" style="fill:#263238"></path><path d="M186.69,127.33l-1.09-9.27,55.55-15.87c17.26-3.44,37.8,12,40.59,29.18,3.09,19.06,6.1,42.44,5.19,57-1.84,29.19-23.85,34.93-23.85,34.93l3,29.43-20.2,56-51-33.43Z" style="fill:#f7c1a3"></path><path d="M272.29,159.88a3.7,3.7,0,0,1-3.24,4.05,3.6,3.6,0,0,1-4.19-3,3.72,3.72,0,0,1,3.25-4.06A3.6,3.6,0,0,1,272.29,159.88Z" style="fill:#263238"></path><path d="M276.76,144.17c-.42.52-3.46-1.28-7.48-.9s-6.79,2.65-7.27,2.2c-.24-.19.15-1.11,1.35-2.15a10.38,10.38,0,0,1,5.76-2.36,10,10,0,0,1,6,1.32C276.46,143.1,277,143.93,276.76,144.17Z" style="fill:#263238"></path><path d="M235.79,161.61a3.71,3.71,0,0,1-3.25,4,3.58,3.58,0,0,1-4.18-3,3.72,3.72,0,0,1,3.24-4.06A3.6,3.6,0,0,1,235.79,161.61Z" style="fill:#263238"></path><path d="M237.24,148.59c-.42.52-3.46-1.28-7.48-.89s-6.78,2.64-7.27,2.2c-.23-.2.15-1.11,1.35-2.15a10.34,10.34,0,0,1,5.76-2.36,10,10,0,0,1,6,1.31C236.94,147.52,237.45,148.35,237.24,148.59Z" style="fill:#263238"></path><path d="M254.72,176.66c0-.22,2.42-.88,6.43-1.77,1-.2,2-.49,2.08-1.2s-.37-1.8-1-2.94q-1.81-3.54-3.79-7.43c-5.3-10.6-9.23-19.35-8.8-19.55S254.74,152,260,162.58l3.67,7.49c.5,1.12,1.3,2.36.92,3.93a2.56,2.56,0,0,1-1.55,1.64,7.12,7.12,0,0,1-1.72.4C257.29,176.63,254.76,176.89,254.72,176.66Z" style="fill:#263238"></path><path d="M263.08,223.34s-20.52,3.11-41.09-6.6c0,0,12,20.2,41.94,14.76Z" style="fill:#f39e78"></path><path d="M236.77,132.94c-.3,1.12-4.37,1-9,2s-8.36,2.63-9.09,1.72c-.32-.44.25-1.52,1.68-2.71a16.24,16.24,0,0,1,13.81-2.81C235.93,131.64,236.89,132.41,236.77,132.94Z" style="fill:#263238"></path><path d="M274.16,132.82c-.62,1-3.49.29-6.83.55s-6.1,1.18-6.84.3c-.33-.43,0-1.38,1.18-2.34a10,10,0,0,1,11-.69C274,131.46,274.43,132.35,274.16,132.82Z" style="fill:#263238"></path><path d="M251,187.08a7,7,0,0,0-6.58-1.72,6.37,6.37,0,0,0-4.05,3,4,4,0,0,0,.33,4.63c1.25,1.32,3.46,1.35,5.23.58a14.57,14.57,0,0,0,4.51-3.63,4.27,4.27,0,0,0,.95-1.29,1.31,1.31,0,0,0-.21-1.43" style="fill:#f39e78"></path><path d="M240.39,182.15c.63-.13,1.21,4,5.21,6.52s8.37,1.4,8.49,2c.09.25-.88.95-2.76,1.26a10.51,10.51,0,0,1-7.05-1.41,9.15,9.15,0,0,1-4.09-5.51C239.78,183.26,240.11,182.16,240.39,182.15Z" style="fill:#263238"></path><path d="M120.6,341.21s-12.27,56.36-8.66,68.92c3,10.29,16.35,34,38.81,20.36C174,416.4,161.26,342,161.26,342Z" style="fill:#f7c1a3"></path><path d="M303.6,249.4c19.89,3.55,37.71,10.39,45.85,34.89,7.58,22.82,16.89,52.56,15.93,52.51l-52.6,16.12-6,69.7,20,48.33s-53-.36-89.79-.1c-34.39.24-79.08,0-79.08,0l9.31-47.22-4.4-70.27-48.45-2.06c-.76-.31,8.18-45.66,16.78-71.51,4.64-14,35.27-25.44,42.47-29.1l10.56-1.29s25.87,26.72,52,25.25S265.09,247,265.09,247Z" style="fill:#455a64"></path><path d="M166,411.14s9.17,9.42,14.58-6.74,12.59-36.13,12.59-36.13.17,25.1,16,23.67,59.3-7.32,60.39-7.65S286,377.17,286,377.17l5.4-10.54s18.06,35.77,18.17,34.4,2.19-25.53,2.19-25.53l-19.43-28.62-60.59,6-33-11.79-24.37,37.35Z" style="opacity:0.2"></path><path d="M158.52,301.65s0,.1,0,.31l.12,1c.1.86.24,2.08.41,3.62.3,3.16.69,7.73,1.1,13.38.8,11.31,1.71,26.94,2.73,44.19s2,32.89,3,44.18c.26,2.81.5,5.36.71,7.61s.46,4.15.64,5.73.4,2.75.52,3.61l.12.94a2.75,2.75,0,0,1,0,.33,1.29,1.29,0,0,1-.08-.32c-.05-.23-.1-.54-.18-.93-.14-.86-.35-2.06-.61-3.6s-.45-3.5-.73-5.73-.5-4.79-.79-7.61c-1.06-11.28-2.12-26.91-3.14-44.17s-1.92-32.86-2.58-44.2c-.36-5.66-.69-10.23-.93-13.39-.13-1.55-.24-2.77-.31-3.63,0-.4-.05-.71-.07-.95A1.3,1.3,0,0,1,158.52,301.65Z" style="fill:#263238"></path><path d="M324.28,288.17c.14,0-3.24,24.22-7.55,54s-7.92,54-8.06,54,3.23-24.21,7.55-54S324.14,288.15,324.28,288.17Z" style="fill:#263238"></path><path d="M245.37,413.85a23.57,23.57,0,0,0-10.29-4.66A16.89,16.89,0,0,0,224,411c-4,2.28-6.68,6.29-9,10.31A106.38,106.38,0,0,0,205,445.86c-1.06,3.91-1.89,8.09-.7,12a17,17,0,0,0,6,8c4.33,3.44,5.66,4.28,11.17,4.75,2.93.25,11.3.49,13.77-1.11,3.32-2.16,7.85-4.91,9.29-7.43,4.19-7.36,3.3-13.22,6.47-21.08,1.88-4.67,3.41-9.67,2.88-14.68s-4.16-9.95-8.64-12.61" style="fill:#e0e0e0"></path><path d="M249.26,418.52a7.71,7.71,0,0,1-1.27,1.16,45.79,45.79,0,0,1-3.75,2.84,68.64,68.64,0,0,1-28.62,11.39c-2,.29-3.57.46-4.67.51a8.5,8.5,0,0,1-1.73,0,8.29,8.29,0,0,1,1.7-.3c1.1-.13,2.68-.37,4.62-.73A76.65,76.65,0,0,0,244,422.11c1.65-1.07,3-2,3.85-2.64A7.9,7.9,0,0,1,249.26,418.52Z" style="fill:#263238"></path><path d="M253.17,425.61a10.26,10.26,0,0,1-1.52,1.25c-1,.78-2.5,1.82-4.41,3a69.29,69.29,0,0,1-7,3.8,71.17,71.17,0,0,1-18.54,5.79,69.42,69.42,0,0,1-7.9.86c-2.26.1-4.1.1-5.36,0a10.83,10.83,0,0,1-2-.17,10.52,10.52,0,0,1,2-.1c1.25,0,3.07-.09,5.31-.25s4.9-.49,7.83-1a83.54,83.54,0,0,0,9.37-2.29,85,85,0,0,0,9-3.45,78.6,78.6,0,0,0,7-3.64c1.94-1.14,3.48-2.11,4.52-2.82A10,10,0,0,1,253.17,425.61Z" style="fill:#263238"></path><path d="M245.83,449.56a6.52,6.52,0,0,1-1.58-.08c-1-.09-2.47-.27-4.26-.52-3.6-.5-8.54-1.35-13.94-2.57s-10.23-2.58-13.69-3.68c-1.73-.55-3.12-1-4.07-1.37a6.71,6.71,0,0,1-1.46-.6,6.6,6.6,0,0,1,1.54.35l4.13,1.15c3.49,1,8.32,2.25,13.7,3.47s10.3,2.14,13.86,2.77l4.23.74A7.47,7.47,0,0,1,245.83,449.56Z" style="fill:#263238"></path><path d="M230.56,429a8.67,8.67,0,0,1-1.83-2.3,25.67,25.67,0,0,1-2.91-6.47,25.4,25.4,0,0,1-1-7,9.07,9.07,0,0,1,.29-2.92c.23,0-.17,4.5,1.39,9.75S230.75,428.84,230.56,429Z" style="fill:#263238"></path><path d="M239.87,425.4a7.65,7.65,0,0,1-1.5-2,29.44,29.44,0,0,1-2.55-5.58,29.77,29.77,0,0,1-1.34-6,7.28,7.28,0,0,1,0-2.54c.21,0,.52,3.84,2,8.31S240.06,425.29,239.87,425.4Z" style="fill:#263238"></path><path d="M224,432a7.7,7.7,0,0,1-1.59-2,23.65,23.65,0,0,1-2.57-5.7,24,24,0,0,1-1-6.17,6.94,6.94,0,0,1,.2-2.58c.22,0,.07,4,1.48,8.55S224.18,431.9,224,432Z" style="fill:#263238"></path><path d="M243.85,448.18c-.12.13-2.78-2-5.34-5.28s-4-6.37-3.84-6.45,1.85,2.8,4.38,6S244,448,243.85,448.18Z" style="fill:#263238"></path><path d="M234.17,447.74c-.1.14-2.34-1.5-4.36-4.22s-3-5.32-2.8-5.38,1.38,2.33,3.36,5S234.31,447.59,234.17,447.74Z" style="fill:#263238"></path><path d="M249.9,442.47c-.14.12-2-1.85-4-4.56s-3.26-5.08-3.1-5.18,1.72,2.1,3.66,4.78S250.05,442.34,249.9,442.47Z" style="fill:#263238"></path><path d="M240.41,455.49a6.15,6.15,0,0,1-1.47.11c-.95,0-2.32,0-4-.06a80.19,80.19,0,0,1-25.74-5.63c-1.57-.63-2.82-1.19-3.67-1.61a5.6,5.6,0,0,1-1.29-.72c.05-.1,2,.73,5.13,1.87a98.09,98.09,0,0,0,25.61,5.6C238.32,455.32,240.41,455.38,240.41,455.49Z" style="fill:#263238"></path><path d="M234.45,456.38a15.72,15.72,0,0,1-3.27,2,45.69,45.69,0,0,1-17.78,4.85,15.38,15.38,0,0,1-3.83-.05,32.06,32.06,0,0,1,3.79-.44,57.36,57.36,0,0,0,17.6-4.81A33.37,33.37,0,0,1,234.45,456.38Z" style="fill:#263238"></path><g style="opacity:0.30000000000000004"><path d="M236.7,465.62a9.62,9.62,0,0,0-1-2.77,47.24,47.24,0,0,1,.94-40.38l-1.17-.9c-6,2.62-10.22,8.51-11.82,14.87s-.84,13.13,1,19.41c1.28,4.25,3.16,8.48,6.47,11.43a6.1,6.1,0,0,0,2.15,1.33,2.71,2.71,0,0,0,2.43-.32A2.92,2.92,0,0,0,236.7,465.62Z"></path></g><path d="M361.61,337.77c.15.8,22.06,71.35,19.93,84.24-1.75,10.56-13.06,25.15-37,14.19C319.91,424.88,313,351.43,313,351.43Z" style="fill:#f7c1a3"></path><path d="M311.4,331.11c2.33,1.15,65.77,66,65.6,67.19s10.56,37.66-13.32,41.82S326.73,416,319,400.48c-9-18-21.89-42.39-21.89-42.39Z" style="fill:#f7c1a3"></path><path d="M178.9,323.3c-1.27.63-15.22,19.71-34.27,40-15.14,16.09-32.85,32.7-32.85,32.7S105.23,433,133.4,436c24.1,2.59,26.45-16.33,38.06-34.63,9.29-14.63,25.36-55.83,25.36-55.83Z" style="fill:#f7c1a3"></path><path d="M229.06,305.1l3.33-4.23a2.73,2.73,0,0,0-1.78-4.41c-2.87-.33-7.12.62-12.26,6.17l-10,10.81-11.05.68-4.08,10.54,10.48,22.8s7.38,1.19,12.65-6.64,4.59-25.34,4.59-25.34Z" style="fill:#f39e78"></path><path d="M159.56,286.17l89.56,30.77s4.71,1.9,6.25-1.4c1.3-2.79-1.41-5-3.22-5.77a1.9,1.9,0,0,0-.38-.13.43.43,0,0,0-.39.71c.87.92,2,2.41-.2,2.28-1.33-.09-76.74-26.21-90-31a2.42,2.42,0,0,0-3,1.2h0A2.41,2.41,0,0,0,159.56,286.17Z" style="fill:#e0e0e0"></path><path d="M159.56,286.17A1.83,1.83,0,0,1,159,286a2.42,2.42,0,0,1-1-1.28,2.48,2.48,0,0,1,.55-2.55,2.53,2.53,0,0,1,1.56-.75,4.32,4.32,0,0,1,1.92.43l22,7.64,32.61,11.25,19.28,6.59,10.21,3.45,2.61.86c.88.28,1.74.59,2.57.77.42,0,.92-.07.89-.27a2,2,0,0,0-.53-1c-.14-.18-.29-.35-.44-.51a.71.71,0,0,1,0-1,.66.66,0,0,1,.53-.17,2.42,2.42,0,0,1,.4.12,5.91,5.91,0,0,1,.67.31,7.45,7.45,0,0,1,2.23,1.84,3.86,3.86,0,0,1,.9,2.76,3.76,3.76,0,0,1-1.39,2.55,4.21,4.21,0,0,1-2.75.78,8.57,8.57,0,0,1-2.75-.55l-2.56-.88-5.05-1.74-19.27-6.63-32.61-11.26-22-7.64-6-2.1-1.55-.56c-.35-.13-.52-.21-.52-.21l.54.16,1.56.51,6,2,22,7.48,32.66,11.16,19.27,6.61,5.06,1.73,2.56.88a8.16,8.16,0,0,0,2.58.51,3.67,3.67,0,0,0,2.43-.68,3.23,3.23,0,0,0,1.18-2.18,3.33,3.33,0,0,0-.79-2.39,7,7,0,0,0-2.07-1.7A4.21,4.21,0,0,0,252,310l-.26-.09a.17.17,0,0,0-.12,0,.18.18,0,0,0,0,.26c.16.17.32.35.47.54a2.3,2.3,0,0,1,.64,1.43.68.68,0,0,1-.25.46.87.87,0,0,1-.41.2,2.54,2.54,0,0,1-.76.07,26.53,26.53,0,0,1-2.72-.8l-2.61-.86-10.21-3.45-19.27-6.63-32.58-11.36c-9.27-3.25-16.76-5.91-21.92-7.79a4.16,4.16,0,0,0-1.84-.44,2.34,2.34,0,0,0-2,3.09,2.42,2.42,0,0,0,1,1.26A4.3,4.3,0,0,0,159.56,286.17Z" style="fill:#263238"></path><path d="M238.45,308.33s-2.76-.13-3,4.05l-1-.33s.12-2.37.12-2.45a13.36,13.36,0,0,1,.78-1.45s1.45-.54,1.45-.54l1.76.27Z" style="opacity:0.30000000000000004"></path><path d="M238.09,320.55c-.36-.92-.78-1.82-1.18-2.73-.24-.53-.47-1.06-.7-1.59l-.14-.32c0-.08-.18-.43,0-.06l-.21-.54c-.58-1.51-1.28-3.24-1-4.87a3.71,3.71,0,0,1,.3-1,2.07,2.07,0,0,1,.48-.65,2.65,2.65,0,0,1,2-.75,5,5,0,0,1,.77.19,1.21,1.21,0,0,0,.21-1.08c-.16-.68-1.11-1.08-1.76-1.15a3.47,3.47,0,0,0-3.32,1.48,6.15,6.15,0,0,0-1.16,4.44,22.79,22.79,0,0,0,2.3,6.88l.69,1.56c.09.21.17.41.26.61s-.09-.24,0,0l.08.2a1.2,1.2,0,0,0,2.32-.64Z" style="fill:#A5DD9B"></path><path d="M294.9,341a11.35,11.35,0,0,0-1.34-5.1c-1.34-2.08-3.79-3-6.07-3.74-12-4-23-3.05-35.14-6.48-2.31-.65-7.49-1.36-9.83-1.9-1.21-.28-1.8-1.74-2.08-3a3,3,0,0,0-2.79-2.34,101.51,101.51,0,0,0-42.49,6.82v3.1c2,16,4.11,32,8.47,47.49,1.12,4,2.72,8.3,6.31,10,3.27,1.57,7.06.42,10.56-.42,7.39-1.79,15-2.13,22.58-2.46l42.34-1.87c2.81-.12,6-.43,7.74-2.71,1.16-1.5,1.44-3.52,1.64-5.44A161.36,161.36,0,0,0,294.9,341Z" style="fill:#A5DD9B"></path><g style="opacity:0.4"><path d="M248.16,371.11a.92.92,0,0,0-.79-.89c-.62-.09-1.67.16-3.12,1.92-1.89,2.31-1.47,3.16-.71,3.92C244.11,376.64,248.29,373.55,248.16,371.11Z"></path><path d="M250.37,380.11a.93.93,0,0,0,.39-1.12c-.22-.58-.95-1.38-3.2-1.79-2.93-.53-3.47.24-3.77,1.28C243.57,379.26,248.3,381.41,250.37,380.11Z"></path><path d="M254.28,370.26a.94.94,0,0,0-.92-.76c-.63,0-1.63.43-2.78,2.39-1.51,2.58-1,3.35-.09,4C251.14,376.35,254.79,372.65,254.28,370.26Z"></path><path d="M257.08,379.91a.93.93,0,0,0,.62-1c-.1-.62-.66-1.55-2.78-2.4-2.77-1.11-3.45-.46-3.95.5C250.59,377.7,254.79,380.76,257.08,379.91Z"></path><path d="M260.44,369.45a.92.92,0,0,0-.92-.75c-.63,0-1.63.42-2.78,2.39-1.51,2.57-1,3.34-.09,4C257.3,375.55,261,371.84,260.44,369.45Z"></path><path d="M263.59,380a.94.94,0,0,0,.7-1c-.05-.62-.53-1.6-2.57-2.62-2.67-1.34-3.4-.74-4,.17C257.31,377.28,261.24,380.68,263.59,380Z"></path><path d="M266.59,369.45a.91.91,0,0,0-.91-.75c-.63,0-1.64.42-2.79,2.39-1.51,2.57-1,3.34-.09,4C263.45,375.55,267.1,371.84,266.59,369.45Z"></path><path d="M269.88,379.1a.93.93,0,0,0,.61-1c-.1-.62-.66-1.55-2.77-2.4-2.77-1.11-3.45-.46-4,.5C263.39,376.9,267.59,380,269.88,379.1Z"></path><path d="M273.36,369.45a.91.91,0,0,0-.91-.75c-.63,0-1.64.42-2.79,2.39-1.51,2.57-1,3.34-.09,4C270.22,375.55,273.87,371.84,273.36,369.45Z"></path><path d="M276.65,379.1a.93.93,0,0,0,.61-1c-.1-.62-.66-1.55-2.77-2.4-2.77-1.11-3.45-.46-4,.5C270.16,376.9,274.36,380,276.65,379.1Z"></path><path d="M215.67,374.59a.92.92,0,0,0-.78-.89c-.63-.09-1.68.16-3.13,1.92-1.89,2.31-1.47,3.16-.71,3.93C211.62,380.12,215.8,377,215.67,374.59Z"></path><path d="M217.34,383.88a.93.93,0,0,0,.4-1.12c-.23-.58-1-1.38-3.2-1.79-2.94-.53-3.48.24-3.78,1.28C210.54,383,215.27,385.18,217.34,383.88Z"></path><path d="M221.47,372.7a.93.93,0,0,0-.92-.75c-.63,0-1.63.42-2.78,2.38-1.51,2.58-1,3.35-.09,4C218.33,378.8,222,375.09,221.47,372.7Z"></path><path d="M224.27,382.35a.93.93,0,0,0,.62-1c-.11-.62-.66-1.55-2.78-2.4-2.77-1.11-3.45-.46-4,.5C217.78,380.14,222,383.2,224.27,382.35Z"></path><path d="M227.63,371.89a.93.93,0,0,0-.92-.75c-.63,0-1.63.42-2.78,2.39-1.51,2.57-1,3.34-.09,4C224.49,378,228.14,374.28,227.63,371.89Z"></path><path d="M230.78,382.46a.93.93,0,0,0,.7-1c0-.63-.53-1.6-2.57-2.63-2.67-1.34-3.4-.74-4,.17C224.5,379.72,228.43,383.12,230.78,382.46Z"></path><path d="M233.78,371.89a.92.92,0,0,0-.92-.75c-.62,0-1.63.42-2.78,2.39-1.51,2.57-1,3.34-.09,4C230.64,378,234.29,374.28,233.78,371.89Z"></path><path d="M237.07,381.54a.93.93,0,0,0,.61-1c-.1-.63-.66-1.56-2.77-2.41-2.77-1.11-3.46-.46-4,.5C230.58,379.34,234.78,382.4,237.07,381.54Z"></path><path d="M241.36,371.23a.92.92,0,0,0-.92-.75c-.62,0-1.63.42-2.78,2.39-1.51,2.57-1,3.34-.09,4C238.22,377.33,241.87,373.62,241.36,371.23Z"></path><path d="M243.84,381.54a.93.93,0,0,0,.61-1c-.1-.63-.66-1.56-2.77-2.41-2.78-1.11-3.46-.46-4,.5C237.35,379.34,241.55,382.4,243.84,381.54Z"></path><path d="M280.13,369.45a.92.92,0,0,0-.92-.75c-.62,0-1.63.42-2.78,2.39-1.51,2.57-1,3.34-.09,4C277,375.55,280.64,371.84,280.13,369.45Z"></path><path d="M283.42,379.1a.93.93,0,0,0,.61-1c-.1-.62-.66-1.55-2.77-2.4-2.77-1.11-3.46-.46-4,.5C276.93,376.9,281.13,380,283.42,379.1Z"></path><path d="M286.9,369.45a.92.92,0,0,0-.92-.75c-.63,0-1.63.42-2.78,2.39-1.51,2.57-1,3.34-.09,4C283.76,375.55,287.41,371.84,286.9,369.45Z"></path><path d="M290.19,379.1a.93.93,0,0,0,.61-1c-.1-.62-.66-1.55-2.77-2.4-2.78-1.11-3.46-.46-4,.5C283.7,376.9,287.9,380,290.19,379.1Z"></path><path d="M293.06,369.51a.93.93,0,0,0-.8-.88c-.62-.08-1.68.19-3.09,2-1.86,2.34-1.43,3.17-.65,3.93C289.1,375.1,293.23,372,293.06,369.51Z"></path></g><g style="opacity:0.4"><path d="M245.11,358.72a.93.93,0,0,0-.79-.89c-.62-.08-1.67.17-3.12,1.93-1.89,2.31-1.47,3.15-.71,3.92C241.06,364.25,245.24,361.16,245.11,358.72Z"></path><path d="M247.51,367.89a.94.94,0,0,0,.54-1.06c-.15-.61-.77-1.5-2.94-2.2-2.84-.91-3.47-.21-3.91.78C240.88,366.15,245.29,368.9,247.51,367.89Z"></path><path d="M251.23,357.88a1,1,0,0,0-.92-.76c-.63,0-1.63.42-2.78,2.39-1.51,2.58-1,3.35-.09,4C248.09,364,251.74,360.27,251.23,357.88Z"></path><path d="M254,367.53a.94.94,0,0,0,.62-1c-.11-.62-.66-1.55-2.78-2.4-2.77-1.12-3.45-.46-4,.5C247.54,365.32,251.74,368.38,254,367.53Z"></path><path d="M257.39,357.07a1,1,0,0,0-.92-.76c-.63,0-1.63.43-2.78,2.39-1.51,2.58-1,3.35-.09,4C254.25,363.16,257.9,359.46,257.39,357.07Z"></path><path d="M260.54,367.63a.93.93,0,0,0,.7-1c-.05-.62-.53-1.6-2.57-2.62-2.67-1.34-3.4-.74-4,.17C254.26,364.9,258.19,368.3,260.54,367.63Z"></path><path d="M263.54,357.07a.93.93,0,0,0-.91-.76c-.63,0-1.64.43-2.79,2.39-1.51,2.58-1,3.35-.09,4C260.4,363.16,264.05,359.46,263.54,357.07Z"></path><path d="M266.83,366.72a.93.93,0,0,0,.61-1c-.1-.62-.66-1.55-2.77-2.4-2.77-1.11-3.45-.46-4,.5C260.34,364.51,264.54,367.57,266.83,366.72Z"></path><path d="M270.31,357.07a.93.93,0,0,0-.92-.76c-.62,0-1.63.43-2.78,2.39-1.51,2.58-1,3.35-.09,4C267.17,363.16,270.82,359.46,270.31,357.07Z"></path><path d="M273.6,366.72a.93.93,0,0,0,.61-1c-.1-.62-.66-1.55-2.77-2.4-2.77-1.11-3.46-.46-4,.5C267.11,364.51,271.31,367.57,273.6,366.72Z"></path><path d="M213.69,360.87a.93.93,0,0,0-1-.66c-.62.07-1.58.58-2.53,2.65-1.25,2.71-.63,3.42.3,4C211.17,367.24,214.43,363.2,213.69,360.87Z"></path><path d="M207.33,362.44a1,1,0,0,0-1-.63c-.62.1-1.56.64-2.44,2.74-1.16,2.76-.51,3.45.44,4C205,368.9,208.15,364.74,207.33,362.44Z"></path><path d="M215.86,371.67a1,1,0,0,0,.6-1c-.11-.62-.68-1.54-2.81-2.36-2.78-1.08-3.45-.42-4,.54C209.34,369.54,213.58,372.55,215.86,371.67Z"></path><path d="M210.35,374.16a.94.94,0,0,0,.62-1c-.09-.62-.63-1.56-2.74-2.44-2.75-1.15-3.44-.51-4,.44C203.89,371.86,208.05,375,210.35,374.16Z"></path><path d="M220.1,359.62a.93.93,0,0,0-.92-.75c-.63,0-1.63.42-2.78,2.38-1.51,2.58-1,3.35-.09,4C217,365.72,220.6,362,220.1,359.62Z"></path><path d="M221.22,370a.92.92,0,0,0,.61-1c-.1-.62-.65-1.55-2.77-2.4-2.77-1.12-3.45-.46-3.95.5C214.73,367.76,218.93,370.82,221.22,370Z"></path><path d="M226.16,359.35a.91.91,0,0,0-.91-.75c-.63,0-1.63.42-2.79,2.39-1.51,2.57-1,3.34-.09,4C223,365.45,226.67,361.74,226.16,359.35Z"></path><path d="M227.73,370.08a1,1,0,0,0,.7-1c-.05-.62-.53-1.6-2.57-2.62-2.67-1.34-3.4-.74-4,.17C221.45,367.34,225.38,370.74,227.73,370.08Z"></path><path d="M232.52,358.33a.91.91,0,0,0-.91-.75c-.63,0-1.63.42-2.78,2.39-1.52,2.57-1,3.34-.09,4C229.39,364.43,233,360.72,232.52,358.33Z"></path><path d="M234,369.16a.93.93,0,0,0,.61-1c-.1-.62-.66-1.55-2.77-2.4-2.78-1.11-3.46-.46-4,.5C227.53,367,231.73,370,234,369.16Z"></path><path d="M238.31,358.85a.94.94,0,0,0-.92-.76c-.63,0-1.63.43-2.78,2.39-1.51,2.58-1,3.35-.09,4C235.17,364.94,238.82,361.24,238.31,358.85Z"></path><path d="M240.79,368.91a.93.93,0,0,0,.61-1c-.1-.63-.66-1.56-2.77-2.41-2.78-1.11-3.46-.46-4,.5C234.3,366.71,238.5,369.77,240.79,368.91Z"></path><path d="M277.08,357.07a.94.94,0,0,0-.92-.76c-.63,0-1.63.43-2.78,2.39-1.51,2.58-1,3.35-.09,4C273.94,363.16,277.59,359.46,277.08,357.07Z"></path><path d="M280.37,366.72a.93.93,0,0,0,.61-1c-.1-.62-.66-1.55-2.77-2.4-2.78-1.11-3.46-.46-4,.5C273.88,364.51,278.08,367.57,280.37,366.72Z"></path><path d="M283.85,357.07a1,1,0,0,0-.92-.76c-.63,0-1.63.43-2.78,2.39-1.51,2.58-1,3.35-.09,4C280.71,363.16,284.36,359.46,283.85,357.07Z"></path><path d="M287.14,366.72a.93.93,0,0,0,.61-1c-.1-.62-.66-1.55-2.77-2.4-2.78-1.11-3.46-.46-4,.5C280.65,364.51,284.85,367.57,287.14,366.72Z"></path><path d="M293.7,365.82a.92.92,0,0,0,.61-1c-.1-.62-.65-1.55-2.77-2.4-2.77-1.11-3.45-.46-4,.5C287.21,363.61,291.41,366.67,293.7,365.82Z"></path><path d="M290,357.13a.93.93,0,0,0-.8-.88c-.63-.08-1.68.19-3.09,2-1.86,2.34-1.43,3.18-.65,3.94C286.05,362.72,290.18,359.56,290,357.13Z"></path></g><g style="opacity:0.4"><path d="M242.38,345.73a.92.92,0,0,0-.75-.92c-.62-.11-1.68.11-3.19,1.82-2,2.24-1.59,3.1-.85,3.89C238.14,351.11,242.42,348.17,242.38,345.73Z"></path><path d="M244.27,354.81a1,1,0,0,0,.44-1.11c-.21-.59-.91-1.42-3.14-1.9-2.92-.64-3.48.12-3.81,1.15C237.51,353.72,242.16,356,244.27,354.81Z"></path><path d="M248.53,345.1a.94.94,0,0,0-.89-.79c-.63,0-1.65.37-2.87,2.29-1.6,2.52-1.08,3.31-.23,4C245.18,351.08,249,347.51,248.53,345.1Z"></path><path d="M251,354.84a.92.92,0,0,0,.65-1c-.08-.63-.61-1.58-2.69-2.5-2.73-1.21-3.43-.58-4,.36C244.58,352.41,248.67,355.61,251,354.84Z"></path><path d="M254.71,344.51a.93.93,0,0,0-.89-.79c-.62,0-1.64.37-2.86,2.29-1.6,2.52-1.08,3.31-.23,4C251.36,350.49,255.14,346.92,254.71,344.51Z"></path><path d="M257.49,355.18a.93.93,0,0,0,.73-.94c0-.63-.47-1.62-2.47-2.71-2.62-1.43-3.37-.86-4,0C251.31,352.23,255.12,355.76,257.49,355.18Z"></path><path d="M260.86,344.73a.93.93,0,0,0-.89-.79c-.63,0-1.64.37-2.86,2.29-1.61,2.52-1.09,3.31-.24,4C257.51,350.71,261.28,347.14,260.86,344.73Z"></path><path d="M263.81,354.49a.94.94,0,0,0,.64-1c-.08-.62-.6-1.57-2.68-2.5-2.73-1.21-3.44-.58-4,.36C257.4,352.05,261.49,355.26,263.81,354.49Z"></path><path d="M267.63,345a.93.93,0,0,0-.89-.79c-.63,0-1.65.37-2.87,2.29-1.6,2.52-1.08,3.31-.23,4C264.27,351,268.05,347.37,267.63,345Z"></path><path d="M270.57,354.73a.93.93,0,0,0,.65-1c-.08-.62-.6-1.57-2.69-2.5-2.73-1.21-3.43-.58-4,.36C264.16,352.29,268.25,355.5,270.57,354.73Z"></path><path d="M210.9,346.76a.92.92,0,0,0-1-.69c-.62.05-1.6.52-2.62,2.56-1.35,2.67-.75,3.4.16,4C208.16,353,211.56,349.12,210.9,346.76Z"></path><path d="M205.32,349a.94.94,0,0,0-1-.67c-.62.07-1.58.58-2.54,2.65-1.25,2.72-.63,3.43.31,4C202.79,355.32,206.06,351.27,205.32,349Z"></path><path d="M212.69,357.63a.93.93,0,0,0,.64-1c-.09-.62-.63-1.57-2.72-2.46-2.75-1.18-3.44-.54-4,.4C206.25,355.28,210.38,358.43,212.69,357.63Z"></path><path d="M207.1,359.93a.93.93,0,0,0,.66-1c-.07-.63-.58-1.58-2.65-2.54-2.72-1.24-3.43-.62-4,.31C200.72,357.41,204.77,360.67,207.1,359.93Z"></path><path d="M217.35,345.74a.91.91,0,0,0-.88-.78c-.63,0-1.65.36-2.87,2.29-1.6,2.52-1.08,3.31-.23,4C214,351.72,217.78,348.15,217.35,345.74Z"></path><path d="M218.11,356.12a.92.92,0,0,0,.65-1c-.08-.63-.6-1.58-2.68-2.5-2.73-1.21-3.44-.58-4,.36C211.71,353.69,215.8,356.9,218.11,356.12Z"></path><path d="M223.43,345.69a.94.94,0,0,0-.89-.79c-.63,0-1.65.37-2.87,2.29-1.6,2.52-1.08,3.31-.23,4C220.07,351.67,223.85,348.1,223.43,345.69Z"></path><path d="M224.62,356.46a.92.92,0,0,0,.72-.94c0-.62-.47-1.61-2.47-2.71-2.62-1.43-3.37-.86-4,0C218.43,353.51,222.24,357,224.62,356.46Z"></path><path d="M229.82,344.9a.93.93,0,0,0-.89-.79c-.63,0-1.64.36-2.87,2.29-1.6,2.52-1.08,3.31-.23,4C226.47,350.87,230.24,347.3,229.82,344.9Z"></path><path d="M230.93,355.77a.94.94,0,0,0,.65-1c-.08-.62-.61-1.57-2.69-2.49-2.73-1.22-3.43-.59-4,.35C224.52,353.34,228.61,356.54,230.93,355.77Z"></path><path d="M235.58,345.62a.92.92,0,0,0-.89-.79c-.62,0-1.64.36-2.86,2.29-1.6,2.52-1.08,3.31-.23,4C232.23,351.6,236,348,235.58,345.62Z"></path><path d="M237.69,356a.93.93,0,0,0,.65-1c-.08-.62-.6-1.57-2.68-2.5-2.73-1.21-3.44-.58-4,.36C231.29,353.57,235.38,356.78,237.69,356Z"></path><path d="M274.39,345.21a.93.93,0,0,0-.89-.79c-.63,0-1.64.36-2.86,2.29-1.6,2.52-1.09,3.31-.23,4C271,351.19,274.81,347.61,274.39,345.21Z"></path><path d="M277.34,355a.92.92,0,0,0,.64-1c-.08-.62-.6-1.57-2.68-2.5-2.73-1.21-3.44-.58-4,.36C270.93,352.53,275,355.74,277.34,355Z"></path><path d="M281.16,345.45a.93.93,0,0,0-.89-.79c-.63,0-1.65.36-2.87,2.29-1.6,2.52-1.08,3.31-.23,4C277.81,351.43,281.58,347.85,281.16,345.45Z"></path><path d="M284.1,355.2a.92.92,0,0,0,.65-1c-.08-.62-.6-1.57-2.69-2.5-2.73-1.21-3.43-.58-4,.36C277.69,352.77,281.78,356,284.1,355.2Z"></path><path d="M290.7,354.54a.93.93,0,0,0,.64-1c-.08-.62-.6-1.57-2.68-2.5-2.73-1.21-3.44-.58-4,.36C284.29,352.1,288.38,355.31,290.7,354.54Z"></path><path d="M287.31,345.72a.91.91,0,0,0-.77-.9c-.62-.11-1.68.13-3.16,1.86-1.94,2.27-1.53,3.13-.78,3.91C283.16,351.17,287.39,348.16,287.31,345.72Z"></path></g><g style="opacity:0.4"><path d="M238.08,331.93a.93.93,0,0,0-.76-.92c-.62-.11-1.68.11-3.19,1.82-2,2.24-1.58,3.1-.84,3.89C233.83,337.31,238.12,334.37,238.08,331.93Z"></path><path d="M241.12,342a.91.91,0,0,0,.83-.84c.05-.63-.27-1.67-2.13-3-2.43-1.74-3.24-1.26-4-.45C235.33,338.3,238.69,342.26,241.12,342Z"></path><path d="M244.77,332.11a.94.94,0,0,0-.89-.79c-.63,0-1.65.37-2.87,2.29-1.6,2.52-1.08,3.31-.23,4C241.42,338.09,245.19,334.52,244.77,332.11Z"></path><path d="M247.89,341.68a.94.94,0,0,0,.65-1c-.08-.62-.61-1.57-2.69-2.5-2.73-1.21-3.43-.58-4,.36C241.48,339.24,245.57,342.45,247.89,341.68Z"></path><path d="M250.92,331.74A.92.92,0,0,0,250,331c-.63,0-1.65.37-2.87,2.29-1.6,2.52-1.08,3.31-.23,4C247.57,337.72,251.35,334.15,250.92,331.74Z"></path><path d="M254.93,342.19a.93.93,0,0,0,.72-.94c0-.62-.47-1.61-2.47-2.71-2.62-1.43-3.37-.86-4,0C248.74,339.24,252.55,342.77,254.93,342.19Z"></path><path d="M258.29,331.74a.93.93,0,0,0-.89-.79c-.62,0-1.64.37-2.86,2.29-1.6,2.52-1.08,3.31-.23,4C254.94,337.72,258.71,334.15,258.29,331.74Z"></path><path d="M261.24,341.5a1,1,0,0,0,.65-1c-.08-.62-.61-1.57-2.69-2.5-2.73-1.21-3.43-.58-4,.36C254.83,339.06,258.92,342.27,261.24,341.5Z"></path><path d="M265.06,332a.93.93,0,0,0-.89-.79c-.63,0-1.65.37-2.87,2.29-1.6,2.52-1.08,3.31-.23,4C261.71,338,265.48,334.39,265.06,332Z"></path><path d="M268,341.74a.93.93,0,0,0,.65-1c-.08-.62-.6-1.57-2.69-2.5-2.73-1.21-3.43-.58-4,.36C261.59,339.3,265.68,342.51,268,341.74Z"></path><path d="M208.34,333.77a.93.93,0,0,0-1-.69c-.63.05-1.61.52-2.63,2.56-1.34,2.67-.75,3.4.16,4C205.59,340.06,209,336.13,208.34,333.77Z"></path><path d="M201.92,335.12a.91.91,0,0,0-1-.66c-.63.07-1.58.58-2.54,2.65-1.25,2.71-.63,3.42.3,4C199.4,341.49,202.66,337.45,201.92,335.12Z"></path><path d="M209.53,344.64a.91.91,0,0,0,.63-1c-.08-.62-.62-1.57-2.71-2.46-2.75-1.18-3.44-.54-4,.4C203.09,342.29,207.22,345.44,209.53,344.64Z"></path><path d="M202.82,346.4a.93.93,0,0,0,.66-1c-.07-.62-.58-1.58-2.65-2.53-2.72-1.25-3.43-.63-4,.3C196.44,343.88,200.49,347.14,202.82,346.4Z"></path><path d="M214,332.76a.93.93,0,0,0-.89-.79c-.63,0-1.64.36-2.86,2.29-1.6,2.52-1.09,3.31-.23,4C210.64,338.73,214.41,335.16,214,332.76Z"></path><path d="M215.55,342.78a.93.93,0,0,0,.64-1c-.08-.62-.6-1.57-2.68-2.49-2.73-1.22-3.44-.59-4,.35C209.14,340.35,213.23,343.55,215.55,342.78Z"></path><path d="M220.28,332.63a.93.93,0,0,0-.89-.79c-.63,0-1.64.36-2.87,2.29-1.6,2.52-1.08,3.31-.23,4C216.93,338.61,220.7,335,220.28,332.63Z"></path><path d="M221.71,342.77a.93.93,0,0,0,.73-.94c0-.63-.47-1.62-2.47-2.71-2.62-1.44-3.37-.87-4,0C215.53,339.81,219.34,343.34,221.71,342.77Z"></path><path d="M226,332a.93.93,0,0,0-.89-.79c-.63,0-1.65.37-2.87,2.29-1.6,2.52-1.08,3.31-.23,4C222.62,338,226.39,334.39,226,332Z"></path><path d="M228.24,341.94a.94.94,0,0,0,.48-1.09c-.18-.6-.86-1.45-3.07-2-2.89-.75-3.48,0-3.85,1C221.52,340.6,226.08,343.08,228.24,341.94Z"></path><path d="M231.66,332.33a.93.93,0,0,0-.89-.78c-.63,0-1.65.36-2.87,2.29-1.6,2.52-1.08,3.31-.23,4C228.3,338.31,232.08,334.74,231.66,332.33Z"></path><path d="M234.73,342a.92.92,0,0,0,.64-1c-.07-.62-.6-1.57-2.68-2.5-2.73-1.21-3.43-.58-4,.36C228.32,339.55,232.41,342.76,234.73,342Z"></path><path d="M271.82,332.22a.92.92,0,0,0-.88-.79c-.63,0-1.65.37-2.87,2.29-1.6,2.52-1.08,3.31-.23,4C268.47,338.2,272.25,334.62,271.82,332.22Z"></path><path d="M274.77,342a.94.94,0,0,0,.65-1c-.08-.62-.61-1.57-2.69-2.5-2.73-1.21-3.43-.58-4,.36C268.36,339.54,272.45,342.75,274.77,342Z"></path><path d="M278.59,332.46a.93.93,0,0,0-.89-.79c-.63,0-1.65.36-2.87,2.29-1.6,2.52-1.08,3.31-.23,4C275.24,338.44,279,334.86,278.59,332.46Z"></path><path d="M281.53,342.21a.92.92,0,0,0,.65-1c-.08-.62-.6-1.57-2.69-2.5-2.73-1.21-3.43-.58-4,.36C275.12,339.78,279.22,343,281.53,342.21Z"></path><path d="M288.13,341.55a.93.93,0,0,0,.64-1c-.07-.62-.6-1.57-2.68-2.49-2.73-1.22-3.43-.59-4,.35C281.72,339.12,285.81,342.32,288.13,341.55Z"></path><path d="M284.74,332.73a.91.91,0,0,0-.77-.9c-.62-.11-1.68.13-3.16,1.86-1.93,2.27-1.53,3.13-.78,3.91C280.59,338.18,284.82,335.17,284.74,332.73Z"></path></g><g style="opacity:0.4"><path d="M242.76,329.17a.85.85,0,0,0,.68-.88c-.06-.57-.55-1.45-2.6-2.35-2.69-1.18-3.42-.63-4,.21C236.43,326.77,240.41,329.8,242.76,329.17Z"></path><path d="M250.12,329.42a.84.84,0,0,0,.64-.9c-.08-.57-.6-1.43-2.68-2.27-2.73-1.1-3.44-.53-4,.32C243.71,327.21,247.8,330.12,250.12,329.42Z"></path><path d="M257.35,330.55a.85.85,0,0,0,.73-.85c0-.57-.47-1.47-2.47-2.46-2.62-1.3-3.37-.78-4,0C251.17,327.87,255,331.08,257.35,330.55Z"></path><path d="M264.44,331.36a.84.84,0,0,0,.64-.9c-.08-.57-.6-1.43-2.68-2.27-2.73-1.1-3.44-.53-4,.33C258,329.15,262.12,332.06,264.44,331.36Z"></path><path d="M210.65,323.05a.93.93,0,0,0-1-.63c-.63,0-1.6.48-2.63,2.33-1.34,2.42-.75,3.08.17,3.61C207.91,328.76,211.31,325.19,210.65,323.05Z"></path><path d="M204.68,324a1,1,0,0,0-1-.61c-.63.07-1.59.53-2.54,2.41-1.25,2.46-.63,3.11.3,3.61C202.16,329.81,205.42,326.14,204.68,324Z"></path><path d="M210.86,332.17a.84.84,0,0,0,.64-.91c-.09-.56-.63-1.42-2.72-2.24-2.75-1.06-3.44-.49-4,.37C204.42,330,208.55,332.9,210.86,332.17Z"></path><path d="M204.22,333.47a.85.85,0,0,0,.66-.9c-.07-.57-.58-1.44-2.65-2.3-2.71-1.13-3.43-.57-4,.28C197.85,331.18,201.89,334.14,204.22,333.47Z"></path><path d="M217.44,322a.9.9,0,0,0-.82-.78c-.62-.05-1.67.21-3,1.87-1.8,2.16-1.35,2.91-.55,3.58C213.62,327.13,217.67,324.17,217.44,322Z"></path><path d="M216.52,330.7a.84.84,0,0,0,.65-.9c-.08-.57-.6-1.43-2.68-2.27-2.73-1.1-3.44-.53-4,.32C210.12,328.49,214.21,331.4,216.52,330.7Z"></path><path d="M223.66,321.7a.84.84,0,0,0-.65-.9c-.61-.17-1.69-.08-3.37,1.32-2.2,1.83-1.91,2.65-1.26,3.43C218.86,326.14,223.44,323.91,223.66,321.7Z"></path><path d="M223.22,330.42a.87.87,0,0,0,.73-.85c0-.58-.47-1.47-2.47-2.47-2.62-1.3-3.38-.78-4,0C217,327.73,220.85,330.94,223.22,330.42Z"></path><path d="M230,320.9a.87.87,0,0,0-.7-.88c-.61-.13-1.69,0-3.3,1.47-2.11,1.92-1.77,2.72-1.08,3.48C225.44,325.54,229.9,323.11,230,320.9Z"></path><path d="M230.44,329.91a.85.85,0,0,0,.65-.9c-.08-.57-.61-1.43-2.69-2.27-2.73-1.1-3.43-.53-4,.32C224,327.7,228.12,330.61,230.44,329.91Z"></path><path d="M236.48,321a.84.84,0,0,0-.64-.91c-.6-.17-1.68-.08-3.38,1.3-2.22,1.81-1.93,2.63-1.29,3.42C231.64,325.35,236.24,323.15,236.48,321Z"></path><path d="M237.19,330.23a.84.84,0,0,0,.64-.9c-.07-.57-.6-1.43-2.68-2.27-2.73-1.1-3.43-.53-4,.32C230.78,328,234.87,330.93,237.19,330.23Z"></path></g><path d="M287.68,342.92a2.71,2.71,0,0,1-1.12.23,4.79,4.79,0,0,1-3-1.23h.15a4.32,4.32,0,0,1-3.27,1.57,7.25,7.25,0,0,1-4.34-1.69l.23,0a3.73,3.73,0,0,1-3.24,1.17,7.53,7.53,0,0,1-3.53-1.55l.29,0a3.47,3.47,0,0,1-1.54,1.16,4,4,0,0,1-2,.09,9.22,9.22,0,0,1-3.67-1.87l.37-.09a3.53,3.53,0,0,1-1.06,1.4,3.15,3.15,0,0,1-1.7.57,6.87,6.87,0,0,1-3.43-.95l.28,0a5.69,5.69,0,0,1-3.62,1.59,4.91,4.91,0,0,1-3.7-1.8h.39a4.27,4.27,0,0,1-3.26,1.61,4.8,4.8,0,0,1-3.45-1.5l.4,0a5.22,5.22,0,0,1-.81.82,4.81,4.81,0,0,1-3.39,1,5.64,5.64,0,0,1-3.2-1.34l.37,0a5.23,5.23,0,0,1-1.53,1.35,3.53,3.53,0,0,1-2,.36,5.6,5.6,0,0,1-1.93-.43,14.92,14.92,0,0,1-1.71-.82l.28,0a5.7,5.7,0,0,1-3.24,1.43,4.74,4.74,0,0,1-3.15-1.33l.36-.06a3.53,3.53,0,0,1-1.51,1.43,4,4,0,0,1-2,.37,6.27,6.27,0,0,1-3.5-1.35l.32,0a3.59,3.59,0,0,1-2.77,1.4,4,4,0,0,1-2.74-.91l.29-.06a4.54,4.54,0,0,1-2.56,2.19,3.07,3.07,0,0,1-2.95-.38l.24-.06a4.52,4.52,0,0,1-3.15,2.67,8.6,8.6,0,0,1-3.08-.47,13.09,13.09,0,0,1-1.79-.69,2.89,2.89,0,0,1-.57-.35s.2.1.6.27a14.2,14.2,0,0,0,1.81.61,8.58,8.58,0,0,0,3,.39,4.3,4.3,0,0,0,2.91-2.55l.08-.19.16.13c1.39,1.13,4,.23,5-1.73l.11-.22.18.15a3.65,3.65,0,0,0,2.48.8,3.18,3.18,0,0,0,2.44-1.25l.13-.19.18.15a5.81,5.81,0,0,0,3.24,1.21,3.18,3.18,0,0,0,3.06-1.57l.13-.26.23.19a4.26,4.26,0,0,0,2.82,1.2,5.25,5.25,0,0,0,3-1.33l.12-.1.16.08a8.12,8.12,0,0,0,3.4,1.17,3,3,0,0,0,1.74-.3,4.94,4.94,0,0,0,1.37-1.22l.16-.2.21.16a5.07,5.07,0,0,0,2.9,1.22,4.27,4.27,0,0,0,3-.9,4.64,4.64,0,0,0,.73-.74l.19-.24.21.22a4.29,4.29,0,0,0,3.06,1.34,3.75,3.75,0,0,0,2.87-1.42l.19-.23.21.24a4.44,4.44,0,0,0,3.29,1.62,5.31,5.31,0,0,0,3.31-1.46l.13-.12.16.09a6.51,6.51,0,0,0,3.16.89,2.66,2.66,0,0,0,1.44-.47,2.93,2.93,0,0,0,.91-1.2l.14-.26.22.18a8.74,8.74,0,0,0,3.46,1.78,3.41,3.41,0,0,0,1.77-.06,3.06,3.06,0,0,0,1.35-1l.14-.16.16.12a7.21,7.21,0,0,0,3.31,1.49,3.35,3.35,0,0,0,2.95-1l.11-.12.13.1a7,7,0,0,0,4.12,1.68,4.13,4.13,0,0,0,3.12-1.43l.07-.08.08.07a4.7,4.7,0,0,0,2.88,1.28A6.76,6.76,0,0,0,287.68,342.92Z" style="fill:#263238"></path><path d="M259.26,330.55a2,2,0,0,1-.47.37,5,5,0,0,1-1.6.62,5.73,5.73,0,0,1-2.75-.14,5.3,5.3,0,0,1-3-2.17l.26,0a4.66,4.66,0,0,1-3.31,1.15,4.8,4.8,0,0,1-3.6-1.72l.37-.05a3.52,3.52,0,0,1-6.07.71l.43-.11a2.56,2.56,0,0,1-1.29,1.82,3.66,3.66,0,0,1-2.23.49,8.44,8.44,0,0,1-4.08-2.11l.37-.05a4.72,4.72,0,0,1-2.83,1.72,5,5,0,0,1-4.55-1.25l.42-.08a4.05,4.05,0,0,1-7,.62h.41a4,4,0,0,1-3.16,1.78,3.9,3.9,0,0,1-3.17-1.21l.35,0a4.77,4.77,0,0,1-3.21,2.22,4.65,4.65,0,0,1-3.34-.54l.21,0a5.36,5.36,0,0,1-3,1.72,5.78,5.78,0,0,1-2.6-.1,5.09,5.09,0,0,1-1.47-.68,2.38,2.38,0,0,1-.42-.37,6.34,6.34,0,0,0,1.94.87,5.62,5.62,0,0,0,2.5,0,5.07,5.07,0,0,0,2.83-1.68l.09-.1.13.07a4.53,4.53,0,0,0,6-1.61l.15-.26.2.22a3.46,3.46,0,0,0,2.82,1,3.52,3.52,0,0,0,2.78-1.57l.19-.33.21.32a3.56,3.56,0,0,0,6.17-.56l.15-.34.27.27a4.5,4.5,0,0,0,4.08,1.1,4.24,4.24,0,0,0,2.51-1.52l.17-.21.2.16a8,8,0,0,0,3.81,2c1.32.15,2.82-.64,3-1.88l.08-.6.36.49a3.1,3.1,0,0,0,2.93,1.22,3.13,3.13,0,0,0,2.35-1.81l.14-.34.23.29a4.43,4.43,0,0,0,3.28,1.6,4.38,4.38,0,0,0,3.06-1l.16-.13.1.17a5.05,5.05,0,0,0,2.75,2.1,5.78,5.78,0,0,0,2.64.21A5.94,5.94,0,0,0,259.26,330.55Z" style="fill:#263238"></path><path d="M293.56,366.87a2.63,2.63,0,0,1-1.11.28,4.81,4.81,0,0,1-3.08-1.1h.15a4.32,4.32,0,0,1-3.19,1.71,7.29,7.29,0,0,1-4.42-1.51l.23,0a3.7,3.7,0,0,1-3.19,1.3,7.48,7.48,0,0,1-3.59-1.39l.29,0a3.46,3.46,0,0,1-1.49,1.22,3.94,3.94,0,0,1-2,.18,9.18,9.18,0,0,1-3.75-1.71l.36-.1a3.37,3.37,0,0,1-1,1.44,3.13,3.13,0,0,1-1.68.64,6.83,6.83,0,0,1-3.47-.79l.29,0a5.71,5.71,0,0,1-3.56,1.75A4.93,4.93,0,0,1,255.6,367h.4a4.33,4.33,0,0,1-3.19,1.75,4.82,4.82,0,0,1-3.51-1.35l.39,0a4.75,4.75,0,0,1-.77.86,4.81,4.81,0,0,1-3.34,1.16,5.61,5.61,0,0,1-3.26-1.2l.37-.05a5.34,5.34,0,0,1-1.47,1.41,3.56,3.56,0,0,1-2,.45,5.47,5.47,0,0,1-1.94-.35,15,15,0,0,1-1.75-.74l.28,0a5.63,5.63,0,0,1-3.17,1.57,4.73,4.73,0,0,1-3.2-1.18l.35-.08a3.53,3.53,0,0,1-1.45,1.49,4,4,0,0,1-2,.45,6.2,6.2,0,0,1-3.55-1.19l.31-.05a3.55,3.55,0,0,1-2.7,1.52,4,4,0,0,1-2.78-.78l.29-.08a4.57,4.57,0,0,1-2.47,2.3,3,3,0,0,1-3-.26l.24-.07a4.53,4.53,0,0,1-3,2.81,8.84,8.84,0,0,1-3.09-.33,12.76,12.76,0,0,1-1.82-.62,3.11,3.11,0,0,1-.58-.32s.2.09.61.24a15.24,15.24,0,0,0,1.83.54,9,9,0,0,0,3,.26,4.29,4.29,0,0,0,2.79-2.68l.07-.2.17.13c1.44,1.07,4,.06,4.89-2l.1-.22.19.15a3.64,3.64,0,0,0,2.51.68,3.14,3.14,0,0,0,2.38-1.35l.12-.19.19.13a5.78,5.78,0,0,0,3.29,1.08,3.17,3.17,0,0,0,3-1.71l.12-.26.23.18a4.28,4.28,0,0,0,2.88,1.07,5.13,5.13,0,0,0,2.88-1.45l.13-.11.15.08a8.24,8.24,0,0,0,3.45,1,3,3,0,0,0,1.72-.38,4.59,4.59,0,0,0,1.32-1.28l.16-.21.21.16a5.08,5.08,0,0,0,3,1.09,4.27,4.27,0,0,0,3-1,5,5,0,0,0,.69-.77l.18-.24.21.21a4.32,4.32,0,0,0,3.12,1.2,3.75,3.75,0,0,0,2.81-1.54l.18-.24.22.23a4.44,4.44,0,0,0,3.36,1.48,5.24,5.24,0,0,0,3.24-1.61l.12-.12.16.08a6.58,6.58,0,0,0,3.2.76,2.68,2.68,0,0,0,1.42-.54,3.05,3.05,0,0,0,.86-1.23l.12-.27.24.17a8.79,8.79,0,0,0,3.53,1.63,3.41,3.41,0,0,0,1.77-.14,3.06,3.06,0,0,0,1.3-1.06l.13-.16.17.11a7.12,7.12,0,0,0,3.37,1.34,3.37,3.37,0,0,0,2.9-1.14l.11-.12.13.09a7,7,0,0,0,4.19,1.5,4.12,4.12,0,0,0,3.05-1.57l.07-.08.08.07a4.74,4.74,0,0,0,2.94,1.15A7.75,7.75,0,0,0,293.56,366.87Z" style="fill:#263238"></path><path d="M290.3,356.57a2.71,2.71,0,0,1-1.12.23,4.79,4.79,0,0,1-3-1.23h.16a4.36,4.36,0,0,1-3.27,1.58,7.33,7.33,0,0,1-4.35-1.7h.23a3.72,3.72,0,0,1-3.24,1.16,7.61,7.61,0,0,1-3.53-1.54l.29,0a3.4,3.4,0,0,1-1.54,1.16,3.87,3.87,0,0,1-2,.09,9.2,9.2,0,0,1-3.67-1.86l.37-.09a3.41,3.41,0,0,1-1.06,1.39,3.16,3.16,0,0,1-1.7.58,6.87,6.87,0,0,1-3.43-.95l.28,0a5.7,5.7,0,0,1-3.62,1.6,4.92,4.92,0,0,1-3.7-1.81h.4a4.3,4.3,0,0,1-3.27,1.6,4.84,4.84,0,0,1-3.45-1.5l.4,0a5.28,5.28,0,0,1-.81.83,4.76,4.76,0,0,1-3.39,1,5.67,5.67,0,0,1-3.2-1.34l.37,0a5.53,5.53,0,0,1-1.53,1.35,3.62,3.62,0,0,1-2,.36,5.5,5.5,0,0,1-1.92-.44,12.88,12.88,0,0,1-1.72-.81l.28,0a5.63,5.63,0,0,1-3.24,1.43,4.78,4.78,0,0,1-3.15-1.32l.36-.07a3.5,3.5,0,0,1-1.51,1.44,4.15,4.15,0,0,1-2,.36,6.33,6.33,0,0,1-3.5-1.34l.32,0a3.61,3.61,0,0,1-2.77,1.41,4.05,4.05,0,0,1-2.74-.91l.29-.06a4.53,4.53,0,0,1-2.56,2.18,3,3,0,0,1-2.95-.38l.24-.06a4.52,4.52,0,0,1-3.15,2.67,8.62,8.62,0,0,1-3.08-.46,11.71,11.71,0,0,1-1.79-.7,3.32,3.32,0,0,1-.57-.34s.2.1.6.26a13.92,13.92,0,0,0,1.81.62,8.82,8.82,0,0,0,3,.39,4.3,4.3,0,0,0,2.91-2.56l.08-.19.16.13c1.39,1.14,4,.24,5-1.73l.11-.21.18.15a3.64,3.64,0,0,0,2.48.79,3.15,3.15,0,0,0,2.44-1.25l.13-.18.18.14a5.85,5.85,0,0,0,3.24,1.22,3.17,3.17,0,0,0,3.06-1.58l.13-.25.23.19a4.25,4.25,0,0,0,2.82,1.19,5.17,5.17,0,0,0,2.95-1.32l.13-.11.15.08a8.14,8.14,0,0,0,3.4,1.18,3.09,3.09,0,0,0,1.74-.31,4.78,4.78,0,0,0,1.37-1.22l.16-.2.21.17a5.14,5.14,0,0,0,2.9,1.22,4.27,4.27,0,0,0,3-.91,5.5,5.5,0,0,0,.72-.73l.19-.24.21.22a4.24,4.24,0,0,0,3.06,1.33,3.77,3.77,0,0,0,2.87-1.41l.19-.23.21.23a4.44,4.44,0,0,0,3.29,1.62,5.2,5.2,0,0,0,3.31-1.46l.13-.11.16.08a6.42,6.42,0,0,0,3.16.9,2.67,2.67,0,0,0,1.44-.48,3,3,0,0,0,.91-1.19l.14-.27.22.18a8.63,8.63,0,0,0,3.46,1.79,3.52,3.52,0,0,0,1.77-.06,3,3,0,0,0,1.35-1l.14-.15.16.12a7.18,7.18,0,0,0,3.32,1.48,3.34,3.34,0,0,0,2.94-1l.11-.11.13.1a7,7,0,0,0,4.13,1.67,4.12,4.12,0,0,0,3.11-1.43l.07-.08.08.08a4.74,4.74,0,0,0,2.88,1.27A6.76,6.76,0,0,0,290.3,356.57Z" style="fill:#263238"></path><path d="M211.1,371.26c-.11.1-1-.67-2.23-1.17s-2.41-.56-2.42-.72a3.47,3.47,0,0,1,2.61.24C210.46,370.17,211.21,371.18,211.1,371.26Z" style="fill:#fff"></path><path d="M215.93,369.5c-.13.08-.66-.78-1.65-1.44s-2-.87-1.95-1a2.62,2.62,0,0,1,2.24.59C215.69,368.39,216.06,369.46,215.93,369.5Z" style="fill:#fff"></path><path d="M220.94,366.63a14.29,14.29,0,0,0-3-.86,13.16,13.16,0,0,0-3.08.33c0-.06.25-.3.81-.53a5.29,5.29,0,0,1,2.32-.32,5.22,5.22,0,0,1,2.22.72C220.74,366.29,221,366.58,220.94,366.63Z" style="fill:#fff"></path><path d="M227.47,365.92c-.07.14-1.25-.49-2.83-.59a28.19,28.19,0,0,0-2.9.16,5,5,0,0,1,5.73.43Z" style="fill:#fff"></path><path d="M233.3,364.9a14.46,14.46,0,0,0-2.57-.48,14.4,14.4,0,0,0-2.57.47,3.07,3.07,0,0,1,2.58-1A3,3,0,0,1,233.3,364.9Z" style="fill:#fff"></path><path d="M238.81,364.17c0,.15-1,0-2.16.22s-2,.65-2.11.52.74-.81,2-1A2.82,2.82,0,0,1,238.81,364.17Z" style="fill:#fff"></path><path d="M231.76,364c-.11-.1.21-.6.35-1.28s.07-1.28.21-1.32.48.59.3,1.43S231.85,364.15,231.76,364Z" style="fill:#fff"></path><path d="M225.11,365c-.06-.13.38-.48.61-1.09s.17-1.16.31-1.21.49.59.17,1.4S225.15,365.11,225.11,365Z" style="fill:#fff"></path><path d="M219.08,365.89c-.11-.1.28-.7.67-1.47s.67-1.43.81-1.4.09.8-.34,1.64S219.18,366,219.08,365.89Z" style="fill:#fff"></path><path d="M213,367c-.11-.1.19-.56.42-1.16s.34-1.14.49-1.14.28.62,0,1.33S213.09,367.12,213,367Z" style="fill:#fff"></path><path d="M207.59,369c-.08-.13.27-.47.49-1s.26-1,.41-1,.37.56.07,1.24S207.64,369.15,207.59,369Z" style="fill:#fff"></path><path d="M237.65,363.19c-.08-.13.23-.47.43-1s.23-1,.37-1,.39.53.11,1.19S237.71,363.32,237.65,363.19Z" style="fill:#fff"></path><path d="M245.68,363.92a10.06,10.06,0,0,0-2.37-.57,10.44,10.44,0,0,0-2.39.49s.15-.3.57-.54a3.58,3.58,0,0,1,3.65.06C245.55,363.62,245.73,363.87,245.68,363.92Z" style="fill:#fff"></path><path d="M244.29,363.18c-.1-.11.11-.46.25-.91s.19-.85.33-.88.35.45.16,1S244.38,363.29,244.29,363.18Z" style="fill:#fff"></path><path d="M252.67,364c-.07,0-.25-.28-.74-.5a5.68,5.68,0,0,0-2.13-.25,11.05,11.05,0,0,0-2.2.1c-.55.11-.89.24-.92.17s.24-.31.82-.52a6.29,6.29,0,0,1,2.31-.27,4.47,4.47,0,0,1,2.3.45C252.66,363.53,252.73,364,252.67,364Z" style="fill:#fff"></path><path d="M250.11,363c-.1-.1.26-.61.6-1.27s.53-1.25.68-1.23.17.71-.22,1.46S250.2,363.08,250.11,363Z" style="fill:#fff"></path><path d="M257.52,358a3.84,3.84,0,0,1-.65,3.13,3.79,3.79,0,0,1-2.52,2,13.08,13.08,0,0,0,2.07-2.25A13.55,13.55,0,0,0,257.52,358Z" style="fill:#fff"></path><path d="M259.06,362.61c-.08.13-.67-.12-1.4-.33s-1.36-.33-1.36-.48.69-.26,1.5,0S259.14,362.5,259.06,362.61Z" style="fill:#fff"></path><path d="M263.9,358.22A5.28,5.28,0,0,1,261,363.1c-.09-.13.92-.94,1.7-2.29S263.75,358.2,263.9,358.22Z" style="fill:#fff"></path><path d="M264.93,362.16c-.08.12-.5,0-1-.19s-.93-.32-.92-.47.51-.22,1.09,0S265,362.05,264.93,362.16Z" style="fill:#fff"></path><path d="M270.17,358.27a6.73,6.73,0,0,1-2.84,5c-.11-.11.76-1.07,1.52-2.44S270,358.24,270.17,358.27Z" style="fill:#fff"></path><path d="M271.79,362.66c-.07.13-.67-.1-1.43-.2s-1.4-.07-1.44-.22.64-.43,1.51-.3S271.87,362.54,271.79,362.66Z" style="fill:#fff"></path><path d="M277.36,358.23a5.4,5.4,0,0,1-1.14,3,5.47,5.47,0,0,1-2.34,2.26c-.1-.12,1-1.09,1.9-2.54S277.22,358.19,277.36,358.23Z" style="fill:#fff"></path><path d="M278.63,362.73c-.08.12-.67-.16-1.41-.39s-1.39-.33-1.39-.47.7-.28,1.54,0S278.72,362.62,278.63,362.73Z" style="fill:#fff"></path><path d="M216.09,376.11a5.73,5.73,0,0,1-1.73,2.73,5.8,5.8,0,0,1-2.69,1.81c-.08-.13,1.11-.92,2.31-2.17S216,376,216.09,376.11Z" style="fill:#fff"></path><path d="M217.36,380.84c-.12.09-.67-.45-1.43-1s-1.45-.89-1.4-1,.87,0,1.7.61S217.47,380.76,217.36,380.84Z" style="fill:#fff"></path><path d="M221.87,374.58a5.35,5.35,0,0,1-1.62,3,5.45,5.45,0,0,1-2.9,1.86c-.07-.14,1.28-.86,2.51-2.22S221.72,374.53,221.87,374.58Z" style="fill:#fff"></path><path d="M222.36,378.75c-.12.09-.53-.27-1.08-.61s-1-.59-1-.73.65-.12,1.29.29S222.48,378.66,222.36,378.75Z" style="fill:#fff"></path><path d="M228.49,373.46a4.9,4.9,0,0,1-1.54,3.17,5,5,0,0,1-3,1.8,25.77,25.77,0,0,0,2.65-2.15A23.71,23.71,0,0,0,228.49,373.46Z" style="fill:#fff"></path><path d="M229.3,377.78c-.07.13-.66,0-1.36-.25s-1.28-.43-1.26-.57.67-.17,1.42.07S229.36,377.65,229.3,377.78Z" style="fill:#fff"></path><path d="M234.38,372.94a8.11,8.11,0,0,1-4.64,5.28c-.08-.13,1.26-1,2.53-2.46S234.24,372.87,234.38,372.94Z" style="fill:#fff"></path><path d="M236,376.78c-.11.09-.57-.27-1.22-.46s-1.23-.17-1.27-.32.61-.43,1.42-.18S236.16,376.7,236,376.78Z" style="fill:#fff"></path><path d="M242.05,373a5.24,5.24,0,0,1-1.67,3.19,5.17,5.17,0,0,1-3.1,1.82,27,27,0,0,0,2.72-2.18A27.47,27.47,0,0,0,242.05,373Z" style="fill:#fff"></path><path d="M243.54,376.74c-.08.12-.72-.18-1.56-.29s-1.53,0-1.57-.17.68-.49,1.65-.35S243.63,376.63,243.54,376.74Z" style="fill:#fff"></path><path d="M249,372.2a7.09,7.09,0,0,1-4.58,4.82c-.07-.14,1.26-.86,2.51-2.2S248.87,372.13,249,372.2Z" style="fill:#fff"></path><path d="M249.66,376.8c-.09.12-.67-.2-1.4-.49s-1.37-.47-1.36-.62.73-.2,1.55.13S249.75,376.7,249.66,376.8Z" style="fill:#fff"></path><path d="M256.07,371.06c.06,0,.08.5-.18,1.22a6.18,6.18,0,0,1-1.71,2.43,11.34,11.34,0,0,1-2.44,1.62c-.67.34-1.11.5-1.14.44s.34-.34,1-.76a20.18,20.18,0,0,0,2.28-1.69,7.62,7.62,0,0,0,1.72-2.18C255.88,371.5,256,371.05,256.07,371.06Z" style="fill:#fff"></path><path d="M256.3,376c-.14,0-.35-.25-.68-.48s-.66-.35-.67-.5.5-.27,1,.08S256.44,376,256.3,376Z" style="fill:#fff"></path><path d="M261.19,371.58a5.67,5.67,0,0,1-4.05,4.75,30.83,30.83,0,0,0,2.34-2.1A29.53,29.53,0,0,0,261.19,371.58Z" style="fill:#fff"></path><path d="M268.12,370.55a7.38,7.38,0,0,1-5.51,6.05,18.61,18.61,0,0,0,3.28-2.54A18.88,18.88,0,0,0,268.12,370.55Z" style="fill:#fff"></path><path d="M268.83,374.94c-.11.09-.45-.14-.88-.38s-.79-.43-.76-.58.52-.17,1,.13S269,374.85,268.83,374.94Z" style="fill:#fff"></path><path d="M275,370.17a7,7,0,0,1-4.15,5.91,28,28,0,0,0,2.47-2.68A27.61,27.61,0,0,0,275,370.17Z" style="fill:#fff"></path><path d="M282,370.32a5,5,0,0,1-3.19,4.34c-.08-.13.95-.81,1.82-2S281.8,370.28,282,370.32Z" style="fill:#fff"></path><path d="M213.87,355.91c-.11.11-1.13-.93-2.7-1.7s-3-.95-3-1.11a6.36,6.36,0,0,1,5.68,2.81Z" style="fill:#fff"></path><path d="M218.44,353.49a11.63,11.63,0,0,0-3.83-1.22,11.89,11.89,0,0,0-4,.65c0-.05.32-.37,1-.69a6.45,6.45,0,0,1,3-.47,6.35,6.35,0,0,1,2.86.9C218.17,353.07,218.48,353.45,218.44,353.49Z" style="fill:#fff"></path><path d="M217.57,349.14c.14,0,.32.83-.15,1.75s-1.26,1.29-1.32,1.17.47-.62.86-1.4S217.42,349.14,217.57,349.14Z" style="fill:#fff"></path><path d="M224.26,353.11a7.49,7.49,0,0,0-2.3-1.66,7.74,7.74,0,0,0-2.83-.2c0-.06.26-.27.81-.41a3.77,3.77,0,0,1,2.2.12,3.83,3.83,0,0,1,1.77,1.31C224.24,352.73,224.32,353.08,224.26,353.11Z" style="fill:#fff"></path><path d="M224.45,347.94c.13-.05.5,1,0,2.15s-1.41,1.7-1.47,1.57.6-.74,1-1.76S224.3,348,224.45,347.94Z" style="fill:#fff"></path><path d="M230.56,352.27A7.8,7.8,0,0,0,228,351a7.89,7.89,0,0,0-2.81.29c0-.05.21-.31.73-.55a3.75,3.75,0,0,1,4.12.76C230.47,351.91,230.61,352.24,230.56,352.27Z" style="fill:#fff"></path><path d="M229.77,347.86c.12-.05.47.73.17,1.69s-1,1.42-1.09,1.3.36-.65.6-1.45S229.62,347.9,229.77,347.86Z" style="fill:#fff"></path><path d="M237,351.37c-.08,0-.21-.36-.76-.6a5,5,0,0,0-2.33-.28,11,11,0,0,0-3.26,1.05c0-.05.21-.38.77-.74a5.34,5.34,0,0,1,2.44-.83,4.24,4.24,0,0,1,2.56.48C237,350.84,237.07,351.38,237,351.37Z" style="fill:#fff"></path><path d="M236.45,347.12c.14,0,.36.91-.17,1.91s-1.42,1.35-1.47,1.22.58-.62,1-1.47S236.3,347.13,236.45,347.12Z" style="fill:#fff"></path><path d="M244,351.6a6.56,6.56,0,0,0-2.81-1.08,6.76,6.76,0,0,0-2.9.81c-.05,0,.16-.36.66-.71a3.8,3.8,0,0,1,4.46.21C243.87,351.22,244,351.56,244,351.6Z" style="fill:#fff"></path><path d="M242.72,346.38c.14,0,.16,1-.28,2.08s-1.11,1.8-1.21,1.72.33-.88.73-1.91S242.58,346.36,242.72,346.38Z" style="fill:#fff"></path><path d="M250.36,351.35a8,8,0,0,0-2.65-1.11,7.81,7.81,0,0,0-2.84.44c0-.06.2-.33.71-.59a3.9,3.9,0,0,1,4.23.52C250.24,351,250.41,351.31,250.36,351.35Z" style="fill:#fff"></path><path d="M249.65,347c.14,0,.32.75,0,1.64s-.93,1.38-1,1.28.27-.68.54-1.45S249.5,347,249.65,347Z" style="fill:#fff"></path><path d="M256,350.22a12,12,0,0,0-2.37-.38,11.6,11.6,0,0,0-2.32.58c0-.05.13-.29.53-.56a3.74,3.74,0,0,1,1.77-.54,3.68,3.68,0,0,1,1.81.39C255.86,349.94,256.06,350.17,256,350.22Z" style="fill:#fff"></path><path d="M207.65,357.24a10.54,10.54,0,0,0-2.17-1.81,10.23,10.23,0,0,0-2.73-.72c0-.06.31-.2.86-.23a4.32,4.32,0,0,1,3.72,1.92C207.63,356.87,207.71,357.21,207.65,357.24Z" style="fill:#fff"></path><path d="M205.79,351.3c.13-.05.48.77.27,1.8s-.81,1.66-.91,1.57.24-.77.4-1.67S205.65,351.34,205.79,351.3Z" style="fill:#fff"></path><path d="M227.42,339.46a11.22,11.22,0,0,0-3-1.12,10.94,10.94,0,0,0-3.22.3c0-.06.26-.32.85-.55a5,5,0,0,1,2.43-.26,5,5,0,0,1,2.28.88C227.24,339.09,227.46,339.42,227.42,339.46Z" style="fill:#fff"></path><path d="M226,335.56c.14,0,.18.75-.14,1.59s-.84,1.36-1,1.28.17-.7.46-1.47S225.83,335.54,226,335.56Z" style="fill:#fff"></path><path d="M235,338.88c-.07,0-.12-.43-.7-.71a7.88,7.88,0,0,0-2.46-.63,24.45,24.45,0,0,0-3.68.14,5.43,5.43,0,0,1,3.73-.65,6,6,0,0,1,2.61.83,1.26,1.26,0,0,1,.53.7C235.11,338.77,235.07,338.88,235,338.88Z" style="fill:#fff"></path><path d="M232.1,334.32c.14,0,.32.6.16,1.36s-.56,1.25-.68,1.18,0-.62.17-1.29S232,334.33,232.1,334.32Z" style="fill:#fff"></path><path d="M240.28,337.56c-.07,0-.3-.22-.75-.51a3.76,3.76,0,0,0-1.92-.62,3.66,3.66,0,0,0-2,.54c-.46.27-.7.52-.77.47s.1-.39.56-.77a3.26,3.26,0,0,1,2.17-.76,3.33,3.33,0,0,1,2.14.85C240.2,337.17,240.33,337.52,240.28,337.56Z" style="fill:#fff"></path><path d="M238.88,333.93c.13-.05.4.48.25,1.14s-.6,1-.7.95.08-.52.19-1.06S238.74,334,238.88,333.93Z" style="fill:#fff"></path><path d="M247,338.35a8.44,8.44,0,0,0-2.65-1.21,7.82,7.82,0,0,0-2.89.34c0-.06.22-.32.74-.57a3.93,3.93,0,0,1,2.23-.28,4,4,0,0,1,2,1C246.87,338,247,338.31,247,338.35Z" style="fill:#fff"></path><path d="M245.78,333.34c.14,0,.29.8,0,1.75s-.85,1.53-1,1.45.21-.75.46-1.6S245.63,333.35,245.78,333.34Z" style="fill:#fff"></path><path d="M220.8,339.62a8.77,8.77,0,0,0-7.07-.88c0-.05.32-.32,1-.56a6.16,6.16,0,0,1,5.28.66C220.57,339.23,220.84,339.58,220.8,339.62Z" style="fill:#fff"></path><path d="M224.65,327.51a18.54,18.54,0,0,0-3.48-1.69,19.05,19.05,0,0,0-3.85-.43,6.78,6.78,0,0,1,7.33,2.12Z" style="fill:#fff"></path><path d="M223.29,323.5c.14,0,.19.67-.18,1.36s-.94,1-1,.91.25-.56.56-1.16S223.15,323.48,223.29,323.5Z" style="fill:#fff"></path><path d="M230.68,326.71a11.57,11.57,0,0,0-2.91-1.11,11.93,11.93,0,0,0-3.11.17s.26-.29.84-.5A5,5,0,0,1,230,326C230.51,326.35,230.72,326.66,230.68,326.71Z" style="fill:#fff"></path><path d="M230.16,322.44c.14,0,.13.79-.26,1.63s-1,1.36-1.06,1.27.24-.71.59-1.49S230,322.41,230.16,322.44Z" style="fill:#fff"></path><path d="M236.93,326.51a9.92,9.92,0,0,0-2.65-1.35,10.51,10.51,0,0,0-3-.08c0-.05.27-.27.83-.43a4.63,4.63,0,0,1,4.27,1.08C236.83,326.14,237,326.47,236.93,326.51Z" style="fill:#fff"></path><path d="M237.29,322.67c.13,0,0,.71-.51,1.33s-1.16.85-1.23.72.38-.51.84-1.05S237.15,322.62,237.29,322.67Z" style="fill:#fff"></path><path d="M243.88,327.12a20.75,20.75,0,0,0-2.36-1.76,20.71,20.71,0,0,0-2.8-.93,4.78,4.78,0,0,1,5.16,2.69Z" style="fill:#fff"></path><path d="M252.18,315.85c3.19,3.63,8.3,3.36,12.48,2.16a42.17,42.17,0,0,0,11.64-5.38,43.77,43.77,0,0,0,5.73-4.54,1.36,1.36,0,0,0,0-1.86,1.26,1.26,0,0,0-1.8,0,40.68,40.68,0,0,1-9.58,6.65,37.55,37.55,0,0,1-5.3,2.17,18.52,18.52,0,0,1-6.28,1.16A6.94,6.94,0,0,1,254,314a1.27,1.27,0,0,0-1.8,0,1.38,1.38,0,0,0,0,1.87Z" style="fill:#A5DD9B"></path><path d="M255.49,318.14a5.7,5.7,0,0,0,1.6-2.24,8.22,8.22,0,0,1-1.5-.62l-1.92,1.9A7.65,7.65,0,0,0,255.49,318.14Z" style="opacity:0.30000000000000004"></path><path d="M278.19,308a2.71,2.71,0,0,0,.25,3.1l1.94-1.55v-2.08l-.86-.6Z" style="opacity:0.30000000000000004"></path><path d="M290.6,322.54c0,.15,0,.29.08.44l.28-.06Z" style="fill:#f39e78"></path><path d="M290.68,323a21.18,21.18,0,0,1-13.08-1.12c-2.76-1.17-5.6-3-8.52-2.27a5.22,5.22,0,0,0-2.52,8.69c1.6,1.65,4.06,2.05,6.33,2.37l9.28,1.28c2.39.33,5.09.57,6.94-1a5.87,5.87,0,0,0,1.85-4A15.91,15.91,0,0,0,290.68,323Z" style="fill:#f39e78"></path><path d="M282.43,310.31q-.15,9.46-.32,18.93a3.13,3.13,0,1,0,6.25,0q.17-9.47.32-18.93a3.15,3.15,0,0,0-3.12-3.13,3.19,3.19,0,0,0-3.13,3.13Z" style="fill:#A5DD9B"></path><path d="M220.9,298.13s-25.73-5-27.61-4.32c-1.42.51-9.88,7.65-13.81,11a6.41,6.41,0,0,0-2.22,4.65,16.39,16.39,0,0,0,.22,3.71s-3.75,3.75-3.07,7.66a20.39,20.39,0,0,0,2.9,7.14,9.29,9.29,0,0,0-.17,7.49,35.54,35.54,0,0,1,2.21,6.46s-1.36,2.76,2.21,6.82,7.65,5.43,10.88,3.56a9.13,9.13,0,0,0,4.09-4.94l10-2.89a11.65,11.65,0,0,0,3.67-3.18c1-1.7,2.29-1.41.92-3.79s-6.12-4.94-9.35-3.74S191.08,336,191.08,336l14.29-4.6,8.68,4.94a6.56,6.56,0,0,0,1.09,1c3,2.22,7.82-2,6.88-5.63h0a15.8,15.8,0,0,0-5.75-6.17l-7.9-4.87a9.56,9.56,0,0,0-6.48-1.32l-7.58,1.17,10.22-6.63s20.91,3.57,23.12,2.38,1.14-7.06,1-7.63-8.46-3.66-8.46-3.66S226.11,300.38,220.9,298.13Z" style="fill:#f7c1a3"></path><path d="M220.9,298.13l.51.25a2.27,2.27,0,0,1,.6.37l.37.28.33.42a2.19,2.19,0,0,1,.38,1.2,3.33,3.33,0,0,1-.39,1.47,9.43,9.43,0,0,1-2.47,2.91l0-.16c2,.73,4.23,1.58,6.79,2.69l1,.45q.24.12.48.27a1.25,1.25,0,0,1,.24.18c.12.14.09.22.13.32a18.09,18.09,0,0,1,.31,2.26,13.84,13.84,0,0,1,0,2.41,4.54,4.54,0,0,1-.82,2.43,1.72,1.72,0,0,1-1.18.67,8.75,8.75,0,0,1-1.35.09c-.9,0-1.82,0-2.75-.11-1.86-.14-3.79-.35-5.79-.59q-6-.75-12.73-1.87l.14,0-10.21,6.64-.15-.39,5-.78,2.57-.4a10.09,10.09,0,0,1,2.69,0,9.84,9.84,0,0,1,2.64.71,18,18,0,0,1,2.39,1.35l4.72,2.9c3.21,1.81,6.61,4.22,8,8.14a5.7,5.7,0,0,1-2.78,5.2,4.58,4.58,0,0,1-3,.77,3.44,3.44,0,0,1-1.5-.6,6.28,6.28,0,0,1-1.18-1.07l.07.07-8.68-4.93.21,0-14.29,4.59-.11-.5c1.73-.25,3.52-.54,5.33-.88a38,38,0,0,0,5.42-1.35,7.54,7.54,0,0,1,5.13.42,10,10,0,0,1,4.13,3,6.38,6.38,0,0,1,.65,1.12,2.35,2.35,0,0,1,.27,1.36,2.54,2.54,0,0,1-.79,1.12,5.21,5.21,0,0,0-.72.92,11.11,11.11,0,0,1-3.78,3.29h-.06l-10,2.89.17-.18a9.33,9.33,0,0,1-4.49,5.23,6.15,6.15,0,0,1-3.39.68,8.39,8.39,0,0,1-3.27-1,15.67,15.67,0,0,1-5-4.36,9.44,9.44,0,0,1-1.53-2.91,5,5,0,0,1,0-3.29l0,.16a43.76,43.76,0,0,0-2.4-7,9.5,9.5,0,0,1,.4-7.13v.23a19.08,19.08,0,0,1-3-7.88,8,8,0,0,1,.93-4,13.36,13.36,0,0,1,2.27-3.22l-.05.19a14.58,14.58,0,0,1-.23-3.14,7.31,7.31,0,0,1,.55-3,6.68,6.68,0,0,1,1.8-2.42l2.2-1.86c2.89-2.44,5.64-4.72,8.28-6.79.66-.51,1.32-1,2-1.48.33-.24.67-.46,1-.67a1.73,1.73,0,0,1,.6-.22,4.24,4.24,0,0,1,.61,0c1.58.07,3.06.29,4.49.49,2.85.41,5.45.86,7.78,1.27,4.68.82,8.31,1.52,10.78,2l2.8.56,1,.21s-.33,0-1-.15l-2.81-.51-10.79-1.89c-2.34-.39-4.94-.82-7.79-1.21a44,44,0,0,0-4.45-.46,5.42,5.42,0,0,0-.57,0,1.5,1.5,0,0,0-.49.19q-.5.3-1,.66c-.65.47-1.3,1-2,1.48-2.62,2.07-5.36,4.37-8.24,6.82-1.39,1.27-3.16,2.31-3.88,4.15a6.92,6.92,0,0,0-.51,2.88,14.12,14.12,0,0,0,.23,3l0,.11-.08.08a13.23,13.23,0,0,0-2.18,3.12,7.54,7.54,0,0,0-.88,3.75,18.8,18.8,0,0,0,2.93,7.65l.07.11-.06.13a9.07,9.07,0,0,0-.35,6.76,44.08,44.08,0,0,1,2.43,7l0,.07,0,.09a4.6,4.6,0,0,0,0,2.93,9,9,0,0,0,1.46,2.76,15.08,15.08,0,0,0,4.8,4.21,6.62,6.62,0,0,0,6.2.28,8.85,8.85,0,0,0,4.23-4.92l.05-.13.13,0,10-2.9-.05,0a10.75,10.75,0,0,0,3.58-3.1,5.82,5.82,0,0,1,.8-1,2.15,2.15,0,0,0,.65-.87,1.85,1.85,0,0,0-.23-1,6.54,6.54,0,0,0-.59-1,9.42,9.42,0,0,0-3.92-2.81A6.9,6.9,0,0,0,202,334a38.94,38.94,0,0,1-5.49,1.36c-1.82.35-3.62.64-5.36.88l-.12-.5,14.29-4.59.11,0,.1.05,8.67,4.94,0,0,0,0a4,4,0,0,0,2.36,1.48,4.06,4.06,0,0,0,2.69-.68,5.25,5.25,0,0,0,2.57-4.74l-.06-.34s0-.16,0-.11l-.08-.16-.36-.63c-.25-.41-.51-.81-.79-1.19a15.92,15.92,0,0,0-1.88-2.13,25.89,25.89,0,0,0-4.6-3.23l-4.72-2.91A18.71,18.71,0,0,0,207,320.2a9.7,9.7,0,0,0-2.52-.68,18.55,18.55,0,0,0-5.13.42l-5,.77-1,.15.84-.54,10.22-6.61.07,0,.07,0c4.49.75,8.74,1.4,12.72,1.91,2,.25,3.91.47,5.76.62.93.07,1.84.12,2.73.12s1.82.05,2.3-.64a4.35,4.35,0,0,0,.77-2.27,14.32,14.32,0,0,0,0-2.36,19.35,19.35,0,0,0-.3-2.23c0-.08,0-.2-.06-.19a1.15,1.15,0,0,0-.2-.15,5,5,0,0,0-.46-.26c-.31-.16-.63-.31-.94-.45-2.53-1.13-4.82-2-6.75-2.74L220,305l.12-.1a9.31,9.31,0,0,0,2.46-2.83,3.23,3.23,0,0,0,.39-1.41,2.08,2.08,0,0,0-.34-1.15c-.11-.15-.21-.29-.31-.41l-.35-.29a2.38,2.38,0,0,0-.58-.38C221.06,298.24,220.9,298.13,220.9,298.13Z" style="fill:#f39e78"></path><path d="M186.38,310.79a8.07,8.07,0,0,1,1.1-1l3.12-2.48c1.33-1,2.89-2.29,4.68-3.63a13.67,13.67,0,0,1,3.07-1.76,10.49,10.49,0,0,1,3.76-.68,33.78,33.78,0,0,1,7.2,1.1l5.77,1.3,3.88.92a7.81,7.81,0,0,1,1.41.41,8.22,8.22,0,0,1-1.45-.21L215,304l-5.79-1.19a35.26,35.26,0,0,0-7.09-1,10.28,10.28,0,0,0-3.58.63,14.37,14.37,0,0,0-3,1.68l-4.74,3.53L187.61,310A7.75,7.75,0,0,1,186.38,310.79Z" style="fill:#f39e78"></path><path d="M244.13,310.34s-2.75-.14-3,4.05l-1-.33s.11-2.37.11-2.45a13.51,13.51,0,0,1,.78-1.46l1.46-.54,1.75.28Z" style="opacity:0.30000000000000004"></path><path d="M245.81,310.71c-.28-1.86-1-2.61-2.49-2.92a3.84,3.84,0,0,0-3.82,1.31,7.67,7.67,0,0,0-1.54,3.84c-.22,1.52-.32,3-.42,4.57,0,.79-.1,1.58-.17,2.37l-.06.57c0,.07,0,.13,0,.2s0,.35,0,.16,0,.25-.05.31-.05.27-.09.4a1.2,1.2,0,1,0,2.32.64h0a20.23,20.23,0,0,0,.4-3.31c.09-1.3.16-2.61.28-3.91l.09-.9c0-.15,0-.3.05-.45,0,.24,0-.22,0-.27a7.3,7.3,0,0,1,.32-1.4c0-.14.12-.3,0-.06.07-.17.15-.34.23-.5a3.32,3.32,0,0,1,.51-.77,2.15,2.15,0,0,1,.63-.51s.34-.16.21-.11.05,0,.09,0l.23-.07.2-.05.13,0h.32l.27.14Z" style="fill:#A5DD9B"></path><path d="M246,315.85l1.52.55s3-2.38,3.54-2.88a4.7,4.7,0,0,0,.73-.91l-1.31-.28Z" style="opacity:0.30000000000000004"></path><path d="M251.29,312.45c-.41-.06-1.84,1.4-2.21,1.65-.74.49-1.4,1.1-2.14,1.6-1.44,1-2.38,2-4.56.71,0,0-1.16-.84-1-1.92l1.5.53a1.51,1.51,0,0,0,1-.13,8.14,8.14,0,0,0,1-.49,12.42,12.42,0,0,0,1.53-1.27c1.57-1.23,3.17-3.28,5.17-2.17a1.12,1.12,0,0,1,.61.82C252.32,312.4,251.83,312.53,251.29,312.45Z" style="fill:#A5DD9B"></path><g style="opacity:0.30000000000000004"><path d="M284.27,348.56q-.78,45.12-.52,90.29.08,12.84.24,25.66c0,3.85,2.45,3.86,2.4,0q-.56-45.15-.08-90.33.15-12.81.36-25.62c0-1.61-.57-3-1.2-3s-1.17,1.37-1.2,3Z"></path></g><path d="M285.51,349.7q-.78,43.49-.52,87.05.08,12.36.24,24.73c0,3.71,2.45,3.73,2.4,0q-.56-43.53-.08-87.08.15-12.36.36-24.7c0-1.56-.57-2.89-1.2-2.89s-1.17,1.32-1.2,2.89Z" style="fill:#A5DD9B"></path><path d="M275.35,293.3a5.86,5.86,0,0,0-1.14,7.94c3,4.72,11.32,10.15,11.32,10.15l3.16,10.75a3.79,3.79,0,0,1,.07,2c-.28,1.08-1.32,1.81-3.57,2.28-3.38.71-21.06,2.6-27.63,3.13-2.2.18-5.24.65-6.9,2.12-1.3,1.14-1.29,2.22-.06,3.64,2.14,2.48,7.35,2.25,7.35,2.25l20.23.31-21.66,3.34s-5.36.27-3.79,5c0,0,1,2.66,6,2.64a71,71,0,0,0,13.58-1.34c0-.26-4.3-1.34-3.67,1.62a4.75,4.75,0,0,0,.43,1.18,5.63,5.63,0,0,0,5.16,2.93l5.05-.12,13.09,3.95a9,9,0,0,0,6.55,4.59,36.41,36.41,0,0,0,10.6,0l17.25-15.61-9.29-15.25-18.56-15.23-7-11.7Z" style="fill:#f7c1a3"></path><path d="M290.42,335.34c-.05,0-.45-.25-.87-.91a5.11,5.11,0,0,1,.31-5.8c.49-.62.92-.86,1-.81s-.27.39-.65,1a5.55,5.55,0,0,0-.29,5.41C290.19,334.92,290.48,335.29,290.42,335.34Z" style="fill:#f39e78"></path><path d="M288.81,347.19c-.05,0-.41-.33-.74-1.07a6,6,0,0,1,.78-6c.51-.63.95-.89,1-.84s-.28.41-.68,1.05a6.85,6.85,0,0,0-.73,5.65C288.64,346.72,288.88,347.14,288.81,347.19Z" style="fill:#f39e78"></path><path d="M287.81,347.92a11.94,11.94,0,0,1-2.41,0c-1.48-.06-3.52-.13-5.78-.11s-4.31.1-5.79.17a11.85,11.85,0,0,1-2.41.05,9.37,9.37,0,0,1,2.38-.41,57.46,57.46,0,0,1,11.63-.07A10.07,10.07,0,0,1,287.81,347.92Z" style="fill:#f39e78"></path><path d="M289.16,336.84a53.07,53.07,0,0,1-6.16.89,51.3,51.3,0,0,1-6.19.66,30.4,30.4,0,0,1,6.13-1.18A29.37,29.37,0,0,1,289.16,336.84Z" style="fill:#f39e78"></path><path d="M289.4,314.67a8.74,8.74,0,0,1,.31,1.59c.18,1,.57,2.3.76,3.86a6.47,6.47,0,0,1-.68,3.93c-.55.91-1.18,1.2-1.2,1.15a14.07,14.07,0,0,0,.87-1.32,7,7,0,0,0,.49-3.71c-.17-1.49-.51-2.85-.6-3.86A3.4,3.4,0,0,1,289.4,314.67Z" style="fill:#f39e78"></path><path d="M290.43,306.72a3.32,3.32,0,0,1-1.09,1.5,5.75,5.75,0,0,1-1.47,1l-.27.12-.34.12a6.63,6.63,0,0,1-.9.25l-.33.06c-.09,0-.34.1-.44.1a6.23,6.23,0,0,1-1.21,0,4.66,4.66,0,0,1-1.52-.34l-.06-.05-.77-.63a2.76,2.76,0,0,0-.24,2c.87,2.05,5.31,1.48,7.46.33,2.4-1.28,4.53-4.18,3.76-7-.43-1.6-1.13-2.93-2.87-3.24-.64-.11-1.86.24-2,.81,0,0,.57.32,1.08.68a3.08,3.08,0,0,1,1.3,1.92v0A5.05,5.05,0,0,1,290.43,306.72Z" style="fill:#A5DD9B"></path><path d="M290.43,306.72a8.71,8.71,0,0,0,.07-1.59,3.49,3.49,0,0,0-.55-1.71,3.2,3.2,0,0,0-.8-.8l-1.12-.68-.12-.07,0-.14a1.13,1.13,0,0,1,.57-.62,2.44,2.44,0,0,1,.75-.29,2.39,2.39,0,0,1,.85-.06,3.49,3.49,0,0,1,.84.23,3.2,3.2,0,0,1,1.41,1.15,6.06,6.06,0,0,1,.79,1.71,5.36,5.36,0,0,1-.31,4,8.15,8.15,0,0,1-2.84,3.23,8.57,8.57,0,0,1-2.79,1.16,9.94,9.94,0,0,1-2.86.26,3.46,3.46,0,0,1-2.55-1.1,2,2,0,0,1-.31-.68,3.1,3.1,0,0,1,0-.68,4.31,4.31,0,0,1,.34-1.22l.12-.28.22.19.83.68-.05,0a5.49,5.49,0,0,0,2.61.34h0l.43-.09h0c.33-.06.59-.13.84-.2a5.33,5.33,0,0,0,.74-.22h0a6.8,6.8,0,0,0,2.34-1.65,3.73,3.73,0,0,0,.56-.85.67.67,0,0,1-.05.27,2.08,2.08,0,0,1-.39.69,6.33,6.33,0,0,1-2.31,1.81h0a5.21,5.21,0,0,1-.76.25,6.31,6.31,0,0,1-.8.21h-.05l-.45.1h0a5.83,5.83,0,0,1-2.85-.31h0l0,0-.84-.66.35-.09a3.8,3.8,0,0,0-.29,1.1,2,2,0,0,0,0,.55,1.18,1.18,0,0,0,.22.47,3,3,0,0,0,2.2.89,9.45,9.45,0,0,0,2.72-.27,7.69,7.69,0,0,0,5.28-4.1,4.86,4.86,0,0,0,.31-3.63,3.67,3.67,0,0,0-1.91-2.6,2.12,2.12,0,0,0-1.43-.18c-.45.09-.95.32-1.06.62l-.09-.21,1.13.74a3.28,3.28,0,0,1,.85.9,3.5,3.5,0,0,1,.51,1.86,4.51,4.51,0,0,1-.13,1.21A.91.91,0,0,1,290.43,306.72Z" style="fill:#263238"></path><path d="M281.83,310.54s5.9,1.72,8.62-2.43.2-6.46.2-6.46l-1.44,5-2.44,2-3.84,1.1Z" style="opacity:0.30000000000000004"></path><path d="M288.36,305.08a3.17,3.17,0,0,1-1.09,1.49,5.15,5.15,0,0,1-1.47,1l-.26.12-.34.13c-.3.1-.6.18-.9.25l-.33.06c-.1,0-.35.09-.44.1a6.09,6.09,0,0,1-1.22,0,4.55,4.55,0,0,1-1.51-.34l-.06,0-.77-.63a2.72,2.72,0,0,0-.25,2c.87,2.06,5.31,1.49,7.47.34,2.4-1.28,4.52-4.19,3.75-7-.43-1.6-1.13-2.93-2.87-3.24-.63-.11-1.85.24-2,.82,0,0,.57.32,1.08.67a3.12,3.12,0,0,1,1.29,1.92v0A5,5,0,0,1,288.36,305.08Z" style="fill:#A5DD9B"></path><path d="M288.36,305.08a8.81,8.81,0,0,0,.07-1.59,3.42,3.42,0,0,0-.55-1.72,3.29,3.29,0,0,0-.79-.79L286,300.3l-.13-.08,0-.13a1.15,1.15,0,0,1,.57-.63,3.15,3.15,0,0,1,.76-.29,2.92,2.92,0,0,1,.85-.06,4.1,4.1,0,0,1,.83.23,3.15,3.15,0,0,1,1.41,1.15,6,6,0,0,1,.79,1.72,5.33,5.33,0,0,1-.31,4,8.15,8.15,0,0,1-2.84,3.23,8,8,0,0,1-2.78,1.16,9.35,9.35,0,0,1-2.87.26,3.43,3.43,0,0,1-2.55-1.1,1.77,1.77,0,0,1-.3-.67,2.22,2.22,0,0,1,0-.68,4.46,4.46,0,0,1,.33-1.23l.12-.27.23.19.82.68-.05,0a5.75,5.75,0,0,0,2.61.34h0L284,308h0a7.54,7.54,0,0,0,.84-.19,5.19,5.19,0,0,0,.73-.22h0a6.8,6.8,0,0,0,2.34-1.65,3.79,3.79,0,0,0,.56-.85.51.51,0,0,1-.05.27,2,2,0,0,1-.39.68,6.33,6.33,0,0,1-2.31,1.81h0a8.89,8.89,0,0,1-1.56.46h0l-.45.11h0a6,6,0,0,1-2.85-.31h0l0,0-.83-.67.34-.08a4,4,0,0,0-.29,1.09,2.6,2.6,0,0,0,0,.56,1.43,1.43,0,0,0,.22.47,3,3,0,0,0,2.21.88,9,9,0,0,0,2.71-.26,8,8,0,0,0,2.62-1.09,7.89,7.89,0,0,0,2.66-3,4.84,4.84,0,0,0,.31-3.64,3.7,3.7,0,0,0-1.9-2.6,2.21,2.21,0,0,0-1.44-.17c-.45.09-1,.31-1.06.62l-.08-.21,1.13.73a3.39,3.39,0,0,1,.84.9,3.53,3.53,0,0,1,.51,1.87,4.08,4.08,0,0,1-.12,1.2C288.44,305,288.38,305.08,288.36,305.08Z" style="fill:#263238"></path><path d="M250.91,310.7s.82,1.06.38,1.75a1,1,0,0,0,.72-.08c.28-.2.23-.36.11-.82A1.52,1.52,0,0,0,250.91,310.7Z" style="opacity:0.30000000000000004"></path><path d="M241.39,310.59a2,2,0,0,1,1.45-1.2,6.27,6.27,0,0,1,2.76.38s.18.76.21.94l-2.34-.78-.27-.14A2.43,2.43,0,0,0,241.39,310.59Z" style="opacity:0.30000000000000004"></path><polygon points="284.31 312.25 284.28 313.54 286.64 317.93 286.68 315.29 285.76 312.19 284.31 312.25" style="opacity:0.30000000000000004"></polygon><path d="M372.1,401a4.26,4.26,0,0,1-.49-.53l-1.33-1.59L365.42,393l-16-19.42-16.05-19.42-4.83-5.91-1.29-1.62a3.81,3.81,0,0,1-.43-.59,3.43,3.43,0,0,1,.51.53l1.37,1.55,5,5.81c4.16,4.92,9.89,11.74,16.16,19.32s11.89,14.48,15.92,19.51c2,2.52,3.63,4.57,4.72,6,.53.68.94,1.23,1.26,1.65A2.83,2.83,0,0,1,372.1,401Z" style="fill:#f39e78"></path><path d="M176.61,326.4a6,6,0,0,1-.53.71l-1.6,2c-1.39,1.7-3.44,4.15-6,7.15-5.12,6-12.31,14.18-20.51,23s-15.83,16.58-21.45,22.11c-2.8,2.77-5.09,5-6.7,6.51L118,389.58a3.59,3.59,0,0,1-.67.58,6.67,6.67,0,0,1,.6-.65l1.78-1.81,6.58-6.62c5.55-5.6,13.14-13.4,21.33-22.21S163,341.93,168.2,336l6.13-7.05,1.67-1.9A6.49,6.49,0,0,1,176.61,326.4Z" style="fill:#f39e78"></path><ellipse cx="169.55" cy="341.93" rx="0.26" ry="0.54" style="fill:#f39e78"></ellipse><path d="M198.78,319.79c0,.15-3.17,1-7,2.38s-6.83,2.8-6.9,2.66a8,8,0,0,1,1.89-1.1,48.88,48.88,0,0,1,9.85-3.57A7.6,7.6,0,0,1,198.78,319.79Z" style="fill:#f39e78"></path><path d="M312.6,446.06a32.19,32.19,0,0,0-.9-15.42,23,23,0,0,0-9.17-12.24c-5.3-3.4-11.86-4.1-18.16-4.31a145.84,145.84,0,0,0-36.14,3.38c-5.4,1.2-11,2.85-14.92,6.73-3.3,3.26-5.08,7.78-5.95,12.33a38.82,38.82,0,0,0,2.32,22.21c1.56,3.71,3.85,7.31,7.33,9.31s7.57,2.17,11.53,2.3c11.58.41,23.2.81,34.73-.34,6.85-.69,13.87-2,19.6-5.82s9.4-11.35,9.78-18.46" style="fill:#A5DD9B"></path><path d="M274.47,470.61a2.9,2.9,0,0,1-.49-.4c-.3-.27-.77-.67-1.32-1.22-1.12-1.08-2.71-2.69-4.64-4.72-3.85-4-9-9.74-14.66-16.14s-10.55-12.35-14-16.77c-1.71-2.21-3-4.06-3.87-5.37a17.36,17.36,0,0,1-.91-1.56,3.8,3.8,0,0,1-.27-.57c.05,0,.47.73,1.35,2s2.24,3.08,4,5.26c3.47,4.36,8.46,10.24,14.06,16.65s10.77,12.14,14.54,16.24c1.89,2.06,3.44,3.7,4.51,4.83.53.57,1,1,1.25,1.29A2.74,2.74,0,0,1,274.47,470.61Z" style="fill:#263238"></path><path d="M266.43,470.53a2.41,2.41,0,0,1-.44-.35c-.28-.24-.69-.59-1.19-1.07-1-1-2.45-2.37-4.19-4.15-3.47-3.57-8.16-8.59-13.21-14.26s-9.46-10.95-12.49-14.9c-1.51-2-2.66-3.64-3.41-4.81a15.92,15.92,0,0,1-.78-1.41,2.66,2.66,0,0,1-.24-.51c.05,0,.43.65,1.19,1.8s2,2.76,3.53,4.7c3.1,3.88,7.56,9.11,12.59,14.78s9.69,10.73,13.09,14.35c1.7,1.82,3.09,3.27,4.06,4.26l1.12,1.15A2.7,2.7,0,0,1,266.43,470.53Z" style="fill:#263238"></path><path d="M268.32,414.81a8.58,8.58,0,0,1-.1,1.48c-.09.95-.27,2.32-.54,4a107.47,107.47,0,0,1-2.93,13,106.38,106.38,0,0,1-4.52,12.55c-.68,1.57-1.26,2.82-1.7,3.67a8,8,0,0,1-.71,1.31,8.48,8.48,0,0,1,.53-1.39c.37-.88.9-2.15,1.54-3.73,1.28-3.16,2.9-7.57,4.36-12.56s2.45-9.59,3.07-12.93c.31-1.68.54-3,.7-4A7.49,7.49,0,0,1,268.32,414.81Z" style="fill:#263238"></path><path d="M252.78,445.3a5.56,5.56,0,0,1,.45-1.12c.32-.71.78-1.74,1.32-3a88.75,88.75,0,0,0,6-20.79c.22-1.37.38-2.48.48-3.26a5.32,5.32,0,0,1,.22-1.19,5,5,0,0,1,0,1.22c0,.77-.14,1.9-.32,3.28a71,71,0,0,1-2.21,10.67,71.91,71.91,0,0,1-3.79,10.22c-.58,1.26-1.09,2.27-1.47,2.95A4.93,4.93,0,0,1,252.78,445.3Z" style="fill:#263238"></path><path d="M249.09,441.82c-.08,0,.49-1.25,1.28-3.27a54.8,54.8,0,0,0,3.71-16.42c.16-2.16.16-3.51.25-3.51a3.66,3.66,0,0,1,.1.94c0,.61,0,1.5,0,2.59a45.47,45.47,0,0,1-1.08,8.45,44.74,44.74,0,0,1-2.66,8.09c-.44,1-.82,1.79-1.12,2.33A3.65,3.65,0,0,1,249.09,441.82Z" style="fill:#263238"></path><path d="M244.06,436.13a19.84,19.84,0,0,1,.74-2.51,52.3,52.3,0,0,0,1.48-6.1,49.55,49.55,0,0,0,.67-6.24,19.44,19.44,0,0,1,.15-2.61,9.79,9.79,0,0,1,.22,2.62,36,36,0,0,1-.53,6.32,35.44,35.44,0,0,1-1.64,6.13A10.14,10.14,0,0,1,244.06,436.13Z" style="fill:#263238"></path><path d="M233.2,461.51a17.22,17.22,0,0,1,.11-3.26c.17-2,.52-4.78,1.09-7.8a76.26,76.26,0,0,1,1.87-7.65,17.5,17.5,0,0,1,1.09-3.08,23.4,23.4,0,0,1-.74,3.18c-.49,1.94-1.13,4.64-1.7,7.65s-1,5.75-1.24,7.74A26,26,0,0,1,233.2,461.51Z" style="fill:#263238"></path><path d="M236.66,467.2a2.76,2.76,0,0,1,0-.93c.06-.59.16-1.44.31-2.5.3-2.1.8-5,1.49-8.18s1.44-6,2-8.06c.31-1,.56-1.84.76-2.4a3.61,3.61,0,0,1,.35-.86,23.69,23.69,0,0,1-.75,3.36c-.51,2.06-1.21,4.91-1.9,8.07s-1.24,6.05-1.63,8.13A27.33,27.33,0,0,1,236.66,467.2Z" style="fill:#263238"></path><path d="M240.47,470a18.53,18.53,0,0,1,.66-3c.47-1.87,1.15-4.43,1.93-7.26s1.53-5.37,2.09-7.21a18.4,18.4,0,0,1,1-2.95,19,19,0,0,1-.66,3c-.47,1.86-1.15,4.43-1.94,7.26s-1.52,5.38-2.08,7.22A17.55,17.55,0,0,1,240.47,470Z" style="fill:#263238"></path><path d="M247.16,469.64a55,55,0,0,1,2-7.17,53.59,53.59,0,0,1,2.47-7,53.19,53.19,0,0,1-2,7.17A51.9,51.9,0,0,1,247.16,469.64Z" style="fill:#263238"></path><path d="M252.14,470.85a25.14,25.14,0,0,1,1.49-5,25.52,25.52,0,0,1,2-4.78,26,26,0,0,1-1.49,4.95A26.74,26.74,0,0,1,252.14,470.85Z" style="fill:#263238"></path><path d="M275.06,467.38a2.6,2.6,0,0,1,0-.55c0-.41.07-.93.11-1.55.11-1.35.24-3.3.35-5.71a146.91,146.91,0,0,0-.38-18.85,145.23,145.23,0,0,0-2.89-18.63c-.52-2.35-1-4.26-1.33-5.56l-.37-1.51a2.2,2.2,0,0,1-.1-.54,2.19,2.19,0,0,1,.2.51c.12.39.28.88.47,1.48.4,1.3.92,3.19,1.49,5.54a126.41,126.41,0,0,1,3.28,37.58c-.16,2.41-.34,4.36-.52,5.71-.08.62-.15,1.13-.2,1.54A2,2,0,0,1,275.06,467.38Z" style="fill:#263238"></path><path d="M270.39,463.81a11.59,11.59,0,0,1,.12-1.69c.12-1.08.26-2.65.39-4.59a110.32,110.32,0,0,0-2-30.19c-.39-1.9-.73-3.44-1-4.49a10.53,10.53,0,0,1-.33-1.66,11.3,11.3,0,0,1,.53,1.6c.32,1,.71,2.58,1.15,4.48a96.79,96.79,0,0,1,2,30.29c-.18,1.95-.38,3.51-.56,4.59A9.56,9.56,0,0,1,270.39,463.81Z" style="fill:#263238"></path><path d="M310.86,432.26a8.39,8.39,0,0,1-1.32.45l-3.62,1.08c-3.06.9-7.29,2.14-11.94,3.58s-8.84,2.8-11.88,3.79l-3.6,1.16a5.93,5.93,0,0,1-1.34.36,7.69,7.69,0,0,1,1.28-.55c.83-.33,2-.78,3.54-1.32,3-1.08,7.19-2.49,11.85-3.93s8.9-2.64,12-3.45c1.54-.4,2.8-.71,3.67-.91A6.65,6.65,0,0,1,310.86,432.26Z" style="fill:#263238"></path><path d="M311.25,436.64a9.16,9.16,0,0,1-1.36.46l-3.73,1.1c-3.16.93-7.51,2.21-12.31,3.69s-9.11,2.9-12.23,3.92l-3.7,1.21a7.73,7.73,0,0,1-1.38.38,6.86,6.86,0,0,1,1.31-.57c.85-.34,2.1-.81,3.65-1.36,3.1-1.12,7.4-2.58,12.2-4.07s9.18-2.72,12.36-3.55c1.59-.42,2.88-.74,3.78-.94A6.78,6.78,0,0,1,311.25,436.64Z" style="fill:#263238"></path><path d="M281.55,441.51c-.08,0-.17-1.53-.42-4a86.26,86.26,0,0,0-1.55-9.53,84.92,84.92,0,0,0-2.66-9.28c-.81-2.34-1.39-3.76-1.31-3.79a4.27,4.27,0,0,1,.51.95c.3.63.69,1.55,1.15,2.71a65.92,65.92,0,0,1,2.82,9.3,65.11,65.11,0,0,1,1.4,9.61c.09,1.24.12,2.24.12,2.94A3.88,3.88,0,0,1,281.55,441.51Z" style="fill:#263238"></path><path d="M286,440.34a38,38,0,0,1-.51-3.84c-.29-2.38-.75-5.64-1.44-9.22s-1.51-6.78-2.13-9.09a38.28,38.28,0,0,1-1-3.75,3.88,3.88,0,0,1,.42,1c.24.63.55,1.55.91,2.69a85.48,85.48,0,0,1,2.29,9.09,88.21,88.21,0,0,1,1.3,9.28c.09,1.19.15,2.16.16,2.83A4.54,4.54,0,0,1,286,440.34Z" style="fill:#263238"></path><path d="M280.9,465.44a18,18,0,0,1,.42-2.76c.3-1.69.69-4,1-6.63s.56-5,.71-6.67a15.69,15.69,0,0,1,.31-2.77,13.94,13.94,0,0,1,.06,2.79c-.06,1.73-.22,4.11-.57,6.72s-.8,4.95-1.19,6.63A13.47,13.47,0,0,1,280.9,465.44Z" style="fill:#263238"></path><path d="M284.41,467.34c-.07,0,.36-1.2.94-3.11a60.83,60.83,0,0,0,1.82-7.6,60,60,0,0,0,.79-7.77,32,32,0,0,1,.14-3.24,2.69,2.69,0,0,1,.13.87c.06.56.09,1.37.1,2.38a45.95,45.95,0,0,1-2.63,15.47c-.34,1-.64,1.71-.88,2.22A2.77,2.77,0,0,1,284.41,467.34Z" style="fill:#263238"></path><path d="M302.36,462.1a10.73,10.73,0,0,1-1.93-1.2c-1.16-.77-2.76-1.84-4.56-3s-3.46-2.09-4.67-2.79a11.54,11.54,0,0,1-1.92-1.2,9,9,0,0,1,2.1.88c1.25.61,2.95,1.54,4.77,2.67s3.39,2.25,4.5,3.1A9.12,9.12,0,0,1,302.36,462.1Z" style="fill:#263238"></path><path d="M304.15,460.43a19,19,0,0,1-2.1-1.88c-1.26-1.18-3-2.79-5.07-4.48s-4-3.12-5.35-4.14a18.89,18.89,0,0,1-2.24-1.71,12.61,12.61,0,0,1,2.45,1.41,58.53,58.53,0,0,1,5.47,4,60.31,60.31,0,0,1,5,4.62A12.59,12.59,0,0,1,304.15,460.43Z" style="fill:#263238"></path><path d="M307.07,456.28c-.08,0-.64-.95-1.71-2.44a33.7,33.7,0,0,0-4.72-5.33,34.39,34.39,0,0,0-5.76-4.19c-1.59-.92-2.63-1.39-2.6-1.47a2.79,2.79,0,0,1,.78.24,19.85,19.85,0,0,1,2,.9,28.53,28.53,0,0,1,5.94,4.13,28,28,0,0,1,4.68,5.51,17.71,17.71,0,0,1,1.09,1.9A2.5,2.5,0,0,1,307.07,456.28Z" style="fill:#263238"></path><path d="M310.13,450.93c-.14.07-1.6-2.8-4.16-5.79s-5.12-4.93-5-5.06a6.82,6.82,0,0,1,1.76,1.17,25.61,25.61,0,0,1,3.66,3.55,26.09,26.09,0,0,1,2.9,4.19A6.74,6.74,0,0,1,310.13,450.93Z" style="fill:#263238"></path><path d="M312.9,446.85c-.14,0-.9-1.69-2.16-3.64s-2.5-3.37-2.39-3.48a13.82,13.82,0,0,1,4.55,7.12Z" style="fill:#263238"></path><path d="M306.42,428.75a15.48,15.48,0,0,1-2.83,1c-1.77.54-4.23,1.23-7,1.89s-5.25,1.17-7.07,1.49a15.67,15.67,0,0,1-3,.39,19,19,0,0,1,2.9-.75l7-1.64,7-1.73A19.08,19.08,0,0,1,306.42,428.75Z" style="fill:#263238"></path><path d="M305.89,423.94a91.55,91.55,0,0,1-9.37,2.73,93.81,93.81,0,0,1-9.51,2.22,91.55,91.55,0,0,1,9.37-2.73A90,90,0,0,1,305.89,423.94Z" style="fill:#263238"></path><g style="opacity:0.30000000000000004"><path d="M269.9,466a283.05,283.05,0,0,1-2.21-43.74c4.6,13.71,6,29.77,2.21,43.74"></path></g><g style="opacity:0.30000000000000004"><path d="M231.65,431.26c2.54,5.18,6.4,12.67,10.16,17A123.34,123.34,0,0,0,263.9,468l-22.26-24.34-10-12.43"></path></g><g style="opacity:0.30000000000000004"><path d="M284.48,467.77c5.74-7.93,8.15-18.61,3.57-24.58,1.32,7.74-.56,17.32-3.57,24.58"></path></g><path d="M282.83,110a50.2,50.2,0,0,0-27.56-15.34l-47,7.52L195.71,110c-1-2.75-1.71-4.46-1.71-4.46-4.61-3-17.17-9-27.35,1.88-3.67,3.94-6.37,14.14-6.18,19.37.07,2,.4,4.39-1.32,5.55a6.5,6.5,0,0,1-2.06.74c-11.91,3-19.79,15.79-16.53,26.92a5.59,5.59,0,0,1,.37,2.24c-.14,1.18-1.12,2.11-2,3a18.48,18.48,0,0,0-2.16,21.85c1.29,2.09,3,4,3.56,6.38,1,4.22-2.16,8.15-4.55,11.82-7.15,11-8,26.65,1.6,36,2.33,2.28,5.28,4.27,6.27,7.28a17.09,17.09,0,0,1,.5,4.57c.35,7.78,5.21,16.3,13.43,17.6,4.57.72,10-.69,13.37,2.27,1.48,1.3,2.17,3.16,3.15,4.81,3.75,6.29,12.65,9.43,19.87,7s11.93-10.1,10.48-17.16c8.74-3.39,14.54-12.4,13.65-21.21,0,0-5.16-27.17-2.92-34.69s-3.88-23-7.3-30.57-.78-25.48-.35-32.59a23.61,23.61,0,0,0-1-6h0v0c-.42-1.71-1-3.63-1.58-5.69a54.29,54.29,0,0,1-.47-5.69c-.24-6.7,6.71-11.8,13.62-9.95a18.48,18.48,0,0,0,19.41-6.43,27.6,27.6,0,0,0,26.14,5.52c3.91,4.61,7.88,9.28,12.93,12.78s11.43,5.76,17.63,4.85A44.36,44.36,0,0,0,282.83,110Z" style="fill:#263238"></path><path d="M278.28,119.38c-.08,0,0-1.06-.25-2.93a18.31,18.31,0,0,0-2.79-7.5,17.35,17.35,0,0,0-9.42-7.25,18.55,18.55,0,0,0-14.68,1.57l-.33.2-.26-.29a27.25,27.25,0,0,0-6.72-5.26,27.75,27.75,0,0,0-17.78-3.13,27,27,0,0,0-13.35,6.42,28.32,28.32,0,0,0-6.23,7.89c-1.1,2.12-1.5,3.4-1.59,3.37a3.59,3.59,0,0,1,.24-.94,20.36,20.36,0,0,1,1-2.59,27.43,27.43,0,0,1,19.77-15,28.43,28.43,0,0,1,18.4,3.17,27.77,27.77,0,0,1,6.95,5.47l-.59-.09a19.23,19.23,0,0,1,15.41-1.54,18.11,18.11,0,0,1,12.3,15.48,12.65,12.65,0,0,1,0,2.21A2.46,2.46,0,0,1,278.28,119.38Z" style="fill:#455a64"></path><path d="M143.39,164.28c0-.23,4.47,0,11.28-1.95a44.83,44.83,0,0,0,22.48-15l1-1.29.14-.18.22,0a25.23,25.23,0,0,0,13.27-5.15,27.07,27.07,0,0,0,7.57-8.81c3.15-5.93,2.81-10.29,3.08-10.22a2.58,2.58,0,0,1,0,.75,16.72,16.72,0,0,1-.14,2.16,23.11,23.11,0,0,1-2.39,7.61,26.92,26.92,0,0,1-7.62,9.19,25.86,25.86,0,0,1-13.75,5.42l.36-.2-1,1.32a42.55,42.55,0,0,1-11.5,10.09A43.66,43.66,0,0,1,154.86,163a40.24,40.24,0,0,1-8.37,1.35c-1,.07-1.78,0-2.3,0A2.74,2.74,0,0,1,143.39,164.28Z" style="fill:#455a64"></path><path d="M150.06,246.25a14.66,14.66,0,0,0,1.73,1.25,10,10,0,0,0,2.39.95,10.41,10.41,0,0,0,3.47.21,9.3,9.3,0,0,0,4.08-1.38,8.45,8.45,0,0,0,1.87-1.59,8,8,0,0,0,1.37-2.26,9.9,9.9,0,0,0,.44-5.77,9.18,9.18,0,0,0-3.44-5.39l-.52-.36h.64a19.46,19.46,0,0,0,9.8-2.85,26.36,26.36,0,0,0,8.11-8c.58-.82,1-1.73,1.55-2.61s.93-1.83,1.28-2.81a28.42,28.42,0,0,0,1.72-6.07,46.38,46.38,0,0,0,.28-13.18,130,130,0,0,0-4.1-19.29l0-.17.14-.11A48.23,48.23,0,0,0,196,159.41a52,52,0,0,0,3.76-9.2c.37-1.5.85-2.92,1.07-4.34.13-.7.26-1.39.39-2.06s.17-1.33.26-2a48.25,48.25,0,0,0,0-12.18c-.14-1.42-.43-2.49-.54-3.23-.06-.34-.11-.62-.14-.83s0-.29,0-.29a43.05,43.05,0,0,1,.9,4.33,47,47,0,0,1,.18,12.24c-.08.65-.12,1.32-.24,2s-.26,1.36-.39,2.07c-.21,1.43-.68,2.86-1,4.38a51.36,51.36,0,0,1-3.73,9.29,48.55,48.55,0,0,1-15.3,17.6l.1-.27a130.74,130.74,0,0,1,4.13,19.37,46.65,46.65,0,0,1-.29,13.32,29.38,29.38,0,0,1-1.76,6.17c-.36,1-.87,1.92-1.31,2.85s-1,1.82-1.58,2.65a26.74,26.74,0,0,1-8.28,8.14,19.83,19.83,0,0,1-10,2.87l.12-.37a9.51,9.51,0,0,1,3.56,5.64,10.23,10.23,0,0,1-.49,6,8.76,8.76,0,0,1-1.44,2.34,8.54,8.54,0,0,1-2,1.63,9.64,9.64,0,0,1-4.21,1.37,10.37,10.37,0,0,1-3.53-.27,9.7,9.7,0,0,1-2.41-1,7.25,7.25,0,0,1-1.28-1Z" style="fill:#455a64"></path><path d="M328.57,238.54c-1.95-8.14-9.39-14.24-17.53-16.18s-16.79-.22-24.48,3.09l-18.39,9.66c.37,7.46.86,15.3,4.86,21.61s12.78,10.25,19.19,6.42c-2,5.51,2.11,11.95,7.69,13.73s11.85-.37,16.25-4.24,7.2-9.22,9.44-14.63C328.15,251.84,330.13,245,328.57,238.54Z" style="fill:#263238"></path><path d="M311.32,262.9a1.39,1.39,0,0,1,.29-.2l.85-.55a14.64,14.64,0,0,0,1.36-.93c.53-.39,1.15-.82,1.79-1.39A32.41,32.41,0,0,0,327,238.62a29.42,29.42,0,0,0-1.07-11.6,32.18,32.18,0,0,0-6.16-11.47A31,31,0,0,0,308.55,207l-.33-.15.26-.26a29.06,29.06,0,0,0,7.81-14.79,27.25,27.25,0,0,0,.57-5.53,26.54,26.54,0,0,0-.49-5.44,26,26,0,0,0-1.53-5.13,27.32,27.32,0,0,0-2.42-4.65,29.14,29.14,0,0,0-15-11.86l-.24-.08.11-.24A26.31,26.31,0,0,0,299,141a25.48,25.48,0,0,0-7.12-12,26.34,26.34,0,0,0-7.55-5.08c-1-.42-1.73-.72-2.25-.88l-.58-.21a1.08,1.08,0,0,1-.2-.08,19.4,19.4,0,0,1,3.09,1,26.07,26.07,0,0,1,7.67,5,25.63,25.63,0,0,1,7.3,12.11,26.55,26.55,0,0,1-1.64,18.12l-.13-.31a29.59,29.59,0,0,1,15.25,12,28.16,28.16,0,0,1,2.46,4.72,26.52,26.52,0,0,1,1.56,5.23,26.15,26.15,0,0,1,.51,5.54,28.24,28.24,0,0,1-.58,5.63,29.51,29.51,0,0,1-8,15.05l-.08-.42a31.66,31.66,0,0,1,11.38,8.73,32.74,32.74,0,0,1,6.21,11.65,29.93,29.93,0,0,1,1,11.78,32.55,32.55,0,0,1-2.78,9.82A32.08,32.08,0,0,1,315.72,260a21.89,21.89,0,0,1-1.82,1.36,13.61,13.61,0,0,1-1.39.9l-.88.51Z" style="fill:#455a64"></path></g><g id="freepik--speech-bubble--inject-186"><circle cx="401.4" cy="113.8" r="43.35" transform="translate(-13.1 66.22) rotate(-9.28)" style="fill:#fff"></circle><path d="M358.05,113.8s0-.23,0-.7,0-1.17.07-2.06c0-.46.05-1,.07-1.52s.16-1.17.25-1.82.2-1.37.31-2.13a22.87,22.87,0,0,1,.55-2.38,41.07,41.07,0,0,1,4.74-11.6,43.11,43.11,0,0,1,11-12.39l1.87-1.41c.66-.44,1.36-.84,2.05-1.26s1.36-.89,2.12-1.24l2.25-1.09,1.15-.55,1.21-.44,2.45-.9c.83-.28,1.7-.46,2.56-.7a23,23,0,0,1,2.64-.6,39.73,39.73,0,0,1,5.5-.65c.94,0,1.89-.13,2.84-.12l2.89.15c.48,0,1,0,1.45.09l1.46.22c1,.16,1.95.27,2.93.47a48,48,0,0,1,5.82,1.69,47.29,47.29,0,0,1,5.68,2.49c.93.5,1.81,1.08,2.72,1.62.45.29.92.53,1.35.85l1.28,1a47.81,47.81,0,0,1,5,4.2l2.22,2.44L435,86l.5.66,1,1.34,1,1.34.87,1.43.88,1.45.44.72.38.76c.49,1,1,2,1.48,3.08s.79,2.15,1.18,3.23A46.6,46.6,0,0,1,445,113.8a46.92,46.92,0,0,1-2.25,13.76c-.4,1.08-.8,2.16-1.19,3.23s-1,2.06-1.48,3.08l-.37.76-.44.72-.88,1.45-.88,1.43-1,1.34-1,1.34-.51.66-.55.62c-.75.81-1.49,1.63-2.22,2.43a48.69,48.69,0,0,1-4.95,4.2l-1.29,1a14.56,14.56,0,0,1-1.35.85c-.91.54-1.79,1.12-2.71,1.62a45.05,45.05,0,0,1-5.69,2.49,46.33,46.33,0,0,1-5.82,1.7c-1,.2-2,.31-2.93.47l-1.46.22c-.48.06-1,.06-1.45.09l-2.89.14c-.95,0-1.9-.08-2.84-.11a41.47,41.47,0,0,1-5.51-.65,23.34,23.34,0,0,1-2.63-.61c-.86-.23-1.73-.41-2.56-.69l-2.45-.9L384.5,154l-1.15-.55-2.26-1.09c-.75-.34-1.41-.83-2.12-1.23s-1.38-.83-2-1.27l-1.88-1.41a43.09,43.09,0,0,1-11-12.39,41.42,41.42,0,0,1-4.75-11.6c-.18-.84-.46-1.62-.54-2.38s-.21-1.46-.31-2.12-.2-1.26-.25-1.82-.05-1.07-.07-1.52c0-.9-.06-1.58-.07-2.06s0-.71,0-.71,0,.24.06.7.07,1.17.13,2.06c0,.46.06,1,.09,1.52s.18,1.15.27,1.81.22,1.36.34,2.11a24.17,24.17,0,0,0,.56,2.36,41.19,41.19,0,0,0,4.8,11.5,42.91,42.91,0,0,0,11,12.25l1.86,1.39c.66.43,1.35.83,2,1.25s1.36.87,2.11,1.21l2.24,1.08,1.14.54,1.19.43,2.43.89c.83.27,1.69.45,2.54.68a21,21,0,0,0,2.61.59,40.71,40.71,0,0,0,5.46.63c.93,0,1.86.13,2.81.11l2.85-.15c.48,0,1,0,1.44-.09l1.44-.22c1-.16,1.94-.27,2.9-.47a46,46,0,0,0,5.75-1.69,44.21,44.21,0,0,0,5.62-2.47c.91-.49,1.79-1.07,2.69-1.6.44-.29.91-.53,1.33-.84l1.27-1a47.72,47.72,0,0,0,4.89-4.15l2.19-2.42.55-.6.5-.66,1-1.32,1-1.32.86-1.42.87-1.43.43-.72.37-.75,1.47-3c.38-1.06.77-2.13,1.16-3.19a46.22,46.22,0,0,0,2.23-13.6,46.17,46.17,0,0,0-2.23-13.6L441.09,97c-.49-1-1-2-1.46-3l-.37-.75-.43-.72L438,91.07l-.87-1.41-1-1.33-1-1.32-.49-.65-.55-.61-2.19-2.41A48.92,48.92,0,0,0,427,79.18l-1.27-1c-.42-.32-.89-.56-1.33-.84-.9-.54-1.78-1.11-2.69-1.6a44.27,44.27,0,0,0-5.62-2.48,45.92,45.92,0,0,0-5.75-1.68c-1-.2-1.94-.31-2.9-.47L406,70.94c-.47-.07-1-.06-1.44-.1l-2.85-.14c-.94,0-1.88.07-2.81.1a40.38,40.38,0,0,0-5.45.63,22.48,22.48,0,0,0-2.61.6c-.86.23-1.72.4-2.55.68l-2.42.88-1.2.44-1.14.54-2.24,1.07a24,24,0,0,0-2.1,1.22c-.69.42-1.38.81-2,1.24l-1.87,1.39a43,43,0,0,0-11,12.25,41.32,41.32,0,0,0-4.8,11.5c-.19.84-.47,1.61-.56,2.37s-.23,1.45-.34,2.11-.21,1.25-.27,1.81-.06,1.06-.09,1.51c-.06.9-.1,1.58-.13,2.06S358.05,113.8,358.05,113.8Z" style="fill:#263238"></path><path d="M341.56,141.05a7.05,7.05,0,1,0,7.05-7.05A7.05,7.05,0,0,0,341.56,141.05Z" style="fill:#fff"></path><path d="M341.56,141.05a1.34,1.34,0,0,1,0-.45,6.25,6.25,0,0,1,.15-1.3,7.07,7.07,0,0,1,2.55-4,7.17,7.17,0,0,1,3-1.39,7.3,7.3,0,0,1,3.82.29,7.28,7.28,0,0,1,0,13.7,7.42,7.42,0,0,1-3.82.29,7.29,7.29,0,0,1-3-1.39,7.07,7.07,0,0,1-2.55-4,6.25,6.25,0,0,1-.15-1.3,1.29,1.29,0,0,1,0-.45c.06,0,0,.63.32,1.7a7.1,7.1,0,0,0,2.58,3.76,6.86,6.86,0,0,0,2.89,1.25,6.85,6.85,0,0,0,8-6.71,6.81,6.81,0,0,0-1.32-4,6.87,6.87,0,0,0-6.73-2.69,6.86,6.86,0,0,0-2.89,1.25,7.1,7.1,0,0,0-2.58,3.76C341.59,140.42,341.62,141.05,341.56,141.05Z" style="fill:#263238"></path><path d="M382,112.17a11.1,11.1,0,0,1,2.37-6.24,10.76,10.76,0,0,1,5.29-3.85,8.64,8.64,0,0,1,9.81,3.69,8.58,8.58,0,0,1,2.34-3,8.77,8.77,0,0,1,6.62-1.85,10.63,10.63,0,0,1,5.81,3,11,11,0,0,1,3.32,5.79,13.49,13.49,0,0,1-1,8.43,19.2,19.2,0,0,1-6.09,6.68c-4.1,2.92-9.5,6.6-9.5,6.6s-5.06-3.2-9.56-5.45a19.08,19.08,0,0,1-7.05-5.65A13.48,13.48,0,0,1,382,112.17Z" style="fill:#A5DD9B"></path></g><g id="freepik--Plant--inject-186"><path d="M420,424.24s-6.84-47-6.27-74.34,0-58.1,0-58.1h3.15s-2.13,54.27.19,87,8.43,45.44,8.43,45.44H420" style="fill:#263238"></path><path d="M440.34,238.93a8.3,8.3,0,0,0-2.87-4.21c-2-1.26-4.62-.74-6.85.05-9.52,3.37-17.95,21.11-21.8,30.45l12.64,42.57C444.26,286.63,448.21,258.88,440.34,238.93Z" style="fill:#455a64"></path><path d="M436.73,236.45a2.73,2.73,0,0,1-.18.55l-.62,1.55c-.55,1.34-1.33,3.29-2.26,5.71-1.86,4.83-4.23,11.59-6.35,19.21s-3.56,14.63-4.46,19.73c-.45,2.55-.79,4.62-1,6.06-.11.66-.19,1.21-.27,1.64a2.69,2.69,0,0,1-.12.57,2.32,2.32,0,0,1,0-.58c0-.44.1-1,.17-1.66.16-1.45.44-3.53.85-6.09a181.11,181.11,0,0,1,10.83-39c1-2.4,1.8-4.33,2.41-5.65.29-.61.53-1.11.71-1.51A2.34,2.34,0,0,1,436.73,236.45Z" style="fill:#263238"></path><path d="M415.84,318C404,311.45,397,299.14,396.37,285.63c-.46-9.45,2.44-18.72,5.73-27.59a3.58,3.58,0,0,1,1.34-2c1-.57,2.24-.06,3.23.5,8.6,4.9,13.82,14.24,16.59,23.75a48,48,0,0,1,1.95,19.53A32.48,32.48,0,0,1,415.84,318" style="fill:#455a64"></path><path d="M415.84,318a2.76,2.76,0,0,1,0-.58c0-.43,0-1,0-1.63,0-1.42-.06-3.47-.17-6a166.33,166.33,0,0,0-2.2-19.67c-1.32-7.62-2.91-14.45-4.09-19.39-.58-2.41-1.05-4.39-1.4-5.84-.15-.65-.27-1.17-.36-1.59a3.26,3.26,0,0,1-.1-.57,2.1,2.1,0,0,1,.2.54l.46,1.57c.39,1.36.93,3.35,1.56,5.8,1.27,4.92,2.92,11.75,4.24,19.39A143.25,143.25,0,0,1,416,309.77c.07,2.54.07,4.6,0,6,0,.66-.05,1.2-.07,1.64A2.18,2.18,0,0,1,415.84,318Z" style="fill:#263238"></path><g style="opacity:0.30000000000000004"><path d="M415.84,318C404,311.45,397,299.14,396.37,285.63c-.46-9.45,2.44-18.72,5.73-27.59a3.58,3.58,0,0,1,1.34-2c1-.57,2.24-.06,3.23.5,8.6,4.9,13.82,14.24,16.59,23.75a48,48,0,0,1,1.95,19.53A32.48,32.48,0,0,1,415.84,318"></path></g><path d="M429.2,389.9c11.66,2.56,21.25,10.78,32.5,14.78,7.44,2.64,15.85,3.58,21.79,8.78-1.42-3.6-4.8-6-8.09-8A145,145,0,0,0,446,391.35c-5.29-1.82-11-3.35-16.42-1.85" style="fill:#455a64"></path><path d="M412.35,400.28c-14.6-.23-30-12.66-44.5-13.4,15.21-4.91,37-.9,44.5,13.4" style="fill:#455a64"></path><path d="M418.05,365.27c7.42-2.68,15.55-2.8,23.34-1.59s15.3,3.7,22.78,6.19c-.75-5.07-4.85-8.87-8.7-12.24a61,61,0,0,0-9.15-7,20.43,20.43,0,0,0-11-3.09,17.34,17.34,0,0,0-12.11,6.1,20.14,20.14,0,0,0-5.19,11.67" style="fill:#455a64"></path><path d="M388.09,349.15c-9.18-7.85-23.1-7.08-35.18-6.81,18.57,8.88,38.58,21.05,54.57,34C408,367.81,399.7,359.06,388.09,349.15Z" style="fill:#455a64"></path><g style="opacity:0.30000000000000004"><path d="M388.09,349.15c-9.18-7.85-23.1-7.08-35.18-6.81,18.57,8.88,38.58,21.05,54.57,34C408,367.81,399.7,359.06,388.09,349.15Z"></path></g><path d="M422.19,338.32a101.3,101.3,0,0,1,14.13-8.21c4.83-2.2,9.35-5.7,14-8.23,6.05-3.28,11.3-7.84,16.86-11.91s11.67-7.73,18.47-8.81a36.42,36.42,0,0,0-16.81,1A108.36,108.36,0,0,0,453,308.29c-7.17,3.23-14.46,6.53-20.32,11.78s-11.15,10.41-10.53,18.25" style="fill:#455a64"></path><path d="M461.43,400.28s-.17,0-.46-.2l-1.27-.66C458.6,398.84,457,398,455,397c-1-.52-2.07-1.06-3.26-1.62s-2.44-1.15-3.79-1.73a55.49,55.49,0,0,0-9-3.14,19.42,19.42,0,0,0-9.37-.23,26,26,0,0,0-4,1.18,20.9,20.9,0,0,0-3.21,1.65,20.58,20.58,0,0,0-4,3.32c-.85.91-1.26,1.46-1.3,1.43a2.29,2.29,0,0,1,.27-.42,11.28,11.28,0,0,1,.88-1.14,18.77,18.77,0,0,1,4-3.5A20.45,20.45,0,0,1,425.5,391a27.48,27.48,0,0,1,4-1.25,19.48,19.48,0,0,1,9.6.2,53.32,53.32,0,0,1,9.06,3.2c1.35.6,2.62,1.19,3.78,1.79s2.27,1.13,3.24,1.68c2,1,3.53,2,4.6,2.6L461,400A2.21,2.21,0,0,1,461.43,400.28Z" style="fill:#263238"></path><path d="M401.46,393.05a3,3,0,0,1,.92.27,18.88,18.88,0,0,1,2.37,1A28.74,28.74,0,0,1,417,406.07a20.17,20.17,0,0,1,1.13,2.33,3.32,3.32,0,0,1,.3.9c-.08,0-.63-1.2-1.75-3.05a33.14,33.14,0,0,0-5.26-6.58,33.66,33.66,0,0,0-6.79-5C402.68,393.63,401.43,393.13,401.46,393.05Z" style="fill:#263238"></path><path d="M369.17,348.42a2.63,2.63,0,0,1,.62.18l1.75.62,2.76,1c1.08.4,2.25,1,3.57,1.57a84.53,84.53,0,0,1,19,12.11,93.19,93.19,0,0,1,8.87,8.73,101.48,101.48,0,0,1,6.29,8c1.66,2.36,2.93,4.33,3.79,5.69l1,1.56a2.14,2.14,0,0,1,.32.57,4.43,4.43,0,0,1-.41-.51c-.25-.34-.62-.85-1.08-1.51-.92-1.33-2.22-3.26-3.92-5.59s-3.84-5-6.35-7.86a97.27,97.27,0,0,0-8.84-8.65,89,89,0,0,0-18.83-12.17c-1.3-.6-2.46-1.22-3.52-1.64l-2.72-1.1-1.72-.71A3.49,3.49,0,0,1,369.17,348.42Z" style="fill:#263238"></path><path d="M440,357.06a5.48,5.48,0,0,1-1.17-.15l-1.34-.25c-.52-.1-1.13-.1-1.79-.17a18.38,18.38,0,0,0-10,2,17.94,17.94,0,0,0-4.57,3.39,20.63,20.63,0,0,0-2.93,3.63,29.48,29.48,0,0,0-2,3.83,4,4,0,0,1,.3-1.14,16,16,0,0,1,1.39-2.89,20,20,0,0,1,2.91-3.77,17.65,17.65,0,0,1,4.66-3.51,17.86,17.86,0,0,1,10.31-1.89c.67.1,1.29.13,1.81.26l1.34.33A5.48,5.48,0,0,1,440,357.06Z" style="fill:#263238"></path><path d="M454.63,311.55a5.23,5.23,0,0,1-.56.34l-1.63.88c-1.41.77-3.45,1.89-5.93,3.35s-5.36,3.29-8.45,5.5a71.35,71.35,0,0,0-9.44,7.91,23.69,23.69,0,0,0-3.86,5c-1,1.84-1.87,3.61-2.71,5.32a95.11,95.11,0,0,0-4.06,9.23,54.85,54.85,0,0,0-2,6.5c-.38,1.56-.51,2.44-.56,2.44a2.62,2.62,0,0,1,.06-.65c.05-.42.14-1,.3-1.83a48.81,48.81,0,0,1,1.82-6.59,89.86,89.86,0,0,1,4-9.31q1.26-2.58,2.69-5.34a24.62,24.62,0,0,1,3.94-5.13,68.46,68.46,0,0,1,9.54-7.94c3.12-2.2,6.05-4,8.55-5.43s4.57-2.5,6-3.21l1.68-.8A2.76,2.76,0,0,1,454.63,311.55Z" style="fill:#263238"></path><path d="M413.69,355.75a7.06,7.06,0,0,1-.28-1.24c-.18-.9-.39-2-.64-3.37a86.2,86.2,0,0,0-6.93-21.45l-1.43-3.13a5.23,5.23,0,0,1-.46-1.17,6,6,0,0,1,.65,1.08c.38.72.93,1.76,1.57,3.06a72.2,72.2,0,0,1,7,21.55c.23,1.43.39,2.6.48,3.4A5.28,5.28,0,0,1,413.69,355.75Z" style="fill:#263238"></path><path d="M412.64,322.54a39.53,39.53,0,0,0-4.75-15.76,52,52,0,0,0-35.26-26.3l32.65,48.66,4.21,8.68C412.37,333.1,413,328.05,412.64,322.54Z" style="fill:#455a64"></path><rect x="383.56" y="418.42" width="75.91" height="13.45" style="fill:#A5DD9B"></rect><polygon points="389.23 429.21 395.69 470.95 446.08 470.95 453.8 429.21 389.23 429.21" style="fill:#A5DD9B"></polygon><path d="M459.42,431.89c0,.15-17.12.27-38.24.27s-38.24-.12-38.24-.27,17.12-.26,38.24-.26S459.42,431.75,459.42,431.89Z" style="fill:#263238"></path></g></svg>