<svg xmlns="http://www.w3.org/2000/svg" viewBox="0 0 500 500"><g id="freepik--background-simple--inject-127"><path d="M476.16,198A151.08,151.08,0,0,0,395.7,79.3,343.84,343.84,0,0,0,269.41,42.05C149.49,30.81,115.76,92.26,95.53,147.73S9.34,296.87,16.08,389.06c0,0,5.25,51,24.73,74.2H477s25.48-34.48-1.5-99.68,9-68.21,2.24-148.4C477.25,209.06,476.71,203.35,476.16,198Z" style="fill:#92E3A9"></path><path d="M476.16,198A151.08,151.08,0,0,0,395.7,79.3,343.84,343.84,0,0,0,269.41,42.05C149.49,30.81,115.76,92.26,95.53,147.73S9.34,296.87,16.08,389.06c0,0,5.25,51,24.73,74.2H477s25.48-34.48-1.5-99.68,9-68.21,2.24-148.4C477.25,209.06,476.71,203.35,476.16,198Z" style="fill:#fff;opacity:0.7000000000000001"></path></g><g id="freepik--Picture--inject-127"><rect x="47.56" y="51.04" width="81.69" height="112.42" style="fill:none;stroke:#263238;stroke-miterlimit:10"></rect><rect x="52.41" y="57.71" width="72" height="99.09" style="fill:none;stroke:#263238;stroke-miterlimit:10"></rect><rect x="69.94" y="81.84" width="36.94" height="50.83" style="fill:none;stroke:#263238;stroke-miterlimit:10"></rect></g><g id="freepik--Wall--inject-127"><line x1="36.32" y1="250.41" x2="483.76" y2="250.41" style="fill:none;stroke:#263238;stroke-miterlimit:10"></line><line x1="36.32" y1="259.4" x2="483.76" y2="259.4" style="fill:none;stroke:#263238;stroke-miterlimit:10"></line><line x1="36.32" y1="268.39" x2="483.76" y2="268.39" style="fill:none;stroke:#263238;stroke-miterlimit:10"></line><rect x="376.58" y="290.13" width="99.68" height="146.15" style="fill:none;stroke:#263238;stroke-miterlimit:10"></rect><rect x="263.41" y="290.13" width="99.68" height="146.15" style="fill:none;stroke:#263238;stroke-miterlimit:10"></rect><rect x="150.24" y="290.13" width="99.68" height="146.15" style="fill:none;stroke:#263238;stroke-miterlimit:10"></rect><rect x="37.07" y="290.13" width="99.68" height="146.15" style="fill:none;stroke:#263238;stroke-miterlimit:10"></rect></g><g id="freepik--Plant--inject-127"><path d="M72,307.21h0a.08.08,0,0,0,0-.1.09.09,0,0,0-.1,0,101.73,101.73,0,0,0-5.33,16.7,155.6,155.6,0,0,0-2.94,17.31l-.41,4.37c-.07.73-.15,1.46-.2,2.19l-.12,2.2c-.06,1.46-.15,2.92-.19,4.39l0,4.4,0,2.19c0,.74.08,1.47.13,2.2.11,1.46.2,2.92.33,4.38.28,2.91.72,5.81,1.17,8.7a.08.08,0,0,0,.08.06.08.08,0,0,0,.08-.07h0c0-1.46-.07-2.92-.11-4.38s-.17-2.91-.15-4.36,0-2.92,0-4.37l0-2.18,0-2.18,0-4.35.11-4.36.05-2.18c0-.72.08-1.45.12-2.17l.27-4.35A155,155,0,0,1,67.28,324,100.89,100.89,0,0,1,72,307.21Z" style="fill:#263238"></path><path d="M72.62,330a.09.09,0,0,0-.05-.1.07.07,0,0,0-.09.05A103.08,103.08,0,0,0,69.37,341a106.37,106.37,0,0,0-1.83,11.37c-.38,3.82-.81,7.63-.86,11.47a93.9,93.9,0,0,0,.41,11.49.07.07,0,0,0,.06.07.09.09,0,0,0,.09-.07c.44-3.82.71-7.62,1-11.43s.3-7.62.55-11.42a103,103,0,0,1,1.36-11.33A104.45,104.45,0,0,1,72.62,330Z" style="fill:#263238"></path><path d="M85.25,338a.08.08,0,0,0-.11,0,38.44,38.44,0,0,0-8.44,7.36,33.38,33.38,0,0,0-3.3,4.59l-.68,1.28-.53,1.33a11.31,11.31,0,0,0-.46,1.35c-.14.45-.29.91-.42,1.36a54.85,54.85,0,0,0-1.74,11.14A63.73,63.73,0,0,0,70,377.61a.07.07,0,0,0,.07.07.08.08,0,0,0,.08-.07l1-11.11a99.92,99.92,0,0,1,1.41-10.95c.1-.45.23-.88.34-1.33s.23-.88.39-1.3l.45-1.29.58-1.21a32.8,32.8,0,0,1,3-4.59,37.7,37.7,0,0,1,7.93-7.72h0A.08.08,0,0,0,85.25,338Z" style="fill:#263238"></path><path d="M79.14,352.27a12.31,12.31,0,0,0-3.84,4.62,27.19,27.19,0,0,0-2.15,5.65c-.15.49-.27,1-.38,1.47l-.35,1.48a27.43,27.43,0,0,0-.37,3c0,1,0,2,0,3a25.12,25.12,0,0,0,.39,3s0,.06.06.06a.08.08,0,0,0,.1-.06,28.14,28.14,0,0,0,.53-2.95c.15-1,.31-1.95.42-2.92s.27-1.94.35-2.91.21-2,.42-2.9a26.07,26.07,0,0,1,1.64-5.6,12.47,12.47,0,0,1,3.23-4.82h0a.07.07,0,0,0,0-.1A.08.08,0,0,0,79.14,352.27Z" style="fill:#263238"></path><path d="M61.43,363.4c-.42-4.93-1.23-9.82-2-14.7s-1.62-9.74-2.51-14.59S55,324.41,54,319.59a.08.08,0,1,0-.15,0q1.26,7.29,2.33,14.61t2.05,14.65c.6,4.89,1.07,9.79,1.69,14.68l1.8,14.67a.07.07,0,0,0,.07.07.07.07,0,0,0,.08-.07c.06-1.24.06-2.47.09-3.71s0-2.48-.07-3.72C61.82,368.33,61.61,365.86,61.43,363.4Z" style="fill:#263238"></path><path d="M58.47,363.32c-.26-1.95-.62-3.89-1-5.83l-.7-2.87c-.22-1-.44-1.93-.72-2.87a80.24,80.24,0,0,0-3.77-11.21l-.59-1.36L51,337.85c-.41-.89-.92-1.74-1.4-2.61a22,22,0,0,0-3.56-4.71.07.07,0,0,0-.1,0,.09.09,0,0,0,0,.11h0a21.8,21.8,0,0,1,3.26,4.83c.43.88.88,1.74,1.25,2.64l.58,1.34.51,1.37A81,81,0,0,1,54.86,352c.45,1.9.75,3.83,1.12,5.74l.46,2.89c.17,1,.37,1.92.51,2.88.31,1.93.66,3.85,1,5.78s.65,3.87,1.06,5.8a.07.07,0,0,0,.07.06.07.07,0,0,0,.08-.07q0-3-.14-5.91C58.91,367.24,58.68,365.29,58.47,363.32Z" style="fill:#263238"></path><path d="M54.39,363.58c-.91-2.59-2-5.12-3.12-7.61a67.78,67.78,0,0,0-3.93-7.2.08.08,0,0,0-.1,0,.08.08,0,0,0,0,.11,66.8,66.8,0,0,1,3.35,7.42c1,2.52,1.9,5.08,2.66,7.68s1.32,5.24,2,7.85,1.32,5.24,2.12,7.88a.09.09,0,0,0,.07.06.07.07,0,0,0,.08-.08,39.62,39.62,0,0,0-.76-8.2A51.47,51.47,0,0,0,54.39,363.58Z" style="fill:#263238"></path><path d="M54.22,372.19a17.62,17.62,0,0,0-2.17-4.55,18.68,18.68,0,0,0-3.16-3.92,14,14,0,0,0-2-1.52,8.23,8.23,0,0,0-2.28-1,.09.09,0,0,0-.09,0s0,.09,0,.1h0a11.2,11.2,0,0,1,3.78,2.94,17.88,17.88,0,0,1,2.64,4c.74,1.42,1.13,3,1.78,4.44.29.75.57,1.51.91,2.25a18.73,18.73,0,0,0,1,2.28h0a.08.08,0,0,0,.07.05.09.09,0,0,0,.08-.08,19.31,19.31,0,0,0-.1-2.52C54.59,373.83,54.42,373,54.22,372.19Z" style="fill:#263238"></path><path d="M54.53,326.65a14.06,14.06,0,0,1-10-10.57c-1.86-8.7,4.15-5-1.24-18.64s-4.14-16.78-2.28-20.72,2.9-2.69,4.56,2.49,7.66,13.26,9.94,28.38S54.53,326.65,54.53,326.65Z" style="fill:#92E3A9"></path><path d="M70.48,311.94s-5.39-1.86-5.6-12,3.94-8.08,4.56-20.72,1.45-21.55,3.73-21.75,8.29,6.21,10.36,20.3-2.69,23.41-6.84,27.55S70.48,311.94,70.48,311.94Z" style="fill:#92E3A9"></path><path d="M51.63,338.87s-1.25-7.46-3.73-11S40,321.26,36.5,314.43s-7.45-10.15-7.25-.42,4.56,14.71,10,18S51.63,338.87,51.63,338.87Z" style="fill:#92E3A9"></path><path d="M49.35,351.72a74.87,74.87,0,0,0-12.23-16.58c-7.25-7-13-10.56-11-7s4.56,3.31,8.08,9.53,2.49,10.77,7.46,14.29S49.35,351.72,49.35,351.72Z" style="fill:#92E3A9"></path><path d="M48.73,363.94c-.21-.62-.42-5.18-7.46-8.91s-13.67-2.28-12.85-.41,5.18,5,9.53,6.83A43.77,43.77,0,0,0,48.73,363.94Z" style="fill:#92E3A9"></path><path d="M70.06,339.29s-3.1-3.94-1.45-12.23,5.39-6.21,9.53-10.56,3.32-5,7.46-9.53,7.87-7,9.53-5.18-.83,7.66-3.32,11-6.42,5-8.28,9.11-1,10.78-5.8,13.88S70.06,339.29,70.06,339.29Z" style="fill:#92E3A9"></path><path d="M80.42,341.56s7.46-8.49,12.84-14.7,7.46-11,7.67-6.84,1.86,7.46-2.49,12.84S80.42,341.56,80.42,341.56Z" style="fill:#92E3A9"></path><path d="M76.48,355.24s-.2-3.32,11.61-11,16.78-9.12,15.53-6-6.42,6.21-12,11.81S76.48,355.24,76.48,355.24Z" style="fill:#92E3A9"></path><path d="M55,325.77s-2.77-14.87-5.67-25.43-4.77-17-4.77-17" style="fill:none;stroke:#263238;stroke-linecap:round;stroke-linejoin:round"></path><path d="M70,312.1s5-16.11,6.69-25.85-.21-17-1-21.33" style="fill:none;stroke:#263238;stroke-linecap:round;stroke-linejoin:round"></path><path d="M51,338.56a77.82,77.82,0,0,0-7.63-10.88c-4.56-5.38-8.08-8.28-10.15-13.46" style="fill:none;stroke:#263238;stroke-linecap:round;stroke-linejoin:round"></path><path d="M70.06,339.29s1.66-10,5.6-15.13,11.8-13.26,14.91-18.43" style="fill:none;stroke:#263238;stroke-linecap:round;stroke-linejoin:round"></path><path d="M48.24,363.71s-7-4.54-11.94-7" style="fill:none;stroke:#263238;stroke-linecap:round;stroke-linejoin:round"></path><path d="M88.15,405.47c-.46-12.57-14.43-21-14.43-21H52.31s-14,8.38-14.43,21,15.83,58.66,15.83,58.66H72.32S88.62,418,88.15,405.47Z" style="fill:#c7c7c7;stroke:#263238;stroke-linecap:round;stroke-linejoin:round"></path><polygon points="76.48 372.16 49.16 372.16 52.31 384.52 73.32 384.52 76.48 372.16" style="fill:#c7c7c7;stroke:#263238;stroke-linecap:round;stroke-linejoin:round"></polygon><line x1="43.46" y1="398.03" x2="63.77" y2="398.03" style="fill:none;stroke:#263238;stroke-linecap:round;stroke-linejoin:round"></line><line x1="71.84" y1="397.79" x2="69.64" y2="397.79" style="fill:none;stroke:#263238;stroke-linecap:round;stroke-linejoin:round"></line><line x1="77.23" y1="405.86" x2="58.14" y2="405.86" style="fill:none;stroke:#263238;stroke-linecap:round;stroke-linejoin:round"></line><line x1="49.58" y1="406.84" x2="53.01" y2="406.84" style="fill:none;stroke:#263238;stroke-linecap:round;stroke-linejoin:round"></line><line x1="53.98" y1="410.51" x2="72.58" y2="410.51" style="fill:none;stroke:#263238;stroke-linecap:round;stroke-linejoin:round"></line><line x1="44.2" y1="411.25" x2="47.87" y2="411.25" style="fill:none;stroke:#263238;stroke-linecap:round;stroke-linejoin:round"></line><line x1="78.94" y1="391.67" x2="69.64" y2="391.67" style="fill:none;stroke:#263238;stroke-linecap:round;stroke-linejoin:round"></line><line x1="58.39" y1="391.92" x2="63.04" y2="391.92" style="fill:none;stroke:#263238;stroke-linecap:round;stroke-linejoin:round"></line><line x1="47.87" y1="390.7" x2="55.45" y2="390.7" style="fill:none;stroke:#263238;stroke-linecap:round;stroke-linejoin:round"></line><line x1="71.6" y1="387.52" x2="58.63" y2="387.52" style="fill:none;stroke:#263238;stroke-linecap:round;stroke-linejoin:round"></line><line x1="83.34" y1="417.12" x2="75.27" y2="417.12" style="fill:none;stroke:#263238;stroke-linecap:round;stroke-linejoin:round"></line><line x1="51.54" y1="419.32" x2="57.65" y2="419.32" style="fill:none;stroke:#263238;stroke-linecap:round;stroke-linejoin:round"></line><line x1="67.93" y1="421.03" x2="55.94" y2="421.03" style="fill:none;stroke:#263238;stroke-linecap:round;stroke-linejoin:round"></line></g><g id="freepik--Floor--inject-127"><line x1="23.78" y1="464.13" x2="484.49" y2="464.13" style="fill:none;stroke:#263238;stroke-miterlimit:10"></line></g><g id="freepik--character-2--inject-127"><path d="M444.92,453.78,417.14,263.89l-3.45.51-1.14,16.46L438,454.78a2.05,2.05,0,0,1-2,2.35h-48.8v7H436a9.05,9.05,0,0,0,9-10.35Z" style="fill:#263238"></path><polygon points="294.2 95.74 269.28 458.54 400.63 458.54 425.13 95.74 294.2 95.74" style="fill:#fff;stroke:#263238;stroke-miterlimit:10"></polygon><path d="M386.08,118.27c-1.77-4.38-5-17.22-15-21.67H350c-6.19,1.84-12,5.05-15.83,9.26-8.37,9.31-5.72,27.93-5.72,27.93h5.43a310.18,310.18,0,0,0-13.06,29.48c-6.56,17.07-3.91,24,5.09,28.71s45.75,16,62.67,2.58,18.07-19.13,13.9-34.39S387.86,122.67,386.08,118.27Z" style="fill:#4c4c4c;stroke:#4c4c4c;stroke-miterlimit:10"></path><path d="M323.63,366.41a202.66,202.66,0,0,0-2.8,28c-.32,14.48,2.73,44.6,2.71,49.64,0,4.31-2.46,10.45-3.88,14.11h19.95c-.57-5.33-1.76-11.65-1.66-13.17.17-2.52,1.86-33,6.43-44.92s4.09-28.64,4.09-28.64l10.17-58.64L384.48,379s1.57,14.47,6.8,25.8c2.75,6,7.49,14.9,11.45,22.16L408.6,338V338c-1-13.53-11.89-53.5-11.89-53.5l-1.34-15.7-67.9-3.63s-12.12,12.09-12.6,33.8S323.63,366.41,323.63,366.41Z" style="fill:#fff;stroke:#4c4c4c;stroke-miterlimit:10"></path><path d="M339.61,458.17c-.57-5.33-1.76-11.65-1.66-13.17,0,0-2.81-6.55-7.33-5.8-3.62.6-6.29,4.9-7.2,6.58-.51,4.11-2.52,9.2-3.76,12.39Z" style="fill:#92E3A9;stroke:#4c4c4c;stroke-miterlimit:10"></path><path d="M408.6,338V338c-1-13.53-11.89-53.5-11.89-53.5l-1.34-15.7-67.9-3.63s-12.12,12.09-12.6,33.8,8.77,67.46,8.77,67.46a202.66,202.66,0,0,0-2.8,28c-.19,8.54.88,21.13,1.79,31.05a140.31,140.31,0,0,0,16.79.84c.93-8.9,2.48-19.71,5-26.23,4.57-12,4.09-28.64,4.09-28.64l10.17-58.64L384.48,379s1.57,14.47,6.8,25.8c2.76,6,7.49,14.9,11.45,22.16Z" style="fill:#4c4c4c;stroke:#4c4c4c;stroke-miterlimit:10"></path><path d="M358.64,312.8s2.21-14.47,2.27-20.14" style="fill:none;stroke:#4c4c4c;stroke-miterlimit:10"></path><line x1="360.51" y1="298.64" x2="370.37" y2="292.35" style="fill:none;stroke:#4c4c4c;stroke-miterlimit:10"></line><path d="M395.36,268.78l.28,5.46s-12.93,6.41-31.84,6.09-28.06-3.13-33.1-4.68-7.81-3.23-7.75-4.07a30.21,30.21,0,0,1,1.35-4.19s8.37,4.76,26.72,7.23S395.36,268.78,395.36,268.78Z" style="fill:#92E3A9;stroke:#4c4c4c;stroke-miterlimit:10"></path><path d="M401.79,174.19c-6.22-3.43-9.42-.81-14.9-.2s-13.82-1.42-13.82-1.42-18.34,0-19.66-1.41-7.57-4.43-15.73-3-32,27-34.18,29.23c-2,2-14.35,12.08-17.18,16.9l-.3,4.48c1.23,3.49,5.71,7.09,15.59,7.25,13.09.2,31.72-13.31,31.72-13.31A105.12,105.12,0,0,1,331.45,226c-1.46,6.85-8.09,37.09-8.12,40.51s8.42,9.88,31.32,11.09,42.32-5.84,43.46-7.86-4.08-26.81-4-28.63,8.45-24.19,8.45-24.19,7.89,6.7,14,8.6l2.22-33.64C412.33,184.19,405,176,401.79,174.19Z" style="fill:#92E3A9;stroke:#4c4c4c;stroke-miterlimit:10"></path><path d="M418,203.42l-36.09-9.07,15.89,31.8,4.78-9.23s6.44,8.18,13.95,8.81Z" style="fill:#4c4c4c;stroke:#4c4c4c;stroke-miterlimit:10"></path><polygon points="333.33 212.69 343.25 209.83 332.94 220.29 333.33 212.69" style="fill:#4c4c4c;stroke:#4c4c4c;stroke-miterlimit:10"></polygon><path d="M380.89,228S354.34,241.92,346,245.07" style="fill:none;stroke:#4c4c4c;stroke-miterlimit:10"></path><line x1="362.83" y1="242.82" x2="352.67" y2="246.87" style="fill:none;stroke:#4c4c4c;stroke-miterlimit:10"></line><path d="M376.73,150.8s-2.1,19.56-1.91,22.78,3.51,10.89,4.12,16.94-10.78,10.68-14.88,5.64-10.05-12.7-10.6-16.53-.61-18.34-.61-18.34,7.45,3.22,9.84.6S376.73,150.8,376.73,150.8Z" style="fill:#fff;stroke:#4c4c4c;stroke-miterlimit:10"></path><path d="M362.69,161.89c2.39-2.62,14-11.09,14-11.09s-.33,3-.71,6.85c-4.93,8.15-12.67,17.49-22.82,18.94-.32-5.63-.35-15.3-.35-15.3S360.3,164.51,362.69,161.89Z" style="fill:#4c4c4c;stroke:#4c4c4c;stroke-miterlimit:10"></path><path d="M359.42,114.65l19.46,14.74s6.22-4.13,7.31,2.85-2.4,9-3.49,9.83a13,13,0,0,1-3.7,1.29,20.41,20.41,0,0,1-2.51,10.6c-2.91,4.92-12,13.45-14.13,14.22s-13.21-3.62-16.88-6.72-5.78-6.46-5.55-10.08-4-17.59-4-17.59l4.45-.78L339,123.19l6.3,6.46,18-6.46S359.1,111.81,359.42,114.65Z" style="fill:#fff;stroke:#4c4c4c;stroke-miterlimit:10"></path><path d="M349.21,140.26a2.57,2.57,0,0,1,.83,3.1c-.9,1.81-2.85,3.88-1.91,5.43s4.39,0,4.39,0" style="fill:none;stroke:#4c4c4c;stroke-miterlimit:10"></path><path d="M363.12,148.79s-.22,7.24-9.58,8" style="fill:none;stroke:#4c4c4c;stroke-miterlimit:10"></path><path d="M357.28,137.68c.49,1.75,1.6,2.93,2.47,2.63s1.18-1.95.7-3.7-1.6-2.92-2.47-2.63S356.79,135.93,357.28,137.68Z" style="fill:#4c4c4c"></path><path d="M341.32,142.28c.49,1.75,1.59,2.93,2.47,2.63s1.18-1.95.69-3.7-1.59-2.93-2.46-2.63S340.83,140.53,341.32,142.28Z" style="fill:#4c4c4c"></path><ellipse cx="360.49" cy="136.06" rx="8.45" ry="7.92" transform="translate(6.8 288.93) rotate(-44.05)" style="fill:none;stroke:#4c4c4c;stroke-miterlimit:10"></ellipse><path d="M336.1,144.4c1,4.13,4.65,6.62,8.15,5.57s5.52-5.26,4.52-9.39-4.65-6.62-8.14-5.57S335.1,140.27,336.1,144.4Z" style="fill:none;stroke:#4c4c4c;stroke-miterlimit:10"></path><path d="M362.15,126.32s-6.37-.31-8.93,3.11" style="fill:none;stroke:#4c4c4c;stroke-miterlimit:10"></path><path d="M343.81,132.71s-4.57.78-6.12,3" style="fill:none;stroke:#4c4c4c;stroke-miterlimit:10"></path><line x1="368.44" y1="132.55" x2="378.88" y2="129.39" style="fill:none;stroke:#4c4c4c;stroke-miterlimit:10"></line><path d="M352.16,137.73a6.49,6.49,0,0,0-4.09,1.21" style="fill:none;stroke:#4c4c4c;stroke-miterlimit:10"></path><path d="M418.62,194.27l-1.18-.53c-4.71-2-26.19-9.47-26.19-9.47L383,177.41s6.68-18.74,7.18-20.16-7.48-8.87-7.48-8.87a3.38,3.38,0,0,0-2-.64c-1,.12-.79,1.77-.79,1.77a8.67,8.67,0,0,0-2.71-.61c-1.22,0-.56,3.92-.56,3.92s-1.7-1.22-2.24-.43.59,3.06.59,3.06l-.61.06c-.62.06-1.8.13-1.31,1.74s4.77,7.26,4.77,7.26-4.58,11.29-4.37,14.31,4.38,6.86,4.38,6.86l-3.41,5.84,3.3,2s31.29,27.24,38.84,31.74Z" style="fill:#fff;stroke:#4c4c4c;stroke-miterlimit:10"></path><path d="M386,157.23c-.41-1.11-6.1-7.72-6.1-7.72" style="fill:none;stroke:#4c4c4c;stroke-miterlimit:10"></path><line x1="376.64" y1="152.82" x2="383.08" y2="159.06" style="fill:none;stroke:#4c4c4c;stroke-miterlimit:10"></line><path d="M375,155.45s5.15,5.45,5.36,6" style="fill:none;stroke:#4c4c4c;stroke-miterlimit:10"></path><path d="M418.62,194.27l-1.18-.53c-4.71-2-26.19-9.47-26.19-9.47L383,177.41l-5.18,8.27-3.41,5.84,3.3,2s31.29,27.24,38.84,31.74Z" style="fill:#92E3A9;stroke:#4c4c4c;stroke-miterlimit:10"></path><path d="M307.08,228.89a73.72,73.72,0,0,0-13.69-5.37" style="fill:none;stroke:#4c4c4c;stroke-miterlimit:10"></path><path d="M323.62,256.56a80,80,0,0,0-6-8.84c-3-3.68-6.57-15.91-6.57-15.91s3.46-1.81,1.5-4.11-17.3-12.23-17.3-12.23l-6.3-4.2s-1.06.44-2.51,1.11L285,234c9.65,10.77,26.13,27.46,26.9,28.46a65.23,65.23,0,0,0,7,6.28c1.65,1.31,2.37-.1,4.21-1s9.09-8.08,9.09-8.08Z" style="fill:#92E3A9;stroke:#4c4c4c;stroke-miterlimit:10"></path><path d="M332.21,259.7s8.39.35,9.33,1.07,4.82,8.31,5.25,10.9-.63,8-1.22,7.75a2.39,2.39,0,0,1-1.75-2.29c-.15-1.71-.17-4.26-.17-4.26l-2.53-4.06s.13,7.24-.18,7.85a38,38,0,0,1-3.06,3.33s-5.18-.7-5.94-1.19-2.2-2.12-1.17-3.3.41,0,1-1.18-.6-5.58-.6-5.58a20,20,0,0,1-4.5.43,9.64,9.64,0,0,1-3.58-1.39Z" style="fill:#fff;stroke:#4c4c4c;stroke-miterlimit:10"></path><path d="M331.94,278.8a5.14,5.14,0,0,0,3-3.39c.17-1.09-1.17-9.06-1.17-9.06" style="fill:none;stroke:#4c4c4c;stroke-miterlimit:10"></path><path d="M338.07,266.19s.9,9.27.46,10-3,3.44-3.6,3.39" style="fill:none;stroke:#4c4c4c;stroke-miterlimit:10"></path><line x1="303.99" y1="394.6" x2="298.57" y2="399.45" style="fill:none;stroke:#263238;stroke-miterlimit:10"></line><line x1="395.76" y1="312.52" x2="309.45" y2="389.71" style="fill:none;stroke:#263238;stroke-miterlimit:10"></line><line x1="356.06" y1="339.17" x2="291.72" y2="396.71" style="fill:none;stroke:#263238;stroke-miterlimit:10"></line><line x1="416.58" y1="105.13" x2="394.39" y2="124.98" style="fill:none;stroke:#263238;stroke-miterlimit:10"></line><line x1="401.54" y1="124.72" x2="388.23" y2="136.62" style="fill:none;stroke:#263238;stroke-miterlimit:10"></line><line x1="410.42" y1="116.77" x2="405.6" y2="121.08" style="fill:none;stroke:#263238;stroke-miterlimit:10"></line><path d="M291.73,91.14,267.16,463.58H403.27L427.84,91.14Zm107,364.48H272.7L296.22,99.09H422.3Z" style="fill:#92E3A9;stroke:#263238;stroke-miterlimit:10"></path></g><g id="freepik--character-1--inject-127"><path d="M215.74,133.79h5.43s3.88-18.62-3.88-27.93-25.86-13.7-36.21-9.31-14.48,17.33-16.55,21.72-14,26.64-19.13,41.9S141,181.11,157,194.56s53.54,2.07,62.85-2.58,12.41-11.64,7-28.71A287.25,287.25,0,0,0,215.74,133.79Z" style="fill:#263238;stroke:#263238;stroke-miterlimit:10"></path><path d="M145.33,268.78,143,284.48s-13.53,40-15.42,53.5a294.89,294.89,0,0,0-2.1,30.92s-12.31,30.61-13.57,42.89-8.5,25.81-9.76,27.69S88.25,443,83.53,440.74s-10.39-5-11.65-2.51,0,5.66,3.78,8.49,11,7.56,14.16,8.82,13.22,6,16.06,7.55,6.61-2.52,7.87-6.61,4.09-14.16,4.72-15.11,14.47-23,20.45-34.3,12-36.91,12-36.91l28.23-57.36,6.29,58.64s-1.57,16.68,2.2,28.64,3.47,42.4,3.47,44.92-4.41,18.25-2.84,20.77c1.2,1.92,11.93,1.46,16.95,1.14a4.16,4.16,0,0,0,3.73-3.09,7.53,7.53,0,0,0,.1-4c-1-3.15-3.78-10.7-3.47-15.73s5.35-35.16,6-49.64a199.92,199.92,0,0,0-.94-28S222.9,320.67,223.84,299s-10.37-33.8-10.37-33.8Z" style="fill:#fff;stroke:#263238;stroke-miterlimit:10"></path><path d="M83.53,440.74c-4.72-2.2-10.39-5-11.65-2.51s0,5.66,3.78,8.49,11,7.56,14.16,8.82,13.22,6,16.06,7.55,6.61-2.52,7.87-6.61c.36-1.17.85-2.84,1.38-4.64A22.61,22.61,0,0,1,104,446.72s1.89-1.57,1.26-5.35-3.15-1.89-3.15-1.89C100.84,441.37,88.25,443,83.53,440.74Z" style="fill:#92E3A9;stroke:#263238;stroke-miterlimit:10"></path><path d="M84.67,449.28A52.5,52.5,0,0,1,72,438a1.59,1.59,0,0,0-.15.21c-1.25,2.51,0,5.66,3.78,8.49s11,7.56,14.16,8.82,13.22,6,16.06,7.55c1.5.84,3.28.06,4.8-1.45C104.08,458.8,90.6,452.87,84.67,449.28Z" style="fill:#fff;stroke:#263238;stroke-miterlimit:10"></path><path d="M205.59,445.78c-.8-1.68-3.18-6-6.77-6.58-4.47-.75-7.71,5.8-7.71,5.8,0,2.52-4.41,18.25-2.84,20.77,1.2,1.92,11.93,1.46,16.95,1.14a4.16,4.16,0,0,0,3.73-3.09,7.53,7.53,0,0,0,.1-4C208.2,457,205.87,450.69,205.59,445.78Z" style="fill:#92E3A9;stroke:#263238;stroke-miterlimit:10"></path><path d="M188,463.19a5.13,5.13,0,0,0,.32,2.58c1.2,1.92,11.93,1.46,16.95,1.14a4.16,4.16,0,0,0,3.73-3.09s0,0,0-.06A127.61,127.61,0,0,1,188,463.19Z" style="fill:#fff;stroke:#263238;stroke-miterlimit:10"></path><path d="M145.33,268.78,143,284.48s-13.53,40-15.42,53.5a294.89,294.89,0,0,0-2.1,30.92s-12.31,30.61-13.57,42.89a56.54,56.54,0,0,1-2.46,11.13,68.54,68.54,0,0,0,16.3,6.81c4.49-7.34,10-16.56,13.22-22.66,6-11.33,12-36.91,12-36.91l28.23-57.36,6.29,58.64s-1.57,16.68,2.2,28.64c2.06,6.52,2.9,17.33,3.25,26.23a141.36,141.36,0,0,0,16.83-.84c1.57-9.92,3.47-22.51,3.84-31.05a199.92,199.92,0,0,0-.94-28S222.9,320.67,223.84,299s-10.37-33.8-10.37-33.8Z" style="fill:#263238;stroke:#263238;stroke-miterlimit:10"></path><path d="M179.15,312.8s-1.26-14.47-1-20.14" style="fill:none;stroke:#263238;stroke-miterlimit:10"></path><line x1="178.2" y1="298.64" x2="168.76" y2="292.35" style="fill:none;stroke:#263238;stroke-miterlimit:10"></line><path d="M145.33,268.78l-.64,5.46s12.51,6.41,31.43,6.09,28.27-3.13,33.42-4.68,8-3.23,8-4.07a29.44,29.44,0,0,0-1.07-4.19s-8.69,4.76-27.2,7.23S145.33,268.78,145.33,268.78Z" style="fill:#92E3A9;stroke:#263238;stroke-miterlimit:10"></path><path d="M174,172.57s-8.47,2-13.91,1.42-8.46-3.23-14.92.2-30,31.24-30.84,32.05-2.62,10.68,0,15.32,5.44,5.65,11.69,4.23,15.53-8.87,15.53-8.87,6.85,22.38,6.85,24.19-6.85,26.61-5.85,28.63,20,9.07,42.94,7.86,31.85-7.66,32.05-11.08-4.43-33.67-5.44-40.52a103.44,103.44,0,0,1-1-13.31S228.79,226.2,241.9,226s17.13-6.46,16.53-10.49-14.52-15.92-16.53-18.14-24.19-27.82-32.26-29.23-14.51,1.61-15.92,3S174,172.57,174,172.57Z" style="fill:#92E3A9;stroke:#263238;stroke-miterlimit:10"></path><path d="M163.67,194.35l-18,31.8-4.17-9.23s-7.61,8.94-15.53,8.87.45-22.24.45-22.24Z" style="fill:#263238;stroke:#263238;stroke-miterlimit:10"></path><polygon points="211.05 212.69 201.33 209.83 210.95 220.29 211.05 212.69" style="fill:#263238;stroke:#263238;stroke-miterlimit:10"></polygon><path d="M162.48,228s25.64,13.94,33.73,17.09" style="fill:none;stroke:#263238;stroke-miterlimit:10"></path><line x1="179.57" y1="242.82" x2="189.47" y2="246.87" style="fill:none;stroke:#263238;stroke-miterlimit:10"></line><path d="M171.74,150.8s.81,19.56.41,22.78-4.24,10.89-5.24,16.94,10.08,10.68,14.51,5.64,10.89-12.7,11.69-16.53,1.82-18.34,1.82-18.34-7.66,3.22-9.88.6S171.74,150.8,171.74,150.8Z" style="fill:#fff;stroke:#263238;stroke-miterlimit:10"></path><path d="M185.05,161.89c-2.22-2.62-13.31-11.09-13.31-11.09s.13,3,.25,6.85c4.4,8.15,11.53,17.49,21.58,18.94.68-5.63,1.36-15.3,1.36-15.3S187.27,164.51,185.05,161.89Z" style="fill:#263238;stroke:#263238;stroke-miterlimit:10"></path><path d="M191.43,114.65,171,129.39s-5.95-4.13-7.5,2.85,1.81,9,2.84,9.83a12.4,12.4,0,0,0,3.62,1.29,19.78,19.78,0,0,0,1.82,10.6c2.58,4.92,11.12,13.45,13.18,14.22s13.45-3.62,17.33-6.72,6.21-6.46,6.21-10.08,5.17-17.59,5.17-17.59l-4.4-.78,2.07-9.82-6.72,6.46L187,123.19S192,111.81,191.43,114.65Z" style="fill:#fff;stroke:#263238;stroke-miterlimit:10"></path><path d="M200,140.26s-1.81,1.29-1,3.1,2.58,3.88,1.55,5.43-4.4,0-4.4,0" style="fill:none;stroke:#263238;stroke-miterlimit:10"></path><path d="M185.48,148.79s-.26,7.24,9.05,8" style="fill:none;stroke:#263238;stroke-miterlimit:10"></path><path d="M192.05,137.68c-.6,1.75-1.78,2.93-2.64,2.63s-1.06-1.95-.45-3.7,1.78-2.92,2.64-2.63S192.66,135.93,192.05,137.68Z" style="fill:#263238"></path><path d="M207.71,142.28c-.6,1.75-1.78,2.93-2.64,2.63s-1.06-1.95-.45-3.7,1.78-2.93,2.64-2.63S208.32,140.53,207.71,142.28Z" style="fill:#263238"></path><circle cx="188.95" cy="136.06" r="8.18" transform="translate(12.99 288.54) rotate(-76.67)" style="fill:none;stroke:#263238;stroke-miterlimit:10"></circle><ellipse cx="206.58" cy="142.49" rx="7.82" ry="6.49" transform="translate(9.58 297.96) rotate(-72.88)" style="fill:none;stroke:#263238;stroke-miterlimit:10"></ellipse><path d="M187.93,126.32s6.39-.31,8.73,3.11" style="fill:none;stroke:#263238;stroke-miterlimit:10"></path><path d="M205.85,132.71s4.52.78,5.92,3" style="fill:none;stroke:#263238;stroke-miterlimit:10"></path><line x1="181.23" y1="132.55" x2="171" y2="129.39" style="fill:none;stroke:#263238;stroke-miterlimit:10"></line><path d="M197.17,137.73a6.2,6.2,0,0,1,4,1.21" style="fill:none;stroke:#263238;stroke-miterlimit:10"></path><path d="M165.9,148.38s-8.47,7.46-8.07,8.87l5.85,20.16L155,184.27s-22,7.46-26.81,9.47-17.34,8.47-19.55,13.71-.41,14.51,3,17.74,8.87,2.82,14.31.6,41.93-32.25,41.93-32.25l3.43-2-3-5.84s4.43-3.83,4.83-6.86-3.42-14.31-3.42-14.31,4.63-5.64,5.24-7.26-.58-1.68-1.19-1.74l-.61-.06s1.29-2.26.8-3.06-2.27.43-2.27.43.92-3.92-.3-3.92a9.08,9.08,0,0,0-2.76.61s.31-1.65-.67-1.77A3.59,3.59,0,0,0,165.9,148.38Z" style="fill:#fff;stroke:#263238;stroke-miterlimit:10"></path><path d="M162,157.23c.49-1.11,6.61-7.72,6.61-7.72" style="fill:none;stroke:#263238;stroke-miterlimit:10"></path><line x1="171.7" y1="152.82" x2="164.85" y2="159.06" style="fill:none;stroke:#263238;stroke-miterlimit:10"></line><path d="M173.17,155.45s-5.51,5.45-5.75,6" style="fill:none;stroke:#263238;stroke-miterlimit:10"></path><path d="M171.34,191.52l-3-5.84-4.64-8.27L155,184.27s-22,7.46-26.81,9.47-17.34,8.47-19.55,13.71-.41,14.51,3,17.74,8.87,2.82,14.31.6,41.93-32.25,41.93-32.25Z" style="fill:#92E3A9;stroke:#263238;stroke-miterlimit:10"></path><path d="M236.24,228.89s14.75-7.27,21.61-6.21" style="fill:none;stroke:#263238;stroke-miterlimit:10"></path><path d="M249,215.47s-16,9.92-18.1,12.23,1.22,4.11,1.22,4.11-4.36,12.23-7.62,15.91a87.93,87.93,0,0,0-6.58,8.84l-8.79,3.14s6.78,7.19,8.56,8.08,2.4,2.3,4.14,1a72.52,72.52,0,0,0,7.41-6.28c1.14-1.37,33.79-32.26,36.11-36.91s1.86-7.35-1.09-9.61a51.14,51.14,0,0,0-8.68-4.7" style="fill:#92E3A9;stroke:#263238;stroke-miterlimit:10"></path><path d="M209.08,259.7s-8.42.35-9.41,1.07-5.36,8.31-6,10.9.1,8,.71,7.75a2.61,2.61,0,0,0,1.91-2.29c.26-1.71.45-4.26.45-4.26l2.79-4.06s-.6,7.24-.33,7.85a34.35,34.35,0,0,0,2.84,3.33s5.22-.7,6-1.19,2.34-2.12,1.38-3.3-.42,0-.95-1.18,1-5.58,1-5.58a19.54,19.54,0,0,0,4.47.43,10.39,10.39,0,0,0,3.68-1.39Z" style="fill:#fff;stroke:#263238;stroke-miterlimit:10"></path><path d="M208.09,278.8a4.68,4.68,0,0,1-2.8-3.39c-.1-1.09,1.76-9.06,1.76-9.06" style="fill:none;stroke:#263238;stroke-miterlimit:10"></path><path d="M202.79,266.19s-1.51,9.27-1.13,10,2.76,3.44,3.38,3.39" style="fill:none;stroke:#263238;stroke-miterlimit:10"></path></g><g id="freepik--speech-bubble--inject-127"><path d="M252,61.39A24.32,24.32,0,0,0,238.6,106L229,118.26l15.28-9.51A24.31,24.31,0,1,0,252,61.39Z" style="fill:#fff;stroke:#263238;stroke-miterlimit:10"></path><path d="M249.65,78.37s-6.15-7.45-11.1-3.47.28,11.75,3.25,15.17,11.59,10,11.59,10,11.09-12,13.51-18.46-3.28-11.14-7.51-8.08a25.35,25.35,0,0,0-6.62,7.37Z" style="fill:#92E3A9;stroke:#263238;stroke-miterlimit:10"></path></g></svg>