<svg xmlns="http://www.w3.org/2000/svg" viewBox="0 0 500 500"><g id="freepik--Floor--inject-34"><path id="freepik--floor--inject-34" d="M84,245.84C-7.65,298.76-7.65,384.57,84,437.5s240.3,52.92,332,0,91.67-138.73,0-191.66S175.68,192.92,84,245.84Z" style="fill:#f5f5f5"></path></g><g id="freepik--Plants--inject-34"><g id="freepik--Leaves--inject-34" style="opacity:0.2"><path d="M441,187.27a18.36,18.36,0,0,1,1.83,6.5c.23,2.36.15,5.95.77,8.32,1.1,4.21,2.79,6.49,5.65,9.83A50.81,50.81,0,0,0,455,217a.59.59,0,0,0,.76.07c.23-.19.11-.44-.08-.61a48.05,48.05,0,0,1-9.06-9.68,18.41,18.41,0,0,1-2.39-5.88c-.57-2.4-.43-4.79-.78-7.19a15.91,15.91,0,0,0-2.3-6.55c-.08-.12-.17,0-.12.07S441,187.3,441,187.27Z" style="fill:#A5DD9B"></path><path d="M439.25,185.93a10.88,10.88,0,0,0,1.46,1.33c.54.42,1.13.8,1.69,1.2,1.15.82,2.38,1.5,3.48,2.41a32.94,32.94,0,0,1,5.23,5.06,22.06,22.06,0,0,1,3.56,6.33,27.09,27.09,0,0,1,1.16,7.3c.09,1.38,0,2.84-.06,4.24,0,.7-.1,1.42-.15,2.13a7.84,7.84,0,0,0,0,1.08c0,.34.08.71.11,1s.5.72.66.38a7.43,7.43,0,0,0,.43-2c.1-.67.15-1.32.19-2a36.17,36.17,0,0,0,.11-3.89,31.46,31.46,0,0,0-.95-7.5,21.25,21.25,0,0,0-3.48-6.73A28.73,28.73,0,0,0,447.1,191c-1.23-1-2.6-1.62-3.88-2.47-.67-.44-1.36-.85-2-1.32s-1.27-1-1.93-1.41c-.06,0,0,.06,0,.09S439.23,185.9,439.25,185.93Z" style="fill:#A5DD9B"></path><path d="M443.58,220.45a30.07,30.07,0,0,1,1.78,5.41,19.13,19.13,0,0,0,2.13,5.48,21.45,21.45,0,0,0,4.23,4.5,24.41,24.41,0,0,0,2.6,1.82c.94.63,2.07,1.21,3,2a17.49,17.49,0,0,1,2.6,2.63,11.43,11.43,0,0,1,1.07,1.6,15.45,15.45,0,0,0,1.06,1.78c.13.16.62.23.57-.09a8.37,8.37,0,0,0-1.45-3.18,13.7,13.7,0,0,0-2.19-2.51c-1.73-1.52-3.85-2.62-5.63-3.91a22.16,22.16,0,0,1-4.62-4.26,18.76,18.76,0,0,1-2.58-5.28c-.39-1-.58-2.1-1-3.12a16.06,16.06,0,0,0-1.47-2.82c0-.06-.2-.12-.15,0S443.59,220.48,443.58,220.45Z" style="fill:#A5DD9B"></path><path d="M444.11,221.11a5.65,5.65,0,0,0,2.33,2.77c1.5,1.05,3,1.86,4.5,2.91a34.6,34.6,0,0,1,7.21,6.35,20.17,20.17,0,0,1,2.58,5c.1.23.66.28.58,0a16.91,16.91,0,0,0-4.44-7.74c-2.48-2.44-5.34-4-8.22-5.8-.87-.54-1.78-.92-2.61-1.46a4.8,4.8,0,0,1-1.8-1.94s-.15-.12-.13,0S444.11,221.09,444.11,221.11Z" style="fill:#A5DD9B"></path><path d="M449.17,228.21a41.89,41.89,0,0,0,5.72,5.07,24.61,24.61,0,0,1,5.21,5.61,16.33,16.33,0,0,1,1.51,4.11c.08.26.61.29.57,0a12.87,12.87,0,0,0-2.81-6.38,34,34,0,0,0-6.37-5.39,23.32,23.32,0,0,1-3.72-3s-.17-.06-.11,0S449.16,228.23,449.17,228.21Z" style="fill:#A5DD9B"></path><path d="M465.8,210.29a31.64,31.64,0,0,0,1,6.27c.27,1.09.62,2.16.89,3.26a26.12,26.12,0,0,1,.78,3.31,15.42,15.42,0,0,1-.43,7,27,27,0,0,1-3.81,6.45c-.61.85-1.38,1.51-2,2.41a6.44,6.44,0,0,0-.8,1.62,3.33,3.33,0,0,0-.08,2.33.42.42,0,0,0,.73,0,12.45,12.45,0,0,0,.7-2.14,5.17,5.17,0,0,1,.65-1.23c.48-.7,1.12-1.26,1.62-2a28.31,28.31,0,0,0,3.92-6.54,15,15,0,0,0,.7-7.14,29.4,29.4,0,0,0-1.8-6.2,38.12,38.12,0,0,1-1.88-7.33c0-.1-.24-.24-.23-.1S465.76,210.33,465.8,210.29Z" style="fill:#A5DD9B"></path><path d="M465.82,210.87a23.7,23.7,0,0,0-.36,2.41c-.1.82-.09,1.65-.24,2.48a19,19,0,0,1-1.44,4.79,43.79,43.79,0,0,0-3.42,9.41,12.17,12.17,0,0,0-.09,2.7,8.79,8.79,0,0,0,.2,1.35,6.68,6.68,0,0,0,.4,1.29c.17.38.75.26.73-.11a29.51,29.51,0,0,1-.11-5.14,20.31,20.31,0,0,1,1.24-4.62c1.21-3.12,2.6-6,3.21-9.28a17.26,17.26,0,0,0,.09-2.5c0-.85,0-1.78,0-2.64,0-.1-.2-.28-.23-.14S465.82,210.85,465.82,210.87Z" style="fill:#A5DD9B"></path><path d="M465.8,223.83a27,27,0,0,1-1.87,7.07,55.46,55.46,0,0,0-2.49,6.88,10.65,10.65,0,0,0-.24,1.85,4,4,0,0,0,.05.87,2.92,2.92,0,0,0,.1.57,1.35,1.35,0,0,0,.27.5c.14.17.41.34.51,0a4.07,4.07,0,0,0,.1-1c0-.36,0-.62,0-1.07a13.76,13.76,0,0,1,.18-1.57,27.36,27.36,0,0,1,.89-3.24c.78-2.25,1.7-4.46,2.3-6.78a16.77,16.77,0,0,0,.33-4c0-.07-.15-.2-.16-.09S465.79,223.85,465.8,223.83Z" style="fill:#A5DD9B"></path><path d="M460.71,268a10,10,0,0,0,6.4-1.24,14,14,0,0,0,4.94-5.07c2.59-4.63,4.06-9.62,6.63-14.26a14,14,0,0,1,2.45-3.08,22.47,22.47,0,0,1,3.46-2.45c.26-.17-.09-.39-.28-.27a23.86,23.86,0,0,0-8.67,10.2c-1.33,2.71-2.15,5.44-3.54,8.07a18.85,18.85,0,0,1-4.42,5.62,9,9,0,0,1-3.14,1.62,11.78,11.78,0,0,1-3.59.34c-.36,0-.74.47-.24.52C460.75,268,460.62,268.1,460.71,268Z" style="fill:#A5DD9B"></path><path d="M462.14,259.26c.47-.87,1-1.76,1.46-2.6s.9-1.7,1.44-2.5a27.9,27.9,0,0,1,3.26-4.52,27.26,27.26,0,0,1,8.89-6.18c2.35-1,4.88-1.07,7.34-1.58.2,0,0-.23-.11-.23a25.39,25.39,0,0,0-6.6,1,18.77,18.77,0,0,0-5.27,2.5,33,33,0,0,0-7.65,8.07,21,21,0,0,0-1.53,2.85c-.49,1-.84,2.14-1.26,3.18,0,0,0,0,0,0Z" style="fill:#A5DD9B"></path><path d="M461.26,265.61a6.51,6.51,0,0,1,.76-2c.41-.71.8-1.5,1.26-2.25a41.46,41.46,0,0,1,2.83-4.35,57.48,57.48,0,0,1,6.75-7.38c.72-.66,1.53-1.18,2.29-1.8a28.38,28.38,0,0,1,2.45-1.73s0-.09-.06-.07c-1.45.9-2.87,1.68-4.26,2.72a35.53,35.53,0,0,0-4.09,3.39,49,49,0,0,0-6.44,8.34,23.91,23.91,0,0,0-1.33,2.62,5.53,5.53,0,0,0-.65,2.49c0,.23.43.32.49.05Z" style="fill:#A5DD9B"></path><path d="M449.84,264.65a36.08,36.08,0,0,0,1.39,10c.46,1.76,1,3.43,1.41,5.26a26.83,26.83,0,0,1,.43,5.62,25.68,25.68,0,0,1-.32,3.2c-.17,1.1-.51,2.36-.68,3.48a.51.51,0,0,0,.51.58c.27,0,.38-.12.56-.21a.7.7,0,0,0,.3-.45c0-.15-.09.2,0,.09a1.86,1.86,0,0,0,.14-.31c0-.16.1-.24.17-.49a7.82,7.82,0,0,0,.27-.87c.09-.39.26-1,.34-1.55a25.24,25.24,0,0,0,.36-2.9,28.37,28.37,0,0,0-.33-5.85,37.42,37.42,0,0,0-1.53-5.21c-.57-1.71-1.24-3.21-1.72-4.93a25.5,25.5,0,0,1-.85-5.28c0-.17-.4-.36-.41-.14S449.78,264.7,449.84,264.65Z" style="fill:#A5DD9B"></path><path d="M446.9,251.59a25.78,25.78,0,0,0,2.64,4.62,20.7,20.7,0,0,1,2.53,4.73,26,26,0,0,1,1,10.35c-.1,1.16-.39,2.3-.43,3.48a12.42,12.42,0,0,0,.07,3.6c.14.56,1,.23,1.07-.24.14-1.11.11-2.32.19-3.38s.26-2.05.35-3.06a27.44,27.44,0,0,0,.1-5.28,19,19,0,0,0-1.23-5.08,23.35,23.35,0,0,0-2.67-4.64c-.58-.84-1.28-1.61-1.89-2.45a25.08,25.08,0,0,1-1.61-2.61s-.16-.14-.13,0S446.88,251.61,446.9,251.59Z" style="fill:#A5DD9B"></path><path d="M446.83,251.57a18.12,18.12,0,0,1,.06,2.76c-.07.95-.28,1.89-.41,2.84a45.59,45.59,0,0,0-.87,6.17A22.47,22.47,0,0,0,448.8,275a12.78,12.78,0,0,0,2.21,2.5,11,11,0,0,1,2.13,2.58c.17.35.83.33.75-.12a4.56,4.56,0,0,0-1.48-2.41,23.58,23.58,0,0,1-2.08-2.16,19.92,19.92,0,0,1-2.86-5.22,18.64,18.64,0,0,1-.93-6.09,55.6,55.6,0,0,1,.61-6.28c.12-1,.3-2.12.34-3.17a8.65,8.65,0,0,0-.41-3c0-.08-.26-.2-.25,0S446.83,251.55,446.83,251.57Z" style="fill:#A5DD9B"></path><path d="M447.35,199.18a64.41,64.41,0,0,1,5.86,12.18,139.13,139.13,0,0,1,5.3,16.55,104.84,104.84,0,0,1,3,17.59,66.5,66.5,0,0,1-1,17,163.56,163.56,0,0,1-11.3,36.29c-2.29,5.17-4.79,10.24-7.16,15.38-2.55,5.52-4.87,11.12-6.87,16.86-4.71,13.49-8.08,27.82-7.47,42.19a42.52,42.52,0,0,0,.63,5.74c.05.26.43.38.43,0,0-3.65-.17-7.29,0-10.94a101.31,101.31,0,0,1,1.06-10.72,135.37,135.37,0,0,1,5.28-21.74A182.66,182.66,0,0,1,442,317.68c2.34-5.24,4.88-10.39,7.27-15.61a172.61,172.61,0,0,0,12.08-36.22,72.65,72.65,0,0,0,1.8-17.2,92,92,0,0,0-2.36-17.4,98.21,98.21,0,0,0-11.74-30c-.49-.79-1-1.56-1.51-2.32-.16-.23-.31.1-.2.27Z" style="fill:#A5DD9B"></path></g><g id="freepik--leaves--inject-34" style="opacity:0.2"><path d="M479.82,262.67a18.38,18.38,0,0,1-1.72,6.53c-1,2.15-2.89,5.2-3.56,7.56-1.18,4.19-.89,7-.12,11.34a52.14,52.14,0,0,0,2.33,7.31.61.61,0,0,0,.63.45c.29-.05.32-.32.24-.56a48,48,0,0,1-2.9-12.95,18.19,18.19,0,0,1,.93-6.28c.72-2.35,2.05-4.34,3-6.58a16,16,0,0,0,1.34-6.82c0-.14-.13-.12-.14,0S479.82,262.7,479.82,262.67Z" style="fill:#A5DD9B"></path><path d="M479,260.61a11.87,11.87,0,0,0,.58,1.9c.25.63.57,1.26.85,1.89.58,1.29,1.29,2.5,1.78,3.83a33.53,33.53,0,0,1,1.94,7,22.12,22.12,0,0,1-.14,7.26,27.2,27.2,0,0,1-2.7,6.88c-.63,1.24-1.46,2.44-2.21,3.62-.37.6-.8,1.18-1.2,1.76a9.33,9.33,0,0,0-.58.92c-.15.31-.29.65-.42.93s.07.87.38.66a7.08,7.08,0,0,0,1.4-1.54,16.39,16.39,0,0,0,1.16-1.61,37.86,37.86,0,0,0,2.08-3.29,31.13,31.13,0,0,0,3-6.95,21.36,21.36,0,0,0,.42-7.56,29,29,0,0,0-2.15-7.33c-.57-1.44-1.41-2.71-2.09-4.09-.35-.73-.74-1.43-1.06-2.16s-.6-1.48-.95-2.2c0-.06-.07,0-.07.06S479,260.58,479,260.61Z" style="fill:#A5DD9B"></path><path d="M465.2,292.57a30,30,0,0,1-1.21,5.56,18.86,18.86,0,0,0-.95,5.81,21.25,21.25,0,0,0,1.36,6,28.28,28.28,0,0,0,1.32,2.89c.49,1,1.17,2.09,1.61,3.21a18,18,0,0,1,.91,3.59,13.39,13.39,0,0,1,.11,1.92,16.06,16.06,0,0,0,0,2.08c0,.2.42.51.53.2a8.37,8.37,0,0,0,.37-3.47,13.9,13.9,0,0,0-.61-3.28c-.73-2.18-2-4.2-2.87-6.22a22.35,22.35,0,0,1-1.83-6,18.54,18.54,0,0,1,.46-5.86c.18-1.09.57-2.11.74-3.18a15.47,15.47,0,0,0,.17-3.18c0-.07-.11-.21-.12-.08S465.19,292.59,465.2,292.57Z" style="fill:#A5DD9B"></path><path d="M465.32,293.41a5.64,5.64,0,0,0,.6,3.56c.76,1.66,1.65,3.13,2.4,4.79a34.31,34.31,0,0,1,3,9.13,20.5,20.5,0,0,1-.28,5.58c0,.25.42.58.5.3a17,17,0,0,0,.09-8.93c-.9-3.35-2.57-6.15-4.14-9.16-.48-.91-1.07-1.7-1.51-2.58a4.72,4.72,0,0,1-.56-2.59c0-.05-.08-.18-.09-.1S465.32,293.39,465.32,293.41Z" style="fill:#A5DD9B"></path><path d="M466.08,302.08a42,42,0,0,0,2.35,7.28,24.15,24.15,0,0,1,1.64,7.48,16,16,0,0,1-.78,4.31c-.06.26.38.55.49.28a12.77,12.77,0,0,0,.82-6.92,33.41,33.41,0,0,0-2.76-7.87,24.27,24.27,0,0,1-1.67-4.51c0-.06-.11-.14-.09-.05S466.06,302.1,466.08,302.08Z" style="fill:#A5DD9B"></path><path d="M489.49,295.08a32.2,32.2,0,0,0-2.31,5.91c-.32,1.08-.56,2.17-.89,3.26a23.91,23.91,0,0,1-1,3.25,15.42,15.42,0,0,1-3.92,5.82A27.07,27.07,0,0,1,474.8,317c-.95.42-1.95.6-2.91,1.08a6.17,6.17,0,0,0-1.51,1,3.26,3.26,0,0,0-1.25,2,.42.42,0,0,0,.65.34,13.18,13.18,0,0,0,1.68-1.48,5.12,5.12,0,0,1,1.19-.74c.77-.36,1.61-.52,2.38-.86a28,28,0,0,0,6.7-3.65,15,15,0,0,0,4.23-5.79,29.64,29.64,0,0,0,1.59-6.26,38.77,38.77,0,0,1,2.09-7.27c0-.09-.08-.33-.15-.2S489.45,295.09,489.49,295.08Z" style="fill:#A5DD9B"></path><path d="M489.22,295.59a21.75,21.75,0,0,0-1.53,1.89c-.5.65-.91,1.38-1.46,2a19.18,19.18,0,0,1-3.68,3.4,43.25,43.25,0,0,0-7.72,6.37,12.2,12.2,0,0,0-1.44,2.28,8.58,8.58,0,0,0-.52,1.26,6.28,6.28,0,0,0-.3,1.32c-.05.42.5.61.68.28a29.24,29.24,0,0,1,2.51-4.49,19.63,19.63,0,0,1,3.41-3.35c2.63-2.08,5.28-3.84,7.48-6.37a16.79,16.79,0,0,0,1.34-2.11c.46-.71.89-1.54,1.36-2.27.06-.08,0-.33-.13-.23Z" style="fill:#A5DD9B"></path><path d="M482.63,306.74a26.7,26.7,0,0,1-5.2,5.15,53.85,53.85,0,0,0-5.63,4.67,10.79,10.79,0,0,0-1.15,1.47,4.82,4.82,0,0,0-.4.78,2.77,2.77,0,0,0-.2.54,1.56,1.56,0,0,0,0,.57c0,.21.18.49.43.27a4.73,4.73,0,0,0,.6-.81c.2-.31.3-.55.56-.92a13.56,13.56,0,0,1,1-1.25,26.8,26.8,0,0,1,2.41-2.35c1.81-1.54,3.72-3,5.42-4.67a17.47,17.47,0,0,0,2.31-3.28c0-.07,0-.25-.09-.17S482.61,306.76,482.63,306.74Z" style="fill:#A5DD9B"></path><path d="M479.23,276.05a58.09,58.09,0,0,1-.67,9.13c-.51,3.86-1.11,7.69-1.88,11.49A116.4,116.4,0,0,1,469,321a66.11,66.11,0,0,1-6,10.79c-2.81,4-5.83,8-8.79,11.89-3.93,5.2-8,10.32-11.94,15.49-3.63,4.73-7.18,9.54-10.41,14.56a18.06,18.06,0,0,0-1.23,2.19c-.08.18.17.62.37.4a48.06,48.06,0,0,0,3.49-4.64c.92-1.29,1.84-2.58,2.78-3.86,1.63-2.22,3.31-4.41,5-6.59,3.89-5,7.86-10,11.71-15q4.35-5.73,8.59-11.54A72.6,72.6,0,0,0,469.15,324a107.63,107.63,0,0,0,8.32-24.21c1.58-7.09,2.74-14.44,2.22-21.73-.05-.64-.09-1.28-.15-1.92,0-.23-.31-.33-.31-.05Z" style="fill:#A5DD9B"></path></g><g id="freepik--leaves--inject-34" style="opacity:0.2"><path d="M61.24,187.27a18.36,18.36,0,0,0-1.83,6.5c-.23,2.36-.15,5.95-.77,8.32-1.11,4.21-2.79,6.49-5.65,9.83A50.81,50.81,0,0,1,47.27,217a.61.61,0,0,1-.77.07c-.22-.19-.11-.44.09-.61a47.72,47.72,0,0,0,9-9.68A18.18,18.18,0,0,0,58,200.94c.57-2.4.44-4.79.78-7.19a16.07,16.07,0,0,1,2.31-6.55c.07-.12.17,0,.12.07S61.22,187.3,61.24,187.27Z" style="fill:#A5DD9B"></path><path d="M63,185.93a11.53,11.53,0,0,1-1.46,1.33c-.54.42-1.13.8-1.7,1.2-1.15.82-2.37,1.5-3.47,2.41a32.94,32.94,0,0,0-5.23,5.06,22.06,22.06,0,0,0-3.56,6.33,27.1,27.1,0,0,0-1.17,7.3c-.09,1.38,0,2.84.07,4.24,0,.7.1,1.42.14,2.13a7.86,7.86,0,0,1,0,1.08c0,.34-.08.71-.11,1s-.5.72-.66.38a7.08,7.08,0,0,1-.43-2c-.1-.67-.15-1.32-.19-2-.06-1.29-.19-2.61-.12-3.89a31.47,31.47,0,0,1,1-7.5,21.25,21.25,0,0,1,3.48-6.73A28.73,28.73,0,0,1,55.16,191c1.22-1,2.6-1.62,3.88-2.47.67-.44,1.36-.85,2-1.32s1.27-1,1.93-1.41c.06,0,.05.06,0,.09S63,185.9,63,185.93Z" style="fill:#A5DD9B"></path><path d="M58.67,220.45a29.28,29.28,0,0,0-1.77,5.41,18.87,18.87,0,0,1-2.14,5.48,21.14,21.14,0,0,1-4.22,4.5,26.63,26.63,0,0,1-2.6,1.82c-.94.63-2.08,1.21-3,2a17.55,17.55,0,0,0-2.61,2.63,12.33,12.33,0,0,0-1.06,1.6,14.23,14.23,0,0,1-1.07,1.78c-.12.16-.62.23-.56-.09a8.51,8.51,0,0,1,1.44-3.18,13.75,13.75,0,0,1,2.2-2.51c1.73-1.52,3.85-2.62,5.63-3.91a22.42,22.42,0,0,0,4.62-4.26,18.76,18.76,0,0,0,2.58-5.28c.39-1,.57-2.1,1-3.12a15.41,15.41,0,0,1,1.47-2.82c0-.06.2-.12.14,0S58.66,220.48,58.67,220.45Z" style="fill:#A5DD9B"></path><path d="M58.14,221.11a5.58,5.58,0,0,1-2.32,2.77c-1.5,1.05-3,1.86-4.5,2.91a34.35,34.35,0,0,0-7.21,6.35,20.54,20.54,0,0,0-2.59,5c-.1.23-.65.28-.58,0a17,17,0,0,1,4.45-7.74c2.48-2.44,5.34-4,8.22-5.8.87-.54,1.78-.92,2.61-1.46a4.8,4.8,0,0,0,1.8-1.94s.15-.12.12,0S58.15,221.09,58.14,221.11Z" style="fill:#A5DD9B"></path><path d="M53.09,228.21a42.49,42.49,0,0,1-5.72,5.07,24.39,24.39,0,0,0-5.21,5.61A16,16,0,0,0,40.65,243c-.08.26-.61.29-.57,0a13,13,0,0,1,2.8-6.38,34.41,34.41,0,0,1,6.38-5.39,23.32,23.32,0,0,0,3.72-3s.17-.06.11,0S53.1,228.23,53.09,228.21Z" style="fill:#A5DD9B"></path><path d="M36.46,210.29a32.39,32.39,0,0,1-1,6.27c-.28,1.09-.62,2.16-.89,3.26a24.51,24.51,0,0,0-.78,3.31,15.28,15.28,0,0,0,.43,7A27,27,0,0,0,38,236.59c.61.85,1.38,1.51,2,2.41a6.44,6.44,0,0,1,.8,1.62,3.33,3.33,0,0,1,.08,2.33.43.43,0,0,1-.74,0,13.35,13.35,0,0,1-.69-2.14,5.56,5.56,0,0,0-.65-1.23c-.48-.7-1.12-1.26-1.62-2a28.31,28.31,0,0,1-3.92-6.54,15.13,15.13,0,0,1-.71-7.14,30,30,0,0,1,1.81-6.2,38.12,38.12,0,0,0,1.88-7.33c0-.1.24-.24.23-.1S36.49,210.33,36.46,210.29Z" style="fill:#A5DD9B"></path><path d="M36.44,210.87a23.7,23.7,0,0,1,.36,2.41c.1.82.09,1.65.23,2.48a19.45,19.45,0,0,0,1.45,4.79A43.79,43.79,0,0,1,41.9,230a12.17,12.17,0,0,1,.09,2.7,8.79,8.79,0,0,1-.2,1.35,6.68,6.68,0,0,1-.4,1.29c-.18.38-.75.26-.73-.11a29.51,29.51,0,0,0,.11-5.14,20.31,20.31,0,0,0-1.24-4.62c-1.21-3.12-2.61-6-3.22-9.28a17.27,17.27,0,0,1-.08-2.5c0-.85,0-1.78,0-2.64,0-.1.21-.28.24-.14S36.43,210.85,36.44,210.87Z" style="fill:#A5DD9B"></path><path d="M36.46,223.83a26.66,26.66,0,0,0,1.87,7.07,55.46,55.46,0,0,1,2.49,6.88,10.65,10.65,0,0,1,.24,1.85,4.8,4.8,0,0,1-.05.87,2.88,2.88,0,0,1-.11.57,1.22,1.22,0,0,1-.27.5c-.13.17-.4.34-.5,0a4.07,4.07,0,0,1-.1-1c0-.36,0-.62,0-1.07a13.76,13.76,0,0,0-.18-1.57,29.42,29.42,0,0,0-.89-3.24c-.78-2.25-1.7-4.46-2.31-6.78a17.29,17.29,0,0,1-.32-4c0-.07.15-.2.16-.09S36.47,223.85,36.46,223.83Z" style="fill:#A5DD9B"></path><path d="M41.55,268a10,10,0,0,1-6.4-1.24,13.94,13.94,0,0,1-4.94-5.07c-2.59-4.63-4.07-9.62-6.64-14.26a13.45,13.45,0,0,0-2.45-3.08,21.91,21.91,0,0,0-3.45-2.45c-.26-.17.09-.39.28-.27a23.77,23.77,0,0,1,8.66,10.2c1.33,2.71,2.16,5.44,3.54,8.07a19,19,0,0,0,4.43,5.62,9,9,0,0,0,3.14,1.62,11.75,11.75,0,0,0,3.59.34c.36,0,.74.47.24.52C41.51,268,41.64,268.1,41.55,268Z" style="fill:#A5DD9B"></path><path d="M40.11,259.26c-.46-.87-1-1.76-1.45-2.6s-.9-1.7-1.44-2.5A28,28,0,0,0,34,249.64a27.12,27.12,0,0,0-8.88-6.18c-2.36-1-4.89-1.07-7.34-1.58-.2,0,0-.23.11-.23a25.39,25.39,0,0,1,6.6,1,19,19,0,0,1,5.27,2.5,33,33,0,0,1,7.65,8.07,21,21,0,0,1,1.53,2.85c.48,1,.84,2.14,1.26,3.18,0,0,0,0,0,0Z" style="fill:#A5DD9B"></path><path d="M41,265.61a6.29,6.29,0,0,0-.77-2c-.4-.71-.8-1.5-1.25-2.25A41.46,41.46,0,0,0,36.15,257a58.22,58.22,0,0,0-6.75-7.38c-.72-.66-1.53-1.18-2.29-1.8a28.38,28.38,0,0,0-2.45-1.73s0-.09.06-.07c1.45.9,2.87,1.68,4.26,2.72a36.41,36.41,0,0,1,4.09,3.39,49,49,0,0,1,6.44,8.34,23.91,23.91,0,0,1,1.33,2.62,5.8,5.8,0,0,1,.65,2.49c0,.23-.44.32-.49.05Z" style="fill:#A5DD9B"></path><path d="M52.41,264.65a35.69,35.69,0,0,1-1.38,10c-.47,1.76-1.05,3.43-1.41,5.26a27.52,27.52,0,0,0-.44,5.62,24,24,0,0,0,.33,3.2c.17,1.1.51,2.36.68,3.48a.52.52,0,0,1-.52.58c-.26,0-.38-.12-.56-.21a.7.7,0,0,1-.3-.45c0-.15.1.2,0,.09a1.86,1.86,0,0,1-.14-.31c-.06-.16-.1-.24-.18-.49s-.17-.48-.26-.87-.26-1-.34-1.55a25.24,25.24,0,0,1-.36-2.9,29.09,29.09,0,0,1,.32-5.85A36.13,36.13,0,0,1,49.44,275c.57-1.71,1.24-3.21,1.71-4.93a26.21,26.21,0,0,0,.86-5.28c0-.17.4-.36.4-.14S52.48,264.7,52.41,264.65Z" style="fill:#A5DD9B"></path><path d="M55.36,251.59a25.78,25.78,0,0,1-2.64,4.62,20.7,20.7,0,0,0-2.53,4.73,25.83,25.83,0,0,0-1,10.35c.1,1.16.39,2.3.43,3.48a12.42,12.42,0,0,1-.07,3.6c-.14.56-1,.23-1.07-.24-.14-1.11-.11-2.32-.2-3.38s-.25-2.05-.34-3.06a25.92,25.92,0,0,1-.1-5.28,19.42,19.42,0,0,1,1.22-5.08,23.9,23.9,0,0,1,2.68-4.64c.58-.84,1.28-1.61,1.88-2.45a25.17,25.17,0,0,0,1.62-2.61s.16-.14.13,0S55.37,251.61,55.36,251.59Z" style="fill:#A5DD9B"></path><path d="M55.42,251.57a16.92,16.92,0,0,0-.05,2.76c.07.95.28,1.89.41,2.84a45.59,45.59,0,0,1,.87,6.17A22.38,22.38,0,0,1,53.45,275a12.73,12.73,0,0,1-2.2,2.5,11,11,0,0,0-2.13,2.58c-.18.35-.83.33-.76-.12a4.62,4.62,0,0,1,1.48-2.41,22.42,22.42,0,0,0,2.09-2.16,19.92,19.92,0,0,0,2.86-5.22,19.19,19.19,0,0,0,.93-6.09,58,58,0,0,0-.61-6.28c-.12-1-.31-2.12-.34-3.17a8.65,8.65,0,0,1,.41-3c0-.08.26-.2.24,0S55.43,251.55,55.42,251.57Z" style="fill:#A5DD9B"></path><path d="M54.91,199.18A65.07,65.07,0,0,0,49,211.36a140.93,140.93,0,0,0-5.29,16.55,103.84,103.84,0,0,0-3,17.59,66.5,66.5,0,0,0,1,17A163,163,0,0,0,53,298.81c2.29,5.17,4.79,10.24,7.16,15.38,2.55,5.52,4.87,11.12,6.87,16.86,4.7,13.49,8.08,27.82,7.46,42.19a41,41,0,0,1-.62,5.74c0,.26-.44.38-.43,0,0-3.65.17-7.29,0-10.94a101.29,101.29,0,0,0-1-10.72,136.44,136.44,0,0,0-5.28-21.74,182.66,182.66,0,0,0-6.88-17.94c-2.34-5.24-4.89-10.39-7.27-15.61A172,172,0,0,1,40.9,265.85a72.65,72.65,0,0,1-1.8-17.2,92,92,0,0,1,2.36-17.4,98.21,98.21,0,0,1,11.74-30c.49-.79,1-1.56,1.51-2.32.16-.23.31.1.2.27Z" style="fill:#A5DD9B"></path></g><g id="freepik--leaves--inject-34" style="opacity:0.2"><path d="M22.44,262.67a18.38,18.38,0,0,0,1.72,6.53c1,2.15,2.89,5.2,3.56,7.56,1.18,4.19.89,7,.11,11.34a50.81,50.81,0,0,1-2.32,7.31.62.62,0,0,1-.64.45c-.29-.05-.31-.32-.23-.56a48,48,0,0,0,2.89-12.95,18,18,0,0,0-.92-6.28c-.72-2.35-2.05-4.34-3-6.58a16,16,0,0,1-1.34-6.82c0-.14.13-.12.14,0S22.44,262.7,22.44,262.67Z" style="fill:#A5DD9B"></path><path d="M23.28,260.61a10.89,10.89,0,0,1-.57,1.9c-.26.63-.57,1.26-.86,1.89-.57,1.29-1.29,2.5-1.77,3.83a32.94,32.94,0,0,0-1.94,7,21.85,21.85,0,0,0,.14,7.26,27.2,27.2,0,0,0,2.7,6.88c.62,1.24,1.46,2.44,2.2,3.62.38.6.81,1.18,1.21,1.76a9.33,9.33,0,0,1,.58.92c.15.31.29.65.42.93s-.07.87-.38.66a7.08,7.08,0,0,1-1.4-1.54,18.34,18.34,0,0,1-1.17-1.61,37.74,37.74,0,0,1-2.07-3.29,31.13,31.13,0,0,1-3-6.95,21.13,21.13,0,0,1-.42-7.56A29.36,29.36,0,0,1,19.11,269c.57-1.44,1.42-2.71,2.1-4.09.35-.73.74-1.43,1.06-2.16s.6-1.48.95-2.2c0-.06.07,0,.06.06S23.29,260.58,23.28,260.61Z" style="fill:#A5DD9B"></path><path d="M37.06,292.57a30,30,0,0,0,1.21,5.56,18.86,18.86,0,0,1,.95,5.81,21.61,21.61,0,0,1-1.37,6,26.16,26.16,0,0,1-1.31,2.89c-.49,1-1.18,2.09-1.61,3.21a16.73,16.73,0,0,0-.91,3.59,11,11,0,0,0-.11,1.92,16.06,16.06,0,0,1,0,2.08c0,.2-.42.51-.53.2a8.21,8.21,0,0,1-.37-3.47,13.9,13.9,0,0,1,.61-3.28c.73-2.18,2-4.2,2.87-6.22a22.35,22.35,0,0,0,1.83-6,18.84,18.84,0,0,0-.46-5.86c-.18-1.09-.57-2.11-.75-3.18a16.19,16.19,0,0,1-.16-3.18c0-.07.11-.21.12-.08S37.07,292.59,37.06,292.57Z" style="fill:#A5DD9B"></path><path d="M36.94,293.41a5.64,5.64,0,0,1-.6,3.56c-.76,1.66-1.65,3.13-2.4,4.79a34.69,34.69,0,0,0-3,9.13,20.51,20.51,0,0,0,.29,5.58c0,.25-.42.58-.5.3a16.92,16.92,0,0,1-.09-8.93c.9-3.35,2.57-6.15,4.14-9.16.48-.91,1.06-1.7,1.51-2.58a4.81,4.81,0,0,0,.56-2.59c0-.05.07-.18.09-.1S36.93,293.39,36.94,293.41Z" style="fill:#A5DD9B"></path><path d="M36.18,302.08a41.22,41.22,0,0,1-2.36,7.28,24.44,24.44,0,0,0-1.64,7.48,16,16,0,0,0,.78,4.31c.07.26-.38.55-.49.28a12.86,12.86,0,0,1-.81-6.92,33,33,0,0,1,2.76-7.87,23.54,23.54,0,0,0,1.66-4.51c0-.06.12-.14.1-.05S36.2,302.1,36.18,302.08Z" style="fill:#A5DD9B"></path><path d="M12.76,295.08A32.24,32.24,0,0,1,15.08,301c.32,1.08.56,2.17.89,3.26a23.91,23.91,0,0,0,1,3.25,15.3,15.3,0,0,0,3.92,5.82A26.89,26.89,0,0,0,27.46,317c.95.42,1.94.6,2.9,1.08a6.42,6.42,0,0,1,1.52,1,3.26,3.26,0,0,1,1.25,2,.42.42,0,0,1-.65.34,12.53,12.53,0,0,1-1.68-1.48,5.12,5.12,0,0,0-1.19-.74c-.77-.36-1.61-.52-2.38-.86a27.85,27.85,0,0,1-6.7-3.65,15,15,0,0,1-4.23-5.79,29.64,29.64,0,0,1-1.59-6.26,38.06,38.06,0,0,0-2.1-7.27c0-.09.09-.33.15-.2S12.81,295.09,12.76,295.08Z" style="fill:#A5DD9B"></path><path d="M13,295.59a21.75,21.75,0,0,1,1.53,1.89c.5.65.91,1.38,1.46,2a18.89,18.89,0,0,0,3.68,3.4,42.83,42.83,0,0,1,7.71,6.37,11.75,11.75,0,0,1,1.45,2.28,8.58,8.58,0,0,1,.52,1.26,6.28,6.28,0,0,1,.3,1.32c0,.42-.5.61-.68.28a30.11,30.11,0,0,0-2.51-4.49,20,20,0,0,0-3.41-3.35c-2.63-2.08-5.29-3.84-7.48-6.37a16.79,16.79,0,0,1-1.34-2.11c-.46-.71-.89-1.54-1.36-2.27-.06-.08,0-.33.13-.23Z" style="fill:#A5DD9B"></path><path d="M19.63,306.74a26.7,26.7,0,0,0,5.2,5.15,54.91,54.91,0,0,1,5.63,4.67A10.79,10.79,0,0,1,31.61,318a5.79,5.79,0,0,1,.4.78,2.19,2.19,0,0,1,.19.54,1.37,1.37,0,0,1,0,.57c0,.21-.18.49-.43.27a4.73,4.73,0,0,1-.6-.81c-.2-.31-.3-.55-.57-.92a11.83,11.83,0,0,0-.95-1.25,26.8,26.8,0,0,0-2.41-2.35c-1.81-1.54-3.73-3-5.42-4.67a17,17,0,0,1-2.31-3.28c0-.07,0-.25.09-.17S19.65,306.76,19.63,306.74Z" style="fill:#A5DD9B"></path><path d="M23,276.05a59.32,59.32,0,0,0,.68,9.13c.5,3.86,1.1,7.69,1.88,11.49A115.82,115.82,0,0,0,33.25,321a66.81,66.81,0,0,0,6,10.79c2.82,4,5.83,8,8.8,11.89C52,348.9,56,354,60,359.19c3.64,4.73,7.19,9.54,10.42,14.56a18,18,0,0,1,1.22,2.19c.09.18-.17.62-.36.4a46.48,46.48,0,0,1-3.49-4.64q-1.38-1.93-2.79-3.86c-1.63-2.22-3.3-4.41-5-6.59-3.89-5-7.86-10-11.71-15q-4.35-5.73-8.59-11.54A72.6,72.6,0,0,1,33.11,324a107.14,107.14,0,0,1-8.32-24.21c-1.59-7.09-2.74-14.44-2.22-21.73q.06-1,.15-1.92c0-.23.31-.33.3-.05Z" style="fill:#A5DD9B"></path></g><g id="freepik--plants--inject-34"><g id="freepik--leaves--inject-34"><path d="M462.87,344.08s1.61-8.43,11.41-15.32c7.85-5.52,13.44-5.26,13.87-4.34s-1.87,4.45-10.55,10.71C474,337.74,462.87,344.08,462.87,344.08Z" style="fill:#A5DD9B"></path><path d="M451.07,359c.51-.85,7.37-7.59,16.39-12.35,4.8-2.53,8-2.4,8.1-1.19.06.71-2.28,4.19-9.6,8S450.56,359.89,451.07,359Z" style="fill:#A5DD9B"></path><path d="M451.07,359c.51-.85,7.37-7.59,16.39-12.35,4.8-2.53,8-2.4,8.1-1.19.06.71-2.28,4.19-9.6,8S450.56,359.89,451.07,359Z" style="fill:#fff;opacity:0.30000000000000004"></path><path d="M457.22,350.24c.68-.76,1.68-4.06,2.38-9.74.48-3.84,1.33-8.29.13-8.73s-4.13,3.57-4.7,8S456.54,351,457.22,350.24Z" style="fill:#A5DD9B"></path><path d="M446.82,365.24c.67-1,1.09-7.73,1.26-10.84s-.26-6.75-1.63-7.62-3.39,2.91-3.25,8.18S446.15,366.2,446.82,365.24Z" style="fill:#A5DD9B"></path><path d="M446.82,365.24c.67-1,1.09-7.73,1.26-10.84s-.26-6.75-1.63-7.62-3.39,2.91-3.25,8.18S446.15,366.2,446.82,365.24Z" style="fill:#fff;opacity:0.30000000000000004"></path><path d="M445.2,368.41c.15-.93,4.73-4.06,9.74-6.31,6.46-2.9,9.35-2.56,9.41-.57s-2.76,5.09-8.29,6.84C448.11,370.89,445.05,369.33,445.2,368.41Z" style="fill:#A5DD9B"></path><path d="M482.87,327.05A103.92,103.92,0,0,0,465.5,340.7,122.42,122.42,0,0,0,451,357.46a113,113,0,0,0-11.55,20.92h1.77a134.3,134.3,0,0,1,10.83-20.19,120.43,120.43,0,0,1,14-16.91A103.1,103.1,0,0,1,483,327.18a.08.08,0,0,0,0-.11A.07.07,0,0,0,482.87,327.05Z" style="fill:#263238"></path></g><g id="freepik--leaves--inject-34"><path d="M450.16,315.17s-.34-8.58,7.65-17.5c6.4-7.16,11.91-8.16,12.53-7.37s-.82,4.76-7.85,12.82C459.56,306.48,450.16,315.17,450.16,315.17Z" style="fill:#A5DD9B"></path><path d="M442.05,332.41c.3-.94,5.46-9.06,13.17-15.73,4.11-3.56,7.25-4.15,7.62-3,.22.68-1.28,4.6-7.53,10S441.74,333.35,442.05,332.41Z" style="fill:#A5DD9B"></path><path d="M442.05,332.41c.3-.94,5.46-9.06,13.17-15.73,4.11-3.56,7.25-4.15,7.62-3,.22.68-1.28,4.6-7.53,10S441.74,333.35,442.05,332.41Z" style="fill:#fff;opacity:0.30000000000000004"></path><path d="M446.17,322.11c.57-.84,1.16-4.24,1.16-10,0-3.86-.17-9.94-1.41-10.21-2.15-.47-3.21,5.59-3.22,10.08S445.59,323,446.17,322.11Z" style="fill:#A5DD9B"></path><path d="M446.17,322.11c.57-.84,1.16-4.24,1.16-10,0-3.86-.17-9.94-1.41-10.21-2.15-.47-3.21,5.59-3.22,10.08S445.59,323,446.17,322.11Z" style="fill:#fff;opacity:0.30000000000000004"></path><path d="M442,331.74c.43-1.08-.69-7.77-1.23-10.84s-1.78-6.51-3.31-7-2.65,3.59-1.32,8.69S441.58,332.83,442,331.74Z" style="fill:#A5DD9B"></path><path d="M437.77,347.5c-.16-.92,3.35-5.49,7.06-9.53s9.12-7.93,9.81-6.07-1.35,5.27-5.68,9.12C444.15,345.29,437.92,348.43,437.77,347.5Z" style="fill:#A5DD9B"></path><path d="M436.11,355.29c.36-.48-1.67-4.92-3.42-9.64s-2.46-6.68-4-6.62-2.79,3.22-.36,8.24S435.75,355.77,436.11,355.29Z" style="fill:#A5DD9B"></path><path d="M438.9,378.39c-2.09-6.79-2.4-18.94-1.49-25.89a91.51,91.51,0,0,1,5.42-21.14,122.12,122.12,0,0,1,9.81-19.65,103.73,103.73,0,0,1,13.26-17.54.09.09,0,0,0,0-.12.08.08,0,0,0-.11,0A103.52,103.52,0,0,0,452,311.29a122.81,122.81,0,0,0-10.32,19.59,76.41,76.41,0,0,0-5.82,21.44c-.66,7.1-.09,19.51,2.79,26.05Z" style="fill:#263238"></path></g></g><g id="freepik--plants--inject-34"><g id="freepik--leaves--inject-34"><path d="M35.66,344.08s-1.61-8.43-11.41-15.32c-7.85-5.52-13.44-5.26-13.87-4.34s1.87,4.45,10.55,10.71C24.54,337.74,35.66,344.08,35.66,344.08Z" style="fill:#A5DD9B"></path><path d="M47.46,359c-.51-.85-7.37-7.59-16.39-12.35-4.8-2.53-8-2.4-8.1-1.19-.06.71,2.28,4.19,9.6,8S48,359.89,47.46,359Z" style="fill:#A5DD9B"></path><path d="M47.46,359c-.51-.85-7.37-7.59-16.39-12.35-4.8-2.53-8-2.4-8.1-1.19-.06.71,2.28,4.19,9.6,8S48,359.89,47.46,359Z" style="fill:#fff;opacity:0.30000000000000004"></path><path d="M41.31,350.24c-.68-.76-1.68-4.06-2.38-9.74-.48-3.84-1.33-8.29-.13-8.73s4.13,3.57,4.7,8S42,351,41.31,350.24Z" style="fill:#A5DD9B"></path><path d="M51.71,365.24c-.67-1-1.09-7.73-1.26-10.84s.26-6.75,1.63-7.62,3.39,2.91,3.25,8.18S52.38,366.2,51.71,365.24Z" style="fill:#A5DD9B"></path><path d="M51.71,365.24c-.67-1-1.09-7.73-1.26-10.84s.26-6.75,1.63-7.62,3.39,2.91,3.25,8.18S52.38,366.2,51.71,365.24Z" style="fill:#fff;opacity:0.30000000000000004"></path><path d="M53.33,368.41c-.15-.93-4.73-4.06-9.74-6.31-6.46-2.9-9.35-2.56-9.41-.57s2.76,5.09,8.29,6.84C50.42,370.89,53.48,369.33,53.33,368.41Z" style="fill:#A5DD9B"></path><path d="M15.66,327.05A103.92,103.92,0,0,1,33,340.7a122.42,122.42,0,0,1,14.48,16.76,79.3,79.3,0,0,1,9.75,17.47H55.49a92,92,0,0,0-9-16.74,120.43,120.43,0,0,0-14-16.91,103.1,103.1,0,0,0-16.88-14.1.08.08,0,0,1,0-.11A.07.07,0,0,1,15.66,327.05Z" style="fill:#263238"></path></g><g id="freepik--leaves--inject-34"><path d="M48.37,315.17s.34-8.58-7.65-17.5c-6.4-7.16-11.91-8.16-12.53-7.37S29,295.06,36,303.12C39,306.48,48.37,315.17,48.37,315.17Z" style="fill:#A5DD9B"></path><path d="M56.48,332.41c-.3-.94-5.46-9.06-13.17-15.73-4.11-3.56-7.25-4.15-7.62-3-.22.68,1.28,4.6,7.53,10S56.79,333.35,56.48,332.41Z" style="fill:#A5DD9B"></path><path d="M56.48,332.41c-.3-.94-5.46-9.06-13.17-15.73-4.11-3.56-7.25-4.15-7.62-3-.22.68,1.28,4.6,7.53,10S56.79,333.35,56.48,332.41Z" style="fill:#fff;opacity:0.30000000000000004"></path><path d="M52.36,322.11c-.57-.84-1.16-4.24-1.16-10,0-3.86.17-9.94,1.41-10.21,2.15-.47,3.21,5.59,3.21,10.08S52.94,323,52.36,322.11Z" style="fill:#A5DD9B"></path><path d="M52.36,322.11c-.57-.84-1.16-4.24-1.16-10,0-3.86.17-9.94,1.41-10.21,2.15-.47,3.21,5.59,3.21,10.08S52.94,323,52.36,322.11Z" style="fill:#fff;opacity:0.30000000000000004"></path><path d="M56.51,331.74c-.43-1.08.69-7.77,1.23-10.84s1.78-6.51,3.31-7,2.64,3.59,1.32,8.69S57,332.83,56.51,331.74Z" style="fill:#A5DD9B"></path><path d="M60.76,347.5c.16-.92-3.35-5.49-7.06-9.53s-9.12-7.93-9.81-6.07,1.35,5.27,5.68,9.12C54.38,345.29,60.61,348.43,60.76,347.5Z" style="fill:#A5DD9B"></path><path d="M62.42,355.29c-.36-.48,1.67-4.92,3.42-9.64s2.46-6.68,4-6.62,2.79,3.22.36,8.24S62.78,355.77,62.42,355.29Z" style="fill:#A5DD9B"></path><path d="M59.63,373.4a49.28,49.28,0,0,0,1.49-20.9,91.51,91.51,0,0,0-5.42-21.14,122.12,122.12,0,0,0-9.81-19.65,103.73,103.73,0,0,0-13.26-17.54.09.09,0,0,1,0-.12.08.08,0,0,1,.11,0,103.52,103.52,0,0,1,13.83,17.24,122.81,122.81,0,0,1,10.32,19.59,76.41,76.41,0,0,1,5.82,21.44c.66,7.1.09,14.52-2.79,21.06Z" style="fill:#263238"></path></g></g></g><g id="freepik--Shadows--inject-34"><ellipse id="freepik--Shadow--inject-34" cx="407.6" cy="404.46" rx="58.49" ry="33.77" style="fill:#e0e0e0"></ellipse><ellipse id="freepik--shadow--inject-34" cx="319.05" cy="403.78" rx="59.19" ry="34.17" style="fill:#e0e0e0"></ellipse><ellipse id="freepik--shadow--inject-34" cx="107.65" cy="384.72" rx="62.61" ry="36.15" style="fill:#e0e0e0"></ellipse><ellipse id="freepik--shadow--inject-34" cx="213.7" cy="411.91" rx="74.04" ry="42.75" style="fill:#e0e0e0"></ellipse></g><g id="freepik--character-4--inject-34"><g id="freepik--Character--inject-34"><g id="freepik--Legs--inject-34"><path d="M433.09,319.78c-.6,4.34.37,10.83,1.59,17.05,0,0-2,9.65-18,9.94s-24.22-10.34-24.22-10.34l-1.55-20.93Z" style="fill:#b16668"></path><path d="M404.84,177.51c.39,13.82-5.5,39.83-9.62,53.3s-7.6,21.31-8,45.07,3.62,39.62,3.62,39.62l42.21,4.28s-18-47.64-17.7-66.55,6.72-32,5.49-50-4.39-25.2-4.39-25.2Z" style="fill:#37474f"></path><path d="M392.28,298.27l27.33-.79c.49-3.88,1-7.75,1.47-11.62-3.22-12.37-5.82-25-5.69-32.63.33-18.9,6.72-32,5.49-50s-4.39-25.2-4.39-25.2l-2.43-.1-2.78,1.46s-.92,33.66-1.64,41.27c-.51,5.43-4.13,14.36-4.51,22s-.33,22.34.09,28.55-3,6.79-7,10.13S391.73,293.87,392.28,298.27Z" style="fill:#263238"></path><path d="M411.72,137.4c-1.5-1.42-2.93-.74-4.48,1.87s-2.78,4.85-3.17,11.49.77,26.75.77,26.75,6.62,3.77,11.65.48c-1.62-3.79-.29-5.93,1.39-8.42s3-5.9.54-9.56a17,17,0,0,1-3.23-11.31C415.4,144.16,414.89,140.39,411.72,137.4Z" style="fill:#9a4a4d"></path><path d="M433.09,319.78c.74-3.09,1.51-4.37,3.63-8.21,6-10.77,3.12-25.17-1.36-47.48-4.38-21.88-6.21-21.22-4.21-33.59s3.36-20.13-1.21-35.58-5.61-18.83-5.61-18.83-6.16,3.36-11.91.34c.36,12.73.6,35-1.51,49.5-.73,5-3.4,10.77-3.71,24.47s.6,29.46.6,29.46-7.31.32-12.79,11-4.13,24.66-4.13,24.66,2.31,4,15.31,6.95C419.73,325.49,433.09,319.78,433.09,319.78Z" style="fill:#37474f"></path><path d="M412.42,176.43c-.26-9-.12-13.43-1.42-19.93s.32-14.7-.51-17.57,2.55-3.46,3.74-1.48c1.51-.44,3.92,1.25,4.5,3.26,2.57,2.06,3.28,3.74,3.59,10s2.89,7.71,4.07,9.56,1.5,6.54-.83,8.37-2.47,3.32-1.23,7.44C420.45,180.19,414.24,180,412.42,176.43Z" style="fill:#b16668"></path><path d="M415.29,299.33s-5.64-6.05-7.49-19.47l-3.25-.57S405.36,293.26,415.29,299.33Z" style="fill:#263238"></path></g><g id="freepik--Chest--inject-34"><path d="M390.75,353.92S375.44,380.82,371,393c-3.49,9.64-2.52,14.56,5.18,16.29s40.95-5.53,40.95-5.53l-2.2-8.53-24.92-2.36,15.17-22.07Z" style="fill:#9a4a4d"></path><path d="M390.05,392.87c-3.59,6.31-10.77,8.73-10.77,8.73a14.61,14.61,0,0,0,12.66-8.55Z" style="opacity:0.15"></path><path d="M403.09,374.44c-6.07-3.12-17.11-11.51-16.34-22.75.5-7.16,5.6-10.75,5.27-14.57,0,0,6.25,6.58,23.13,5.79,15.43-.72,20.08-4.77,20.08-4.77.09.66,4.67,15.59,5.23,25.5.25,4.32-6.48,12.26-14.33,13.82C415.59,379.56,403.09,374.44,403.09,374.44Z" style="fill:#A5DD9B"></path><path d="M392,337.12s6.25,6.58,23.13,5.79c15.43-.72,20.08-4.77,20.08-4.77l-1.13-5.43s-3.56,3.85-19,4.58c-16.88.78-23.13-5.79-23.13-5.79Z" style="fill:#37474f"></path><g id="freepik--Head--inject-34"><path d="M405.3,388.62l-8.23,9.73c-5.32,1.75-7.66,9.29-6.69,13.35,1.84,7.75,8.29,11.5,14.12,12.26,11.06,1.44,17.94-2.76,19.51-8.42,1.67,0,4.8-1.89,6.24-5.07,1.81-4,2.09-10.38.76-13.7-2-4.93-2.83-5.54-5.17-8-1.95-2.05-3.87-3.48-5.09-5.52Z" style="fill:#263238"></path><path d="M396.82,382.85c1.84-1.06,3.69-1.48,7.48-2.23l.07-1.45c.13-3.53.12-4.11-1.28-4.73-3.22-6.11,1.27-17.91,1.27-17.91s4.71,13.6,17.71,20.27c-.88.66-1.13,1.73-1.24,4.44l.29,10.25s.12-1,2-1.18a5.39,5.39,0,0,1,4.71,2.32c2.22,3.41,2.26,5.72.9,8.31-.91,1.73-4.33,2.64-6,1.33s-1.71-2.39-2.27-3.81-3-1.8-2.92,3.71c-3.55.37-4.67,5.88-4.08,10.77-3.31,2.41-9.93,3.67-14.86,1.91-2-.72-4.12-2-5-5.8a15.2,15.2,0,0,1-.25-5.69c.18-1.49-.54-2.33-.83-4.5a26,26,0,0,1,0-5.77C393,386.77,394.84,384,396.82,382.85Z" style="fill:#b16668"></path><polygon points="402.14 359.76 402.14 359.76 402.14 359.76 402.14 359.76" style="fill:#b16668"></polygon><path d="M406.13,402.49a1.36,1.36,0,0,1,1.26-1.61,1.51,1.51,0,0,1,1.87,1.11c.14.86-.85-.12-1.72,0S406.27,403.36,406.13,402.49Z" style="fill:#263238"></path><path d="M394.62,401.81a1.43,1.43,0,0,1,1.86-1,1.45,1.45,0,0,1,1.23,1.73c-.2.85-.69-.29-1.55-.49S394.42,402.67,394.62,401.81Z" style="fill:#263238"></path><path d="M394.71,405.47l3.62,1.4a1.86,1.86,0,0,1-2.45,1.15A2,2,0,0,1,394.71,405.47Z" style="fill:#263238"></path><path d="M407,407l3.79-1.71a2,2,0,0,1-1,2.73A2.19,2.19,0,0,1,407,407Z" style="fill:#263238"></path><path d="M405.33,392.76l-3.84-.82a2,2,0,0,1,2.52-1.46A1.85,1.85,0,0,1,405.33,392.76Z" style="fill:#9a4a4d"></path><polygon points="402.28 404.74 401.84 395.32 396.99 397.93 402.28 404.74" style="fill:#9a4a4d"></polygon><polygon points="401.84 395.32 397.45 395.78 396.99 397.93 401.84 395.32" style="fill:#b16668"></polygon><path d="M400.15,383.48c4.27-.43,6.64-1.2,11.08-.6,4.16.55,5.9,2.94,7.16,5.11-1.2-3.19-2.25-4.22-3.31-5-2.35-1.71-4.76-2.29-10.78-2.37-3.4.67-4.82.9-6.59,1.79C396.76,382.86,397.83,383.72,400.15,383.48Z" style="fill:#9a4a4d"></path></g><path d="M429.35,348.94c-5.3,1.53-11,8.13-9.64,27.16s2.61,39.28,7.28,46.2c3.38,5,10,5.9,13.16-3.3s1.63-39.64.87-50.87S435.08,347.3,429.35,348.94Z" style="fill:#b16668"></path><path d="M429.35,348.94a10.62,10.62,0,0,0-4.87,3.32,16.46,16.46,0,0,0-2.85,5.19,38,38,0,0,0-1.81,11.75c-.07,4,.29,8,.57,12s.59,8,1,12,.73,8,1.26,11.92a84.39,84.39,0,0,0,2.28,11.73,22.19,22.19,0,0,0,2.3,5.44,10.38,10.38,0,0,0,2,2.16,7.19,7.19,0,0,0,2.58,1.32,5.62,5.62,0,0,0,2.88-.06,6.8,6.8,0,0,0,2.49-1.54,13.72,13.72,0,0,0,3-5.09,13.44,13.44,0,0,1-2.91,5.23,7,7,0,0,1-2.54,1.65,5.81,5.81,0,0,1-3,.15,7.38,7.38,0,0,1-2.74-1.34,10.58,10.58,0,0,1-2.1-2.23,22.25,22.25,0,0,1-2.46-5.53,79.59,79.59,0,0,1-2.39-11.8c-.56-4-1-8-1.33-11.95s-.62-8-.89-12a120.16,120.16,0,0,1-.48-12,38.61,38.61,0,0,1,2-11.85,16.61,16.61,0,0,1,3-5.19A10.47,10.47,0,0,1,429.35,348.94Z" style="fill:#9a4a4d"></path></g></g></g><g id="freepik--character-3--inject-34"><g id="freepik--character--inject-34"><g id="freepik--Bottom--inject-34"><g id="freepik--Leg--inject-34"><path d="M286.71,255.26l57.63,4.88a128,128,0,0,0-.14,14.39c1.08,12.53.38,22.32-1.62,40.16-1.66,14.89-3,18.91-5.39,27.71-1.77,6.45-5.61,31.71-7.19,43.58-.81,6.16,1.41,9.14,3.68,12.34,2.07,2.91,8.47,8.1,12.17,10.73,2,1.4,6.95,3.07,5.16,5.57s-3.65,3.38-8.44,4.22c-3.37.59-9.48.32-12.54-1.36-2.4-1.33-4.77-4.84-6.68-7.65-2.34-3.42-4.48-4.68-9.69-7.74-2.18-1.28-3.33-4.73-2.12-7.9,1-2.49,2.75-5.16,3-8.06.44-5.84-2.52-25.32-3.23-32.57a37.76,37.76,0,0,1,.64-11.11A42.26,42.26,0,0,1,316,330.79l-7.63-41.34C303.76,287.75,287.14,273.86,286.71,255.26Z" style="fill:#ffbda7"></path><path d="M307.65,289.83l7.77,40.39a66,66,0,0,0-3.88,10c-1.14,4.39-1.31,9.29.54,20.16,3.57,3.57,18.55,4.05,21.37,2.21,1.07-6.51,3.64-17.82,4.61-21.18s3.21-7.82,4.51-16.54,2.14-19.12,2.79-31.78.63-25.07-1-33l-57.63-4.88s-1,7.4,4,16.49S302.35,287.37,307.65,289.83Z" style="fill:#37474f"></path><path d="M318.86,293.53c7.69-3.39,14.34-6.77,16.21-14-6.38,8.24-14.36,9-18.55,8.44l-7.47,9.19,3.22,16.71,3.15,16.4s-1.54,3.18-2.8,6.62c-.2.57-.4,1.16-.59,1.73s-.35,1.14-.49,1.69h0a25.22,25.22,0,0,0-.77,4.75,4.47,4.47,0,0,0,3.52.6c6.89-1.79,10.46-9.43,10.59-13,.31-8-2.51-11.73-3.09-14s0-7.34-1.35-10.43-4.92-2.64-4.92-2.64-.19-2-.19-3.44S314.84,295.31,318.86,293.53Z" style="fill:#263238"></path></g><g id="freepik--leg--inject-34"><path d="M307.1,324.23c.58,1.87,3,10.22,3,14.81,0,2.43-.34,6,1.27,6.78s4.47.29,7.6-3.5a20.84,20.84,0,0,0,4.34-10.39c.31-2.75-1.21-9.42-2.07-11.36-1.17-2.68-.91-3.82-1.11-9.9-.1-3.26-1.88-6-5.06-5.94-2.25,0-3,.72-9.1,1.78s-27.74-2.09-35.8,1.69c-16.85,7.92-14.6,20.39-14.6,20.39,4.79,6.27,14.43,6.08,19.73,4.68,7.51-2,23.42-10.69,27.13-11.83S306.52,322.37,307.1,324.23Z" style="fill:#ffbda7"></path><path d="M255.43,329.05c3,3.36,7.42,5.75,14.41,5.48s15.67-5.27,15.67-5.27,4.83-11.56-.13-23.79c-13.61.46-20.05,2.13-25.11,8.51S255.43,323.76,255.43,329.05Z" style="fill:#263238"></path><path d="M286.71,255.26c4.47,5.47,14.48,10.29,27,12.4,16.77,2.84,28.76-4.41,30.68-7.52,1.59,9.94-11.44,28.95-27.82,27.78A170.42,170.42,0,0,1,303,303.69c-6,6.07-15.42,15.17-18.47,18.36s-16.37,15.14-25.68,9.72-5.89-14-4.31-19.66c1-3.63,5.9-12.91,9.87-19.57s6.93-11.87,9.06-15,3.23-8.16,4.71-11.62C280.43,260.76,284.67,255.84,286.71,255.26Z" style="fill:#37474f"></path></g></g><g id="freepik--Top--inject-34"><path d="M322.91,196.29c5.4,0,11.32-.46,16.7,5.08,6.57,6.76,13.69,20.34,17.41,30.13,1.36,3.58,2.57,10.41,1.85,13.76a5.41,5.41,0,0,1-5.81,4.62,19.31,19.31,0,0,1-11.13-3.68c-2.39-1.86-3.49-3.11-4.74-4.06Z" style="fill:#ffbda7"></path><path d="M344.8,233.12c2.28-.32,5.62,0,7.61,1.86-1-1.75-3.63-3.27-7.92-2.67Z" style="fill:#f0997a"></path><g id="freepik--chest--inject-34"><g id="freepik--Bikini--inject-34"><path d="M341.72,237.47a11.89,11.89,0,0,0,.48-6,15.68,15.68,0,0,0,2.72-16.59c-2.7-6.23-7.43-9.25-12.93-13-4.63-3.15-9.08-5.63-9.08-5.63l-1.89-.07c2.19,2.12,2.1,5.8-3.95,6.76-9,1.42-12.32-2.27-16-6.1l-4.31,1s3,9.46,1.21,18.75-9.55,9.2-9.55,9.2a44,44,0,0,0,1.11,10.86,11.89,11.89,0,0,1-.7,7.09,93.28,93.28,0,0,1-5.1,10.16,52.81,52.81,0,0,0-4.48,9.41,29.72,29.72,0,0,0,13.44-.23c9.83,9.83,27.5,14.83,40.11,9.82s11.7-14.28,11.7-14.28Z" style="fill:#A5DD9B"></path><path d="M341.72,237.47a11.89,11.89,0,0,0,.48-6,15.68,15.68,0,0,0,2.72-16.59c-2.7-6.23-7.43-9.25-12.93-13-4.63-3.15-9.08-5.63-9.08-5.63l-1.89-.07c2.19,2.12,2.1,5.8-3.95,6.76-9,1.42-12.32-2.27-16-6.1l-4.31,1s3,9.46,1.21,18.75-9.55,9.2-9.55,9.2a44,44,0,0,0,1.11,10.86,11.89,11.89,0,0,1-.7,7.09,93.28,93.28,0,0,1-5.1,10.16,52.81,52.81,0,0,0-4.48,9.41,29.72,29.72,0,0,0,13.44-.23c9.83,9.83,27.5,14.83,40.11,9.82s11.7-14.28,11.7-14.28Z" style="opacity:0.35000000000000003"></path><path d="M326,228.93c-3.3,5-9.28,6.29-15.25,5.29-4.7-.8-9.52-3.93-11-7.69.47,4,2.37,7.88,10.22,9.53C318.82,237.92,324.61,233.22,326,228.93Z" style="opacity:0.2"></path></g></g><g id="freepik--Arm--inject-34"><path d="M344.05,247.63a55.33,55.33,0,0,1-7.46-5.94c-1.58-1.3-3.27-2.16-3.86-4.25-.84-3,0-4.87-.27-7.81a9.33,9.33,0,0,1,.23-4.08s0-1.64-1.91-5.73c-.7-1.5-.64-2.76.51-3.16-.67-2.09.23-2.9,1.25-2.89-.56-1.63-.91-3.12.68-3.9.17-.08.61.4,1.19,1.56,0-1.11,1.15-2.33,1.73-1.56a88.68,88.68,0,0,1,4.88,7.84c1.72,3.15,2,4.55,2.54,10.47.15,1.59.13,5.23,3.51,7" style="fill:#ffbda7"></path><path d="M341,217.71a16.55,16.55,0,0,1,1.17,2.1,14.15,14.15,0,0,1,.78,2.3,34.93,34.93,0,0,1,.72,4.75,29.76,29.76,0,0,0,.61,4.69,6.39,6.39,0,0,0,2.77,3.67,6,6,0,0,1-1.94-1.42,6.7,6.7,0,0,1-1.22-2.12,10.32,10.32,0,0,1-.51-2.38c-.08-.81-.15-1.59-.24-2.38-.16-1.59-.31-3.17-.59-4.73A17.91,17.91,0,0,0,341,217.71Z" style="fill:#f0997a"></path><path d="M338.15,230.65a9.31,9.31,0,0,0-1-4s-.28-1.62.85-6c.42-1.6.13-2.83-1.07-3,.28-2.18-.75-2.81-1.75-2.62.26-1.7.33-3.23-1.37-3.71-.18-.05-.53.51-.89,1.75a2.14,2.14,0,0,0-.89-1.34,6.88,6.88,0,0,0,.47,2c-1,0-1.92.8-1.25,2.89-1.15.4-1.21,1.66-.51,3.16,1.9,4.09,1.91,5.73,1.91,5.73a9.33,9.33,0,0,0-.23,4.08c.23,2.94-.57,4.83.27,7.81a6.63,6.63,0,0,0,3.84,4.29l1.08.84a8.8,8.8,0,0,0,1.84-3.85C340.05,235.39,338.45,233.58,338.15,230.65Z" style="fill:#f0997a"></path></g><path d="M296.75,197.87c-9.63,1.63-15.05,6.26-14.57,17,.33,7.34,5.13,29.66,9.62,40,2.25,5.16,4.35,7.88,12.71,6,9-2,28.52-13.91,31.07-17.11s-8.27-7.93-11.38-6.35-17.78,4.42-17.78,4.42l-3.5-18.48S303.73,203.14,296.75,197.87Z" style="fill:#ffbda7"></path><g id="freepik--arm--inject-34"><path d="M332.27,246.37c4.53-2.82,6.18-5.49,6.55-7.63.56-3.33-1-5.14-1.33-8.07a9.47,9.47,0,0,0-1-4s-.28-1.62.85-6c.42-1.6.13-2.84-1.07-3,.29-2.18-.74-2.81-1.75-2.62.26-1.7.34-3.23-1.37-3.71-.18-.05-.53.51-.89,1.75-.18-1.1-1.55-2.09-2-1.23a89.54,89.54,0,0,0-3.4,8.6c-1.12,3.4-1.1,4.82-.61,10.75.14,1.59,1.26,4.39-2.1,6.14" style="fill:#ffbda7"></path><path d="M335.47,218.83a34.82,34.82,0,0,0-1.56,5.61c-.1,1.07-.24,3.35-.24,3.35a13.71,13.71,0,0,1-.16-3.53A16,16,0,0,1,335.47,218.83Z" style="fill:#f0997a"></path><path d="M334.3,215.21c-.63,1.85-2,4.47-2.27,5.82a37.09,37.09,0,0,0-.43,6.18,15.29,15.29,0,0,1,0-6.36C332.12,218.74,333.11,217.61,334.3,215.21Z" style="fill:#f0997a"></path><path d="M332.29,213.11c-.94,2.52-2.46,6-2.77,7.09a51.38,51.38,0,0,0-.43,6.07,27.92,27.92,0,0,1-.24-5.3C329.08,219.12,332.29,213.11,332.29,213.11Z" style="fill:#f0997a"></path></g><path d="M296.1,151.2c-2.35,1.79-5.5,5.83-4.55,11-2,.75-4.45,4.26-4,10.84s1,20.32,8.84,21a9.09,9.09,0,0,1-.47-6.36s0,4.66,6.56,6.37c6.09,1.58,18.19-.42,22.3-3.12-2.94-1.8-.66-9.18.32-10.91l-4.85-2.78,5.7-5.5c1.24-1.2,3.79-2,5.08-4.63a5.44,5.44,0,0,0,.25-4.5s3-2.07-.77-9S309.49,141,296.1,151.2Z" style="fill:#e0e0e0"></path><path d="M296.1,151.2c-2.35,1.79-5.5,5.83-4.55,11-2,.75-4.45,4.26-4,10.84s1,20.32,8.84,21a9.09,9.09,0,0,1-.47-6.36s0,4.66,6.56,6.37c6.09,1.58,18.19-.42,22.3-3.12-2.94-1.8-.66-9.18.32-10.91l-4.85-2.78,5.7-5.5c1.24-1.2,3.79-2,5.08-4.63a5.44,5.44,0,0,0,.25-4.5s3-2.07-.77-9S309.49,141,296.1,151.2Z" style="fill:#e0e0e0"></path><path d="M296.1,151.2c-2.35,1.79-5.5,5.83-4.55,11-2,.75-4.45,4.26-4,10.84s1,20.32,8.84,21a9.09,9.09,0,0,1-.47-6.36s0,4.66,6.56,6.37c6.09,1.58,18.19-.42,22.3-3.12-2.94-1.8-.66-9.18.32-10.91l-4.85-2.78,5.7-5.5c1.24-1.2,3.79-2,5.08-4.63a5.44,5.44,0,0,0,.25-4.5s3-2.07-.77-9S309.49,141,296.1,151.2Z" style="fill:#e0e0e0"></path><path d="M296.42,194.06a9.09,9.09,0,0,1-.47-6.36s0,4.66,6.56,6.37c6.09,1.58,18.19-.42,22.3-3.12-2.94-1.8-.66-9.18.32-10.91l-2.57-1.47-23.1,2.84.81,5.12s-2.41.66-4.69-2.7c-1.55,1.82-2.49,6.38-2.49,6.38a10.9,10.9,0,0,1-4.12-5.57C290.08,189.48,292.18,193.7,296.42,194.06Z" style="opacity:0.1"></path><path d="M322.64,154.43c3.4,1,6,4.28,7.73,18,1.51,11.67-1.68,15.1-3.37,16.2s-5,1.25-8.52,1.18c0,0,.39,4.6.54,5.51s2,.86,2,.86a3.52,3.52,0,0,1,1.55,3.89c-.62,2.8-5.59,4.28-12.11,3.14-6.11-1.06-9.4-6.37-9.4-6.37a1.67,1.67,0,0,0,1.58-1.82c-.07-1.16-1.2-11.93-1.2-11.93a5,5,0,0,1-5.65.12c-3.19-2.14-4.07-6.38-2.23-9,1.38-2,3.83-3.12,5.93-1.42a5.67,5.67,0,0,1,1.4,1.78,5.68,5.68,0,0,0,.65,1.06,1.39,1.39,0,0,0,1.09.53,1.46,1.46,0,0,0,1.1-.75,8.46,8.46,0,0,0,.54-1.28c1.48-3.52,5.87-5.06,8.76-7.16C319.6,162.21,322.62,158.64,322.64,154.43Z" style="fill:#ffbda7"></path><path d="M311.8,170.4a1.25,1.25,0,0,0-.43-.17,3.56,3.56,0,0,0-.47-.1,3.13,3.13,0,0,0-.43,0h-.21a.43.43,0,0,0-.23,0c-.08,0,0,.23,0,.26a.56.56,0,0,0,.22,0l.23,0,.44.06a3.29,3.29,0,0,1,.43.09l.2.06a.54.54,0,0,0,.22,0c.05,0,.07-.08.07-.12A.21.21,0,0,0,311.8,170.4Zm-1.28,1.08.46,0,.44,0c.16,0,.38,0,.45-.16a.12.12,0,0,0,0-.14.36.36,0,0,0-.24-.09l-.3,0a2.5,2.5,0,0,0-.47.05,2.73,2.73,0,0,0-.48.1c-.12,0-.27.07-.31.2a.13.13,0,0,0,0,.12C310.17,171.54,310.37,171.49,310.52,171.48Zm1.25.3a3.58,3.58,0,0,0-.71.2l-.31.16a.42.42,0,0,0-.14.09.93.93,0,0,0-.13.15c0,.05,0,.2.07.19a4.43,4.43,0,0,0,.67-.23,4.54,4.54,0,0,1,.63-.18.15.15,0,0,0,.1-.19C311.93,171.9,311.86,171.77,311.77,171.78Z" style="fill:#f0997a"></path><path d="M327.27,168.12s0,.11.09.1a.76.76,0,0,0,.21-.08l.19-.1.4-.17.42-.14.22-.06a.83.83,0,0,0,.22-.08c.07,0,.06-.23,0-.26a.65.65,0,0,0-.24,0l-.21,0a3.24,3.24,0,0,0-.41.13,2.44,2.44,0,0,0-.44.19,1.14,1.14,0,0,0-.39.25A.21.21,0,0,0,327.27,168.12Zm2,.52s0-.09,0-.12-.22-.13-.35-.14a2.66,2.66,0,0,0-.49,0,3.75,3.75,0,0,0-.47,0,1.38,1.38,0,0,0-.29.08.38.38,0,0,0-.22.13.16.16,0,0,0,0,.15c.1.15.32.08.47.07l.44,0,.46,0C328.92,168.74,329.13,168.76,329.23,168.64Zm-1.76.87a.14.14,0,0,0,.13.17,4.89,4.89,0,0,1,.66,0,2.75,2.75,0,0,0,.7.1c.08,0,.07-.15,0-.19l-.16-.13-.15-.06-.34-.09a2.58,2.58,0,0,0-.73-.06C327.52,169.3,327.47,169.44,327.47,169.51Z" style="fill:#f0997a"></path><path d="M317.23,177c-.16.23-.24.53-.38.78a5,5,0,0,1-.5.79,5.55,5.55,0,0,1-1.41,1.28,6.77,6.77,0,0,1-2,.83,9.26,9.26,0,0,1-2.34.29.08.08,0,0,0,0,.08.18.18,0,0,0,.09,0,5.08,5.08,0,0,0,2.45,0l.35-.11c0,.24,0,.5.07.72a5.79,5.79,0,0,0,.29,1.16,4.73,4.73,0,0,0,1.27,2s0,0,0,0a7.72,7.72,0,0,1-1-2,6,6,0,0,1-.24-1.1c0-.31,0-.62,0-.93a6.44,6.44,0,0,0,1.32-.64,5.17,5.17,0,0,0,1.37-1.31,3.2,3.2,0,0,0,.7-1.91S317.26,176.92,317.23,177Z" style="fill:#f0997a"></path><path d="M313,171.43c.08.86.82-.09,1.65-.17s1.64.68,1.56-.18a1.54,1.54,0,0,0-1.68-1.37A1.68,1.68,0,0,0,313,171.43Z"></path><path d="M323.8,169.74c.08.87.82-.08,1.65-.17s1.64.69,1.56-.17a1.53,1.53,0,0,0-1.68-1.37A1.69,1.69,0,0,0,323.8,169.74Z"></path><path d="M327.28,164.48,323,164a2.08,2.08,0,0,1,2.37-1.92A2.25,2.25,0,0,1,327.28,164.48Z" style="fill:#e0e0e0"></path><path d="M316.4,180.37l5.2.9a2.57,2.57,0,0,1-2.94,2.33A2.89,2.89,0,0,1,316.4,180.37Z" style="fill:#b16668"></path><path d="M319.64,183.57a2.67,2.67,0,0,0-3-2.28l-.2.05a2.79,2.79,0,0,0,2.21,2.26A2.47,2.47,0,0,0,319.64,183.57Z" style="fill:#f0997a"></path><path d="M318.48,189.85c-3.67.05-11.65-1.16-13.26-4,0,0,.17,1.79,2.83,3.64,2.46,1.71,10.59,2.07,10.59,2.07Z" style="fill:#f0997a"></path><polygon points="319.47 168.27 320.55 177.59 325.62 175.36 319.47 168.27" style="fill:#f0997a"></polygon></g></g></g><g id="freepik--character-2--inject-34"><g id="freepik--character--inject-34"><g id="freepik--bottom--inject-34"><path d="M219.43,406.64c-2.15,1.66-5.19,1.77-8.31,1.31-3.3-.49-7.57,1.48-8.8,7.75-1.39,7.12-5.62,7.8-9.82,10.87-3.93,2.88-5.52,5.22-6.49,8-2.17,1-4,3.4-3.19,5.29.18.42.86.6,2.31.52,0,0,.14.38.16.43a2,2,0,0,0,.34.51,1.68,1.68,0,0,0,1.09.5,3.63,3.63,0,0,1,1.19.05c.41.16.65.62,1.06.81a1.62,1.62,0,0,0,1,0,3.77,3.77,0,0,1,1-.14,5.72,5.72,0,0,1,1.18.36,2.24,2.24,0,0,0,1.06,0,11.14,11.14,0,0,0,1.15-.23,14.53,14.53,0,0,0,2.23-.73,25,25,0,0,0,4.06-2.29c1.95-1.39,3.77-2.82,5.62-4.35s3.57-3.05,5.31-4.63c.87-.79,1.67-1.66,2.6-2.39a65.14,65.14,0,0,1,13-8c7.14-3.67,26.41-10.67,35.53-15.35,5.35-2.75,10.66-6.22,11.77-13.73s-4.7-11.73-15.5-16.46-33-9.09-33-9.09c-.37-2.72-2.74-11.35-2.74-11.35l-41.15.32,18.91,50.44,10.81-3.94,12.73.62A30.57,30.57,0,0,1,219.43,406.64Z" style="fill:#c8856a"></path><path d="M262.18,391.84s-.27-.4-.3-.35c.77-1.23.94-1.92.65-2.28-1.27-1.59-4.28-1.18-6.16.26-2.87-.46-5.69-.2-10.1,1.87-4.72,2.21-7.35,5.59-14.26,3.39-6.09-1.94-9.86.86-11,4-.36,1-.65,1.9-1.05,2.79l4.53.22a30.14,30.14,0,0,1-5,4.91c-2,1.52-4.7,1.74-7.54,1.41-2.14.85-4.82,1.77-7.32,2.57a11.19,11.19,0,0,0-2.25,5.08c-1.39,7.12-5.62,7.8-9.82,10.87-3.93,2.88-5.52,5.22-6.49,8-2.17,1-4,3.4-3.19,5.29.18.42.86.6,2.31.52,0,0,.14.38.16.43a2,2,0,0,0,.34.51,1.68,1.68,0,0,0,1.09.5,3.63,3.63,0,0,1,1.19.05c.41.16.65.62,1.06.81a1.69,1.69,0,0,0,1,0c2.43-.46,10.84-4.26,17.37-10.3,8.55-7.92,19.66-16.77,30-21.21,1.08-.46,2.23-.75,3.34-1.13,2.23-.77,4.44-1.57,6.62-2.44s4.36-1.79,6.52-2.84a23.87,23.87,0,0,0,3.95-2.46,14.31,14.31,0,0,0,1.71-1.59c.27-.29.52-.59.76-.9a2.23,2.23,0,0,0,.52-.94,5.33,5.33,0,0,1,.25-1.2,3.62,3.62,0,0,1,.6-.81,1.6,1.6,0,0,0,.44-.9c0-.45-.25-.87-.2-1.32a3.76,3.76,0,0,1,.53-1.06,1.72,1.72,0,0,0,.09-1.2A2.16,2.16,0,0,0,262.18,391.84Z" style="fill:#af6152"></path><path d="M217.38,401.61l6.81.22-1,1.08a18.57,18.57,0,0,1,6.38,7.59c2.45,5.21,1.74,8.3,1.74,8.3s12-5.16,17.48-7.27,18.42-7.2,22.49-12.34,4.46-11.15,2-15.23-11.35-9.15-23.32-12.71a211.17,211.17,0,0,0-22.74-5.35Z" style="fill:#37474f"></path><path d="M262.53,389.21c-1.27-1.59-4.28-1.18-6.16.26-2.87-.46-5.69-.2-10.1,1.87-4.72,2.21-7.35,5.59-14.26,3.39-6.09-1.94-9.86.86-11,4-.36,1-.65,1.9-1.05,2.79l4.54.22L223.34,403a19,19,0,0,1,6.22,7.49,19.82,19.82,0,0,1,1.4,3.89,63.63,63.63,0,0,1,6.38-3.22c1.08-.46,2.23-.75,3.34-1.13,2.23-.77,4.44-1.57,6.62-2.44s4.36-1.79,6.52-2.84a23.87,23.87,0,0,0,3.95-2.46,14.31,14.31,0,0,0,1.71-1.59c.27-.29.52-.59.76-.9a2.23,2.23,0,0,0,.52-.94,5.33,5.33,0,0,1,.25-1.2,3.62,3.62,0,0,1,.6-.81,1.6,1.6,0,0,0,.44-.9c0-.45-.25-.87-.2-1.32a3.76,3.76,0,0,1,.53-1.06,1.72,1.72,0,0,0,.09-1.2,2.16,2.16,0,0,0-.29-.54s-.27-.4-.3-.35C262.65,390.26,262.82,389.57,262.53,389.21Z" style="fill:#263238"></path><path d="M182.1,354.81c-2.11,5.87-5.34,10.1-7.93,15.49-3.08,6.41-4.52,9.74-8.55,20.05-3.52,9-8.55,24.92-9.49,29.9s-3.89,17.75,4.54,23.21l37.38-33.85,2.89-4.56Z" style="fill:#c8856a"></path><path d="M164,393.92c1.53-4.33,4.19-10.35,6.73-16.44a73.61,73.61,0,0,1,5-10.14c5.3,5.21,20,12,34.57,9.48s18.35-12.22,18.35-12.22l5.83,2.87a65.14,65.14,0,0,1-4.64,16.7c-4,9.58-12.4,17.44-12.4,17.44l-5.63-.5-10.81,3.94-2.6,4.38,7.9-2.41s2.74,1,6.5,5.79A14.09,14.09,0,0,1,215.62,423s-12.74,11.45-18.23,15.63-13,8.29-25.54,7.88-14.06-4.7-15.45-7.19-2.77-7.57-1.34-15.49S158.92,408.15,164,393.92Z" style="fill:#37474f"></path><path d="M174.08,417.48c-4.45,3.33-4.43,6-4.43,6,4.47-6.93,18-10.49,28.69-14l2.6-4.38,10.81-3.94,5.63.5,1.23-1.22-4.68-1A30.57,30.57,0,0,0,220,388.05s-3.2,7.44-7.86,10.79c-2.13,1.53-6.39,2.82-8.65,1.87s-5.11-5.63-5.11-5.63c1.74,2.72,1.83,8.43,1.81,8.73a17.7,17.7,0,0,1-1.72,2.42h0c-3.28,1.1-9.88,3.4-16.78,6.3C180.4,413.08,178.54,414.16,174.08,417.48Z" style="fill:#263238"></path><path d="M224.47,401.73c6.58-7.27,14-13.5,18.2-16.22a22.56,22.56,0,0,1,12.6-3.54,20.75,20.75,0,0,0-13.78,2.78c-8.65,5-12.55,8.7-12.55,8.7a5.73,5.73,0,0,0-5.17-1.8c-3.54.36-4.86,2.8-6.85,5.69-1.43,2.07-5.17,3.77-5.17,3.77Z" style="fill:#263238"></path><path d="M261.1,389.78A1.67,1.67,0,0,1,261,391a4,4,0,0,0-.52,1.06c-.05.44.23.87.2,1.32a1.55,1.55,0,0,1-.45.89,3.49,3.49,0,0,0-.59.81,5.43,5.43,0,0,0-.26,1.21,2.14,2.14,0,0,1-.52.93c-.24.32-.49.61-.75.9a14.34,14.34,0,0,1-1.71,1.6,25.41,25.41,0,0,1-4,2.47c-2.17,1-4.3,1.94-6.53,2.83s-4.39,1.67-6.61,2.44c-1.11.38-2.26.67-3.34,1.13-7.23,3.1-13.91,8.6-20.33,14.18a14.21,14.21,0,0,0-2.91-9.94c-3.6-4.55-6.27-5.7-6.49-5.8a51.63,51.63,0,0,0,7-2.81,13.42,13.42,0,0,0,3.76-2.84c1.48-1.66,1.9-3.35,2.61-5.23a7.18,7.18,0,0,1,6.1-4.57,11.61,11.61,0,0,1,4.91.57c6.92,2.2,9.55-1.18,14.26-3.4,4.41-2.06,7.23-2.32,10.1-1.87,1.88-1.43,4.9-1.85,6.17-.26.29.37.11,1-.65,2.28.06,0,.27.32.29.35A1.61,1.61,0,0,1,261.1,389.78Z" style="fill:#c8856a"></path><path d="M260.51,388.89a9.78,9.78,0,0,0,.52-1,1.63,1.63,0,0,0,.15-1.07,2.83,2.83,0,0,0-1.83-1.09,5.38,5.38,0,0,0-4.17,1.11l-.08.06-.1,0a14.84,14.84,0,0,0-4.75.08,20.51,20.51,0,0,0-4.54,1.45,37.87,37.87,0,0,0-4.26,2.27,15.6,15.6,0,0,1-4.51,2,11,11,0,0,1-4.95-.14,20.33,20.33,0,0,0-4.69-1,8.14,8.14,0,0,0-4.57,1.07,7.68,7.68,0,0,0-3.11,3.57,7.43,7.43,0,0,1,3-3.79,8.5,8.5,0,0,1,4.71-1.3,18.14,18.14,0,0,1,4.8.91,11.08,11.08,0,0,0,4.69.09c3.08-.7,5.59-3,8.65-4.23a16.12,16.12,0,0,1,9.62-1.39l-.17,0a5.76,5.76,0,0,1,4.5-1,3.3,3.3,0,0,1,1.1.44,2.15,2.15,0,0,1,.83.86,1.74,1.74,0,0,1-.23,1.15A8.33,8.33,0,0,1,260.51,388.89Z" style="fill:#263238"></path></g><g id="freepik--top--inject-34"><g id="freepik--arm--inject-34"><path d="M225.35,334.52c1.75-4,5.76-14.33,9.44-23.62,5.93-14.95,10.66-26.52,12.3-33.24,1.79-7.31,2.09-9.37-1.4-14.13-5.72-7.81-19.74-23.29-20.85-26.2s-.9-12.53-1.6-14.37-4.61-8.27-5.61-10.47c-.63-1.37-1.94,0-2,1a7.15,7.15,0,0,0-2.16-3.11c-.54-.38-1.38-.58-1.81-.07a2.22,2.22,0,0,1-.32.42,1.25,1.25,0,0,1-.36.15,2.64,2.64,0,0,0-1.56,2.48,12.37,12.37,0,0,0,.54,3.06,47.62,47.62,0,0,1,1.17,6.59c.09,1.35,0,2.69.1,4-.15.17-.42,0-.53-.24a22.55,22.55,0,0,0-1.7-3,5.46,5.46,0,0,0-2.64-1.57,1,1,0,0,0-.84.05.91.91,0,0,0-.24.78,8.05,8.05,0,0,0,.88,2.41,56,56,0,0,1,1.94,6.9c.66,2.41,1.21,5,2.53,7.14s3.72,2.73,5,5,13.27,25,13.27,25a141.51,141.51,0,0,1-4.52,14.25c-1.61,4.35-3,7.58-4.69,9.64-2.84,3.36-5.07,4-8.41,5.89Z" style="fill:#c8856a"></path><path d="M212.12,228.28c4.64,2.17,4.31,7.73,4.31,7.73S219.55,229.48,212.12,228.28Z" style="fill:#af6152"></path><path d="M225.61,305.16c4.18,2.07,6.87,11.58,6.87,11.58l-7.13,17.78-8.26-22.26Z" style="fill:#af6152"></path><path d="M228.87,269.5c1.8,1.92,6.81,2.34,8.63,2-2.15,1.38-6.07,1.56-9.13-.09Z" style="fill:#af6152"></path></g><g id="freepik--Body--inject-34"><path d="M229.14,335.5c1.75-2.81,2.47-6.61,1.76-15-.8-9.44-5.2-19-12.93-20.45l-19.61-2.26-20.42,5.81s-5.1,9.15-3.83,23.58c1,11.22,1.09,13.46,1.49,22.18.24,5,.32,13.08.07,18,10.81,15.37,43.61,12,52.1.88,4.47-7.58,1.19-17,1-20.55A107.06,107.06,0,0,1,229.14,335.5Z" style="fill:#c8856a"></path><path d="M190.28,342.64c2.54,1.73,6.49,1.91,8.85,1.66a21,21,0,0,0,7.6-2.6,20.64,20.64,0,0,1,2.34-1.1c2-.68,3.28,0,5,.23a18,18,0,0,0,8.18-.81,5.78,5.78,0,0,0,3.49-2.51,13.8,13.8,0,0,1-10.22,1.74,7.59,7.59,0,0,1-2.69-.92,3.09,3.09,0,0,1-1.23-2.09,26.93,26.93,0,0,1-.35-2.7c-.19-2.35-1-5.88-1.88-4.81a.72.72,0,0,0-.13.42c-.15,2,.57,5.63-.26,8s-3.3,3.49-5.94,4.34a24.79,24.79,0,0,1-8.57,1.29C191.49,342.67,188.65,341.53,190.28,342.64Z" style="fill:#af6152;opacity:0.5"></path><path d="M202.4,311c-2.39-1.58-9.66-2.12-12.5-2.46s-2.87.73,1.82,1.59c4.28.78,8.29.93,10.54,2.48,2,1.39,2.79,2.48,3,1.77S203.82,311.94,202.4,311Z" style="fill:#af6152;opacity:0.5"></path><path d="M211.94,311c-.57.76-1.65,3.61-1,3.79s1-1.93,2.65-3.65,4.28-3.8,5-4.56,1.4-2.33-1.29-.17A44.75,44.75,0,0,0,211.94,311Z" style="fill:#af6152;opacity:0.5"></path><path d="M211.7,367.68c-.13-.13-.29-.22-.43-.34a.64.64,0,0,1-.17-.62c0-.19.21-.53.47-.46l.13,0,.12.05.33.16a3.16,3.16,0,0,1,.51.33,4.11,4.11,0,0,1,.77.94c.52.85,1,2.25.2,3.07,0,.06-.15.14-.23.12-.43-.13-.47-.6-.5-1v-.05s0-.08,0-.12,0-.2,0-.3-.05-.2-.08-.3a.69.69,0,0,1,0-.08l0-.1a3.07,3.07,0,0,0-.16-.31l0,0a2.6,2.6,0,0,0-.23.4c-.19.39-.27.82-.42,1.22-.07.2-.27,0-.3-.09a2.11,2.11,0,0,1,.11-1.24,4,4,0,0,1,.46-.93h0C212,368,211.85,367.82,211.7,367.68Z" style="fill:#af6152"></path></g><g id="freepik--head--inject-34"><path d="M191.92,292c-1.64-4-5-7.67-7.36-10.78s-7.14-15.66-.08-19c-1.67-5.32,4.15-8.82,10.94-11,9.62-3,21-.83,23.83,4.66S218,266.5,218,266.5Z" style="fill:#263238"></path><path d="M187.25,286.67a3.87,3.87,0,0,0,4.25-1.33,82.32,82.32,0,0,1,.33,14.58c-.19-.42,6.92,10.73,19.27,8.44,6.05-1.11.15-9.08.15-9.08l.2-4.73a27.48,27.48,0,0,0,3.88-1.21,9.11,9.11,0,0,0,5.68-7.17c1-6-.37-14-3.07-25-4.05-2.52-16.58-1.38-23.93,4.43,1.07,6.62-.94,8.67-.67,11.09a6.49,6.49,0,0,1-1.25,2c-1.11,1.19-2.4-1.46-3.54-2.43s-4.66-2.07-6,1.64A6.52,6.52,0,0,0,187.25,286.67Z" style="fill:#c8856a"></path><path d="M211.25,299.28c1,2.36,3.9,3.22,6.18,2.65a6.3,6.3,0,0,1-5.19-3.19Z" style="fill:#af6152"></path><path d="M207.88,268.53l2.49,9.42,5.33-2.24C213.59,271.41,210.92,269.44,207.88,268.53Z" style="fill:#af6152"></path><path d="M217.88,268.05l-3.37-.43a1.62,1.62,0,0,1,1.84-1.49A1.79,1.79,0,0,1,217.88,268.05Z" style="fill:#263238"></path><path d="M204.33,269.09l-2.93,1.71a1.62,1.62,0,0,1,.54-2.3A1.79,1.79,0,0,1,204.33,269.09Z" style="fill:#263238"></path><path d="M214.17,271c0-.84.68.39,1.65.49s1.92-1,1.86-.15a1.63,1.63,0,0,1-1.9,1.33A1.58,1.58,0,0,1,214.17,271Z" style="fill:#263238"></path><path d="M205.82,272.51c-.16-.83-.61.49-1.56.73s-2-.67-1.86.15a1.64,1.64,0,0,0,2.09,1A1.59,1.59,0,0,0,205.82,272.51Z" style="fill:#263238"></path><path d="M193.46,275c-.43,4.81,4.22,8.25,6.82,8.15,3.44-.13,4.72-2.26,10.68-3.47,3.62-.73,5,.11,7.2.54,1.65.32,2.86-.22,2.8-1.73,0-1.09-.11-2.83-.32-4.5.17.77.71,3.85,1,7.07.35,3.42-.33,7-1.75,9-2.16,3.06-6.37,4.91-13.33,4.79s-9.88-1.83-11.16-4c-4.15-7.12-5-11.78-5.84-13.31S193.46,275,193.46,275Z" style="fill:#263238"></path><path d="M210.58,282c-3.42.62-4.41,1.46-4.1,3.82.45,3.39.84,4.48,2.15,4.39,1.54-.1,2.66-.23,2.52-1.18a3.79,3.79,0,0,0-.65-2.1c-.65-.53-.49-.66,1-.93s1.54,0,1.19.55,0,1.54.14,2.2.37,1,2.47.32c1.84-.56,1.22-2,.6-4.85C215.5,282.26,214.45,281.27,210.58,282Z" style="fill:#c8856a"></path><path d="M209.21,283.1l3.35-.21a1.66,1.66,0,0,1-1.52,1.83A1.76,1.76,0,0,1,209.21,283.1Z" style="fill:#af6152"></path></g><path d="M185.72,246.19a17.49,17.49,0,0,1,3.08-3.65A9.63,9.63,0,0,0,192,239c.91-2,.31-4.17.32-7.3a10,10,0,0,0-.59-4.3s-.12-1.74,1.55-6.22c.62-1.65.45-3-.8-3.31.54-2.27-.48-3.05-1.56-3,.46-1.77.7-3.37-1-4.07-.18-.07-.61.48-1.13,1.76-.06-1.18-1.41-2.38-2-1.51a95.45,95.45,0,0,0-4.52,8.7c-1.55,3.48-1.69,5-1.81,11.29,0,1.7-1.3,4.25-3.5,7.23s-11.91,11.51-19,20.45c-6.55,8.22-6.41,9.75-2,22.3,1.05,3,2.78,7.1,6.15,14.56a125.35,125.35,0,0,1,6.53,18c2.85,10.34,4.76,13.29,7,24.81.41.42,4.71-17.23,9.59-27.47,3.81-8,8.72-8.21,7.47-13.35,0,2.06-1,1.61-1.44,1.13-3-3.35-5.43-3.71-7.37-6.4-1.53-2.15-2.14-5-4.2-9.6-2.6-5.8-5.5-9.52-7-13.12,0,0,2.16-4,6.76-12.27C183.1,250.64,184.62,247.63,185.72,246.19Z" style="fill:#c8856a"></path><g id="freepik--arm--inject-34"><path d="M172.62,269.62c-.37,2-2.78,4.14-7.56,4.66,4.12.84,7.09-.14,8.39-2.9Z" style="fill:#af6152"></path><path d="M169.77,303.34c6.19,1.43,11.33,7,9.79,18.5C179.35,314.57,177.05,307.74,169.77,303.34Z" style="fill:#af6152"></path></g><path d="M191.48,219a35.77,35.77,0,0,0-2.25,5.76c-.24,1.11-.63,3.51-.63,3.51a14.5,14.5,0,0,1,.22-3.74C189.21,222.1,191.48,219,191.48,219Z" style="fill:#af6152"></path><path d="M190.64,215c-.87,1.89-2.62,4.5-3,5.9a38,38,0,0,0-1.13,6.49,16.26,16.26,0,0,1,.73-6.72C188,218.52,189.12,217.43,190.64,215Z" style="fill:#af6152"></path><path d="M188.74,212.59c-1.26,2.55-3.26,6.12-3.69,7.18a54.82,54.82,0,0,0-1.12,6.36,29.86,29.86,0,0,1,.32-5.61C184.7,218.58,188.74,212.59,188.74,212.59Z" style="fill:#af6152"></path></g></g></g><g id="freepik--character-1--inject-34"><g id="freepik--character--inject-34"><g id="freepik--chest--inject-34"><path d="M116.57,274.92c8.85,1.29,16.31,8.69,16.57,24.19s.54,18.08.8,21.38a93.8,93.8,0,0,1,.07,20.07c-1.09,9.4-1.37,16.44-.18,17.45s7.22,1.61,10.52,4.15,7.21,6,9.91,8.37a.68.68,0,0,1,.17,1,7.67,7.67,0,0,0-.77,1.3,1.59,1.59,0,0,1-.39.54,1.65,1.65,0,0,1-1.1.21l-1.47-.05a1.25,1.25,0,0,1-.61,1.39,2.94,2.94,0,0,1-1.58.35,12.19,12.19,0,0,1-6.81-2c-.9-.6-1.72-1.32-2.58-2a18.11,18.11,0,0,0-4.25-2.48,12.33,12.33,0,0,0-2.37-.68c-.4-.07-.81-.12-1.22-.15a4.14,4.14,0,0,0-.61,0c-.23,0-.69-.14-.72.16-.06.69,1.76,1.86,1.27,6.33-.21,1.84-2.51,2.43-3.64-.11s-5.69-6.71-6.28-9.51-.2-4.58-.47-9.51c-.38-6.89-2.18-12.37-2.46-20.09-.24-6.65,1-12.93.91-14.71s-3.23-28.7-3.23-28.7Z" style="fill:#ffa8a7"></path><path d="M122,277.34c3.61,7.22,12.89,29.54,6.42,37a12.23,12.23,0,0,1-8.81,4.23c-3,.25-4.49,1.35-6.89,3.17-10.76,8.17-25.11,2.67-31.25-3.76-6.85-7.16-9.47-12.78-13.11-22.08-4-10.14-6-26.69-5.38-38.9,19.11,2.69,40.71-3.23,42.17-4.7,0,9.05-.29,15,4.63,23.41,2,3.5.12,3.52,5.43,1.39S122,277.34,122,277.34Z" style="fill:#A5DD9B"></path><path d="M85.69,288.74l15.62-8.06-1-1.2C93,284,89.45,285.63,85.69,288.74Z" style="opacity:0.2"></path><path d="M85.07,290.48C76.26,292,74.2,300.93,74.35,316.43s.73,18.53.56,21.84a93.38,93.38,0,0,0,.44,20.06c1.33,9.37,1.79,16.4.63,17.44s-7.18,1.8-10.41,4.43-7.06,6.21-9.69,8.62a.66.66,0,0,0-.15,1,7.41,7.41,0,0,1,.8,1.28,1.54,1.54,0,0,0,.41.53,1.61,1.61,0,0,0,1.11.19l1.46-.09a1.26,1.26,0,0,0,.64,1.38,3.13,3.13,0,0,0,1.6.31,12.26,12.26,0,0,0,6.75-2.18c.89-.63,1.69-1.37,2.54-2.05a17.37,17.37,0,0,1,4.18-2.59,12,12,0,0,1,2.34-.75,10.22,10.22,0,0,1,1.22-.17c.2,0,.41,0,.61,0s.69-.15.72.15c.08.69-1.71,1.9-1.1,6.36.25,1.83,2.58,2.37,3.64-.2s5.51-6.86,6-9.67.08-4.59.23-9.52c.2-6.9,1.85-12.42,1.93-20.15.08-6.65-1.32-12.9-1.28-14.68s2.49-28.78,2.49-28.78C92.61,300.77,89.38,291.93,85.07,290.48Z" style="fill:#ffa8a7"></path></g><g id="freepik--legs--inject-34"><path d="M147,210c3.16-2.67,7.24-3.77,18.77-9.24s17.81-15.65,23.76-20c-5.13.72-7.65-11.84-3-15.73,0,0-36.06,15.14-45.86,19.3s-15.82,7.6-35.42,18c-12.58,6.66-36.32,29.24-36.32,29.24L63,257a39.22,39.22,0,0,0,25.35,7.22c15.19-1,19.66-5.55,19.66-5.55s7.37-3.24,10-15.32c1.34-6,1.75-8.71,3.84-10.87C125.41,228.8,143.88,212.64,147,210Z" style="fill:#263238"></path><path d="M86.3,216c-9.25,7.74-17.37,15.46-17.37,15.46L63,257a39.22,39.22,0,0,0,25.35,7.22,67.62,67.62,0,0,0,7.34-.85l.38-1,5.6-14.38c1.77-4.87,3.18-10.52-.56-17.89C98.27,224.48,90.7,218.58,86.3,216Z"></path><path d="M189.57,180.73c2.64-2.36,4.41-2.21,7.08-1.95s7.56,1.05,9.33-5.72,1.35-8,4.53-11.19,5.38-4.28,5.25-9.74c1.07-3-.4-7-1.66-8.89,0-2.15-.67-3.48-1.79-3.69-1.82-.34-4.9,2.6-9.36,7.1-6.07,6.13-10.08,13.24-12.35,15.37a22.83,22.83,0,0,1-5,3.43s-3.41,2.12-2.19,9.28C184.56,181.25,188.39,181.66,189.57,180.73Z" style="fill:#ffa8a7"></path><path d="M214.4,148.17c.94,2,1.14,6.79-1.39,8.35s-5.23.41-8.11,1.6c-2.47,1-4.28,2.62-1.87,7s3.28,6.78,2.34,9.66a11.51,11.51,0,0,0,.61-1.75c1.77-6.78,1.35-8,4.53-11.19s5.38-4.28,5.25-9.74h0A5.82,5.82,0,0,0,214.4,148.17Z" style="fill:#f28f8f;opacity:0.30000000000000004"></path><path d="M215.76,152.13a9.7,9.7,0,0,0-3.64-6.53c1.78.7,3.3,2.81,3.95,5.51Z" style="fill:#f28f8f"></path><path d="M210.07,145.49c1.75.31,3.54.22,4-2.25l.25.39s.3,1.21-1.32,2.15A2.56,2.56,0,0,1,210.07,145.49Z" style="fill:#f28f8f"></path><path d="M196.65,178.78l1,.1c-2-.19-4.57-4.1-5.88-5.68s-2.62,3.61-3.89,5.14a7.06,7.06,0,0,1-2.17,1.56c1.46,1.45,3.13,1.39,3.84.83C192.21,178.37,194,178.52,196.65,178.78Z" style="fill:#f28f8f;opacity:0.30000000000000004"></path><path d="M86.63,187.43c3.12-1.68,4.8-1.12,7.34-.25s7.11,2.8,10.41-3.38,3.19-7.49,7-9.82l.19-.12c.67-.4,1.34-.77,2-1.16s1.16-.69,1.71-1.08a8.88,8.88,0,0,0,1.41-1.26,7.89,7.89,0,0,0,1.12-1.73,12.8,12.8,0,0,0,.83-2.42c0-.14.07-.32.11-.47a4,4,0,0,0,1.73-.64,4.06,4.06,0,0,0,1.6-1.83,4.45,4.45,0,0,0,.61-2.59,2.42,2.42,0,0,0-.57-1.07.82.82,0,0,0-.64-.29c.22-.71-.75-1.54-1.68-1.41a2.3,2.3,0,0,0-1.8-1.33,1.75,1.75,0,0,0-.72-1.41,3.75,3.75,0,0,0-1.52-.61,4.85,4.85,0,0,0-1.69-.15,14.3,14.3,0,0,0-6.5,3C100.27,162,94.71,167.93,92,169.47a22.78,22.78,0,0,1-5.62,2.18s-3.82,1.27-4.3,8.51C81.64,186.76,85.27,188.06,86.63,187.43Z" style="fill:#ffa8a7"></path><path d="M118.38,161.57c.44,2.2-.47,6.87-3.3,7.8s-5.18-.83-8.25-.34c-2.65.41-4.79,1.54-3.48,6.4s1.61,7.36,0,9.93a11.7,11.7,0,0,0,1-1.56c3.3-6.17,3.19-7.49,7-9.82s6.23-2.9,7.38-8.24h0A5.76,5.76,0,0,0,118.38,161.57Z" style="fill:#f28f8f;opacity:0.30000000000000004"></path><path d="M118.78,165.74a9.7,9.7,0,0,0-2-7.2c1.56,1.1,2.93,4.19,2.92,7A3.79,3.79,0,0,1,118.78,165.74Z" style="fill:#f28f8f"></path><path d="M94,187.18l1,.34c-1.89-.65-3.49-5.05-4.39-6.89s-3.4,2.89-5,4.08a6.77,6.77,0,0,1-2.47,1c1.08,1.76,2.72,2.09,3.54,1.71C89.75,185.75,91.43,186.31,94,187.18Z" style="fill:#f28f8f;opacity:0.30000000000000004"></path><path d="M99.12,231.67c-6.76-10-13.06-10.67-26.24-22.93-2.2-2.05-5.94-5.36-9.36-8.35,10.06-3.47,17.16-10.49,23.11-13-5.16-.5-4.67-13.31.72-16,0,0-37.29,5.53-48.16,9.15s-11.49,16.77-6.37,27.65c9,19.19,30,43.84,30,43.84L63,257c10.38,8,21.53,8.86,32.69,6.37C95.68,263.33,108.12,245,99.12,231.67Z" style="fill:#263238"></path><path d="M41.94,200.22c4.1,2.83,11.22,3.23,21.58.17l2.14,1.88s-8.38,3.3-15.21,2.26S41.94,200.22,41.94,200.22Z"></path></g><g id="freepik--head--inject-34"><path d="M87.65,243.83a3.34,3.34,0,0,0,.12,1.78c.53,1.37,2.12,2.24,1.58,4-.37,1.19-2.1,1.28-3.16.77-.35,2.29,2.86,2.48,4.3,2.17,0,1.59.17,2.26,1.78,3,2.43,1.07,3.9.4,5.79-1.09,1.7-1.35,3.76-.06,5.77,0a4.59,4.59,0,0,0,4.52-3.63c.37-1.25-.66-3-.09-4,1.21-2.19,4.82.32,6.57-.68,2.42-1.37,2.12-5.51-.1-6.94-.69-.44-1.66-.38-2.32-.8s-.77-1.22-1-2a7,7,0,0,0-5-5.1,5.77,5.77,0,0,0-3-.07c-1.13.32-1.88,1.27-3,1.66-2.07.74-4.4-.48-6.34,1.1a3.89,3.89,0,0,0-1.41,2.7c-.07.75.39,1.54.1,2.23-.54,1.27-2.62,1.46-3.58,2.28A4.74,4.74,0,0,0,87.65,243.83Z" style="fill:#37474f"></path><path d="M103.21,284.26a17.28,17.28,0,0,1,2.22-1.93l12.78-11.11,7.06-6.14c1.29-1.12,2.5-2.65,4.33-2.72a6,6,0,0,1,3.43,1.1,4.67,4.67,0,0,0,4.59.43,2.48,2.48,0,0,0,1.43-1.95,6.92,6.92,0,0,0,0-1,1.58,1.58,0,0,1-2.4.84c-.8-.49-.83-1.26-.91-2.17s.15-2.09-.36-2.95a2,2,0,0,0-2.07-1A24.08,24.08,0,0,0,135,253a6.32,6.32,0,0,0,.4-3c-.2-1.78-1.51-2.94-2.91-3.88-1.68-1.12-3.39-1.16-5.35-1.27-1.37-.07-2.76.09-4.12-.11-1.16-.18-2.32-.57-3.46-.83a24.86,24.86,0,0,0-9.06-.19c-15.5,2.21-19.3,16.36-17.43,23.83C95.65,277.82,100.86,277.57,103.21,284.26Z" style="fill:#37474f"></path><path d="M133.45,269.26c.16,12-3.63,14.52-5.54,15.44s-4.33,1-8,.54l-3.34,3.62C116.1,294,103,294.78,99.39,284l5.07-8.72s-1.44,2-4.61.27-3.56-6.62-2-8.77a3.56,3.56,0,0,1,5.8.22,5,5,0,0,1,.61,2.2c.07.5,0,1.14.4,1.34,1.73.87,3.18-1.61,3.25-3.54,1.78-1.3,2.77-2.93,2.59-6.19,1.66.95,4.64,0,6.18-1.12,2.65-1.93,2.81-3.88,3.72-6.17s3.35-2.57,5.47-1.92a9.66,9.66,0,0,1,5.09,4.41,16.72,16.72,0,0,1,1.32,4.11A38.73,38.73,0,0,1,133.45,269.26Z" style="fill:#ffa8a7"></path><path d="M109.73,272.59,99.39,284a14.69,14.69,0,0,0,1,7,19.15,19.15,0,0,0,8.84,10c2.7,1.56,7.74,1.5,8.85-2.44,1.57-5.57-1.44-10.94-1.44-10.94Z" style="fill:#ffa8a7"></path><path d="M119.91,285.24a25.25,25.25,0,0,1-9-3.27,11,11,0,0,1-3.67-4.56s.54,4.59,3,6.53,8.1,3,8.1,3Z" style="fill:#f28f8f"></path><path d="M119.28,267.11c.12.88-.67-.15-1.52-.05s-1.44,1.32-1.55.43a1.55,1.55,0,1,1,3.07-.38Z" style="fill:#263238"></path><path d="M129.59,266.58c-.17.88-.59-.35-1.43-.51s-1.78.8-1.61-.08a1.55,1.55,0,1,1,3,.59Z" style="fill:#263238"></path><polygon points="122.85 264.64 124.99 274.92 129.9 272.52 122.85 264.64" style="fill:#f28f8f"></polygon><path d="M117.77,262.61l-3.57,2.05a2.17,2.17,0,0,1,.79-2.88A2,2,0,0,1,117.77,262.61Z" style="fill:#263238"></path><path d="M130.42,262.36l-3.54-2.15a2,2,0,0,1,2.79-.75A2.18,2.18,0,0,1,130.42,262.36Z" style="fill:#263238"></path><path d="M123.61,277.67a.34.34,0,0,0-.33-.25,6.4,6.4,0,0,1-2.13-.27,4.21,4.21,0,0,1-1.56-1s-.06,0,0,.07a2.4,2.4,0,0,0,1.46,1.43,5.9,5.9,0,0,0,2.47.38C123.63,278,123.64,277.78,123.61,277.67Z" style="fill:#b16668"></path></g></g></g><g id="freepik--Flowers--inject-34"><g id="freepik--lotus-flower--inject-34"><path d="M359.19,97.58c-.47.48-1,1-1.5,1.63-1.83-3.64-5.59-4.45-9.41-6.08a23.25,23.25,0,0,1-.28-7.86c1.32,1.9,5.22,4,7.73,6.14h0c.23.19.46.4.67.6a8.23,8.23,0,0,1,.58.62c.1.12.21.25.3.38l.33.47a13.13,13.13,0,0,1,.77,1.34c.13.27.24.52.34.77s.16.46.22.66A4.84,4.84,0,0,1,359.19,97.58Z" style="fill:#A5DD9B"></path><path d="M359.19,97.58c-.47.48-1,1-1.5,1.63-1.83-3.64-5.59-4.45-9.41-6.08a23.25,23.25,0,0,1-.28-7.86c1.32,1.9,5.22,4,7.73,6.14h0c.23.19.46.4.67.6a8.23,8.23,0,0,1,.58.62c.1.12.21.25.3.38l.33.47a13.13,13.13,0,0,1,.77,1.34c.13.27.24.52.34.77s.16.46.22.66A4.84,4.84,0,0,1,359.19,97.58Z" style="fill:#fff;opacity:0.5"></path><path d="M366.46,91.42a9.9,9.9,0,0,0-1.54,1.6A8.57,8.57,0,0,0,363,97.58a12.43,12.43,0,0,1-1.92-2.19,11.73,11.73,0,0,1-1.9,2.19,4.84,4.84,0,0,0-.25-1.32c-.06-.2-.13-.43-.22-.66s-.21-.5-.34-.77a13.13,13.13,0,0,0-.77-1.34l-.33-.47c-.09-.13-.2-.26-.3-.38a8.23,8.23,0,0,0-.58-.62c-.21-.2-.44-.41-.67-.6h0c0-2.91,1.85-5.14,3.46-7.35a14.05,14.05,0,0,0,1.9-3.24A14.16,14.16,0,0,0,363,84.06C364.62,86.27,366.49,88.5,366.46,91.42Z" style="fill:#A5DD9B"></path><path d="M366.46,91.42a9.9,9.9,0,0,0-1.54,1.6A8.57,8.57,0,0,0,363,97.58a12.43,12.43,0,0,1-1.92-2.19,11.73,11.73,0,0,1-1.9,2.19,4.84,4.84,0,0,0-.25-1.32c-.06-.2-.13-.43-.22-.66s-.21-.5-.34-.77a13.13,13.13,0,0,0-.77-1.34l-.33-.47c-.09-.13-.2-.26-.3-.38a8.23,8.23,0,0,0-.58-.62c-.21-.2-.44-.41-.67-.6h0c0-2.91,1.85-5.14,3.46-7.35a14.05,14.05,0,0,0,1.9-3.24A14.16,14.16,0,0,0,363,84.06C364.62,86.27,366.49,88.5,366.46,91.42Z" style="fill:#fff;opacity:0.7000000000000001"></path><path d="M373.91,93.13c-3.82,1.63-7.58,2.44-9.39,6.08-.52-.61-1-1.15-1.51-1.63A8.57,8.57,0,0,1,364.92,93a9.9,9.9,0,0,1,1.54-1.6c2.49-2.12,6.42-4.25,7.74-6.15A23.09,23.09,0,0,1,373.91,93.13Z" style="fill:#A5DD9B"></path><path d="M373.91,93.13c-3.82,1.63-7.58,2.44-9.39,6.08-.52-.61-1-1.15-1.51-1.63A8.57,8.57,0,0,1,364.92,93a9.9,9.9,0,0,1,1.54-1.6c2.49-2.12,6.42-4.25,7.74-6.15A23.09,23.09,0,0,1,373.91,93.13Z" style="fill:#fff;opacity:0.5"></path><path d="M366.48,97.41c0,2.47-2.16,2.87-5.13,2.87s-5.63-.4-5.63-2.87,2.41-4.48,5.38-4.48S366.48,94.94,366.48,97.41Z" style="fill:#fff"></path><path d="M358.78,97.47a14.89,14.89,0,0,0-1.67,3.71,5.38,5.38,0,0,0-.2,1.67,14,14,0,0,0-7,.62,14.41,14.41,0,0,1-5.62-5.38,14.65,14.65,0,0,1-1.77-7.34c0-.34,0-.67,0-1,0,0,1.39,2.06,6.35,3.36l.27.07C352.93,94.13,356.55,94.34,358.78,97.47Z" style="fill:#A5DD9B"></path><path d="M358.78,97.47a14.89,14.89,0,0,0-1.67,3.71,5.38,5.38,0,0,0-.2,1.67,14,14,0,0,0-7,.62,14.41,14.41,0,0,1-5.62-5.38,14.65,14.65,0,0,1-1.77-7.34c0-.34,0-.67,0-1,0,0,1.39,2.06,6.35,3.36l.27.07C352.93,94.13,356.55,94.34,358.78,97.47Z" style="fill:#fff;opacity:0.30000000000000004"></path><path d="M363.42,97.47a15.25,15.25,0,0,1,1.66,3.71,5.38,5.38,0,0,1,.2,1.67,14,14,0,0,1,7,.62,14.41,14.41,0,0,0,5.62-5.38,14.65,14.65,0,0,0,1.77-7.34c0-.34,0-.67,0-1,0,0-1.39,2.06-6.35,3.36l-.27.07C369.27,94.13,365.64,94.34,363.42,97.47Z" style="fill:#A5DD9B"></path><path d="M363.42,97.47a15.25,15.25,0,0,1,1.66,3.71,5.38,5.38,0,0,1,.2,1.67,14,14,0,0,1,7,.62,14.41,14.41,0,0,0,5.62-5.38,14.65,14.65,0,0,0,1.77-7.34c0-.34,0-.67,0-1,0,0-1.39,2.06-6.35,3.36l-.27.07C369.27,94.13,365.64,94.34,363.42,97.47Z" style="fill:#fff;opacity:0.30000000000000004"></path><path d="M358.33,106a6.35,6.35,0,0,1-3.32,2.55h0a9.67,9.67,0,0,1-5.43.12c-1.87-.44-3.42-.89-4.56-1.24-1.34-.41-2.09-.7-2.09-.7a18.1,18.1,0,0,1,2.49-2.77,9.88,9.88,0,0,1,4.24-2.47l.47-.08a11.82,11.82,0,0,1,6,.4A4.35,4.35,0,0,0,358.33,106Z" style="fill:#A5DD9B"></path><path d="M358.33,106a6.35,6.35,0,0,1-3.32,2.55h0a9.67,9.67,0,0,1-5.43.12c-1.87-.44-3.42-.89-4.56-1.24-1.34-.41-2.09-.7-2.09-.7a18.1,18.1,0,0,1,2.49-2.77,9.88,9.88,0,0,1,4.24-2.47l.47-.08a11.82,11.82,0,0,1,6,.4A4.35,4.35,0,0,0,358.33,106Z" style="opacity:0.15"></path><path d="M379.27,106.72s-.75.29-2.09.7c-1.14.36-2.69.8-4.56,1.24a9.67,9.67,0,0,1-5.43-.12h0a6.35,6.35,0,0,1-3.32-2.55,4.36,4.36,0,0,0,2.22-4.18,11.87,11.87,0,0,1,6-.4l.47.08a9.94,9.94,0,0,1,4.24,2.47A18.1,18.1,0,0,1,379.27,106.72Z" style="fill:#A5DD9B"></path><path d="M379.27,106.72s-.75.29-2.09.7c-1.14.36-2.69.8-4.56,1.24a9.67,9.67,0,0,1-5.43-.12h0a6.35,6.35,0,0,1-3.32-2.55,4.36,4.36,0,0,0,2.22-4.18,11.87,11.87,0,0,1,6-.4l.47.08a9.94,9.94,0,0,1,4.24,2.47A18.1,18.1,0,0,1,379.27,106.72Z" style="opacity:0.15"></path><path d="M363.87,107.46a4.84,4.84,0,0,1-5.54,0,5.46,5.46,0,0,1-2.23-5,6.47,6.47,0,0,1,.39-1.62,15.5,15.5,0,0,1,1.88-3.42c.41-.58.83-1.09,1.2-1.55.24-.3.47-.57.68-.82a1.09,1.09,0,0,1,1.7,0l.68.82c.37.46.79,1,1.21,1.55a15.91,15.91,0,0,1,1.87,3.42,6,6,0,0,1,.38,1.62A5.46,5.46,0,0,1,363.87,107.46Z" style="fill:#A5DD9B"></path></g><g id="freepik--lotus-flower--inject-34"><path d="M142.3,97.58c.47.48,1,1,1.5,1.63,1.82-3.64,5.58-4.45,9.41-6.08a23.42,23.42,0,0,0,.27-7.86c-1.31,1.9-5.22,4-7.72,6.14h0c-.24.19-.46.4-.68.6s-.4.41-.58.62-.2.25-.29.38-.24.32-.33.47a11.48,11.48,0,0,0-.77,1.34,6.27,6.27,0,0,0-.34.77c-.09.23-.17.46-.23.66A5,5,0,0,0,142.3,97.58Z" style="fill:#A5DD9B"></path><path d="M142.3,97.58c.47.48,1,1,1.5,1.63,1.82-3.64,5.58-4.45,9.41-6.08a23.42,23.42,0,0,0,.27-7.86c-1.31,1.9-5.22,4-7.72,6.14h0c-.24.19-.46.4-.68.6s-.4.41-.58.62-.2.25-.29.38-.24.32-.33.47a11.48,11.48,0,0,0-.77,1.34,6.27,6.27,0,0,0-.34.77c-.09.23-.17.46-.23.66A5,5,0,0,0,142.3,97.58Z" style="fill:#fff;opacity:0.5"></path><path d="M135,91.42a9.49,9.49,0,0,1,1.54,1.6,8.57,8.57,0,0,1,1.91,4.56,11.63,11.63,0,0,0,1.92-2.19,11.5,11.5,0,0,0,1.91,2.19,5,5,0,0,1,.24-1.32c.06-.2.14-.43.23-.66a6.27,6.27,0,0,1,.34-.77,11.48,11.48,0,0,1,.77-1.34c.09-.15.21-.31.33-.47s.19-.26.29-.38.37-.41.58-.62.44-.41.68-.6h0c0-2.91-1.85-5.14-3.46-7.35a14.11,14.11,0,0,1-1.91-3.24,14.16,14.16,0,0,1-1.92,3.24C136.86,86.27,135,88.5,135,91.42Z" style="fill:#A5DD9B"></path><path d="M135,91.42a9.49,9.49,0,0,1,1.54,1.6,8.57,8.57,0,0,1,1.91,4.56,11.63,11.63,0,0,0,1.92-2.19,11.5,11.5,0,0,0,1.91,2.19,5,5,0,0,1,.24-1.32c.06-.2.14-.43.23-.66a6.27,6.27,0,0,1,.34-.77,11.48,11.48,0,0,1,.77-1.34c.09-.15.21-.31.33-.47s.19-.26.29-.38.37-.41.58-.62.44-.41.68-.6h0c0-2.91-1.85-5.14-3.46-7.35a14.11,14.11,0,0,1-1.91-3.24,14.16,14.16,0,0,1-1.92,3.24C136.86,86.27,135,88.5,135,91.42Z" style="fill:#fff;opacity:0.7000000000000001"></path><path d="M127.57,93.13c3.82,1.63,7.58,2.44,9.39,6.08.53-.61,1-1.15,1.51-1.63A8.57,8.57,0,0,0,136.56,93a9.49,9.49,0,0,0-1.54-1.6c-2.49-2.12-6.42-4.25-7.73-6.15A23.25,23.25,0,0,0,127.57,93.13Z" style="fill:#A5DD9B"></path><path d="M127.57,93.13c3.82,1.63,7.58,2.44,9.39,6.08.53-.61,1-1.15,1.51-1.63A8.57,8.57,0,0,0,136.56,93a9.49,9.49,0,0,0-1.54-1.6c-2.49-2.12-6.42-4.25-7.73-6.15A23.25,23.25,0,0,0,127.57,93.13Z" style="fill:#fff;opacity:0.5"></path><path d="M135,97.41c0,2.47,2.16,2.87,5.14,2.87s5.63-.4,5.63-2.87-2.41-4.48-5.38-4.48S135,94.94,135,97.41Z" style="fill:#fff"></path><path d="M142.71,97.47a14.88,14.88,0,0,1,1.66,3.71,5.71,5.71,0,0,1,.21,1.67,14,14,0,0,1,7,.62,14.34,14.34,0,0,0,5.62-5.38A14.54,14.54,0,0,0,159,90.75c0-.34,0-.67,0-1,0,0-1.39,2.06-6.34,3.36l-.28.07C148.56,94.13,144.94,94.34,142.71,97.47Z" style="fill:#A5DD9B"></path><path d="M142.71,97.47a14.88,14.88,0,0,1,1.66,3.71,5.71,5.71,0,0,1,.21,1.67,14,14,0,0,1,7,.62,14.34,14.34,0,0,0,5.62-5.38A14.54,14.54,0,0,0,159,90.75c0-.34,0-.67,0-1,0,0-1.39,2.06-6.34,3.36l-.28.07C148.56,94.13,144.94,94.34,142.71,97.47Z" style="fill:#fff;opacity:0.30000000000000004"></path><path d="M138.07,97.47a14.88,14.88,0,0,0-1.66,3.71,5.11,5.11,0,0,0-.21,1.67,14,14,0,0,0-7,.62,14.27,14.27,0,0,1-5.62-5.38,14.44,14.44,0,0,1-1.77-7.34c0-.34,0-.67,0-1,0,0,1.39,2.06,6.34,3.36l.27.07C132.22,94.13,135.84,94.34,138.07,97.47Z" style="fill:#A5DD9B"></path><path d="M138.07,97.47a14.88,14.88,0,0,0-1.66,3.71,5.11,5.11,0,0,0-.21,1.67,14,14,0,0,0-7,.62,14.27,14.27,0,0,1-5.62-5.38,14.44,14.44,0,0,1-1.77-7.34c0-.34,0-.67,0-1,0,0,1.39,2.06,6.34,3.36l.27.07C132.22,94.13,135.84,94.34,138.07,97.47Z" style="fill:#fff;opacity:0.30000000000000004"></path><path d="M143.15,106a6.38,6.38,0,0,0,3.32,2.55h0a9.7,9.7,0,0,0,5.44.12c1.87-.44,3.42-.89,4.55-1.24,1.34-.41,2.1-.7,2.1-.7a18.1,18.1,0,0,0-2.49-2.77,9.92,9.92,0,0,0-4.25-2.47l-.47-.08a11.82,11.82,0,0,0-6,.4A4.32,4.32,0,0,1,143.15,106Z" style="fill:#A5DD9B"></path><path d="M143.15,106a6.38,6.38,0,0,0,3.32,2.55h0a9.7,9.7,0,0,0,5.44.12c1.87-.44,3.42-.89,4.55-1.24,1.34-.41,2.1-.7,2.1-.7a18.1,18.1,0,0,0-2.49-2.77,9.92,9.92,0,0,0-4.25-2.47l-.47-.08a11.82,11.82,0,0,0-6,.4A4.32,4.32,0,0,1,143.15,106Z" style="opacity:0.15"></path><path d="M122.21,106.72s.76.29,2.1.7c1.13.36,2.68.8,4.55,1.24a9.7,9.7,0,0,0,5.44-.12h0a6.38,6.38,0,0,0,3.32-2.55,4.32,4.32,0,0,1-2.22-4.18,11.87,11.87,0,0,0-6-.4l-.47.08A10,10,0,0,0,124.7,104,18.1,18.1,0,0,0,122.21,106.72Z" style="fill:#A5DD9B"></path><path d="M122.21,106.72s.76.29,2.1.7c1.13.36,2.68.8,4.55,1.24a9.7,9.7,0,0,0,5.44-.12h0a6.38,6.38,0,0,0,3.32-2.55,4.32,4.32,0,0,1-2.22-4.18,11.87,11.87,0,0,0-6-.4l-.47.08A10,10,0,0,0,124.7,104,18.1,18.1,0,0,0,122.21,106.72Z" style="opacity:0.15"></path><path d="M137.62,107.46a4.83,4.83,0,0,0,5.53,0,5.41,5.41,0,0,0,2.23-5,6.07,6.07,0,0,0-.39-1.62,15.1,15.1,0,0,0-1.88-3.42c-.41-.58-.82-1.09-1.19-1.55l-.68-.82a1.09,1.09,0,0,0-1.7,0l-.69.82c-.37.46-.78,1-1.2,1.55a15.49,15.49,0,0,0-1.87,3.42,5.68,5.68,0,0,0-.38,1.62A5.42,5.42,0,0,0,137.62,107.46Z" style="fill:#A5DD9B"></path></g></g></svg>