<svg id="visual" viewBox="0 0 900 50" width="900" height="50" xmlns="http://www.w3.org/2000/svg" xmlns:xlink="http://www.w3.org/1999/xlink" version="1.1"><rect x="0" y="0" width="900" height="50" fill="#A5DD9B"></rect><path d="M0 27L12.5 24C25 21 50 15 75 13.7C100 12.3 125 15.7 150 15.5C175 15.3 200 11.7 225 9.3C250 7 275 6 300 6.5C325 7 350 9 375 9.5C400 10 425 9 450 7.3C475 5.7 500 3.3 525 4.2C550 5 575 9 600 12.8C625 16.7 650 20.3 675 20.8C700 21.3 725 18.7 750 18.3C775 18 800 20 825 18C850 16 875 10 887.5 7L900 4L900 51L887.5 51C875 51 850 51 825 51C800 51 775 51 750 51C725 51 700 51 675 51C650 51 625 51 600 51C575 51 550 51 525 51C500 51 475 51 450 51C425 51 400 51 375 51C350 51 325 51 300 51C275 51 250 51 225 51C200 51 175 51 150 51C125 51 100 51 75 51C50 51 25 51 12.5 51L0 51Z" fill="#96c8a2"></path><path d="M0 34L12.5 31.5C25 29 50 24 75 24.7C100 25.3 125 31.7 150 33.3C175 35 200 32 225 30.7C250 29.3 275 29.7 300 27.7C325 25.7 350 21.3 375 20.3C400 19.3 425 21.7 450 24.8C475 28 500 32 525 33.7C550 35.3 575 34.7 600 34.3C625 34 650 34 675 30.5C700 27 725 20 750 18.2C775 16.3 800 19.7 825 20.3C850 21 875 19 887.5 18L900 17L900 51L887.5 51C875 51 850 51 825 51C800 51 775 51 750 51C725 51 700 51 675 51C650 51 625 51 600 51C575 51 550 51 525 51C500 51 475 51 450 51C425 51 400 51 375 51C350 51 325 51 300 51C275 51 250 51 225 51C200 51 175 51 150 51C125 51 100 51 75 51C50 51 25 51 12.5 51L0 51Z" fill="#d2dcc1"></path><path d="M0 43L12.5 41.5C25 40 50 37 75 35.2C100 33.3 125 32.7 150 33.5C175 34.3 200 36.7 225 39C250 41.3 275 43.7 300 41.5C325 39.3 350 32.7 375 31.8C400 31 425 36 450 36C475 36 500 31 525 29.7C550 28.3 575 30.7 600 33.2C625 35.7 650 38.3 675 37.7C700 37 725 33 750 30.8C775 28.7 800 28.3 825 29.5C850 30.7 875 33.3 887.5 34.7L900 36L900 51L887.5 51C875 51 850 51 825 51C800 51 775 51 750 51C725 51 700 51 675 51C650 51 625 51 600 51C575 51 550 51 525 51C500 51 475 51 450 51C425 51 400 51 375 51C350 51 325 51 300 51C275 51 250 51 225 51C200 51 175 51 150 51C125 51 100 51 75 51C50 51 25 51 12.5 51L0 51Z" fill="#f6f5f2"></path></svg>