<svg id="visual" viewBox="0 0 900 50" width="900" height="50" xmlns="http://www.w3.org/2000/svg" xmlns:xlink="http://www.w3.org/1999/xlink" version="1.1"><rect x="0" y="0" width="900" height="50" fill="#E0FBE2"></rect><path d="M0 14L21.5 16.3C43 18.7 86 23.3 128.8 23C171.7 22.7 214.3 17.3 257.2 13.3C300 9.3 343 6.7 385.8 6.2C428.7 5.7 471.3 7.3 514.2 12.3C557 17.3 600 25.7 642.8 26.3C685.7 27 728.3 20 771.2 19.3C814 18.7 857 24.3 878.5 27.2L900 30L900 51L878.5 51C857 51 814 51 771.2 51C728.3 51 685.7 51 642.8 51C600 51 557 51 514.2 51C471.3 51 428.7 51 385.8 51C343 51 300 51 257.2 51C214.3 51 171.7 51 128.8 51C86 51 43 51 21.5 51L0 51Z" fill="#96c8a2"></path><path d="M0 43L21.5 41.8C43 40.7 86 38.3 128.8 34.2C171.7 30 214.3 24 257.2 22.5C300 21 343 24 385.8 28.5C428.7 33 471.3 39 514.2 37.7C557 36.3 600 27.7 642.8 24.2C685.7 20.7 728.3 22.3 771.2 25.3C814 28.3 857 32.7 878.5 34.8L900 37L900 51L878.5 51C857 51 814 51 771.2 51C728.3 51 685.7 51 642.8 51C600 51 557 51 514.2 51C471.3 51 428.7 51 385.8 51C343 51 300 51 257.2 51C214.3 51 171.7 51 128.8 51C86 51 43 51 21.5 51L0 51Z" fill="#a5dd9b"></path></svg>