<svg id="visual" viewBox="0 0 900 30" width="900" height="30" xmlns="http://www.w3.org/2000/svg" xmlns:xlink="http://www.w3.org/1999/xlink" version="1.1"><rect x="0" y="0" width="900" height="30" fill="#F6F5F2"></rect><path d="M0 25L11.5 24C23 23 46 21 69 20.3C92 19.7 115 20.3 138.2 21.2C161.3 22 184.7 23 207.8 22.8C231 22.7 254 21.3 277 20.8C300 20.3 323 20.7 346 20.7C369 20.7 392 20.3 415.2 20.8C438.3 21.3 461.7 22.7 484.8 22.5C508 22.3 531 20.7 554 20.5C577 20.3 600 21.7 623 22.2C646 22.7 669 22.3 692.2 22.8C715.3 23.3 738.7 24.7 761.8 24.2C785 23.7 808 21.3 831 20.3C854 19.3 877 19.7 888.5 19.8L900 20L900 31L888.5 31C877 31 854 31 831 31C808 31 785 31 761.8 31C738.7 31 715.3 31 692.2 31C669 31 646 31 623 31C600 31 577 31 554 31C531 31 508 31 484.8 31C461.7 31 438.3 31 415.2 31C392 31 369 31 346 31C323 31 300 31 277 31C254 31 231 31 207.8 31C184.7 31 161.3 31 138.2 31C115 31 92 31 69 31C46 31 23 31 11.5 31L0 31Z" fill="#E0FBE2" stroke-linecap="round" stroke-linejoin="miter"></path></svg>