<svg id="visual" viewBox="0 0 900 50" width="900" height="50" xmlns="http://www.w3.org/2000/svg" xmlns:xlink="http://www.w3.org/1999/xlink" version="1.1"><rect x="0" y="0" width="900" height="50" fill="#A5DD9B"></rect><path d="M0 34L15 33C30 32 60 30 90 29.2C120 28.3 150 28.7 180 26.2C210 23.7 240 18.3 270 16.3C300 14.3 330 15.7 360 17.7C390 19.7 420 22.3 450 21.5C480 20.7 510 16.3 540 16.2C570 16 600 20 630 23.3C660 26.7 690 29.3 720 27.3C750 25.3 780 18.7 810 16.3C840 14 870 16 885 17L900 18L900 51L885 51C870 51 840 51 810 51C780 51 750 51 720 51C690 51 660 51 630 51C600 51 570 51 540 51C510 51 480 51 450 51C420 51 390 51 360 51C330 51 300 51 270 51C240 51 210 51 180 51C150 51 120 51 90 51C60 51 30 51 15 51L0 51Z" fill="#F6F5F2" stroke-linecap="round" stroke-linejoin="miter"></path></svg>