<svg id="visual" viewBox="0 0 900 50" width="900" height="50" xmlns="http://www.w3.org/2000/svg" xmlns:xlink="http://www.w3.org/1999/xlink" version="1.1"><rect x="0" y="0" width="900" height="50" fill="#E0FBE2"></rect><path d="M0 23L18.8 21.3C37.7 19.7 75.3 16.3 112.8 18.8C150.3 21.3 187.7 29.7 225.2 32.7C262.7 35.7 300.3 33.3 337.8 28.7C375.3 24 412.7 17 450.2 16.5C487.7 16 525.3 22 562.8 23.8C600.3 25.7 637.7 23.3 675.2 21.3C712.7 19.3 750.3 17.7 787.8 20C825.3 22.3 862.7 28.7 881.3 31.8L900 35L900 0L881.3 0C862.7 0 825.3 0 787.8 0C750.3 0 712.7 0 675.2 0C637.7 0 600.3 0 562.8 0C525.3 0 487.7 0 450.2 0C412.7 0 375.3 0 337.8 0C300.3 0 262.7 0 225.2 0C187.7 0 150.3 0 112.8 0C75.3 0 37.7 0 18.8 0L0 0Z" fill="#A5DD9B" stroke-linecap="round" stroke-linejoin="miter"></path></svg>