<svg id="visual" viewBox="0 0 900 300" width="900" height="300" xmlns="http://www.w3.org/2000/svg" xmlns:xlink="http://www.w3.org/1999/xlink" version="1.1"><rect x="0" y="0" width="900" height="300" fill="#D4F6FF"></rect><path d="M0 224L21.5 219.8C43 215.7 86 207.3 128.8 204.7C171.7 202 214.3 205 257.2 191.8C300 178.7 343 149.3 385.8 152.5C428.7 155.7 471.3 191.3 514.2 214C557 236.7 600 246.3 642.8 237.8C685.7 229.3 728.3 202.7 771.2 178.8C814 155 857 134 878.5 123.5L900 113L900 301L878.5 301C857 301 814 301 771.2 301C728.3 301 685.7 301 642.8 301C600 301 557 301 514.2 301C471.3 301 428.7 301 385.8 301C343 301 300 301 257.2 301C214.3 301 171.7 301 128.8 301C86 301 43 301 21.5 301L0 301Z" fill="#E0FBE2" stroke-linecap="round" stroke-linejoin="miter"></path></svg>