<svg id="visual" viewBox="0 0 900 100" width="900" height="100" xmlns="http://www.w3.org/2000/svg" xmlns:xlink="http://www.w3.org/1999/xlink" version="1.1"><rect x="0" y="0" width="900" height="100" fill="#FFF6E3"></rect><path d="M0 65L6 68C12 71 24 77 36 80C48 83 60 83 72 80.3C84 77.7 96 72.3 108 69.8C120 67.3 132 67.7 144 67.2C156 66.7 168 65.3 180 65.2C192 65 204 66 216 68C228 70 240 73 252 73.5C264 74 276 72 288 72.7C300 73.3 312 76.7 324 76.5C336 76.3 348 72.7 360 70.3C372 68 384 67 396 66.8C408 66.7 420 67.3 432 67.3C444 67.3 456 66.7 468 67C480 67.3 492 68.7 504 70.2C516 71.7 528 73.3 540 75.2C552 77 564 79 576 76.8C588 74.7 600 68.3 612 66.3C624 64.3 636 66.7 648 68.3C660 70 672 71 684 73.3C696 75.7 708 79.3 720 79.7C732 80 744 77 756 75C768 73 780 72 792 73C804 74 816 77 828 76C840 75 852 70 864 67.5C876 65 888 65 894 65L900 65L900 101L894 101C888 101 876 101 864 101C852 101 840 101 828 101C816 101 804 101 792 101C780 101 768 101 756 101C744 101 732 101 720 101C708 101 696 101 684 101C672 101 660 101 648 101C636 101 624 101 612 101C600 101 588 101 576 101C564 101 552 101 540 101C528 101 516 101 504 101C492 101 480 101 468 101C456 101 444 101 432 101C420 101 408 101 396 101C384 101 372 101 360 101C348 101 336 101 324 101C312 101 300 101 288 101C276 101 264 101 252 101C240 101 228 101 216 101C204 101 192 101 180 101C168 101 156 101 144 101C132 101 120 101 108 101C96 101 84 101 72 101C60 101 48 101 36 101C24 101 12 101 6 101L0 101Z" fill="#F6F5F2" stroke-linecap="round" stroke-linejoin="miter"></path></svg>