<svg xmlns="http://www.w3.org/2000/svg" viewBox="0 0 500 500"><g id="freepik--Floor--inject-318"><ellipse id="freepik--floor--inject-318" cx="252" cy="349.34" rx="228.86" ry="132.14" style="fill:#fafafa"></ellipse></g><g id="freepik--Shadows--inject-318"><polygon id="freepik--Shadow--inject-318" points="325.8 236.65 255.74 277.11 206.69 248.79 276.75 208.34 325.8 236.65" style="fill:#e0e0e0"></polygon><path id="freepik--shadow--inject-318" d="M283.83,458.92,426.19,376.7c2.28-1.31,2.28-3.44,0-4.76l-235.64-136a9.15,9.15,0,0,0-8.25,0L40,318.11c-2.28,1.32-2.28,3.45,0,4.77l235.63,136A9.09,9.09,0,0,0,283.83,458.92Z" style="fill:#e0e0e0"></path><polygon id="freepik--shadow--inject-318" points="245.05 285.69 369.23 357.56 163.78 476.25 39.72 404.4 245.05 285.69" style="fill:#e0e0e0"></polygon><path id="freepik--shadow--inject-318" d="M409.75,311.17c-9.8,5.66-9.8,14.83,0,20.49s25.68,5.66,35.48,0,9.8-14.83,0-20.49S419.55,305.51,409.75,311.17Z" style="fill:#e0e0e0"></path></g><g id="freepik--Window--inject-318"><g id="freepik--window--inject-318"><polygon points="365.85 167.8 455.8 219.77 455.8 86.95 365.85 34.98 365.85 167.8" style="fill:#fff"></polygon><path d="M455.8,181.63l-21.08-48.34,21.08,69.12Zm-10.9,31.84-10.18-80.18-.26,74.15Zm10.9-57.4-21.08-22.78,21.08,31.16Zm0-17.46-21.08-5.32,21.08,12.35Zm0-22.29-21.08,17L455.8,127ZM419,198.49l15.75-65.2-28.21,58ZM365.85,167.8,381,176.55l53.73-43.26L365.85,154Zm60.84-97.67,8,63.16.2-58.4ZM455.8,87l-8.68-5-12.4,51.35L455.8,89.93ZM400.58,55.05l34.14,78.24L413,62.25Zm-34.73,60.87,68.87,17.37L365.85,93Zm0-80.94V58.92l68.87,74.37L369.66,37.18Z" style="fill:#C6A1FD;opacity:0.07"></path><ellipse cx="434.72" cy="133.29" rx="9.49" ry="17.77" transform="translate(-19.98 133.43) rotate(-17.06)" style="fill:#C6A1FD"></ellipse><ellipse cx="434.72" cy="133.29" rx="9.49" ry="17.77" transform="translate(-19.98 133.43) rotate(-17.06)" style="fill:#fff;opacity:0.8"></ellipse><path d="M455.8,154.5c-3.76-5.24-10.16-11.14-13.25-12.92-10.26-5.92-24.79-1.83-24.79-1.83l16.43,30.5c-8.49-11.91-34.8-58.89-42-63.46-5.56-3.51-10.85-3.78-26.3.79V167.8l89.95,52Z" style="fill:#C6A1FD"></path><path d="M455.8,154.5c-3.76-5.24-10.16-11.14-13.25-12.92-10.26-5.92-24.79-1.83-24.79-1.83l16.43,30.5c-8.49-11.91-34.8-58.89-42-63.46-5.56-3.51-10.85-3.78-26.3.79V167.8l89.95,52Z" style="fill:#fff;opacity:0.4"></path><polygon points="365.85 40.43 365.85 50.84 455.8 201.9 455.8 191.49 365.85 40.43" style="fill:#fff;opacity:0.2"></polygon><polygon points="403.05 189.29 365.85 126.82 365.85 153.11 379.19 175.51 403.05 189.29" style="fill:#fff;opacity:0.2"></polygon><polygon points="365.85 70.83 365.85 113.3 415.32 196.38 453.88 218.66 365.85 70.83" style="fill:#fff;opacity:0.2"></polygon><polygon points="452.46 85.02 428.6 71.23 455.8 116.92 455.8 90.64 452.46 85.02" style="fill:#fff;opacity:0.2"></polygon><polygon points="416.84 64.44 378.28 42.16 455.8 172.35 455.8 129.88 416.84 64.44" style="fill:#fff;opacity:0.2"></polygon><polygon points="455.8 219.78 455.8 222.54 363.5 169.21 365.85 167.8 455.8 219.78" style="fill:#37474f"></polygon><path d="M359.06,171.77,460.2,230.21V84.36L359.05,25.93ZM363.5,33.62,455.8,87V222.54l-92.3-53.33Z" style="fill:#455a64"></path><polygon points="363.5 169.21 365.85 167.8 365.85 34.98 363.5 33.62 363.5 169.21" style="fill:#263238"></polygon><polygon points="359.06 25.93 361.45 24.56 462.59 83 460.2 84.36 359.06 25.93" style="fill:#37474f"></polygon><polygon points="462.59 83 460.2 84.36 460.2 230.21 462.59 228.84 462.59 83" style="fill:#263238"></polygon><polygon points="414.24 62.92 411.85 61.54 411.85 197.13 414.24 195.76 414.24 62.92" style="fill:#263238"></polygon><polygon points="407.41 58.98 411.85 61.54 411.85 197.13 407.41 194.56 407.41 58.98" style="fill:#455a64"></polygon></g></g><g id="freepik--picture-2--inject-318"><g id="freepik--Pictures--inject-318"><g id="freepik--Picture--inject-318"><g id="freepik--Frame--inject-318"><polygon points="340.51 65.76 339.27 66.5 313.82 51.81 315.06 51.07 340.51 65.76" style="fill:#fafafa"></polygon><polygon points="315.06 51.07 339.27 65.04 339.27 39.69 315.06 25.72 315.06 51.07" style="fill:#fff"></polygon><path d="M311.48,53.16l30.13,17.39V38.34l-30.13-17.4ZM313.82,25l25.45,14.7V66.5L313.82,51.81Z" style="fill:#f0f0f0"></path><polygon points="313.82 51.81 315.06 51.07 315.06 25.72 313.82 25 313.82 51.81" style="fill:#e0e0e0"></polygon><polygon points="311.48 20.94 312.74 20.22 342.87 37.62 341.61 38.34 311.48 20.94" style="fill:#fafafa"></polygon><polygon points="342.87 37.62 341.61 38.34 341.61 70.56 342.87 69.83 342.87 37.62" style="fill:#e0e0e0"></polygon></g><g id="freepik--Land--inject-318"><polygon points="316.01 50.31 338.33 63.2 338.33 56.75 332.75 43.87 329.27 47.09 330.52 52.49 322.81 36.01 316.01 43.87 316.01 50.31" style="fill:#f0f0f0"></polygon><path d="M329.48,37.64a3.66,3.66,0,0,1,1.65,2.86c0,1.06-.74,1.48-1.65,1a3.66,3.66,0,0,1-1.65-2.86C327.83,37.54,328.57,37.12,329.48,37.64Z" style="fill:#f0f0f0"></path></g></g><g id="freepik--picture--inject-318"><g id="freepik--frame--inject-318"><polygon points="340.51 109.95 339.27 110.69 313.82 95.99 315.06 95.25 340.51 109.95" style="fill:#fafafa"></polygon><polygon points="315.06 95.25 339.27 109.23 339.27 83.88 315.06 69.91 315.06 95.25" style="fill:#fff"></polygon><path d="M311.48,97.34l30.13,17.4V82.52L311.48,65.13Zm2.34-28.16,25.45,14.7v26.81L313.82,96Z" style="fill:#f0f0f0"></path><polygon points="313.82 95.99 315.06 95.25 315.06 69.91 313.82 69.18 313.82 95.99" style="fill:#e0e0e0"></polygon><polygon points="311.48 65.13 312.74 64.41 342.87 81.8 341.61 82.52 311.48 65.13" style="fill:#fafafa"></polygon><polygon points="342.87 81.8 341.61 82.52 341.61 114.74 342.87 114.02 342.87 81.8" style="fill:#e0e0e0"></polygon></g><g id="freepik--land--inject-318"><polygon points="316.01 94.5 338.33 107.38 338.33 100.94 332.75 88.05 329.27 91.27 330.52 96.67 322.81 80.19 316.01 88.05 316.01 94.5" style="fill:#f0f0f0"></polygon><path d="M329.48,81.83a3.66,3.66,0,0,1,1.65,2.86c0,1-.74,1.48-1.65,1a3.63,3.63,0,0,1-1.65-2.86C327.83,81.73,328.57,81.3,329.48,81.83Z" style="fill:#f0f0f0"></path></g></g></g></g><g id="freepik--picture-1--inject-318"><g id="freepik--picture--inject-318"><g id="freepik--frame--inject-318"><polygon points="182.48 33.56 185.26 35.11 185.26 86.02 182.48 84.46 182.48 33.56" style="fill:#455a64"></polygon><polygon points="182.48 84.46 182.47 36.72 57.19 109.06 57.21 156.79 182.48 84.46" style="fill:#fff"></polygon><path d="M190.42,89V26.17L52,106.07V168.9ZM57.18,160v-50.9L185.26,35.11V86Z" style="fill:#C6A1FD"></path><polygon points="185.26 86.02 182.48 84.46 57.21 156.79 57.19 159.96 185.26 86.02" style="fill:#37474f"></polygon><polygon points="52.02 168.9 49.26 167.29 49.26 104.46 52.02 106.07 52.02 168.9" style="fill:#455a64"></polygon><polygon points="49.26 104.46 52.02 106.07 190.42 26.17 187.66 24.56 49.26 104.46" style="fill:#37474f"></polygon></g><g id="freepik--land--inject-318"><polygon points="177.71 82.59 177.71 44.1 63.37 110.11 63.37 148.61 177.71 82.59" style="fill:#f5f5f5"></polygon></g><g id="freepik--land--inject-318"><polygon points="177.71 82.59 177.71 44.1 63.37 110.11 63.37 148.61 177.71 82.59" style="fill:#C6A1FD"></polygon></g><g id="freepik--land--inject-318" style="opacity:0.7000000000000001"><polygon points="177.71 82.59 177.71 44.1 63.37 110.11 63.37 148.61 177.71 82.59" style="fill:#fff"></polygon></g><path d="M109.36,91.69a36.68,36.68,0,0,0-1.84-7.07l-9.18,5.3c.1.82.19,1.56.2,2.17,0,1.67.06,3.35,0,5-.16,6.2-1,12.4-3.55,18.1-3.3,7.43-9.14,13.38-14.14,19.8a64.9,64.9,0,0,0-4.06,5.82l32.28-18.64c-1.28-3.35-.73-7.15-.2-10.74C109.83,104.91,110.52,98.21,109.36,91.69ZM86,97l-8.81,5.08A32.87,32.87,0,0,1,70.39,113a36.38,36.38,0,0,1-7,5.72v21.47A56.37,56.37,0,0,0,77,125.42,58.65,58.65,0,0,0,86,97Zm66.25-3.35c-5.53-.13-11.57-1.45-14.91-5.86-1.72-2.27-2.51-5.09-3.54-7.75a35.06,35.06,0,0,0-4.52-8l-11.36,6.56a23.24,23.24,0,0,1,1.45,3.53c2.08,8.67-1.27,18.44,2.8,26.37a16.84,16.84,0,0,0,3.21,4.29L159,93.42A51.78,51.78,0,0,1,152.26,93.69Zm10.61-29.13a24.23,24.23,0,0,1-10.58-5.79l-13.45,7.77A33.22,33.22,0,0,0,144,72.77a34.38,34.38,0,0,0,15.64,7.88,32.87,32.87,0,0,0,15.34,0,26.49,26.49,0,0,0,2.7-.87V62.7A23.69,23.69,0,0,1,162.87,64.56ZM162,53.16a15,15,0,0,0,13.74.52,17.23,17.23,0,0,0,2-1.12V44.1Z" style="fill:#fff;opacity:0.4"></path></g></g><g id="freepik--Plant--inject-318"><g id="freepik--plant--inject-318"><g id="freepik--Pot--inject-318"><path d="M412.45,322.07c-8.12-8.37-12.88-29.52-5-36.16h40.26c7.91,6.64,3.15,27.78-5,36.16l-.22.23-.28.27a9.24,9.24,0,0,1-.73.66c-.06.06-.13.1-.2.16s-.39.31-.61.46a9.88,9.88,0,0,1-1.05.68c-6.67,3.9-17.49,3.9-24.16,0h0a11.14,11.14,0,0,1-1.06-.68c-.2-.14-.38-.29-.57-.44l-.24-.19c-.25-.2-.48-.42-.7-.63l-.33-.32C412.57,322.2,412.5,322.14,412.45,322.07Z" style="fill:#37474f"></path><path d="M444.24,283.24c9.19,5.36,9.19,14.06,0,19.42s-24.08,5.36-33.26,0-9.19-14.06,0-19.42S435.06,277.88,444.24,283.24Z" style="fill:#455a64"></path><path d="M439.83,285.82c6.74,3.94,6.74,10.32,0,14.26s-17.69,3.94-24.43,0-6.75-10.32,0-14.26S433.08,281.88,439.83,285.82Z" style="fill:#263238"></path><path d="M415.4,292.59c6.74-3.94,17.68-3.94,24.43,0a11.35,11.35,0,0,1,4,3.74,11.29,11.29,0,0,1-4,3.75c-6.75,3.94-17.69,3.94-24.43,0a11.12,11.12,0,0,1-4-3.75A11.19,11.19,0,0,1,415.4,292.59Z" style="fill:#fafafa"></path></g><path d="M422.1,242.58c-2.72,3.44-10.88,4.95-15-3.46-3.82-7.89-7.85-15.34-9.07-18.25a3.08,3.08,0,0,1,1.67-4.12s-.11-4.48,7.7-2,13.49,6.63,17.36,13.81S427.09,241.2,422.1,242.58Z" style="fill:#C6A1FD"></path><path d="M422.1,242.58c-2.72,3.44-10.88,4.95-15-3.46-3.82-7.89-7.85-15.34-9.07-18.25a3.08,3.08,0,0,1,1.67-4.12s-.11-4.48,7.7-2,13.49,6.63,17.36,13.81S427.09,241.2,422.1,242.58Z" style="fill:#fff;opacity:0.05"></path><path d="M422.1,242.58c-2.72,3.44-10.88,4.95-15-3.46-3.82-7.89-7.85-15.34-9.07-18.25a3.08,3.08,0,0,1,1.67-4.12s-.11-4.48,7.7-2,13.49,6.63,17.36,13.81S427.09,241.2,422.1,242.58Z" style="fill:#fff;opacity:0.45"></path><path d="M426.25,253.8a40.25,40.25,0,0,0-1-4.48,64.1,64.1,0,0,0-13.19-24.06,54.9,54.9,0,0,0-7.49-7.29c-.08-.07-.13.11-.07.16A67.27,67.27,0,0,1,424,248.67c.49,1.62,1,3.25,1.4,4.89s.75,3.36,1.16,5c0,.17.31.25.31,0A32.43,32.43,0,0,0,426.25,253.8Z" style="fill:#C6A1FD"></path><path d="M426.25,253.8a40.25,40.25,0,0,0-1-4.48,64.1,64.1,0,0,0-13.19-24.06,54.9,54.9,0,0,0-7.49-7.29c-.08-.07-.13.11-.07.16A67.27,67.27,0,0,1,424,248.67c.49,1.62,1,3.25,1.4,4.89s.75,3.36,1.16,5c0,.17.31.25.31,0A32.43,32.43,0,0,0,426.25,253.8Z" style="opacity:0.4"></path><path d="M431,236.56c-7.08,2.19-12.34-3.34-10.52-12s10.93-18.29,14.37-15.71c2.15-2.15,6.88-1.37,9.11,5.67S444.11,239.63,431,236.56Z" style="fill:#C6A1FD"></path><path d="M431,236.56c-7.08,2.19-12.34-3.34-10.52-12s10.93-18.29,14.37-15.71c2.15-2.15,6.88-1.37,9.11,5.67S444.11,239.63,431,236.56Z" style="fill:#fff;opacity:0.15"></path><path d="M435.11,214.11a94.83,94.83,0,0,0-4.71,15.58A152.47,152.47,0,0,0,427.66,246a256.73,256.73,0,0,0-1.42,32c0,2.95.07,5.9.12,8.85s0,6.1.27,9.13c.1,1.16,1.75.85,1.77-.22.11-5.31-.19-10.64-.24-15.95s0-10.51.1-15.76a220.42,220.42,0,0,1,2.87-31.93c.5-2.94,1.06-5.87,1.75-8.78s1.6-6.06,2.41-9.1C435.32,214.1,435.18,214,435.11,214.11Z" style="fill:#C6A1FD"></path><path d="M435.11,214.11a94.83,94.83,0,0,0-4.71,15.58A152.47,152.47,0,0,0,427.66,246a256.73,256.73,0,0,0-1.42,32c0,2.95.07,5.9.12,8.85s0,6.1.27,9.13c.1,1.16,1.75.85,1.77-.22.11-5.31-.19-10.64-.24-15.95s0-10.51.1-15.76a220.42,220.42,0,0,1,2.87-31.93c.5-2.94,1.06-5.87,1.75-8.78s1.6-6.06,2.41-9.1C435.32,214.1,435.18,214,435.11,214.11Z" style="opacity:0.4"></path><path d="M417.78,260.29c-2,4.2-9,5.8-15.22,1s-15.3-26.64-8.45-27c.52-3.41,20.36-1.1,26.76,13C425.51,257.69,417.78,260.29,417.78,260.29Z" style="fill:#C6A1FD"></path><path d="M417.78,260.29c-2,4.2-9,5.8-15.22,1s-15.3-26.64-8.45-27c.52-3.41,20.36-1.1,26.76,13C425.51,257.69,417.78,260.29,417.78,260.29Z" style="fill:#fff;opacity:0.15"></path><path d="M426.08,269.51a31.8,31.8,0,0,0-2-3.88,88.11,88.11,0,0,0-4.92-7.46,90,90,0,0,0-12.31-13.42,81.94,81.94,0,0,0-7.87-6.42c-.08-.05-.09.12,0,.16,2.23,1.88,4.49,3.73,6.59,5.75a90.66,90.66,0,0,1,6.2,6.65A111.23,111.23,0,0,1,422,265c.86,1.41,1.66,2.87,2.53,4.27s1.94,2.85,2.79,4.35c.12.21.44.22.33-.08C427.08,272.22,426.65,270.84,426.08,269.51Z" style="fill:#C6A1FD"></path><path d="M426.08,269.51a31.8,31.8,0,0,0-2-3.88,88.11,88.11,0,0,0-4.92-7.46,90,90,0,0,0-12.31-13.42,81.94,81.94,0,0,0-7.87-6.42c-.08-.05-.09.12,0,.16,2.23,1.88,4.49,3.73,6.59,5.75a90.66,90.66,0,0,1,6.2,6.65A111.23,111.23,0,0,1,422,265c.86,1.41,1.66,2.87,2.53,4.27s1.94,2.85,2.79,4.35c.12.21.44.22.33-.08C427.08,272.22,426.65,270.84,426.08,269.51Z" style="opacity:0.4"></path><path d="M430.75,258.51c-4.05-.92-4.25-5.78.81-11.75s17.81-8.57,18.42-6.06c2.84,0,2.84,8.88-3.44,17S431.13,264,430.75,258.51Z" style="fill:#C6A1FD"></path><path d="M430.75,258.51c-4.05-.92-4.25-5.78.81-11.75s17.81-8.57,18.42-6.06c2.84,0,2.84,8.88-3.44,17S431.13,264,430.75,258.51Z" style="fill:#fff;opacity:0.15"></path><path d="M438.68,249.83A32.18,32.18,0,0,0,427,265c-.13.35.47.85.61.48a37.31,37.31,0,0,1,11.14-15.53S438.73,249.8,438.68,249.83Z" style="fill:#C6A1FD"></path><path d="M438.68,249.83A32.18,32.18,0,0,0,427,265c-.13.35.47.85.61.48a37.31,37.31,0,0,1,11.14-15.53S438.73,249.8,438.68,249.83Z" style="opacity:0.4"></path><path d="M435.38,288.14c-5.61,2.27-3.21,8.94,2.27,14a25,25,0,0,0,17.07,6.14c3.76-.27,4.72-.78,4.72-.78a42.64,42.64,0,0,0,0-9.29A18,18,0,0,0,446.2,284C437.47,281.63,435.38,284.8,435.38,288.14Z" style="fill:#C6A1FD"></path><path d="M435.38,288.14c-5.61,2.27-3.21,8.94,2.27,14a25,25,0,0,0,17.07,6.14c3.76-.27,4.72-.78,4.72-.78a42.64,42.64,0,0,0,0-9.29A18,18,0,0,0,446.2,284C437.47,281.63,435.38,284.8,435.38,288.14Z" style="fill:#fff;opacity:0.05"></path><path d="M435.38,288.14c-5.61,2.27-3.21,8.94,2.27,14a25,25,0,0,0,17.07,6.14c3.76-.27,4.72-.78,4.72-.78a42.64,42.64,0,0,0,0-9.29A18,18,0,0,0,446.2,284C437.47,281.63,435.38,284.8,435.38,288.14Z" style="fill:#fff;opacity:0.45"></path><path d="M450.9,298a45.24,45.24,0,0,0-8.58-7.95c-3.2-2.1-7.46-3.89-11.29-2.58-1.48.5-3.79,2-3.51,3.82,0,.18.35.64.57.39a15.25,15.25,0,0,1,2-2.36,5.92,5.92,0,0,1,3-1.14A13.84,13.84,0,0,1,441,290c3.79,2,6.85,5.13,9.87,8.12C450.89,298.12,450.93,298,450.9,298Z" style="fill:#C6A1FD"></path><path d="M450.9,298a45.24,45.24,0,0,0-8.58-7.95c-3.2-2.1-7.46-3.89-11.29-2.58-1.48.5-3.79,2-3.51,3.82,0,.18.35.64.57.39a15.25,15.25,0,0,1,2-2.36,5.92,5.92,0,0,1,3-1.14A13.84,13.84,0,0,1,441,290c3.79,2,6.85,5.13,9.87,8.12C450.89,298.12,450.93,298,450.9,298Z" style="opacity:0.4"></path><path d="M414.06,266.21c.05-2.38-4.26-7.27-14.77-6.43s-17.44,6.63-18.63,8.92-1.6,4.53.37,4.71,8.53-.37,13.12.8,14.25,5.36,19.81,2.57S417.39,268,414.06,266.21Z" style="fill:#C6A1FD"></path><path d="M414.06,266.21c.05-2.38-4.26-7.27-14.77-6.43s-17.44,6.63-18.63,8.92-1.6,4.53.37,4.71,8.53-.37,13.12.8,14.25,5.36,19.81,2.57S417.39,268,414.06,266.21Z" style="fill:#fff;opacity:0.05"></path><path d="M414.06,266.21c.05-2.38-4.26-7.27-14.77-6.43s-17.44,6.63-18.63,8.92-1.6,4.53.37,4.71,8.53-.37,13.12.8,14.25,5.36,19.81,2.57S417.39,268,414.06,266.21Z" style="fill:#fff;opacity:0.45"></path><path d="M423.36,272.76c-6-8.19-17.71-8.88-26.87-7.16a37.06,37.06,0,0,0-8.73,2.8s0,.12,0,.11a48.17,48.17,0,0,1,14.91-2.89,31.46,31.46,0,0,1,14.61,2.77,18.78,18.78,0,0,1,5.89,4.58C423.36,273.16,423.49,272.93,423.36,272.76Z" style="fill:#C6A1FD"></path><path d="M423.36,272.76c-6-8.19-17.71-8.88-26.87-7.16a37.06,37.06,0,0,0-8.73,2.8s0,.12,0,.11a48.17,48.17,0,0,1,14.91-2.89,31.46,31.46,0,0,1,14.61,2.77,18.78,18.78,0,0,1,5.89,4.58C423.36,273.16,423.49,272.93,423.36,272.76Z" style="opacity:0.4"></path><path d="M440.81,246c-.15,4,5.51,6.35,11,2.88S463,242,468.1,240.7s7.48-5.45,5.87-7.45-4.15-7.06-17.49-5.41-18.07,7.66-19.9,11.91S438.8,247.15,440.81,246Z" style="fill:#C6A1FD"></path><path d="M440.81,246c-.15,4,5.51,6.35,11,2.88S463,242,468.1,240.7s7.48-5.45,5.87-7.45-4.15-7.06-17.49-5.41-18.07,7.66-19.9,11.91S438.8,247.15,440.81,246Z" style="fill:#fff;opacity:0.05"></path><path d="M440.81,246c-.15,4,5.51,6.35,11,2.88S463,242,468.1,240.7s7.48-5.45,5.87-7.45-4.15-7.06-17.49-5.41-18.07,7.66-19.9,11.91S438.8,247.15,440.81,246Z" style="fill:#fff;opacity:0.45"></path><path d="M462.53,233.23a14.41,14.41,0,0,0-5.72.6,28,28,0,0,0-4.9,1.75,27.18,27.18,0,0,0-8.35,6,21.57,21.57,0,0,0-1.88,2.27,9.45,9.45,0,0,0-1.42,2.33c-.1.26.29.69.53.42.66-.76,1.15-1.69,1.77-2.49a27.83,27.83,0,0,1,2.15-2.46,27.22,27.22,0,0,1,5.14-4,30.72,30.72,0,0,1,9-3.77,11.4,11.4,0,0,1,3.62-.5C462.56,233.38,462.59,233.24,462.53,233.23Z" style="fill:#C6A1FD"></path><path d="M462.53,233.23a14.41,14.41,0,0,0-5.72.6,28,28,0,0,0-4.9,1.75,27.18,27.18,0,0,0-8.35,6,21.57,21.57,0,0,0-1.88,2.27,9.45,9.45,0,0,0-1.42,2.33c-.1.26.29.69.53.42.66-.76,1.15-1.69,1.77-2.49a27.83,27.83,0,0,1,2.15-2.46,27.22,27.22,0,0,1,5.14-4,30.72,30.72,0,0,1,9-3.77,11.4,11.4,0,0,1,3.62-.5C462.56,233.38,462.59,233.24,462.53,233.23Z" style="opacity:0.4"></path><path d="M431.24,267.7c-1.87-1.87-6.95-1.43-9.35,4.09s2.64,11.57,3.2,13.27c2.32-1.33,4.13-.54,8.21-1.33a10.2,10.2,0,0,0,7.82-10.17C440.85,268.5,438.72,265.16,431.24,267.7Z" style="fill:#C6A1FD"></path><path d="M431.24,267.7c-1.87-1.87-6.95-1.43-9.35,4.09s2.64,11.57,3.2,13.27c2.32-1.33,4.13-.54,8.21-1.33a10.2,10.2,0,0,0,7.82-10.17C440.85,268.5,438.72,265.16,431.24,267.7Z" style="fill:#fff;opacity:0.05"></path><path d="M431.24,267.7c-1.87-1.87-6.95-1.43-9.35,4.09s2.64,11.57,3.2,13.27c2.32-1.33,4.13-.54,8.21-1.33a10.2,10.2,0,0,0,7.82-10.17C440.85,268.5,438.72,265.16,431.24,267.7Z" style="fill:#fff;opacity:0.45"></path><path d="M431.17,267.15a7.51,7.51,0,0,0-2.48,2.56,14.49,14.49,0,0,0-1.61,3.1,13.18,13.18,0,0,0-.7,7c0,.09.09,0,.09,0a14.29,14.29,0,0,1,1.18-7,13.88,13.88,0,0,1,1.68-2.79,14.16,14.16,0,0,1,1.13-1.31,7.22,7.22,0,0,0,1.07-1.07C431.67,267.46,431.45,267,431.17,267.15Z" style="fill:#C6A1FD"></path><path d="M431.17,267.15a7.51,7.51,0,0,0-2.48,2.56,14.49,14.49,0,0,0-1.61,3.1,13.18,13.18,0,0,0-.7,7c0,.09.09,0,.09,0a14.29,14.29,0,0,1,1.18-7,13.88,13.88,0,0,1,1.68-2.79,14.16,14.16,0,0,1,1.13-1.31,7.22,7.22,0,0,0,1.07-1.07C431.67,267.46,431.45,267,431.17,267.15Z" style="opacity:0.4"></path><path d="M423.52,282.55c-1-4-6.09-6.22-12.68-6.71a17.25,17.25,0,0,0-16.41,8.42c-3.45,5.9-4.89,10.6-2.79,11.37s11,2,16.68,2.51,12.87-.52,17.54-4.87S429,283.46,423.52,282.55Z" style="fill:#C6A1FD"></path><path d="M423.52,282.55c-1-4-6.09-6.22-12.68-6.71a17.25,17.25,0,0,0-16.41,8.42c-3.45,5.9-4.89,10.6-2.79,11.37s11,2,16.68,2.51,12.87-.52,17.54-4.87S429,283.46,423.52,282.55Z" style="fill:#fff;opacity:0.15"></path><path d="M423.77,282a17.43,17.43,0,0,0-7.12-.33,31.61,31.61,0,0,0-6.73,1.55,43.71,43.71,0,0,0-6.66,3c-1.12.62-2.22,1.27-3.29,1.95a25,25,0,0,0-3,2s0,.17,0,.14c1.08-.49,2.09-1.17,3.13-1.75s2.24-1.25,3.38-1.82a46.67,46.67,0,0,1,6.6-2.8,30.57,30.57,0,0,1,7-1.5,41.42,41.42,0,0,1,6.68.17C424.31,282.69,424.05,282.11,423.77,282Z" style="fill:#C6A1FD"></path><path d="M423.77,282a17.43,17.43,0,0,0-7.12-.33,31.61,31.61,0,0,0-6.73,1.55,43.71,43.71,0,0,0-6.66,3c-1.12.62-2.22,1.27-3.29,1.95a25,25,0,0,0-3,2s0,.17,0,.14c1.08-.49,2.09-1.17,3.13-1.75s2.24-1.25,3.38-1.82a46.67,46.67,0,0,1,6.6-2.8,30.57,30.57,0,0,1,7-1.5,41.42,41.42,0,0,1,6.68.17C424.31,282.69,424.05,282.11,423.77,282Z" style="opacity:0.4"></path><path d="M435.52,272.77c-4.53-3.6-3-12.23,12.85-12.7s27.19,3.68,26.69,8.78c2.55,2.56,1.26,9.71-11.59,11.94S432.25,281.91,435.52,272.77Z" style="fill:#C6A1FD"></path><path d="M435.52,272.77c-4.53-3.6-3-12.23,12.85-12.7s27.19,3.68,26.69,8.78c2.55,2.56,1.26,9.71-11.59,11.94S432.25,281.91,435.52,272.77Z" style="fill:#fff;opacity:0.15"></path><path d="M467.6,268.91a68,68,0,0,0-14.18-.83,54.31,54.31,0,0,0-13.08,1.51,18.76,18.76,0,0,0-3.19,1.18,14.29,14.29,0,0,0-1.39.75c-.36.22-.77.41-.9.83a.44.44,0,0,0,.48.5,17.38,17.38,0,0,0,2.77-1.37,20.52,20.52,0,0,1,2.75-1,33.36,33.36,0,0,1,5.51-1.09,98.27,98.27,0,0,1,13.39-.74c2.61,0,5.21.24,7.8.44C467.64,269.1,467.67,268.92,467.6,268.91Z" style="fill:#C6A1FD"></path><path d="M467.6,268.91a68,68,0,0,0-14.18-.83,54.31,54.31,0,0,0-13.08,1.51,18.76,18.76,0,0,0-3.19,1.18,14.29,14.29,0,0,0-1.39.75c-.36.22-.77.41-.9.83a.44.44,0,0,0,.48.5,17.38,17.38,0,0,0,2.77-1.37,20.52,20.52,0,0,1,2.75-1,33.36,33.36,0,0,1,5.51-1.09,98.27,98.27,0,0,1,13.39-.74c2.61,0,5.21.24,7.8.44C467.64,269.1,467.67,268.92,467.6,268.91Z" style="opacity:0.4"></path></g></g><g id="freepik--Carpet--inject-318"><g id="freepik--carpet--inject-318"><g id="freepik--carpet--inject-318"><polygon points="239.17 287.83 358.15 356.69 167.68 466.37 48.8 397.52 239.17 287.83" style="fill:#C6A1FD"></polygon><polygon points="239.17 287.83 358.15 356.69 167.68 466.37 48.8 397.52 239.17 287.83" style="fill:#fff;opacity:0.7000000000000001"></polygon><path d="M167.78,467.16a.77.77,0,0,1-.36-.09l-119-68.7a.75.75,0,0,1-.36-.64.73.73,0,0,1,.36-.63L238.81,287.19a.73.73,0,0,1,.73,0l119,68.69a.74.74,0,0,1,.37.64.72.72,0,0,1-.37.63L168.15,467.07A.78.78,0,0,1,167.78,467.16ZM50.26,397.73l117.52,67.86L356.69,356.52,239.17,288.67Z" style="fill:#fff"></path><path d="M239.17,288.56a.73.73,0,0,1-.36-1.37l5.23-3a.73.73,0,0,1,1,.27.72.72,0,0,1-.26,1l-5.24,3A.71.71,0,0,1,239.17,288.56Z" style="fill:#fff"></path><path d="M245.79,292.37a.71.71,0,0,1-.63-.37.73.73,0,0,1,.27-1l5.23-3a.73.73,0,0,1,.74,1.26l-5.24,3A.71.71,0,0,1,245.79,292.37Z" style="fill:#fff"></path><path d="M252.41,296.18a.71.71,0,0,1-.63-.37.74.74,0,0,1,.27-1l5.23-3a.73.73,0,0,1,.74,1.26l-5.24,3A.71.71,0,0,1,252.41,296.18Z" style="fill:#fff"></path><path d="M259,300a.71.71,0,0,1-.63-.37.74.74,0,0,1,.27-1l5.23-3a.73.73,0,0,1,1,.26.72.72,0,0,1-.26,1l-5.24,3A.71.71,0,0,1,259,300Z" style="fill:#fff"></path><path d="M265.65,303.8a.73.73,0,0,1-.63-.36.73.73,0,0,1,.27-1l5.23-3a.73.73,0,0,1,.74,1.26l-5.24,3A.71.71,0,0,1,265.65,303.8Z" style="fill:#fff"></path><path d="M272.27,307.61a.73.73,0,0,1-.63-.36.73.73,0,0,1,.27-1l5.23-3a.73.73,0,0,1,.74,1.26l-5.24,3A.71.71,0,0,1,272.27,307.61Z" style="fill:#fff"></path><path d="M278.89,311.42a.73.73,0,0,1-.63-.36.74.74,0,0,1,.26-1l5.24-3a.72.72,0,0,1,1,.27.73.73,0,0,1-.26,1l-5.24,3A.71.71,0,0,1,278.89,311.42Z" style="fill:#fff"></path><path d="M285.51,315.23a.73.73,0,0,1-.63-.36.74.74,0,0,1,.26-1l5.24-3a.73.73,0,0,1,.74,1.27l-5.24,3A.71.71,0,0,1,285.51,315.23Z" style="fill:#fff"></path><path d="M292.13,319a.73.73,0,0,1-.37-1.36l5.24-3a.73.73,0,0,1,1,.27.74.74,0,0,1-.26,1l-5.24,3A.74.74,0,0,1,292.13,319Z" style="fill:#fff"></path><path d="M298.75,322.85a.73.73,0,0,1-.37-1.36l5.24-3a.73.73,0,0,1,1,.27.74.74,0,0,1-.26,1l-5.24,3A.84.84,0,0,1,298.75,322.85Z" style="fill:#fff"></path><path d="M305.37,326.67a.74.74,0,0,1-.37-1.37l5.24-3a.73.73,0,0,1,1,.27.74.74,0,0,1-.26,1l-5.24,3A.74.74,0,0,1,305.37,326.67Z" style="fill:#fff"></path><path d="M312,330.48a.73.73,0,0,1-.37-1.37l5.24-3a.73.73,0,0,1,.73,1.27l-5.23,3A.74.74,0,0,1,312,330.48Z" style="fill:#fff"></path><path d="M318.61,334.29a.73.73,0,0,1-.37-1.37l5.24-3a.73.73,0,0,1,.73,1.27l-5.23,3A.74.74,0,0,1,318.61,334.29Z" style="fill:#fff"></path><path d="M325.23,338.1a.73.73,0,0,1-.37-1.37l5.24-3a.72.72,0,0,1,1,.26.73.73,0,0,1-.27,1l-5.24,3A.68.68,0,0,1,325.23,338.1Z" style="fill:#fff"></path><path d="M331.85,341.91a.73.73,0,0,1-.37-1.37l5.24-3a.73.73,0,1,1,.73,1.26l-5.24,3A.68.68,0,0,1,331.85,341.91Z" style="fill:#fff"></path><path d="M338.47,345.72a.73.73,0,0,1-.37-1.37l5.24-3a.73.73,0,1,1,.73,1.26l-5.24,3A.68.68,0,0,1,338.47,345.72Z" style="fill:#fff"></path><path d="M345.09,349.53a.74.74,0,0,1-.64-.36.73.73,0,0,1,.27-1l5.24-3a.72.72,0,0,1,1,.27.73.73,0,0,1-.27,1l-5.24,3A.68.68,0,0,1,345.09,349.53Z" style="fill:#fff"></path><path d="M351.71,353.34a.74.74,0,0,1-.64-.36.73.73,0,0,1,.27-1l5.24-3a.73.73,0,0,1,.73,1.27l-5.24,3A.68.68,0,0,1,351.71,353.34Z" style="fill:#fff"></path><path d="M358.33,357.15a.74.74,0,0,1-.64-.36.73.73,0,0,1,.27-1l5.24-3a.73.73,0,0,1,1,.27.74.74,0,0,1-.27,1l-5.24,3A.68.68,0,0,1,358.33,357.15Z" style="fill:#fff"></path><path d="M43.49,401.53a.73.73,0,0,1-.37-1.36l5.24-3a.73.73,0,0,1,.74,1.27l-5.24,3A.81.81,0,0,1,43.49,401.53Z" style="fill:#fff"></path><path d="M50.11,405.35a.74.74,0,0,1-.37-1.37L55,401a.73.73,0,0,1,.74,1.27l-5.24,3A.71.71,0,0,1,50.11,405.35Z" style="fill:#fff"></path><path d="M56.73,409.16a.71.71,0,0,1-.63-.37.73.73,0,0,1,.26-1l5.24-3a.73.73,0,0,1,1,.27.74.74,0,0,1-.26,1l-5.24,3A.71.71,0,0,1,56.73,409.16Z" style="fill:#fff"></path><path d="M63.35,413A.74.74,0,0,1,63,411.6l5.24-3a.73.73,0,0,1,1,.27.74.74,0,0,1-.26,1l-5.24,3A.71.71,0,0,1,63.35,413Z" style="fill:#fff"></path><path d="M70,416.78a.74.74,0,0,1-.63-.37.72.72,0,0,1,.26-1l5.24-3a.72.72,0,0,1,1,.26.73.73,0,0,1-.27,1l-5.23,3A.74.74,0,0,1,70,416.78Z" style="fill:#fff"></path><path d="M76.59,420.59a.73.73,0,0,1-.37-1.37l5.24-3a.73.73,0,1,1,.73,1.26l-5.23,3A.74.74,0,0,1,76.59,420.59Z" style="fill:#fff"></path><path d="M83.21,424.4a.73.73,0,0,1-.37-1.37l5.24-3a.73.73,0,1,1,.73,1.26l-5.24,3A.68.68,0,0,1,83.21,424.4Z" style="fill:#fff"></path><path d="M89.83,428.21a.74.74,0,0,1-.64-.36.73.73,0,0,1,.27-1l5.24-3a.73.73,0,1,1,.73,1.26l-5.24,3A.68.68,0,0,1,89.83,428.21Z" style="fill:#fff"></path><path d="M96.45,432a.74.74,0,0,1-.64-.36.73.73,0,0,1,.27-1l5.24-3a.73.73,0,1,1,.73,1.26l-5.24,3A.68.68,0,0,1,96.45,432Z" style="fill:#fff"></path><path d="M103.07,435.83a.74.74,0,0,1-.64-.36.73.73,0,0,1,.27-1l5.24-3a.72.72,0,0,1,1,.27.74.74,0,0,1-.27,1l-5.24,3A.68.68,0,0,1,103.07,435.83Z" style="fill:#fff"></path><path d="M109.69,439.64a.74.74,0,0,1-.64-.36.73.73,0,0,1,.27-1l5.24-3a.73.73,0,1,1,.73,1.27l-5.24,3A.68.68,0,0,1,109.69,439.64Z" style="fill:#fff"></path><path d="M116.31,443.45a.74.74,0,0,1-.64-.36.73.73,0,0,1,.27-1l5.24-3a.73.73,0,1,1,.73,1.27l-5.24,3A.68.68,0,0,1,116.31,443.45Z" style="fill:#fff"></path><path d="M122.93,447.26a.74.74,0,0,1-.64-.36.73.73,0,0,1,.27-1l5.24-3a.73.73,0,0,1,.73,1.27l-5.24,3A.77.77,0,0,1,122.93,447.26Z" style="fill:#fff"></path><path d="M129.55,451.08a.75.75,0,0,1-.64-.37.73.73,0,0,1,.27-1l5.24-3a.73.73,0,1,1,.73,1.27l-5.24,3A.68.68,0,0,1,129.55,451.08Z" style="fill:#fff"></path><path d="M136.17,454.89a.73.73,0,0,1-.37-1.37l5.24-3a.73.73,0,1,1,.73,1.27l-5.24,3A.68.68,0,0,1,136.17,454.89Z" style="fill:#fff"></path><path d="M142.78,458.7a.73.73,0,0,1-.63-.37.74.74,0,0,1,.27-1l5.24-3a.73.73,0,0,1,.73,1.27l-5.24,3A.69.69,0,0,1,142.78,458.7Z" style="fill:#fff"></path><path d="M149.4,462.51a.73.73,0,0,1-.63-.37.74.74,0,0,1,.27-1l5.24-3a.72.72,0,0,1,1,.26.73.73,0,0,1-.27,1l-5.24,3A.69.69,0,0,1,149.4,462.51Z" style="fill:#fff"></path><path d="M156,466.32a.73.73,0,0,1-.63-.37.73.73,0,0,1,.27-1l5.24-3a.73.73,0,1,1,.73,1.26l-5.24,3A.69.69,0,0,1,156,466.32Z" style="fill:#fff"></path><path d="M162.64,470.13a.73.73,0,0,1-.63-.37.73.73,0,0,1,.27-1l5.24-3a.73.73,0,1,1,.73,1.26L163,470A.71.71,0,0,1,162.64,470.13Z" style="fill:#fff"></path><path d="M191.58,453.42a.71.71,0,0,1-.37-.1l-119-68.69a.73.73,0,0,1-.27-1,.73.73,0,0,1,1-.27l119,68.7a.73.73,0,0,1-.36,1.36Z" style="fill:#fff"></path><path d="M215.37,439.68a.74.74,0,0,1-.37-.1L96,370.89a.73.73,0,0,1,.74-1.27l119,68.7a.73.73,0,0,1-.37,1.36Z" style="fill:#fff"></path><path d="M239.17,425.94a.71.71,0,0,1-.37-.1l-119-68.69a.73.73,0,0,1-.27-1,.73.73,0,0,1,1-.27l119,68.7a.73.73,0,0,1-.36,1.36Z" style="fill:#fff"></path><path d="M263,412.2a.74.74,0,0,1-.37-.1l-119-68.69a.73.73,0,0,1,.74-1.27l119,68.7a.73.73,0,0,1-.37,1.36Z" style="fill:#fff"></path><path d="M286.76,398.46a.69.69,0,0,1-.37-.1l-119-68.69a.73.73,0,0,1,.73-1.27l119,68.7a.73.73,0,0,1-.36,1.36Z" style="fill:#fff"></path><path d="M310.55,384.72a.74.74,0,0,1-.37-.1l-119-68.69a.72.72,0,0,1-.26-1,.73.73,0,0,1,1-.27l119,68.7a.73.73,0,0,1-.37,1.36Z" style="fill:#fff"></path><path d="M334.34,371a.68.68,0,0,1-.36-.1L215,302.19a.73.73,0,0,1,.73-1.27l119,68.7a.73.73,0,0,1,.27,1A.74.74,0,0,1,334.34,371Z" style="fill:#fff"></path><path d="M144,453.42a.72.72,0,0,1-.52-.21.73.73,0,0,1-.22-.52V426.1l-34.8,6.69a.73.73,0,0,1-.61-.15.74.74,0,0,1-.27-.57l0-26.57-34.82,6.7a.76.76,0,0,1-.6-.16.72.72,0,0,1-.27-.56V384a.74.74,0,0,1,1.47,0v26.6l34.82-6.7a.76.76,0,0,1,.6.16.72.72,0,0,1,.27.56l0,26.58,34.8-6.7a.77.77,0,0,1,.61.15.73.73,0,0,1,.26.57V452l46.86,0h0a.73.73,0,1,1,0,1.46l-47.59.05Z" style="fill:#fff"></path><path d="M191.58,425.94a.69.69,0,0,1-.51-.21.73.73,0,0,1-.22-.52V398.62L156,405.32a.75.75,0,0,1-.6-.16.72.72,0,0,1-.27-.56l0-26.58-34.82,6.7a.73.73,0,0,1-.87-.72V356.51a.73.73,0,0,1,1.46,0v26.61l34.82-6.7a.7.7,0,0,1,.61.15.71.71,0,0,1,.26.56l0,26.58,34.8-6.7a.74.74,0,0,1,.61.16.7.7,0,0,1,.26.56v26.75l46.86-.05h0a.74.74,0,0,1,0,1.47l-47.6,0Z" style="fill:#fff"></path><path d="M239.18,398.47a.75.75,0,0,1-.73-.73v-26.6l-34.8,6.7a.74.74,0,0,1-.6-.16.72.72,0,0,1-.27-.56l0-26.58-34.82,6.7a.7.7,0,0,1-.6-.15.74.74,0,0,1-.27-.57V329a.73.73,0,1,1,1.46,0v26.61l34.82-6.7a.72.72,0,0,1,.87.72l0,26.57,34.81-6.7a.76.76,0,0,1,.6.16.74.74,0,0,1,.27.56V397l46.86-.05h0a.74.74,0,0,1,0,1.47l-47.6.05Z" style="fill:#fff"></path><path d="M286.78,371a.74.74,0,0,1-.51-.21.74.74,0,0,1-.22-.52v-26.6l-34.8,6.7a.74.74,0,0,1-.6-.16.71.71,0,0,1-.27-.56l0-26.58-34.82,6.71a.77.77,0,0,1-.61-.16.73.73,0,0,1-.26-.56V301.56a.73.73,0,1,1,1.46,0v26.6l34.82-6.7a.77.77,0,0,1,.61.15.73.73,0,0,1,.26.57l0,26.57,34.81-6.69a.72.72,0,0,1,.6.15.74.74,0,0,1,.27.56v26.75l46.86,0h0a.73.73,0,1,1,0,1.46l-47.59.05Z" style="fill:#fff"></path></g><path d="M239.54,287.19a.73.73,0,0,0-.73,0L108.47,362.44,228.92,432l129.6-74.83a.72.72,0,0,0,.37-.63.74.74,0,0,0-.37-.64Z" style="fill:#C6A1FD;opacity:0.4"></path></g></g><g id="freepik--Shoes--inject-318"><g id="freepik--flip-flops--inject-318"><g id="freepik--shadow--inject-318" style="opacity:0.4"><path d="M185.07,403.06c6,2.89,4.65,7,0,10.86s-11.9,5.89-15.26,9.61-8.16,10.71-19.17,10.71-20.27-4.28-15.47-9.71,10-7,18.11-10.46,12.8-7.43,18-10.12C175.73,401.68,180,400.58,185.07,403.06Z" style="fill:#C6A1FD"></path><path d="M153.46,392.11c-5-3.45-12.09-2.69-18.8,0S124.45,399,118,400.92s-13.74,3.51-15.9,10.68c-1.84,6.08,6.19,11.79,14,10.09,6.78-1.46,12.35-6.57,18.26-11.23s12.87-7.39,17.54-10.41C155.86,397.5,157.76,395.06,153.46,392.11Z" style="fill:#C6A1FD"></path></g><path d="M135.17,418.35c4.81-5.43,10-7.05,18.11-10.47s12.8-7.43,18-10.12c4.42-2.27,8.64-3.37,13.76-.89,2.79,1.35,4,3,4,4.7,0,.51,0,2.58,0,3.12-.07,1.92-1.57,4-4,6-4.65,3.88-11.9,5.9-15.26,9.62S161.65,431,150.64,431c-8.94,0-16.73-2.82-16.76-6.78,0-.49,0-2.48,0-3A4.4,4.4,0,0,1,135.17,418.35Z" style="fill:#37474f"></path><path d="M185.07,396.87c6,2.89,4.65,7,0,10.86s-11.9,5.89-15.26,9.62-8.16,10.7-19.17,10.7-20.27-4.27-15.47-9.7,10-7.05,18.11-10.47,12.8-7.43,18-10.12C175.73,395.49,180,394.39,185.07,396.87Z" style="fill:#455a64"></path><path d="M144.84,421.12a1.23,1.23,0,0,0,1.12-.71,9.61,9.61,0,0,1,6.9-5.23c5.39-.79,21-.73,21.15-.73h0a1.22,1.22,0,0,0,0-2.44c-.65,0-16-.05-21.51.75-6.12.89-8.67,6.41-8.78,6.64a1.24,1.24,0,0,0,.61,1.62A1.31,1.31,0,0,0,144.84,421.12Z" style="fill:#C6A1FD"></path><path d="M146.19,419h0a1.22,1.22,0,0,0,1.2-1.23,11.35,11.35,0,0,0-.15-1.58c-.2-1.56-.42-3.19.68-4.57,1.42-1.8,4.86-3,10.2-3.52a1.22,1.22,0,1,0-.24-2.42c-6.11.61-10,2.06-11.87,4.43-1.74,2.19-1.42,4.62-1.18,6.4a11.45,11.45,0,0,1,.12,1.29A1.22,1.22,0,0,0,146.19,419Z" style="fill:#C6A1FD"></path><path d="M102.1,405.41c2.16-7.17,9.45-8.75,15.9-10.68s9.94-6.12,16.66-8.81,13.79-3.44,18.8,0c1.78,1.22,2.5,2.36,2.44,3.45,0,.47,0,2.41,0,2.91-.05,1.56-1.66,3-4,4.53-4.67,3-11.63,5.75-17.54,10.41s-11.48,9.77-18.26,11.23c-7.09,1.53-14.32-3-14.27-8.38,0-.46,0-2.55,0-3.16A5.69,5.69,0,0,1,102.1,405.41Z" style="fill:#37474f"></path><path d="M153.46,385.92c-5-3.44-12.09-2.69-18.8,0s-10.21,6.87-16.66,8.81-13.74,3.51-15.9,10.68c-1.84,6.08,6.19,11.79,14,10.1,6.78-1.46,12.35-6.58,18.26-11.23s12.87-7.39,17.54-10.42C155.86,391.31,157.76,388.87,153.46,385.92Z" style="fill:#455a64"></path><path d="M114.22,409.65a1.24,1.24,0,0,0,1.18-.9c.21-.76,2.95-5.15,9.89-6.37a102,102,0,0,1,12.61-1.45,1.22,1.22,0,0,0,0-2.44h0A102,102,0,0,0,124.87,400c-7.7,1.35-11.36,6.43-11.82,8.13a1.21,1.21,0,0,0,.85,1.49A1.19,1.19,0,0,0,114.22,409.65Z" style="fill:#C6A1FD"></path><path d="M115.63,407.44a1.21,1.21,0,0,0,1.15-1.64c0-.05-1.94-5.44-1-9.81.68-3,7.64-2.61,10-2.24a1.22,1.22,0,0,0,1.39-1,1.21,1.21,0,0,0-1-1.39c-1.17-.19-11.47-1.62-12.78,4.11-1.15,5.08,1,10.94,1,11.19A1.22,1.22,0,0,0,115.63,407.44Z" style="fill:#C6A1FD"></path></g></g><g id="freepik--Nightstand--inject-318"><g id="freepik--Drawer--inject-318"><g id="freepik--drawer--inject-318"><g id="freepik--Cabinet--inject-318"><polygon points="257.81 270.34 216.51 246.49 216.51 146.35 257.81 170.2 257.81 270.34" style="fill:#263238"></polygon><polygon points="257.81 170.2 316.82 136.13 316.82 236.27 257.81 270.34 257.81 170.2" style="fill:#37474f"></polygon><polygon points="316.82 136.13 257.81 170.2 216.51 146.35 275.51 112.29 316.82 136.13" style="fill:#455a64"></polygon><polygon points="263.71 234.56 310.92 207.3 310.92 230.34 312 230.97 264.8 258.22 263.71 257.59 263.71 234.56" style="fill:#263238"></polygon><polygon points="264.8 235.18 312 207.93 312 230.97 264.8 258.22 264.8 235.18" style="fill:#455a64"></polygon><g style="opacity:0.05"><polygon points="264.8 235.18 312 207.93 312 230.97 264.8 258.22 264.8 235.18"></polygon></g><path d="M283.3,230.06l8-4.63c1-.61,1.89-.33,1.89.61a3.78,3.78,0,0,1-1.89,2.79l-8,4.64c-1,.6-1.88.32-1.88-.62A3.77,3.77,0,0,1,283.3,230.06Z" style="fill:#263238"></path><polygon points="263.71 204.72 310.92 177.46 310.92 200.5 312 201.12 264.8 228.38 263.71 227.75 263.71 204.72" style="fill:#263238"></polygon><polygon points="264.8 205.34 312 178.09 312 201.12 264.8 228.38 264.8 205.34" style="fill:#455a64"></polygon><g style="opacity:0.05"><polygon points="264.8 205.34 312 178.09 312 201.12 264.8 228.38 264.8 205.34"></polygon></g><path d="M283.3,200.22l8-4.64c1-.6,1.89-.32,1.89.62a3.78,3.78,0,0,1-1.89,2.79l-8,4.64c-1,.6-1.88.32-1.88-.62A3.77,3.77,0,0,1,283.3,200.22Z" style="fill:#263238"></path></g><polygon points="263.71 174.87 310.92 147.62 310.92 170.65 312 171.28 264.8 198.53 263.71 197.91 263.71 174.87" style="fill:#263238"></polygon><polygon points="264.8 175.5 312 148.25 312 171.28 264.8 198.53 264.8 175.5" style="fill:#455a64"></polygon><g style="opacity:0.05"><polygon points="264.8 175.5 312 148.25 312 171.28 264.8 198.53 264.8 175.5"></polygon></g><path d="M283.3,170.38l8-4.64c1-.6,1.89-.33,1.89.62a3.78,3.78,0,0,1-1.89,2.79l-8,4.63c-1,.61-1.88.33-1.88-.61A3.77,3.77,0,0,1,283.3,170.38Z" style="fill:#263238"></path></g><polygon id="freepik--shadow--inject-318" points="266.88 142.16 251.56 133.31 277.09 118.57 292.41 127.41 266.88 142.16" style="fill:#37474f"></polygon><g id="freepik--picture--inject-318"><g id="freepik--frame--inject-318"><polygon points="267.37 136.69 268.42 137.2 287.91 125.95 286.85 125.44 267.37 136.69" style="fill:#C6A1FD"></polygon><polygon points="267.37 136.69 268.42 137.2 287.91 125.95 286.85 125.44 267.37 136.69" style="opacity:0.2"></polygon><polygon points="286.85 125.44 268.32 136.14 265.62 108.42 284.16 97.72 286.85 125.44" style="fill:#C6A1FD"></polygon><g style="opacity:0.8"><polygon points="286.85 125.44 268.32 136.14 265.62 108.42 284.16 97.72 286.85 125.44" style="fill:#fff"></polygon></g><path d="M286.71,94.17l-23.07,13.32,3.18,32.7,23.07-13.32Zm1.2,31.78L268.42,137.2l-2.8-28.79,19.49-11.25Z" style="fill:#C6A1FD"></path><path d="M286.71,94.17l-23.07,13.32,3.18,32.7,23.07-13.32Zm1.2,31.78L268.42,137.2l-2.8-28.79,19.49-11.25Z" style="fill:#C6A1FD"></path><polygon points="287.91 125.95 286.85 125.44 284.16 97.72 285.11 97.16 287.91 125.95" style="fill:#C6A1FD"></polygon><polygon points="287.91 125.95 286.85 125.44 284.16 97.72 285.11 97.16 287.91 125.95" style="opacity:0.35000000000000003"></polygon><polygon points="286.71 94.17 285.64 93.68 262.57 107 263.64 107.49 286.71 94.17" style="fill:#C6A1FD"></polygon><polygon points="286.71 94.17 285.64 93.68 262.57 107 263.64 107.49 286.71 94.17" style="fill:#fff;opacity:0.6000000000000001"></polygon><polygon points="262.57 107 263.64 107.49 266.82 140.19 265.75 139.7 262.57 107" style="fill:#C6A1FD"></polygon><polygon points="262.57 107 263.64 107.49 266.82 140.19 265.75 139.7 262.57 107" style="opacity:0.35000000000000003"></polygon></g><g id="freepik--land--inject-318"><polygon points="286.04 124.92 268.95 134.78 268.49 130.11 271.67 116.39 274.7 121.07 274.07 125.02 279.13 110.46 285.58 120.24 286.04 124.92" style="fill:#C6A1FD"></polygon><path d="M271.41,110.61a2.41,2.41,0,0,0-1.13,2.11c.07.77.7,1.06,1.4.66a2.43,2.43,0,0,0,1.13-2.12C272.73,110.5,272.11,110.21,271.41,110.61Z" style="fill:#C6A1FD"></path></g></g><path id="freepik--shadow--inject-318" d="M254.93,152.66c-5.47,3.16-14.35,3.16-19.82,0s-5.47-8.28,0-11.44,14.35-3.16,19.82,0S260.4,149.5,254.93,152.66Z" style="fill:#37474f"></path><g id="freepik--Clock--inject-318"><path d="M237.14,147.21l-1.78,3.1a.85.85,0,0,0,.29,1.16.86.86,0,0,0,1.16-.3l1.79-3.11a.88.88,0,0,0-1.46-.85Z" style="fill:#263238"></path><path d="M251.34,141.74l3.1,1.78a.85.85,0,1,0,.87-1.45l-3.12-1.79a.88.88,0,0,0-.85,1.46Z" style="fill:#263238"></path><path d="M254.78,127.77h0l-7.55-4.36h0c-1.66-1-3.94-.8-6.46.65-5.07,2.92-9.17,10-9.17,15.88,0,2.92,1,5,2.67,5.93h0l7.55,4.36h0c1.66.94,3.94.8,6.47-.65,5.06-2.93,9.17-10,9.17-15.89C257.45,130.78,256.43,128.73,254.78,127.77Z" style="fill:#C6A1FD"></path><path d="M254.78,127.77h0l-7.55-4.36h0c-1.66-1-3.94-.8-6.46.65-5.07,2.92-9.17,10-9.17,15.88,0,2.92,1,5,2.67,5.93h0l7.55,4.36h0c1.66.94,3.94.8,6.47-.65,5.06-2.93,9.17-10,9.17-15.89C257.45,130.78,256.43,128.73,254.78,127.77Z" style="fill:#fff;opacity:0.2"></path><path d="M241.67,150.15l-7.43-4.29h0c-1.65-1-2.67-3-2.67-5.93a18.27,18.27,0,0,1,2.17-8.09l7.55,4.36a18.1,18.1,0,0,0-2.17,8.09C239.11,147.13,240.08,149.16,241.67,150.15Z" style="opacity:0.1"></path><path d="M248.28,149.58c5.06-2.93,9.17-10,9.17-15.89s-4.11-8.21-9.17-5.29-9.17,10-9.17,15.88S243.21,152.5,248.28,149.58Z" style="fill:#fff;opacity:0.4"></path><path d="M244.18,149c-2.9,0-3.21-3.28-3.21-4.69,0-5.16,3.77-11.69,8.24-14.27a6.49,6.49,0,0,1,3.16-1c2.9,0,3.22,3.28,3.22,4.68,0,5.16-3.78,11.7-8.24,14.28a6.64,6.64,0,0,1-3.17,1Z" style="fill:#fafafa"></path><path d="M251.42,142.64l0,0a.13.13,0,0,1-.19,0l-3.37-4.09a.13.13,0,0,1,0-.18.14.14,0,0,1,.19,0l3.37,4.09A.14.14,0,0,1,251.42,142.64Z" style="fill:#C6A1FD"></path><path d="M248.28,132.93a.4.4,0,0,0-.4.4v6l.8-.52v-5.44A.4.4,0,0,0,248.28,132.93Z" style="fill:#37474f"></path><path d="M247.7,139.35l-1.19,3.38a.3.3,0,0,0,0,.16.41.41,0,0,0,.26.35.4.4,0,0,0,.51-.25l1-2.88Z" style="fill:#37474f"></path><path d="M248.28,137.74c.59-.34,1.08-.06,1.08.63a2.39,2.39,0,0,1-1.08,1.86c-.6.35-1.08.07-1.08-.62A2.38,2.38,0,0,1,248.28,137.74Z" style="fill:#C6A1FD"></path><path d="M239.5,133.47c-1.3,2.25-3.75,3.27-5.59,2.2a4.71,4.71,0,0,1,4.71-8.15C240.46,128.59,240.81,131.21,239.5,133.47Z" style="fill:#37474f"></path><path d="M233.91,135.67c1.84,1.07,4.29.05,5.59-2.2a5.64,5.64,0,0,0,.64-1.62c-.07.1-2.24,2.86-4.93,2.09a4,4,0,0,1-3-4.7A4.71,4.71,0,0,0,233.91,135.67Z" style="fill:#263238"></path><path d="M233.15,128.78l-1.39-.81a.85.85,0,1,0-.87,1.45l1.41.82a.77.77,0,0,0,1-.42A.76.76,0,0,0,233.15,128.78Z" style="fill:#C6A1FD"></path><path d="M233.15,128.78l-1.39-.81a.85.85,0,1,0-.87,1.45l1.41.82a.77.77,0,0,0,1-.42A.76.76,0,0,0,233.15,128.78Z" style="fill:#fff;opacity:0.4"></path><path d="M254,122l.81-1.39a.85.85,0,0,0-.3-1.16.83.83,0,0,0-1.15.29l-.82,1.42a.75.75,0,0,0,.41,1A.77.77,0,0,0,254,122Z" style="fill:#C6A1FD"></path><path d="M254,122l.81-1.39a.85.85,0,0,0-.3-1.16.83.83,0,0,0-1.15.29l-.82,1.42a.75.75,0,0,0,.41,1A.77.77,0,0,0,254,122Z" style="fill:#fff;opacity:0.4"></path><path d="M247.24,122.62a4.71,4.71,0,0,1,8.15,4.71Z" style="fill:#37474f"></path><path d="M254.37,121.39c.27.56,1,2.91,0,3.49s-5.55-1.35-5.55-1.35l6.57,3.8A4.7,4.7,0,0,0,254.37,121.39Z" style="fill:#263238"></path></g></g></g><g id="freepik--Character--inject-318"><g id="freepik--Bed--inject-318"><path d="M67.35,331,52,322.13a6.12,6.12,0,0,1-2.78-4.81v-90A6.15,6.15,0,0,1,52,222.52l135.27-78.09a6.12,6.12,0,0,1,5.56,0l15.31,8.84a6.14,6.14,0,0,1,2.78,4.81v90a6.18,6.18,0,0,1-2.78,4.82L72.91,331A6.12,6.12,0,0,1,67.35,331Z" style="fill:#455a64"></path><path d="M211,158.08v90a6.18,6.18,0,0,1-2.78,4.82L72.91,331c-1.54.89-2.78.17-2.78-1.6v-90a6.15,6.15,0,0,1,2.78-4.82l135.27-78.09C209.71,155.59,211,156.31,211,158.08Z" style="fill:#263238"></path><path d="M72.26,331.27a6.26,6.26,0,0,1-4.92-.3L52,322.13a6.13,6.13,0,0,1-2.77-4.81v-90a5.69,5.69,0,0,1,.81-2.74l20.87,12.05a5.69,5.69,0,0,0-.81,2.74v90C70.13,330.88,71,331.63,72.26,331.27Z" style="fill:#37474f"></path><path d="M293.1,419.14l-12.87-7.43a3,3,0,0,0-2.78,0l-12.88,7.43a2.86,2.86,0,0,0-1,1h0c0,.09-.07.18-.12.27a2.69,2.69,0,0,0-.29,1.1v20.89h0a3.07,3.07,0,0,0,1.29,2.33.87.87,0,0,1,.1.08l12.88,7.43h0l.16.07a2.6,2.6,0,0,0,.49.18,3,3,0,0,0,.74.09,2.78,2.78,0,0,0,1.39-.34l12.87-7.43a3.06,3.06,0,0,0,1.39-2.41V421.54A3.06,3.06,0,0,0,293.1,419.14Z" style="fill:#455a64"></path><path d="M280.23,452.27l12.87-7.43a3.06,3.06,0,0,0,1.39-2.41V421.54c0-.88-.62-1.24-1.39-.8l-12.87,7.43a3.08,3.08,0,0,0-1.39,2.41v20.89C278.84,452.36,279.46,452.72,280.23,452.27Z" style="fill:#37474f"></path><path d="M413.06,349.88l-12.87-7.43a3,3,0,0,0-2.78,0l-12.87,7.43a2.76,2.76,0,0,0-1,1h0a2,2,0,0,0-.11.26,2.76,2.76,0,0,0-.3,1.11v20.88h0a3.09,3.09,0,0,0,1.28,2.32l.11.08L397.41,383h0l.17.06a2.27,2.27,0,0,0,.48.18,3.06,3.06,0,0,0,.74.09,2.86,2.86,0,0,0,1.39-.33l12.87-7.44a3.06,3.06,0,0,0,1.39-2.4V352.29A3.06,3.06,0,0,0,413.06,349.88Z" style="fill:#455a64"></path><path d="M400.19,383l12.87-7.44a3.06,3.06,0,0,0,1.39-2.4V352.29c0-.89-.62-1.25-1.39-.81l-12.87,7.43a3.09,3.09,0,0,0-1.39,2.41v20.89C398.8,383.1,399.42,383.46,400.19,383Z" style="fill:#37474f"></path><g id="freepik--bed--inject-318"><path d="M204.89,226,74.38,301.32a10.74,10.74,0,0,0-4.85,8.41v4.62a10.74,10.74,0,0,0,4.85,8.41L274,438a10.74,10.74,0,0,0,9.72,0l130.51-75.33a10.74,10.74,0,0,0,4.86-8.41v-4.61a10.76,10.76,0,0,0-4.86-8.42L214.61,226A10.74,10.74,0,0,0,204.89,226Z" style="fill:#455a64"></path><path d="M419.07,349.65v4.61a10.76,10.76,0,0,1-4.86,8.42L283.7,438a9.83,9.83,0,0,1-4.85,1.16V423.33a9.83,9.83,0,0,0,4.85-1.16l130.51-75.32c2.5-1.46,2.67-3.74.49-5.3A10.85,10.85,0,0,1,419.07,349.65Z" style="fill:#263238"></path><path d="M74.39,306.93c-2.55-1.47-2.68-3.81-.37-5.36a10.8,10.8,0,0,0-4.49,8.16v4.62a10.74,10.74,0,0,0,4.85,8.41L274,438a9.93,9.93,0,0,0,4.87,1.16V423.33a9.84,9.84,0,0,1-4.86-1.16Z" style="fill:#37474f"></path><path d="M204.89,199.72,74.38,275.05a10.73,10.73,0,0,0-4.85,8.41v9.83a10.75,10.75,0,0,0,4.85,8.42L274,417a10.74,10.74,0,0,0,9.72,0l130.51-75.33a10.74,10.74,0,0,0,4.86-8.41v-9.83a10.76,10.76,0,0,0-4.86-8.42L214.61,199.72A10.74,10.74,0,0,0,204.89,199.72Z" style="fill:#C6A1FD"></path><path d="M74.38,280.66,274,395.9a10.74,10.74,0,0,0,9.72,0l130.51-75.33c2.68-1.55,2.68-4.06,0-5.61L214.61,199.72a10.74,10.74,0,0,0-9.72,0L74.38,275.05C71.7,276.6,71.7,279.11,74.38,280.66Z" style="fill:#fff;opacity:0.8"></path><path d="M419.07,323.38v9.83a10.76,10.76,0,0,1-4.86,8.42L283.7,417a9.83,9.83,0,0,1-4.85,1.16V397.06a9.83,9.83,0,0,0,4.85-1.16l130.51-75.32c2.5-1.46,2.67-3.74.49-5.3A10.83,10.83,0,0,1,419.07,323.38Z" style="fill:#fff;opacity:0.5"></path><path d="M74.39,280.66c-2.55-1.47-2.68-3.81-.37-5.36a10.8,10.8,0,0,0-4.49,8.16v9.83a10.75,10.75,0,0,0,4.85,8.42L274,417a10,10,0,0,0,4.87,1.16V397.06A9.84,9.84,0,0,1,274,395.9Z" style="fill:#fff;opacity:0.6000000000000001"></path><path d="M121.42,307.82v36.84l157.43,90.88V397.06A10.06,10.06,0,0,1,274,395.9Z" style="fill:#C6A1FD"></path><path d="M121.42,307.82v36.84l157.43,90.88V397.06A10.06,10.06,0,0,1,274,395.9Z" style="opacity:0.45"></path><path d="M414.21,320.58c2.5-1.46,2.67-3.74.49-5.3a10.83,10.83,0,0,1,4.37,8.1v31.23L278.85,435.54V397.06a10,10,0,0,0,4.85-1.16Z" style="fill:#C6A1FD"></path><path d="M414.21,320.58c2.5-1.46,2.72-3.81.49-5.3a10.82,10.82,0,0,1,4.37,8.1v31.23L278.85,435.54V397.06a10,10,0,0,0,4.85-1.16Z" style="opacity:0.30000000000000004"></path><path d="M414.21,315,261.63,226.87,121.42,307.82,274,395.9a10.74,10.74,0,0,0,9.72,0l130.51-75.33C416.89,319,416.89,316.51,414.21,315Z" style="fill:#C6A1FD"></path><polygon points="132.63 314.29 132.63 351.2 134.91 352.44 134.9 315.6 132.63 314.29" style="opacity:0.2"></polygon><polygon points="274.71 234.42 134.9 315.6 132.63 314.29 272.43 233.1 274.71 234.42" style="opacity:0.2"></polygon><path d="M237.43,221.92c1.57-5.77-.75-8.78-3.94-14.14s-10.57-15.73-13.61-20.17-6.4-8.81-8.22-9.42-3-1.34-7.84.4-14.77,7.65-27.11,14.45-28.78,16.47-29.55,23.13c-.47,4.12,21.26,40.38,26.54,40.92,11.76,1.21,24.14-7.56,30.69-11.5C215.3,239,223.11,234.14,230.67,229,234.09,226.7,236.69,224.6,237.43,221.92Z" style="fill:#f0f0f0"></path><path d="M152.88,230.72c2.87,4.66,11.25,17.32,14.16,21.07s8,8,9.14,3.2-3.32-10.87-6.38-15.63-11.59-16-14.36-19.67-7.37-7.25-8.46-3S150,226.05,152.88,230.72Z" style="fill:#e0e0e0"></path><path d="M171.58,260.35c1.58-5.77-.75-8.78-3.94-14.14S157.07,230.48,154,226s-6.4-8.81-8.22-9.42-3-1.34-7.84.4-14.77,7.65-27.11,14.45S82.08,247.94,81.32,254.6c-.47,4.12,21.26,40.38,26.54,40.92C119.61,296.73,132,288,138.55,284c10.91-6.59,18.72-11.45,26.28-16.57C168.25,265.13,170.85,263,171.58,260.35Z" style="fill:#f0f0f0"></path><path d="M87,269.15c2.88,4.66,11.25,17.32,14.16,21.07s8,8,9.15,3.2S107,282.55,104,277.79s-11.59-16-14.36-19.67-7.38-7.25-8.46-3S84.16,264.48,87,269.15Z" style="fill:#e0e0e0"></path></g></g><g id="freepik--character--inject-318"><polygon points="318.99 313.28 365.14 286.63 261.63 226.87 219.82 250.92 318.99 313.28" style="fill:#C6A1FD"></polygon><polygon points="272.79 233.28 244.63 249.54 246.98 250.92 275.14 234.66 272.79 233.28" style="opacity:0.2"></polygon><g id="freepik--character--inject-318"><path d="M218,163.19c-1.36-3.76-1-5.42-3.86-5.66s-4.67-.22-7.61-.48c-2.64-.24-3.23-.35-5.64-3.6s-3.62-5.57-2.92-6.67,1.81-1.37,3.92-.89c0-2.22-.57-3.86.4-4.23a2.56,2.56,0,0,1,2,.22,12.27,12.27,0,0,0,.71-1.53c.5-1.2,2.31-.4,2.31-.4a9.89,9.89,0,0,1,1.21-1.07c.7-.54,2.21.56,3.21,1.47a8.6,8.6,0,0,1,1.52,1.8,17.63,17.63,0,0,1,7.56,2.52c3.27,2.21,2.88,4.12,4.38,6.53s12.15,21.17,14.45,26,4.12,12.61,0,15.12L220.9,177.46C220,173.31,220.23,169.29,218,163.19Z" style="fill:#ffa8a7"></path><path d="M220.54,175.45c.1.69.22,1.37.36,2l13,10.61c2.35.12,3.29-1.56,2.77-3.06C234.4,178.66,227.56,175.59,220.54,175.45Z" style="fill:#f28f8f"></path><path d="M203.07,150.06c-.73-1.2-.69-2.74-1.16-4.17,0,.75,0,1.48.06,2.23a5,5,0,0,0,.62,2.21,11.46,11.46,0,0,0,1.34,1.81,2.17,2.17,0,0,1,.56.85.58.58,0,0,1-.48.74.7.7,0,0,0,.74-.78,2.35,2.35,0,0,0-.49-1.07C203.85,151.26,203.41,150.68,203.07,150.06Zm10.57-6.88a2.84,2.84,0,0,0-.37-1c0,.73-.08,1.41-.05,2.11a1,1,0,0,1-.23.77,1.67,1.67,0,0,1-.68.34,3,3,0,0,0,.12-.32,2.27,2.27,0,0,0-.07-1.36,4.24,4.24,0,0,0-.75-1.11,8.57,8.57,0,0,0-4.28-2.63,14.58,14.58,0,0,1,2.09,1.34A14,14,0,0,1,211.2,143a3.63,3.63,0,0,1,.68.93A2.12,2.12,0,0,1,212,145a3.65,3.65,0,0,1-.39,1.12,2.41,2.41,0,0,1-.51.77,1.14,1.14,0,0,0-.09-.3,6.08,6.08,0,0,0-1.15-1.25,25.58,25.58,0,0,0-2.56-2,9.12,9.12,0,0,0-2.93-1.41,14.49,14.49,0,0,1,2.68,1.74c.82.68,1.65,1.36,2.44,2.07a6.69,6.69,0,0,1,1.06,1.08c.18.32-.06.82-.37,1.2a2.91,2.91,0,0,1-2.36,1.25l-.13-.19c-.14-.19-.29-.37-.44-.55a11.07,11.07,0,0,0-.89-.92,10.36,10.36,0,0,0-.42-3,5.84,5.84,0,0,0-1.65-2.67,7.7,7.7,0,0,1,1.23,2.78,14.62,14.62,0,0,1,.3,3v.12l.09.08c.33.3.66.62,1,.94s.54.65.89,1a3.92,3.92,0,0,0,2.56,1.11,4.6,4.6,0,0,1-2.26-1.37,2.4,2.4,0,0,1-.21-.31,1.83,1.83,0,0,0,1.26-.08,5,5,0,0,0,1.37-1,2.32,2.32,0,0,0,.5-.72,1.36,1.36,0,0,0,.11-.61,2.39,2.39,0,0,0,.74-.71,6.79,6.79,0,0,0,.41-.75,1.3,1.3,0,0,0,1-.12,1.17,1.17,0,0,0,.52-1.11A6.37,6.37,0,0,0,213.64,143.18Z" style="fill:#f28f8f"></path><path d="M217.73,148.39a4.73,4.73,0,0,0-2.84-1.3,8.17,8.17,0,0,0-3.33.32,6,6,0,0,0-2.51,1.8s0,.1,0,.08a15,15,0,0,1,2.78-.9,8.3,8.3,0,0,1,2.67-.34,6.53,6.53,0,0,1,2.74.72A5.75,5.75,0,0,1,219.1,151c.05.1.1-.05.09-.1A4.93,4.93,0,0,0,217.73,148.39Z" style="fill:#f28f8f"></path><path d="M186.88,174.31c5.58-.64,9.5.05,19.23,1.66,10.73,1.78,14.79,1.49,14.79,1.49s8.93,0,14.13,5.58a20.7,20.7,0,0,1,4.63,9.23c-2.69,1.45-7.2,3.59-21.09,4.5s-26,1.24-26,1.24Z" style="fill:#ffa8a7"></path><path d="M187.28,173.39c5.49-.15,8,.45,12.84,1.21s16,2.31,16,2.31,2.64,1.51,3.79,8.13a24,24,0,0,1-1.62,12.63L192.54,199Z" style="fill:#C6A1FD"></path><path d="M157.06,265.47c-4.39-6.55-10.67-34.35-11-44.22-.65-17.14-2.16-37.3-2.39-40.34,9.92-3.26,11.78-3.51,23.12-5.07l.56-.08c13.5-1.85,19.9-1.87,20-1.87,14.22,2.74,16.14,15.93,18,28.69l.15,1a59.52,59.52,0,0,1,.57,11.23v.28l.23.16c4.22,3,4.79,11.29,4.87,13.4C188.36,229.26,164.1,254.28,157.06,265.47Z" style="fill:#fafafa"></path><path d="M187.18,174.39c13.88,2.73,15.78,15.71,17.61,28.27l.15,1a61.56,61.56,0,0,1,.57,11.13l0,.56.46.32c3.76,2.64,4.5,9.87,4.64,12.5-22.33.93-46,24.88-53.5,36.35-4.32-7.46-10.19-33.78-10.55-43.31-.62-16.53-2.06-35.88-2.37-40,9.56-3.13,11.51-3.39,22.67-4.92l.56-.08a174,174,0,0,1,19.8-1.87m.1-1s-6.34,0-20,1.88c-12,1.64-13.69,1.84-24.14,5.28,0,0,1.71,22,2.42,40.72.38,10.09,6.95,39.53,11.58,45.09,7.12-11.9,32.14-37,54.5-37.19,0,0,0-10.72-5.1-14.3a60.85,60.85,0,0,0-.57-11.34c-1.9-12.95-3.59-27.25-18.65-30.14Z" style="fill:#e0e0e0"></path><path d="M184,137.31a5.89,5.89,0,0,1,5.6,3.63c1.74,3.5-.77,9.66-3.23,16.13a50.74,50.74,0,0,1-5.92,11.58,5.1,5.1,0,0,1-3.24,2l1.16-7.89.56-5s-3.85-1.32-3.49-9.83a24.17,24.17,0,0,1,1.61-8.23Z" style="fill:#263238"></path><path d="M169.73,143.05a11.28,11.28,0,1,1-9.79-12.59A11.29,11.29,0,0,1,169.73,143.05Z" style="fill:#263238"></path><path d="M161.53,172s-5-.08-7.05-.87c-3.79-1.44-5.65-4.08-6-10.62-.44-7.75,1.95-20.36,5-25.09,4.45-2.65,16.74-2.12,24.62,4.33-4,9.14.16,11.82-.17,14.44-.27,2-.12,2.62.81,2.89,1.46.42,2.1-2,4.4-3.23,1.44-.76,5.65-1.42,7,2.63s-2.33,8.4-5.21,9.34c-3.24,1.06-4.77-.58-4.77-.58l-.29,9.85c9.27,10-12.47,14.11-18.27,2.78Z" style="fill:#ffa8a7"></path><path d="M161.53,172c4.85.15,10.05-1,12.38-3.39a20.61,20.61,0,0,0,3.76-6.5s-1.08,5.69-3.12,8.27-7,4.06-13,3.71C161.55,173.83,161.53,172,161.53,172Z" style="fill:#f28f8f"></path><path d="M168.61,152.14c.06,1-.77-.22-1.76-.16s-1.78,1.36-1.83.37a1.8,1.8,0,1,1,3.59-.21Z" style="fill:#263238"></path><path d="M156,151.29c-.35.93-.61-.52-1.54-.88s-2.18.52-1.82-.41a1.8,1.8,0,1,1,3.36,1.29Z" style="fill:#263238"></path><path d="M152.05,124.38a.36.36,0,0,1,.25,0,.85.85,0,0,1,.37.38,4.55,4.55,0,0,0,2.08,1.7c.06-1.8.4-3.76,1.76-4.93a1.46,1.46,0,0,1,1.15-.42,1.88,1.88,0,0,1,1,.75,7.37,7.37,0,0,0,3.75,2.54,4.94,4.94,0,0,1-.4-1.64,1.76,1.76,0,0,1,.32-1.17,19.63,19.63,0,0,0,5.91,3c2.06.73,4.35.78,6.46,1.38,4.34,1.24,9.16,4.35,10.07,9.1.41,2.17.05,4.26-2.08,5.15-1.81.76-4-.14-5.94-.29-9.08-.68-20.45,4.16-24.84-5.58-1-2.18-1.57-7.3-.42-9.42A1.09,1.09,0,0,1,152.05,124.38Z" style="fill:#263238"></path><path d="M166.91,146.15l3.57,2.57a2.3,2.3,0,0,0-.53-3.15A2.14,2.14,0,0,0,166.91,146.15Z" style="fill:#263238"></path><path d="M152.6,145.42l4.39-.62a2.13,2.13,0,0,0-2.43-1.91A2.32,2.32,0,0,0,152.6,145.42Z" style="fill:#263238"></path><polygon points="161.9 147.46 159.45 158.63 154.11 155.86 161.9 147.46" style="fill:#f28f8f"></polygon><path d="M164.85,160.81c-.74-.78-1.47,0-3.13.27s-2.62-.47-3,.52c-.5,1.24.87,2.8,3.44,2.44S165.69,161.69,164.85,160.81Z" style="fill:#b16668"></path><path d="M160.57,164a4.26,4.26,0,0,1,4.42-2.57l.12,0c.06,1-1,2.31-3,2.58A4.76,4.76,0,0,1,160.57,164Z" style="fill:#f28f8f"></path><path d="M93.61,223.86c3.72,1.87,7.14,3.68,18.09-1.29s29.62-16.77,33.57-16.83c5.63-18.89-1.6-24.78-1.6-24.78-4.53,1.11-7.51,2-15.14,7.24-8.56,5.83-28.29,18.38-28.29,18.38Z" style="fill:#ffa8a7"></path><path d="M100.24,206.58l-3.65,9.53,7.67,3.7c7.4-3.07,10.66-9.21,12.95-15.49a86.09,86.09,0,0,0,3-10.59C111.09,199.68,100.24,206.58,100.24,206.58Z" style="fill:#f28f8f"></path><path d="M109.06,180.23a158.5,158.5,0,0,1-9.87,15c-5.62,7.88-7.84,14.31-8.59,18.62-.5,2.91-2.21,7.25,3,10,6-1.73,14.31-4.12,18.46-11.66s4.08-10.55,5.4-15.54c1.92-7.29,2.29-8.82,3.86-11.13a29.62,29.62,0,0,1,7-7.19c3-2.16,4.19-3.66,4.08-6.91a38.14,38.14,0,0,0-.82-6.34c-.15-.89-1.3-.63-2.64-2.79s-1.52-3.13-2.58-2.24a2.39,2.39,0,0,0-.92,2,2,2,0,0,0-2.43.28c-1-1.19-1.69-.78-3.65.59-.8-1.26-.83-1.78-3.24-.44a18,18,0,0,0-4.72,3.5c-.89,1-1.21,3.89-1.08,6A18.31,18.31,0,0,1,109.06,180.23Z" style="fill:#ffa8a7"></path><path d="M127.69,166.51a6.77,6.77,0,0,1-1.43-2,9,9,0,0,1-.85-2.43,5.53,5.53,0,0,0,.4,2.63,5.62,5.62,0,0,0,1.42,2.12,7.71,7.71,0,0,0-.22,1.59c0,.11,0,.22,0,.33-.41.22-.8.48-1.18.73s-.85.6-1.27.89a3.33,3.33,0,0,1-1.25.67,1,1,0,0,1-.95-.5,3.18,3.18,0,0,0,1.15-.82,2.87,2.87,0,0,0,.73-1.89l-.16-1.88a9,9,0,0,0-1.11-3.59,12.3,12.3,0,0,1,.67,3.62c0,.61,0,1.28.06,1.85a2.35,2.35,0,0,1-.63,1.51,2.17,2.17,0,0,1-1.39.81c-.61,0-1.23.07-1.84.07a4.25,4.25,0,0,1-1.74-.28.9.9,0,0,1-.29-1.15c.34-.17.68-.33,1-.52a2.88,2.88,0,0,0,1.4-1.51,3,3,0,0,0-.15-2c-.25-.6-.49-1.21-.76-1.79.15.63.33,1.25.5,1.87a2.71,2.71,0,0,1,0,1.78c-.48,1.09-1.87,1.44-3,2l-.87.43-.43.22-.22.1a.39.39,0,0,1-.14.05c-.38.07-.74-.6-.7-1.15a2.83,2.83,0,0,1,.78-1.61,3.87,3.87,0,0,0,.61-1.86,3.44,3.44,0,0,1-.32.9,4.5,4.5,0,0,1-.25.41l-.07.12a3.28,3.28,0,0,1-.94-1,3.61,3.61,0,0,0,.78,1.24s0,0,0,0a3.1,3.1,0,0,0-1,1.76,1.75,1.75,0,0,0,.18,1.07,1.06,1.06,0,0,0,1,.65,1.15,1.15,0,0,0,.33-.09l.21-.11.44-.21.88-.42.61-.31a1.44,1.44,0,0,0-.13.4,1,1,0,0,0,.37.93,4.31,4.31,0,0,0,1.88.49,15,15,0,0,0,1.9,0,2,2,0,0,0,.55-.11,1.77,1.77,0,0,0,.24.5,1.16,1.16,0,0,0,.81.39,2.78,2.78,0,0,0,1.57-.63,10.72,10.72,0,0,0,1.22-1,10.45,10.45,0,0,0,.9-1,1.84,1.84,0,0,0,.06.47,1.51,1.51,0,0,0,.37.81,1.83,1.83,0,0,1-.15-.83,8,8,0,0,1,.09-.84,12.83,12.83,0,0,1,.41-1.65l0-.17Z" style="fill:#f28f8f"></path><path d="M128.66,170.91a4.82,4.82,0,0,0-3.19-.74,12.22,12.22,0,0,0-3.64,1c-1.91.86-4.9,2.23-5.21,4.58,0,0,0,.13.07.09a13.39,13.39,0,0,1,2.36-2.09,23,23,0,0,1,2.92-1.5,13.42,13.42,0,0,1,3.19-1c.46-.07.92-.1,1.39-.14s.67-.07,1-.08a10.46,10.46,0,0,0,1.11.06C128.78,171.11,128.71,171,128.66,170.91Z" style="fill:#f28f8f"></path><path d="M111.31,178.71a5.15,5.15,0,0,0,2,.77c.23,0-.08-.25-.18-.29a6,6,0,0,1-.86-.47,3.65,3.65,0,0,1-.71-.59,8.65,8.65,0,0,1-1.28-1.55,2.69,2.69,0,0,1-.16-.29c-.06.41-.13.81-.21,1.22A5,5,0,0,0,111.31,178.71Z" style="fill:#f28f8f"></path><path d="M147.15,179.21c-4.16.38-7.37,1.35-13.58,5.42-6,4-12.81,8.73-12.81,8.73a24.33,24.33,0,0,1,3.92,10.76c.7,6.37-1.55,12.4-3.46,13.94l15.71-8c4.08-2.1,7.14-3.24,8-1.45,1.19.69,3.66-.65,5.41-5.55S154.11,183.74,147.15,179.21Z" style="fill:#C6A1FD"></path></g><path d="M121.42,307.82c8.35-4.94,17.39-10.13,22-12.73,3.59-2,5.66-4.65,7.67-8.7,4.3-8.7,9.17-37.4,17.65-47.8s35.78-20.77,42.71-22.26c4.85-1,10.31,1,10.31,1a69.38,69.38,0,0,1,14-1.66c5.93,0,10.37,1.46,18.12,17.67,7.86,16.42,15.7,34.74,19.85,38.35s16.37,9.14,18.74,13.26S319,313.28,319,313.28l-94.22,54.39Z" style="fill:#C6A1FD"></path><path d="M162.84,285.17c6.26-22,9.32-37.15,22.47-47.49s27.83-15.56,32.21-15.45l.41,2.87a82.66,82.66,0,0,0-24.11,10.81C182.27,243.46,177,247.18,162.84,285.17Z" style="opacity:0.2"></path><path d="M213,230.53c10.87-5.85,21-9.15,25.16-4,.1.13.2.25.29.38,3.44,4.83,5.14,10.51,6.59,16.18,1.11,4.3,12.91,41.5,13.46,46.25.26,2.22,0,4.2-2.08,2.21s-3.7-4.95-5.11-7.55c-4.46-8.21-16.72-35.51-22.5-42.62S220.9,231.36,213,230.53Z" style="opacity:0.1"></path><path d="M246.82,313.28c-1.63-6.14-4.5-7.8-11.23-14.31s-14.09-45.27-24.77-53.25-29.52-2.56-25.54-5.87L181,229.14c-5.12,3-9.6,6.21-12.24,9.45-8.48,10.4-13.35,39.1-17.65,47.8-2,4.05-4.08,6.7-7.67,8.7-4.66,2.6-13.7,7.79-22,12.73l103.35,59.85Z" style="opacity:0.1"></path><path d="M132.63,314.31c15.79-8.83,23.86-16.31,26.05-19.22-5.22,10.27-23.78,20.53-23.78,20.53Z" style="opacity:0.2"></path><path d="M243.11,217.6c5,5.27,10.1,17.86,16.89,33.32s7.95,20.6,14.78,24.34,15.45,7.79,17.08,14.63,8.41,8.16,8.41,8.16-4.51-1.4-5.41-5-.48-6.65-4.73-11.17c-4.47-4.72-14.87-8.59-17.29-11.86-2.8-3.79-11.07-20.34-15.81-30.19S248.41,220.65,243.11,217.6Z" style="fill:#fff;opacity:0.2"></path><path d="M201.81,233.35c8-3.82,18.45-4.41,24.23,2S251.32,284,251.32,284s-13-24.77-18.93-34.28-8.07-14.35-13.27-16.33C212.85,231,207.24,231.73,201.81,233.35Z" style="fill:#C6A1FD"></path><path d="M201.81,233.35c8-3.82,18.45-4.41,24.23,2S251.32,284,251.32,284s-13-24.77-18.93-34.28-8.07-14.35-13.27-16.33C212.85,231,207.24,231.73,201.81,233.35Z" style="fill:#fff;opacity:0.2"></path></g></g></svg>
